<?xml version="1.0" encoding="utf-8"?>
<!-- Generator: Adobe Illustrator 16.0.0, SVG Export Plug-In . SVG Version: 6.00 Build 0)  -->
<!DOCTYPE svg PUBLIC "-//W3C//DTD SVG 1.1//EN" "http://www.w3.org/Graphics/SVG/1.1/DTD/svg11.dtd">
<svg version="1.1" id="Layer_1" xmlns="http://www.w3.org/2000/svg" xmlns:xlink="http://www.w3.org/1999/xlink" x="0px" y="0px"
	 width="225px" height="225px" viewBox="0 0 225 225" enable-background="new 0 0 225 225" xml:space="preserve">
<g>
	<path fill="#000000" d="M97.923,68.494c0,7.716-6.248,13.957-13.961,13.957c-7.709,0-13.959-6.241-13.959-13.957
		c0-7.707,6.25-13.96,13.959-13.96C91.675,54.533,97.923,60.787,97.923,68.494z"/>
</g>
<g>
	<path fill="#000000" d="M154.794,68.494c0,7.716-6.25,13.957-13.963,13.957c-7.71,0-13.96-6.241-13.96-13.957
		c0-7.707,6.25-13.96,13.96-13.96C148.544,54.533,154.794,60.787,154.794,68.494z"/>
</g>
<g>
	<path fill="#000000" d="M125.252,118.807H99.748c-0.902,0-1.636,0.733-1.636,1.637v54.652c0,0.901,0.733,1.635,1.636,1.635h25.504
		c0.902,0,1.637-0.732,1.637-1.635v-54.652C126.889,119.54,126.154,118.807,125.252,118.807z"/>
	<path fill="#000000" d="M154.029,88.604h-23.395c0.121,0.864,0.205,1.74,0.205,2.638c0,10.454-8.506,18.958-18.961,18.958
		s-18.961-8.504-18.961-18.958c0-0.897,0.084-1.773,0.206-2.638h-19.61c-2.403,0-4.352,1.949-4.352,4.352v51.949
		c0,2.401,1.948,4.352,4.352,4.352h19.598v-28.813c0-3.658,2.977-6.635,6.636-6.635h25.504c3.658,0,6.637,2.977,6.637,6.635v28.813
		h22.142c2.403,0,4.353-1.948,4.353-4.352V92.956C158.382,90.552,156.434,88.604,154.029,88.604z"/>
</g>
<path fill="#000000" d="M125.841,91.241c0,7.716-6.248,13.958-13.961,13.958c-7.711,0-13.961-6.242-13.961-13.958
	c0-7.707,6.25-13.96,13.961-13.96C119.593,77.281,125.841,83.535,125.841,91.241z"/>
</svg>
