<?xml version="1.0" encoding="utf-8"?>
<!-- Generator: Adobe Illustrator 16.0.0, SVG Export Plug-In . SVG Version: 6.00 Build 0)  -->
<!DOCTYPE svg PUBLIC "-//W3C//DTD SVG 1.1//EN" "http://www.w3.org/Graphics/SVG/1.1/DTD/svg11.dtd">
<svg version="1.1" id="Layer_1" xmlns="http://www.w3.org/2000/svg" xmlns:xlink="http://www.w3.org/1999/xlink" x="0px" y="0px"
	 width="225px" height="225px" viewBox="0 0 225 225" enable-background="new 0 0 225 225" xml:space="preserve">
<g>
	<path fill="#000000" d="M129.811,76.518H45.729c-6.087,0-12.605,4.71-12.605,11.721v50.491c0,6.801,6.126,13.229,12.605,13.229
		h84.082c6.228,0,11.689-6.183,11.689-13.229V88.239C141.5,81.667,136.365,76.518,129.811,76.518z M45.729,81.518h84.082
		c3.242,0,6.689,2.355,6.689,6.721V96H38.123v-7.761C38.123,84.219,42.056,81.518,45.729,81.518z M129.811,146.961H45.729
		c-3.353,0-7.605-3.875-7.605-8.229V111H136.5v27.73C136.5,142.962,133.249,146.961,129.811,146.961z"/>
	<path fill="#000000" d="M178.797,164.219c-0.537,0-1.079-0.173-1.536-0.529c-1.089-0.85-1.282-2.42-0.433-3.508
		c21.577-27.649,19.118-67.231-5.721-92.074c-0.978-0.976-0.978-2.559,0-3.536c0.977-0.977,2.559-0.977,3.535,0
		c26.621,26.623,29.254,69.048,6.127,98.684C180.275,163.889,179.541,164.219,178.797,164.219z"/>
	<path fill="#000000" d="M166.396,149.088c-0.537,0-1.08-0.173-1.537-0.529c-1.088-0.849-1.281-2.42-0.433-3.509
		c14.604-18.717,12.938-45.51-3.875-62.324c-0.977-0.976-0.977-2.559,0-3.535c0.978-0.977,2.56-0.977,3.535,0
		c18.597,18.595,20.437,48.231,4.281,68.935C167.877,148.758,167.141,149.088,166.396,149.088z"/>
	<path fill="#000000" d="M156.338,132.646c-0.538,0-1.08-0.174-1.536-0.529c-1.089-0.85-1.282-2.421-0.433-3.51
		c6.781-8.686,6.007-21.122-1.801-28.928c-0.978-0.977-0.978-2.559,0-3.536c0.975-0.977,2.559-0.976,3.535,0
		c9.59,9.589,10.539,24.868,2.207,35.54C157.816,132.316,157.081,132.646,156.338,132.646z"/>
</g>
</svg>
