<?xml version="1.0" encoding="utf-8"?>
<!-- Generator: Adobe Illustrator 16.0.0, SVG Export Plug-In . SVG Version: 6.00 Build 0)  -->
<!DOCTYPE svg PUBLIC "-//W3C//DTD SVG 1.1//EN" "http://www.w3.org/Graphics/SVG/1.1/DTD/svg11.dtd">
<svg version="1.1" id="Layer_1" xmlns="http://www.w3.org/2000/svg" xmlns:xlink="http://www.w3.org/1999/xlink" x="0px" y="0px"
	 width="225.07px" height="225.07px" viewBox="0 0 225.07 225.07" enable-background="new 0 0 225.07 225.07" xml:space="preserve">
<g>
	<g>
		<path d="M118.074,88.255c0.072-0.018,0.144-0.034,0.214-0.059C118.218,88.221,118.146,88.237,118.074,88.255z"/>
		<path d="M118.531,88.093c0.062-0.029,0.123-0.056,0.184-0.09C118.655,88.037,118.593,88.064,118.531,88.093z"/>
		<path d="M117.604,88.324c0.076-0.004,0.152-0.006,0.228-0.017C117.756,88.318,117.68,88.32,117.604,88.324z"/>
		<path d="M116.519,88.139c0.124,0.051,0.249,0.097,0.379,0.127C116.77,88.235,116.644,88.19,116.519,88.139z"/>
		<path d="M116.012,87.862c0.136,0.099,0.28,0.182,0.431,0.25C116.288,88.042,116.144,87.958,116.012,87.862z"/>
		<path d="M119.104,87.729c-0.045,0.039-0.094,0.072-0.141,0.106c0.034-0.025,0.072-0.043,0.105-0.071
			C119.082,87.753,119.091,87.739,119.104,87.729z"/>
		<path d="M117.361,88.33c-0.086-0.004-0.172-0.019-0.258-0.032C117.189,88.312,117.275,88.326,117.361,88.33z"/>
		<path d="M119.336,87.494c0.038-0.043,0.079-0.084,0.114-0.13C119.415,87.41,119.374,87.451,119.336,87.494z"/>
		<path d="M119.61,87.121c0.036-0.061,0.074-0.119,0.104-0.182C119.684,87.003,119.646,87.061,119.61,87.121z"/>
		<g>
			<path fill="none" d="M207.016,109.254c-2.179-1.958-2.375-4.182-2.531-5.969l-0.049-0.527c-0.318-3.258-0.746-4.708-2.569-5.253
				c-0.114-0.032-0.462-0.048-0.691-0.059c-0.93-0.044-2.485-0.117-3.59-1.376c-0.747-0.852-1.063-2.002-0.944-3.421
				c0.024-0.3-0.018-0.714-0.062-1.153c-0.149-1.467-0.374-3.683,1.545-5.68c0.763-0.794,1.109-1.479,1.121-2.217
				c0.097-5.82-0.518-10.638-3.459-14.574c-0.266,0.042-0.561,0.111-0.859,0.181c-1.105,0.259-2.535,0.594-3.729,0.001
				c-3.131,3.196-6.028,3.588-7.914,3.354c-1.809-0.226-4.396-1.25-6.46-4.838c-0.001,0-0.001-0.001-0.003-0.002
				c-0.084-0.002-0.181-0.003-0.262-0.004l-0.35-0.006c-7.729-0.193-14.326-3.374-20.705-6.45c-0.888-0.428-1.773-0.854-2.664-1.275
				c-3.536-1.667-5.098-5.084-4.396-9.625c0.302-1.951,1-3.75,1.675-5.49c0.137-0.351,0.272-0.704,0.407-1.059
				c-0.582-0.755-1.562-1.625-2.922-1.471c-6.065,0.683-10.935-1.005-14.521-5.026c-0.804,1.495-0.01,2.482,2.188,4.873
				c0.886,0.964,0.877,2.449-0.02,3.403c-2.364,2.518-2.04,4.571,0.136,9.462c2.396,5.389,2.093,11.073,1.798,16.569
				c-0.061,1.112-0.119,2.22-0.154,3.319c-0.104,3.149-0.506,6.28-0.896,9.309c-0.137,1.062-0.272,2.124-0.396,3.186
				c-0.021,0.187-0.021,0.372-0.021,0.558c-0.007,0.725-0.017,1.717-0.544,2.863c-1.084,2.359-1.216,4.234,1.237,6.369
				c1.043-0.678,2.221-1.426,3.583-1.861c2.12-0.68,7.051-2.259,9.205,3.143c0.2,0.506,0.512,0.705,2.075,1.327
				c5.64,2.244,11.711,3.466,18.045,3.632c4.634,0.122,7.339,1.782,9.339,5.729c1.053,2.078,1.495,2.543,1.665,2.635
				c0.484,0.115,2.595-0.669,3.855-1.137c3.106-1.153,6.206-0.69,8.293,1.236c2.042,1.884,2.706,4.757,1.823,7.88
				c-0.817,2.902-0.254,4.201,2.627,6.043c0.933,0.597,1.713,1.279,2.468,1.939c0.576,0.504,1.112,0.973,1.654,1.346
				c-0.346-0.783-0.65-1.6-0.818-2.483l-0.051-0.249c-0.183-0.891-0.521-2.551,0.514-4.016c0.698-0.988,1.812-1.596,3.311-1.805
				c2.057-0.288,3.71-0.934,3.105-5.926c-0.131-1.076-0.006-2.104,0.104-3.01C207.409,110.004,207.375,109.579,207.016,109.254z"/>
			<path fill="#000000" d="M212.304,110.103c-0.078-0.916-2.298-4.869-2.298-4.869c-0.323-0.488-0.441-1.234-0.543-2.387
				l-0.053-0.576c-0.272-2.781-0.779-7.958-6.111-9.555c-0.591-0.177-1.165-0.226-1.652-0.252c0-0.53-0.05-1.024-0.096-1.474
				c-0.128-1.252-0.081-1.442,0.178-1.71c1.635-1.703,2.48-3.586,2.515-5.597c0.121-7.323-0.691-14.916-7.4-20.839
				c-0.776-0.686-1.686-1.734-1.61-2.833c0.045-0.633,0.408-1.308,1.044-1.978c-0.915-1.415-1.87-2.808-2.86-4.18
				c-2.386,2.108-3.062,4.262-3.17,5.809c-0.074,1.06,0.077,2.448,0.877,3.959c-0.1-0.004-0.198-0.02-0.298-0.015
				c-1.626,0.067-2.54,1.258-2.979,1.83c-0.063,0.083-0.124,0.168-0.188,0.238c-1.339,1.377-2.681,2.061-3.754,1.925
				c-1.233-0.155-2.175-1.373-2.747-2.369c-1.428-2.482-3.457-2.503-4.549-2.514l-0.272-0.004
				c-6.653-0.167-12.485-2.979-18.659-5.956c-0.9-0.434-1.801-0.868-2.703-1.293c-0.576-0.272-2.104-0.992-1.588-4.34
				c0.219-1.412,0.79-2.885,1.396-4.444c0.301-0.774,0.604-1.557,0.876-2.355c0.222-0.646,0.168-1.354-0.146-1.96
				c-1.798-3.466-5.043-5.374-8.466-4.991c-5.353,0.605-9.081-1.119-11.733-5.426c-0.405-0.657-1.092-1.091-1.859-1.174
				c-0.78-0.083-1.532,0.194-2.068,0.749c-4.367,4.525-4.773,7.845-1.18,12.427c-3.098,4.785-0.979,9.551,0.617,13.137
				c1.908,4.29,1.646,9.138,1.371,14.27c-0.061,1.147-0.121,2.291-0.158,3.425c-0.094,2.911-0.463,5.787-0.855,8.833
				c-0.138,1.082-0.277,2.164-0.404,3.248c-0.041,0.365-0.051,0.724-0.053,1.083c-0.003,0.244-0.008,0.411-0.021,0.54
				c-0.968-0.775-2.061-1.542-3.413-1.889c-1.085-0.281-1.491-0.386-1.126-2.2c0.136-0.671-0.009-1.369-0.404-1.93
				c-0.394-0.561-1-0.936-1.678-1.037l-0.17-0.024c-2.239-0.334-5.13-0.756-7.229,1.249c-1.619-0.322-3.396,0.041-4.808,0.368
				c-1.429-2.76-3.012-4.693-5.4-5.367c-2.999-0.849-6.323,0.594-11.092,3.678c-1.498-2.186-2.403-4.768-3.349-7.469
				c-0.617-1.764-1.255-3.587-2.083-5.35c-2.537-5.404-4.984-8.036-11.313-7.436c-1.553,0.148-3.12,0.062-4.779-0.029
				c-1.546-0.085-3.144-0.174-4.791-0.066c-0.306,0.02-0.605,0.096-0.883,0.223c-2.27,1.043-2.401,3.109-2.421,4.116
				c-0.696,0.002-1.39,0.023-2.07,0.043c-3.644,0.107-6.789,0.201-9.479-2.108c-1.724-1.479-3.446-1.432-4.588-1.404
				c-0.182,0.004-0.365,0.009-0.548,0.006c-2.809-0.06-5.566,0.229-8.23,0.51c-2.187,0.231-4.253,0.448-6.348,0.488
				c-7.901,0.149-11.583,6.261-13.907,11.569c-0.35,0.8-0.257,1.725,0.245,2.44c1.558,2.217,3.506,3.24,5.51,3.704
				c-0.074,0.321-0.085,0.657-0.026,0.99c0.046,0.263,0.027,0.588,0.006,0.964c-0.057,0.992-0.143,2.491,0.975,4.035
				c0.374,0.517,0.931,0.871,1.557,0.99l0.157,0.03c1.322,0.251,2.158,0.459,2.683,0.698c-1.195-0.017-2.5-0.229-3.901-0.489
				c-2.42-0.451-5.16-0.959-8.027-0.122c-0.753,0.221-1.359,0.782-1.636,1.516c-0.793,2.098-0.832,3.914-0.116,5.396
				c0.444,0.92,1.41,2.156,3.489,2.821c0.948,0.302,1.882,0.468,2.786,0.628c2.43,0.43,3.405,0.716,4.011,2.029
				c0.715,1.551,0.703,3.462,0.688,5.675c-0.005,0.881-0.011,1.788,0.025,2.724c0.027,0.72,0.363,1.393,0.923,1.847
				c0.559,0.454,1.286,0.646,1.998,0.522c0.647-0.111,1.405-0.082,2.206-0.05c1.874,0.07,4.705,0.182,6.601-2.229
				c1.447,1.196,2.089,2.347,2.128,3.693c0.089,3.109,2.405,5.07,4.54,5.339c2.379,0.299,4.42,1.665,6.582,3.112
				c1.822,1.219,3.705,2.479,5.972,3.271c0.605,0.212,1.983,1.856,2.354,3.642c1.052,5.056,5.275,5.096,6.862,5.11
				c0.71,0.009,1.415-0.016,2.106-0.047c-0.76,0.835-1.243,2.056-1.053,3.889c0.283,2.718,2.067,4.095,5.225,3.997l0.339-0.005
				c2.018,0.011,3.699,0.104,5.195,0.49c-0.196,0.244-0.394,0.492-0.589,0.743c-1.386,1.771-1.881,3.955-1.396,6.148
				c0.525,2.373,2.127,4.399,4.395,5.555c0.843,0.433,1.687,0.75,2.503,1.06c0.126,0.048,0.249,0.094,0.369,0.14
				c-0.449,0.245-0.876,0.584-1.241,1.063c-0.74,0.969-0.991,2.235-0.746,3.763c0.777,4.85,4.741,4.799,6.437,4.772
				c0.173-0.003,0.365-0.005,0.554-0.005c0.042,2.086-0.68,3.148-2.544,4.102c-1.553,0.793-3.694,2.121-4.354,4.48
				c-0.665,2.382,0.488,4.691,1.567,6.438l0.372,0.602c1.968,3.175,3.827,6.174,4.578,9.59c1.025,4.658,3.975,7.847,6.431,10.104
				c0.387,0.356,0.8,0.691,1.216,1.026c1.368,1.102,1.935,1.646,2.033,2.617c0.295,2.93,3.152,3.699,4.373,4.027
				c3.296,0.887,7.682,3.229,7.838,3.001c1.11,0.36,2.315,0.33,3.544-0.429c4.661-2.878,8.069-2.84,8.069-2.84
				s1.064,1.97,2.659,3.128c0.408,0.296,0.859,0.56,1.32,0.787c2.775-0.45,5.523-1.012,8.236-1.691
				c0.963-0.24,1.92-0.499,2.873-0.769c-0.118-0.65-0.475-1.236-1.027-1.617c-0.82-0.564-1.268-1.05-0.193-3.795
				c1.67-4.277,1.065-8.258,0.482-12.107l-0.159-1.059c-0.264-1.805-0.887-3.44-1.489-5.021c-0.769-2.013-1.455-3.813-1.34-5.728
				c0.748-0.045,1.182-0.044,1.517,0.147c2.431,1.404,6.021,1.469,7.583-0.871c0.342-0.513,0.338-0.514,1.578-0.312
				c0.34,0.054,0.686,0.109,1.039,0.146c4.031,0.438,7.789,1.519,10.931,2.519c2.638,0.839,5.871,0.371,7.329-0.839
				s5.124-5.876,7.221-12.998c0.318-1.082,0.525-2.13,0.831-3.15c1.831-6.107,2.216-6.376,8.337-5.68
				c5.438,0.614,10.589-0.832,14.52-4.077c3.957-3.268,6.369-8.085,6.791-13.563c0.041-0.532,0.065-1.079,0.089-1.633
				c0.136-3.252,0.388-4.778,2.23-5.758c1.148-0.609,1.638-1.998,1.125-3.193c-0.249-0.579-0.51-1.125-0.762-1.647
				c-0.458-0.952-0.853-1.772-0.989-2.489l-0.049-0.246c2.892-0.497,5.958-2.078,6.861-6.354c0.094-1.384,0.157-2.773,0.195-4.168
				C212.121,114.659,212.382,111.018,212.304,110.103z M144.09,156.49l-1.238,1.818l-1.239-1.818
				c-0.504-0.738-7.714-11.42-11.953-22.833c-0.539-1.452-1.022-2.915-1.445-4.372c-0.908-0.611-2.11-0.961-3.728-0.658
				l-0.211,0.039c-2.406,0.449-5.135,0.959-7.584,3.003c-0.529,0.442-1.076,0.899-2.508-0.29c-2.538-2.113-5.616-2.816-8.445-1.932
				c-2.911,0.908-5.108,3.318-6.027,6.613c-0.74,2.652-0.917,3.282-5.307,2.965c-1.754-0.127-3.552-0.437-5.634-0.795
				c-0.869-0.148-1.8-0.307-2.778-0.462c-0.058-0.04-0.107-0.087-0.169-0.122c-2.891-1.681-5.938-2.03-8.697-2.088
				c1.591-0.323,3.894-1.146,4.669-4.18c0.317-1.242-0.357-2.525-1.562-2.967c-2.884-1.057-5.778-0.91-8.33-0.781
				c-0.93,0.047-1.802,0.096-2.67,0.083c-1.784-0.017-1.814-0.165-2.015-1.13c-0.586-2.814-2.746-6.343-5.599-7.342
				c-1.666-0.582-3.208-1.614-4.84-2.706c-2.415-1.618-5.149-3.448-8.666-3.91c-0.228-0.1-0.236-0.422-0.239-0.531
				c-0.139-4.823-3.723-7.554-6.829-9.394c-0.674-0.399-1.494-0.46-2.217-0.165c-0.724,0.295-1.269,0.912-1.472,1.667
				c-0.45,1.675-0.69,1.663-3.014,1.575c-0.114-0.005-0.229-0.009-0.347-0.013v-0.001c0.017-2.575,0.034-5.239-1.148-7.802
				c-1.758-3.811-5.18-4.417-7.68-4.859c-0.775-0.137-1.507-0.266-2.134-0.467c-0.371-0.119-0.499-0.23-0.508-0.23
				c-0.004-0.013-0.016-0.066-0.016-0.171c1.343-0.093,2.777,0.173,4.377,0.47c2.739,0.509,5.844,1.087,9.104-0.246
				c0.9-0.367,1.506-1.224,1.551-2.196c0.142-3.008-1.033-4.769-2.59-5.844c2.02-0.04,4.156-0.617,6.221-2.534
				c0.548-0.509,0.84-1.237,0.794-1.985s-0.424-1.436-1.031-1.874c-3.057-2.207-6.434-2.147-9.415-2.1
				c-2.692,0.046-4.399,0.018-5.669-0.954c2.433-4.96,5.034-7.045,8.746-7.115c2.311-0.044,4.581-0.283,6.777-0.515
				c2.625-0.276,5.105-0.536,7.599-0.483c0.263,0.006,0.525,0,0.785-0.007c0.887-0.021,0.973,0.004,1.202,0.201
				c4.159,3.569,8.792,3.432,12.882,3.312c1.223-0.037,2.38-0.071,3.461-0.003c0.691,0.047,1.373-0.204,1.877-0.682
				c1.342-1.273,1.535-2.761,1.572-3.744c0.918,0.002,1.857,0.054,2.832,0.107c1.77,0.098,3.601,0.199,5.527,0.015
				c3.464-0.332,4.289,0.27,6.313,4.583c0.719,1.532,1.288,3.157,1.891,4.877c1.314,3.75,2.672,7.629,5.737,10.874
				c0.841,0.892,2.204,1.041,3.22,0.353c2.111-1.43,7.053-4.786,8.844-4.276c1.102,0.312,2.278,2.667,3.068,4.413
				c0.431,0.952,1.406,1.533,2.452,1.464c0.626-0.044,1.292-0.2,2.063-0.38c0.72-0.169,2.363-0.558,2.957-0.414
				c0.094,0.1,0.196,0.184,0.302,0.265c0.019,0.015,0.034,0.033,0.054,0.047c0.132,0.096,0.276,0.179,0.431,0.25
				c0.002,0.001,0.004,0.002,0.006,0.003c0.022,0.01,0.047,0.014,0.07,0.023c0.125,0.052,0.251,0.097,0.379,0.127
				c0.068,0.017,0.138,0.022,0.206,0.033c0.086,0.013,0.172,0.028,0.258,0.032c0.082,0.004,0.162-0.002,0.242-0.006
				c0.076-0.004,0.152-0.006,0.228-0.017c0.083-0.012,0.163-0.033,0.243-0.052c0.072-0.018,0.144-0.034,0.214-0.059
				c0.083-0.028,0.163-0.065,0.243-0.103c0.062-0.029,0.124-0.056,0.184-0.09c0.087-0.049,0.167-0.107,0.248-0.168
				c0.047-0.035,0.096-0.068,0.141-0.106c0.083-0.071,0.158-0.152,0.232-0.234c0.038-0.043,0.079-0.084,0.114-0.13
				c0.06-0.076,0.109-0.16,0.16-0.244c0.036-0.06,0.073-0.118,0.104-0.182c0.013-0.025,0.03-0.046,0.042-0.072
				c0.243-0.537,0.347-0.788,1.323-0.756c0.326,3.539,3.102,4.848,4.961,5.328c0.575,0.148,1.354,0.793,2.107,1.417
				c0.418,0.346,0.854,0.7,1.32,1.038c0.087,3.207,1.883,6.033,5.397,8.437c0.796,0.545,1.832,0.583,2.665,0.099
				c0.504-0.292,0.994-0.61,1.484-0.928c0.887-0.577,1.726-1.123,2.523-1.377c2.594-0.832,2.658-0.666,3.018,0.237
				c0.373,0.937-0.438,1.875,0.148,2.43l2.946,2.995c4.722,0.827,8.031,2.979,9.857,6.435
				C164.743,125.904,144.938,155.248,144.09,156.49z M207.105,114.66c0.604,4.992-1.049,5.638-3.105,5.926
				c-1.498,0.209-2.612,0.816-3.311,1.805c-1.034,1.465-0.696,3.125-0.514,4.016l0.051,0.249c0.168,0.884,0.473,1.7,0.818,2.483
				c-0.542-0.373-1.078-0.842-1.654-1.346c-0.755-0.66-1.535-1.343-2.468-1.939c-2.881-1.842-3.444-3.141-2.627-6.043
				c0.883-3.123,0.219-5.996-1.823-7.88c-2.087-1.926-5.187-2.389-8.293-1.236c-1.261,0.468-3.371,1.252-3.855,1.137
				c-0.17-0.092-0.612-0.557-1.665-2.635c-2-3.947-4.705-5.607-9.339-5.729c-6.334-0.166-12.405-1.388-18.045-3.632
				c-1.563-0.622-1.875-0.821-2.075-1.327c-2.154-5.402-7.085-3.823-9.205-3.143c-1.362,0.435-2.54,1.183-3.583,1.861
				c-2.453-2.135-2.321-4.01-1.237-6.369c0.527-1.146,0.537-2.138,0.544-2.863c0.001-0.186,0-0.371,0.021-0.558
				c0.123-1.062,0.259-2.124,0.396-3.186c0.39-3.029,0.792-6.16,0.896-9.309c0.035-1.099,0.094-2.207,0.154-3.319
				c0.295-5.496,0.599-11.18-1.798-16.569c-2.176-4.891-2.5-6.944-0.136-9.462c0.896-0.954,0.905-2.439,0.02-3.403
				c-2.198-2.391-2.992-3.378-2.188-4.873c3.586,4.021,8.455,5.709,14.521,5.026c1.359-0.154,2.34,0.716,2.922,1.471
				c-0.135,0.355-0.271,0.708-0.407,1.059c-0.675,1.74-1.373,3.539-1.675,5.49c-0.701,4.541,0.86,7.958,4.396,9.625
				c0.891,0.42,1.776,0.847,2.664,1.275c6.379,3.076,12.977,6.257,20.705,6.45l0.35,0.006c0.081,0.001,0.178,0.002,0.262,0.004
				c0.002,0.001,0.002,0.002,0.003,0.002c2.063,3.588,4.651,4.612,6.46,4.838c1.886,0.234,4.783-0.158,7.914-3.354
				c1.193,0.593,2.623,0.258,3.729-0.001c0.299-0.069,0.594-0.139,0.859-0.181c2.941,3.936,3.556,8.754,3.459,14.574
				c-0.012,0.738-0.358,1.423-1.121,2.217c-1.919,1.997-1.694,4.213-1.545,5.68c0.045,0.439,0.087,0.853,0.062,1.153
				c-0.119,1.419,0.197,2.569,0.944,3.421c1.104,1.259,2.66,1.332,3.59,1.376c0.229,0.011,0.577,0.027,0.691,0.059
				c1.823,0.545,2.251,1.995,2.569,5.253l0.049,0.527c0.156,1.787,0.353,4.011,2.531,5.969c0.359,0.325,0.394,0.75,0.193,2.396
				C207.1,112.556,206.975,113.584,207.105,114.66z"/>
		</g>
		<path fill="#000000" d="M154.857,113.621c-1.836-3.468-5.875-5.226-12.006-5.226c-6.134,0-10.174,1.758-12.007,5.227
			c-2.592,4.903-1.169,13.521,4.115,24.922c2.856,6.162,6.146,11.601,7.892,14.353c1.75-2.76,5.049-8.217,7.906-14.388
			C156.029,127.125,157.446,118.52,154.857,113.621z M142.852,126.636c-3.08,0-5.576-2.495-5.576-5.575
			c0-3.078,2.496-5.574,5.576-5.574c3.078,0,5.574,2.496,5.574,5.574C148.426,124.141,145.93,126.636,142.852,126.636z"/>
	</g>
</g>
</svg>
