<?xml version="1.0" encoding="utf-8"?>
<!-- Generator: Adobe Illustrator 16.0.0, SVG Export Plug-In . SVG Version: 6.00 Build 0)  -->
<!DOCTYPE svg PUBLIC "-//W3C//DTD SVG 1.1//EN" "http://www.w3.org/Graphics/SVG/1.1/DTD/svg11.dtd">
<svg version="1.1" id="Layer_1" xmlns="http://www.w3.org/2000/svg" xmlns:xlink="http://www.w3.org/1999/xlink" x="0px" y="0px"
	 width="225px" height="225px" viewBox="0 0 225 225" enable-background="new 0 0 225 225" xml:space="preserve">
<path fill="#000000" d="M142,121.592c0,2.436-1.975,4.408-4.408,4.408h-0.184c-2.436,0-4.408-1.975-4.408-4.408v-0.184
	c0-2.436,1.975-4.408,4.408-4.408h0.184c2.436,0,4.408,1.975,4.408,4.408V121.592z"/>
<path fill="#000000" d="M122,121.592c0,2.436-1.975,4.408-4.408,4.408h-0.184c-2.436,0-4.408-1.975-4.408-4.408v-0.184
	c0-2.436,1.975-4.408,4.408-4.408h0.184c2.436,0,4.408,1.975,4.408,4.408V121.592z"/>
<path fill="#000000" d="M161.404,121.564c0,2.444-1.982,4.426-4.426,4.426l0,0c-2.444,0-4.429-1.98-4.429-4.426l0,0
	c0-2.445,1.983-4.429,4.429-4.429l0,0C159.422,117.137,161.404,119.119,161.404,121.564L161.404,121.564z"/>
<path fill="#000000" d="M103,121.592c0,2.436-1.974,4.408-4.408,4.408h-0.184c-2.435,0-4.408-1.975-4.408-4.408v-0.184
	c0-2.436,1.974-4.408,4.408-4.408h0.184c2.435,0,4.408,1.975,4.408,4.408V121.592z"/>
<path fill="#000000" d="M142,157.592c0,2.436-1.975,4.408-4.408,4.408h-0.184c-2.436,0-4.408-1.975-4.408-4.408v-0.184
	c0-2.436,1.975-4.408,4.408-4.408h0.184c2.436,0,4.408,1.975,4.408,4.408V157.592z"/>
<path fill="#000000" d="M122,157.592c0,2.436-1.975,4.408-4.408,4.408h-0.184c-2.436,0-4.408-1.975-4.408-4.408v-0.184
	c0-2.436,1.975-4.408,4.408-4.408h0.184c2.436,0,4.408,1.975,4.408,4.408V157.592z"/>
<path fill="#000000" d="M103,157.592c0,2.436-1.974,4.408-4.408,4.408h-0.184c-2.435,0-4.408-1.975-4.408-4.408v-0.184
	c0-2.436,1.974-4.408,4.408-4.408h0.184c2.435,0,4.408,1.975,4.408,4.408V157.592z"/>
<path fill="#000000" d="M161.404,157.615c0,2.445-1.982,4.428-4.426,4.428l0,0c-2.444,0-4.429-1.982-4.429-4.428l0,0
	c0-2.445,1.983-4.426,4.429-4.426l0,0C159.422,153.189,161.404,155.17,161.404,157.615L161.404,157.615z"/>
<path fill="#000000" d="M165.839,142.375h-44.802v-4.5h44.802c10.474,0,18.371-6.879,18.371-16c0-9.122-7.897-16-18.371-16h-44.802
	v-3.94c0-2.343-1.9-4.243-4.243-4.243H106.5V77.566c0-13.806-10.542-25.037-23.5-25.037S59.5,63.827,59.5,77.713v19.979H49.205
	c-2.344,0-4.243,1.9-4.243,4.243v55.696c0,2.344,1.899,4.244,4.243,4.244h18.136c1.936,6.848,8.819,11.5,17.802,11.5h80.696
	c10.646,0,18.371-6.52,18.371-15.5S176.482,142.375,165.839,142.375z M121.037,110.875h44.802c7.623,0,13.371,4.729,13.371,11
	s-5.748,11-13.371,11h-44.802H85.143c-7.621,0-13.368-4.729-13.368-11s5.747-11,13.368-11H121.037z M64.5,97.692V77.713
	c0-11.129,8.299-20.184,18.5-20.184c10.374,0,18.5,8.801,18.5,20.037v20.125L64.5,97.692L64.5,97.692z M165.839,168.375H85.143
	c-5.207,0-10.449-2.227-12.479-6.504c-0.133-0.279-0.251-0.569-0.356-0.866c-0.015-0.042-0.028-0.085-0.042-0.127
	c-0.09-0.266-0.169-0.537-0.235-0.815c-0.03-0.129-0.051-0.263-0.075-0.395c-0.041-0.213-0.083-0.424-0.109-0.645
	c-0.043-0.373-0.071-0.754-0.071-1.148c0-6.895,6.725-10.5,13.368-10.5h35.895h44.802c6.646,0,13.371,3.605,13.371,10.5
	S172.482,168.375,165.839,168.375z"/>
</svg>
