<?xml version="1.0" encoding="utf-8"?>
<!-- Generator: Adobe Illustrator 16.0.0, SVG Export Plug-In . SVG Version: 6.00 Build 0)  -->
<!DOCTYPE svg PUBLIC "-//W3C//DTD SVG 1.1//EN" "http://www.w3.org/Graphics/SVG/1.1/DTD/svg11.dtd">
<svg version="1.1" id="Layer_1" xmlns="http://www.w3.org/2000/svg" xmlns:xlink="http://www.w3.org/1999/xlink" x="0px" y="0px"
	 width="225px" height="225px" viewBox="0 0 225 225" enable-background="new 0 0 225 225" xml:space="preserve">
<g>
	<g>
		<path fill="#000000" d="M117.37,183.727c-0.418,0-0.838-0.058-1.248-0.177l-39.091-11.283c-1.926-0.556-3.252-2.318-3.252-4.323
			V61.757c0-2.005,1.327-3.769,3.254-4.324l39.09-11.263c1.36-0.391,2.822-0.121,3.952,0.729c1.13,0.85,1.794,2.182,1.794,3.596
			v128.732c0,1.414-0.665,2.746-1.795,3.597C119.286,183.416,118.335,183.727,117.37,183.727z M82.779,164.559l30.091,8.686V56.474
			l-30.091,8.67V164.559z"/>
	</g>
	<path fill="#000000" d="M98.455,124.885c0,3.307,1.936,6.004,4.297,6.004c2.375,0,4.297-2.697,4.297-6.004
		c0-3.303-1.922-6.006-4.297-6.006C100.391,118.879,98.455,121.582,98.455,124.885z"/>
	<g>
		<path fill="#000000" d="M147.775,173.021h-15.303c-2.485,0-4.5-2.015-4.5-4.5s2.015-4.5,4.5-4.5h10.803V66.568h-10.803
			c-2.485,0-4.5-2.015-4.5-4.5s2.015-4.5,4.5-4.5h15.303c2.485,0,4.5,2.015,4.5,4.5v106.454
			C152.275,171.007,150.261,173.021,147.775,173.021z"/>
	</g>
</g>
</svg>
