<?xml version="1.0" encoding="utf-8"?>
<!-- Generator: Adobe Illustrator 16.0.0, SVG Export Plug-In . SVG Version: 6.00 Build 0)  -->
<!DOCTYPE svg PUBLIC "-//W3C//DTD SVG 1.1//EN" "http://www.w3.org/Graphics/SVG/1.1/DTD/svg11.dtd">
<svg version="1.1" id="Layer_1" xmlns="http://www.w3.org/2000/svg" xmlns:xlink="http://www.w3.org/1999/xlink" x="0px" y="0px"
	 width="225px" height="225px" viewBox="0 0 225 225" enable-background="new 0 0 225 225" xml:space="preserve">
<path fill="#000000" d="M116.771,181.727c-0.232,0-0.468-0.033-0.693-0.098l-39.091-11.283c-1.07-0.311-1.807-1.289-1.807-2.402
	V61.757c0-1.114,0.737-2.094,1.808-2.402l39.09-11.264c0.756-0.218,1.568-0.067,2.195,0.405c0.629,0.472,0.998,1.212,0.998,1.998
	v128.732c0,0.785-0.369,1.525-0.998,1.998C117.836,181.553,117.307,181.727,116.771,181.727z M80.18,166.062l34.091,9.84V53.815
	L80.18,63.638V166.062z"/>
<path fill="#000000" d="M100.856,124.885c0,3.307,1.936,6.004,4.298,6.004c2.374,0,4.296-2.697,4.296-6.004
	c0-3.303-1.922-6.006-4.296-6.006C102.792,118.879,100.856,121.582,100.856,124.885z"/>
<path fill="#000000" d="M147.176,171.021h-21.414c-1.381,0-2.5-1.119-2.5-2.5s1.119-2.5,2.5-2.5h18.914V64.567h-18.914
	c-1.381,0-2.5-1.119-2.5-2.5c0-1.381,1.119-2.5,2.5-2.5h21.414c1.381,0,2.5,1.119,2.5,2.5v106.455
	C149.676,169.902,148.557,171.021,147.176,171.021z"/>
</svg>
