<?xml version="1.0" encoding="utf-8"?>
<!-- Generator: Adobe Illustrator 16.0.0, SVG Export Plug-In . SVG Version: 6.00 Build 0)  -->
<!DOCTYPE svg PUBLIC "-//W3C//DTD SVG 1.1//EN" "http://www.w3.org/Graphics/SVG/1.1/DTD/svg11.dtd">
<svg version="1.1" id="Layer_1" xmlns="http://www.w3.org/2000/svg" xmlns:xlink="http://www.w3.org/1999/xlink" x="0px" y="0px"
	 width="225px" height="225px" viewBox="0 0 225 225" enable-background="new 0 0 225 225" xml:space="preserve">
<path fill="#000000" d="M116.091,180.977c-0.162,0-0.325-0.022-0.485-0.068l-39.09-11.282c-0.749-0.217-1.265-0.901-1.265-1.683
	V61.757c0-0.78,0.516-1.466,1.266-1.682l39.091-11.264c0.526-0.151,1.097-0.047,1.537,0.283c0.438,0.331,0.696,0.849,0.696,1.398
	v128.732c0,0.549-0.259,1.067-0.698,1.397C116.836,180.854,116.466,180.977,116.091,180.977z M78.75,166.627l35.591,10.271V52.818
	L78.75,63.074V166.627z"/>
<path fill="#000000" d="M101.176,124.884c0,3.308,1.937,6.004,4.298,6.004c2.373,0,4.297-2.696,4.297-6.004
	c0-3.302-1.924-6.006-4.297-6.006C103.111,118.878,101.176,121.582,101.176,124.884z"/>
<path fill="#000000" d="M146.496,170.271h-21.415c-0.967,0-1.75-0.783-1.75-1.75c0-0.968,0.783-1.75,1.75-1.75h19.665V63.817
	h-19.665c-0.967,0-1.75-0.784-1.75-1.75c0-0.966,0.783-1.75,1.75-1.75h21.415c0.967,0,1.75,0.784,1.75,1.75V168.52
	C148.246,169.487,147.463,170.271,146.496,170.271z"/>
</svg>
