<?xml version="1.0" encoding="utf-8"?>
<!-- Generator: Adobe Illustrator 15.1.0, SVG Export Plug-In . SVG Version: 6.00 Build 0)  -->
<!DOCTYPE svg PUBLIC "-//W3C//DTD SVG 1.1//EN" "http://www.w3.org/Graphics/SVG/1.1/DTD/svg11.dtd">
<svg version="1.1" id="Layer_1" xmlns="http://www.w3.org/2000/svg" xmlns:xlink="http://www.w3.org/1999/xlink" x="0px" y="0px"
	 width="225px" height="225px" viewBox="0 0 225 225" enable-background="new 0 0 225 225" xml:space="preserve">
<g>
	<path fill="#000000" d="M420.133,147.252v-68.47c0-2.373,1.854-4.302,4.131-4.302h8.926c2.276,0,4.131,1.929,4.131,4.302v68.47
		c0,2.373-1.854,4.303-4.131,4.303h-8.926C421.986,151.555,420.133,149.625,420.133,147.252z M434.661,78.782
		c0-0.906-0.662-1.644-1.473-1.644h-8.926c-0.812,0-1.474,0.737-1.474,1.644v68.47c0,0.907,0.661,1.645,1.474,1.645h8.926
		c0.811,0,1.473-0.736,1.473-1.645V78.782z"/>
</g>
<g>
	<circle fill="#000000" cx="428.726" cy="141.847" r="2.925"/>
</g>
<g>
	<path fill="#000000" d="M423.942,82.188c0-0.733,0.595-1.329,1.329-1.329h6.908c0.733,0,1.329,0.596,1.329,1.329
		c0,0.734-0.596,1.329-1.329,1.329h-6.908C424.537,83.517,423.942,82.922,423.942,82.188z"/>
</g>
<g>
	<path fill="#000000" d="M423.942,87.503c0-0.733,0.595-1.328,1.329-1.328h6.908c0.733,0,1.329,0.595,1.329,1.328
		s-0.596,1.329-1.329,1.329h-6.908C424.537,88.832,423.942,88.236,423.942,87.503z"/>
</g>
<g>
	<path fill="#000000" d="M423.942,92.818c0-0.733,0.595-1.329,1.329-1.329h6.908c0.733,0,1.329,0.596,1.329,1.329
		s-0.596,1.329-1.329,1.329h-6.908C424.537,94.147,423.942,93.552,423.942,92.818z"/>
</g>
<g>
	<path fill="#000000" d="M401.85,82.719c0-0.732,0.595-1.329,1.328-1.329h6.911c0.733,0,1.328,0.597,1.328,1.329
		c0,0.734-0.595,1.329-1.328,1.329h-6.911C402.443,84.048,401.85,83.453,401.85,82.719z"/>
</g>
<g>
	<path fill="#000000" d="M401.85,88.034c0-0.733,0.595-1.328,1.328-1.328h6.911c0.733,0,1.328,0.595,1.328,1.328
		c0,0.733-0.595,1.329-1.328,1.329h-6.911C402.443,89.363,401.85,88.768,401.85,88.034z"/>
</g>
<g>
	<path fill="#000000" d="M401.85,93.35c0-0.733,0.595-1.328,1.328-1.328h6.911c0.733,0,1.328,0.595,1.328,1.328
		c0,0.734-0.595,1.329-1.328,1.329h-6.911C402.443,94.679,401.85,94.084,401.85,93.35z"/>
</g>
<g>
	<g>
		<path fill="#000000" d="M411.773,75.012h-10.281c-2.515,0-4.56,1.93-4.56,4.303v49.199c0.91,0.51,1.791,1.045,2.658,1.59v-50.79
			c0-0.907,0.854-1.645,1.9-1.645h10.281c1.047,0,1.898,0.737,1.898,1.645v68.47c0,0.29-0.095,0.559-0.247,0.795
			c0.001,0.021,0.005,0.04,0.006,0.06c0.029,0.75,0.049,1.836,0.063,3.125c1.66-0.645,2.835-2.184,2.835-3.979v-68.47
			C416.33,76.941,414.285,75.012,411.773,75.012z"/>
		<path fill="#000000" d="M388.621,77.67c1.047,0,1.897,0.737,1.897,1.645v46.046c0.907,0.392,1.792,0.797,2.659,1.213v-47.26
			c0-2.373-2.046-4.303-4.558-4.303h-8.816c0.088,0.91,0.14,1.795,0.16,2.658L388.621,77.67L388.621,77.67z"/>
		<path fill="#000000" d="M374.072,113.367c-0.096,0.125-0.193,0.229-0.29,0.35v5.973c0.074,0.021,0.146,0.045,0.222,0.065
			c0.807,0.238,1.62,0.479,2.437,0.724v-10.867C375.758,110.935,374.975,112.188,374.072,113.367z"/>
		<path fill="#000000" d="M386.936,84.048c0.734,0,1.328-0.595,1.328-1.329c0-0.732-0.594-1.329-1.328-1.329h-6.909
			c-0.021,0-0.038,0.011-0.06,0.012c-0.004,0.875-0.009,1.749-0.016,2.632c0.025,0.001,0.048,0.015,0.074,0.015L386.936,84.048
			L386.936,84.048z"/>
		<path fill="#000000" d="M386.936,89.363c0.734,0,1.328-0.596,1.328-1.329c0-0.733-0.594-1.328-1.328-1.328h-6.909
			c-0.037,0-0.068,0.018-0.104,0.021c-0.011,0.868-0.023,1.735-0.041,2.607c0.05,0.006,0.093,0.029,0.146,0.029H386.936z"/>
		<path fill="#000000" d="M386.936,94.679c0.734,0,1.328-0.595,1.328-1.329c0-0.733-0.594-1.328-1.328-1.328h-6.909
			c-0.074,0-0.139,0.03-0.208,0.042c-0.024,0.852-0.061,1.702-0.094,2.555c0.101,0.023,0.193,0.061,0.302,0.061L386.936,94.679
			L386.936,94.679z"/>
		<path fill="#000000" d="M408.499,152.087c-0.011-1.044-0.025-1.948-0.044-2.657c-0.007-0.217-0.013-0.422-0.021-0.6
			c-0.069-1.533-0.635-3.125-1.283-4.523c-1.55-3.342-4.223-5.744-7.123-7.881c-0.145-0.105-0.292-0.201-0.438-0.304
			c-0.869-0.623-1.757-1.214-2.658-1.78c-1.226-0.771-2.479-1.492-3.755-2.168c-0.876-0.463-1.762-0.906-2.659-1.326
			c-2.362-1.111-4.79-2.092-7.267-2.951c-2.251-0.787-4.529-1.5-6.812-2.19c-0.886-0.269-1.771-0.536-2.657-0.8
			c-2.1-0.622-4.196-1.239-6.283-1.883c-0.36-0.131-0.906-0.442-0.916-0.688c-0.096-2.494-0.113-4.994-0.077-7.494
			c0-0.387,0.325-0.862,0.614-1.18c0.969-1.125,2.076-2.143,2.975-3.322c1.833-2.396,2.987-5.05,3.688-7.842
			c0.481-1.924,0.755-3.911,0.858-5.932c0.31-6.037,0.31-12.088,0.343-18.121c0-0.642-0.03-1.287-0.073-1.932
			c-0.081-1.223-0.226-2.447-0.426-3.652c-1.065-6.299-3.94-11.525-9.457-15.023c-4.118-2.602-8.599-3.762-13.316-3.762
			c-0.887,0-1.781,0.041-2.684,0.121c-4.776,0.422-9.156,1.93-12.931,4.975c-5.199,4.23-7.521,9.947-7.927,16.43
			c-0.474,7.564-0.544,15.133,0.327,22.699c0.694,5.998,2.795,11.326,7.44,15.439c0.291,0.247,0.526,0.688,0.526,1.038
			c0.062,2.308,0,4.611,0.055,6.916c0.026,0.916-0.324,1.224-1.195,1.406c-7.399,1.787-14.62,4.103-21.552,7.232
			c-5.015,2.25-9.825,4.852-13.862,8.672c-2.814,2.639-5.146,5.648-5.332,9.641c-0.219,4.433-0.053,20.621-0.053,25.104
			c38.026,0,75.981,0,113.963-0.008C408.488,170.088,408.565,158.482,408.499,152.087z M334,155.688
			c0,1.623-1.315,2.938-2.938,2.938h-19.125c-1.622,0-2.938-1.314-2.938-2.938v-4.123c0-1.623,1.315-2.938,2.938-2.938h19.125
			c1.621,0,2.938,1.315,2.938,2.938V155.688z"/>
	</g>
</g>
</svg>
