<?xml version="1.0" encoding="utf-8"?>
<!-- Generator: Adobe Illustrator 16.0.0, SVG Export Plug-In . SVG Version: 6.00 Build 0)  -->
<!DOCTYPE svg PUBLIC "-//W3C//DTD SVG 1.1//EN" "http://www.w3.org/Graphics/SVG/1.1/DTD/svg11.dtd">
<svg version="1.1" id="Layer_1" xmlns="http://www.w3.org/2000/svg" xmlns:xlink="http://www.w3.org/1999/xlink" x="0px" y="0px"
	 width="225px" height="225px" viewBox="0 0 225 225" enable-background="new 0 0 225 225" xml:space="preserve">
<path fill="#000000" d="M158.768,92.375c-0.005-0.292-0.031-0.583-0.086-0.869c-0.013-0.059-0.031-0.114-0.045-0.173
	c-0.053-0.229-0.121-0.454-0.205-0.674c-0.031-0.084-0.065-0.166-0.104-0.249c-0.094-0.208-0.201-0.409-0.323-0.605
	c-0.036-0.058-0.065-0.118-0.104-0.174c-0.15-0.222-0.317-0.437-0.508-0.636l-32.971-34.587c-0.963-1.01-2.277-1.55-3.62-1.55
	c-0.274,0-1.35,0-1.616,0H69.163c-2.761,0-5,2.239-5,5v110.474c0,2.762,2.239,5,5,5h84.61c2.762,0,5-2.238,5-5V92.445
	C158.773,92.421,158.768,92.399,158.768,92.375z M120.803,59.475l32.971,32.97h-32.971V59.475z M153.773,168.332h-84.61V57.858
	h46.64v34.587c0,2.761,2.238,5,5,5h32.971V168.332L153.773,168.332z"/>
</svg>
