<?xml version="1.0" encoding="utf-8"?>
<!-- Generator: Adobe Illustrator 16.0.0, SVG Export Plug-In . SVG Version: 6.00 Build 0)  -->
<!DOCTYPE svg PUBLIC "-//W3C//DTD SVG 1.1//EN" "http://www.w3.org/Graphics/SVG/1.1/DTD/svg11.dtd">
<svg version="1.1" id="Layer_1" xmlns="http://www.w3.org/2000/svg" xmlns:xlink="http://www.w3.org/1999/xlink" x="0px" y="0px"
	 width="225px" height="225px" viewBox="0 0 225 225" enable-background="new 0 0 225 225" xml:space="preserve">
<g>
	<path fill="#000000" d="M88.723,126.623c-11.574,0-20.99-9.416-20.99-20.99c0-11.574,9.416-20.99,20.99-20.99
		c11.574,0,20.99,9.416,20.99,20.99C109.713,117.207,100.297,126.623,88.723,126.623z M88.723,89.643
		c-8.817,0-15.99,7.173-15.99,15.99c0,8.817,7.173,15.99,15.99,15.99s15.99-7.173,15.99-15.99
		C104.713,96.816,97.54,89.643,88.723,89.643z"/>
</g>
<circle fill="#000000" cx="52.236" cy="105.786" r="5.376"/>
<g>
	<path fill="#000000" d="M160.208,138.012c-1.803,0-3.534,0.272-5.179,0.762c-1.466-8.209-7.243-14.918-14.903-17.704v-0.001
		c-0.439-0.159-0.886-0.301-1.338-0.433c-0.308-0.091-0.618-0.172-0.931-0.251c-0.13-0.031-0.26-0.06-0.391-0.089
		c-0.722-0.168-1.456-0.301-2.203-0.399c0,0-0.001,0-0.002,0l0,0c-0.998-0.131-2.01-0.222-3.045-0.222
		c-11.506,0-21.026,8.38-22.854,19.372c-1.881-0.659-3.888-1.035-5.994-1.035c-9.519,0-17.318,6.898-18.111,16.159
		c0,0-0.001,0-0.001,0c-0.043,0.513-0.079,1.027-0.079,1.554c0,0.041,0.006,0.08,0.006,0.121c0.003,0.55,0.032,1.091,0.083,1.625
		c0.004,0.045,0.013,0.088,0.018,0.133c0.056,0.54,0.137,1.071,0.24,1.594c0,0.002,0,0.005,0.001,0.007c0,0,0,0,0,0
		c1.389,7.03,6.912,12.387,13.968,13.838c1.631,8.706,9.258,15.3,18.436,15.3c3.648,0,7.041-1.059,9.923-2.857
		c3.375,3.26,7.961,5.793,13.024,5.793c9.874,0,17.949-6.096,18.694-16.791c0.228,0,0.451,0,0.639,0
		c10.042,0,18.182-8.197,18.182-18.238C178.391,146.214,170.25,138.012,160.208,138.012z"/>
	<path fill="#000000" d="M80.177,155.727c0-0.731,0.038-1.453,0.104-2.166c-22.829-4.011-40.235-23.968-40.235-47.928
		c0-26.841,21.836-48.678,48.677-48.678c26.839,0,48.675,21.837,48.675,48.678c0,3.205-0.319,6.335-0.914,9.369
		c1.674,0.254,3.296,0.665,4.863,1.201c0.687-3.419,1.051-6.953,1.051-10.57c0-29.598-24.078-53.678-53.675-53.678
		c-29.598,0-53.677,24.08-53.677,53.678c0,26.76,19.685,49.003,45.333,53.023C80.256,157.695,80.177,156.72,80.177,155.727z"/>
</g>
<path fill="#000000" d="M154.771,125.973c1.028,1.375,1.932,2.853,2.701,4.414c13.282-13.445,13.235-35.188-0.146-48.571
	c-0.977-0.977-2.559-0.976-3.535,0c-0.977,0.977-0.977,2.56,0,3.536C164.938,96.498,165.263,114.428,154.771,125.973z"/>
<g>
	<path fill="#000000" d="M178.557,107.095c0,10.161-3.007,19.857-8.588,28.084c1.524,0.714,2.96,1.587,4.284,2.601
		c6.05-9.004,9.304-19.594,9.304-30.685c0-14.737-5.738-28.592-16.16-39.013c-0.977-0.977-2.559-0.977-3.535,0
		c-0.977,0.976-0.977,2.559,0,3.535C173.337,81.094,178.557,93.693,178.557,107.095z"/>
</g>
</svg>
