<?xml version="1.0" encoding="utf-8"?>
<!-- Generator: Adobe Illustrator 15.1.0, SVG Export Plug-In . SVG Version: 6.00 Build 0)  -->
<!DOCTYPE svg PUBLIC "-//W3C//DTD SVG 1.1//EN" "http://www.w3.org/Graphics/SVG/1.1/DTD/svg11.dtd">
<svg version="1.1" id="Layer_1" xmlns="http://www.w3.org/2000/svg" xmlns:xlink="http://www.w3.org/1999/xlink" x="0px" y="0px"
	 width="225px" height="225px" viewBox="0 0 225 225" enable-background="new 0 0 225 225" xml:space="preserve">
<path fill="#000000" d="M190.105,132.773H34.508c-1.381,0-2.5,1.119-2.5,2.5s1.119,2.5,2.5,2.5h32.076v23.434
	c0,1.381,1.119,2.5,2.5,2.5s2.5-1.119,2.5-2.5v-23.434h38.223v23.434c0,1.381,1.119,2.5,2.5,2.5c1.38,0,2.5-1.119,2.5-2.5v-23.434
	h39.303v23.434c0,1.381,1.119,2.5,2.5,2.5c1.383,0,2.5-1.119,2.5-2.5v-23.434h30.996c1.383,0,2.5-1.119,2.5-2.5
	S191.486,132.773,190.105,132.773z"/>
<path fill="#000000" d="M34.508,93.472h155.598c1.383,0,2.5-1.119,2.5-2.5c0-1.381-1.117-2.5-2.5-2.5h-30.996V63.958
	c0-1.381-1.117-2.5-2.5-2.5c-1.381,0-2.5,1.119-2.5,2.5v24.514h-39.303V63.958c0-1.381-1.119-2.5-2.5-2.5
	c-1.381,0-2.5,1.119-2.5,2.5v24.514H71.584V63.958c0-1.381-1.119-2.5-2.5-2.5s-2.5,1.119-2.5,2.5v24.514H34.508
	c-1.381,0-2.5,1.119-2.5,2.5C32.008,92.353,33.127,93.472,34.508,93.472z"/>
</svg>
