<?xml version="1.0" encoding="utf-8"?>
<!-- Generator: Adobe Illustrator 16.0.0, SVG Export Plug-In . SVG Version: 6.00 Build 0)  -->
<!DOCTYPE svg PUBLIC "-//W3C//DTD SVG 1.1//EN" "http://www.w3.org/Graphics/SVG/1.1/DTD/svg11.dtd">
<svg version="1.1" id="Layer_1" xmlns="http://www.w3.org/2000/svg" xmlns:xlink="http://www.w3.org/1999/xlink" x="0px" y="0px"
	 width="225.07px" height="225.07px" viewBox="0 0 225.07 225.07" enable-background="new 0 0 225.07 225.07" xml:space="preserve">
<g>
	<g>
		<path fill="#000000" d="M152.706,167.785h-81v-110.5h81V167.785z M76.706,162.785h71v-100.5h-71V162.785z"/>
	</g>
	<g>
		<path fill="#000000" d="M91.796,77.271h-8.717v-8.718h8.717V77.271z M86.579,73.771h1.717v-1.718h-1.717V73.771z"/>
	</g>
	<g>
		<path fill="#000000" d="M104.579,77.271h-8.717v-8.718h8.717V77.271z M99.362,73.771h1.717v-1.718h-1.717V73.771z"/>
	</g>
	<g>
		<path fill="#000000" d="M104.414,157.328l-3.071-1.646l14.477-34.39H86.834l36.318-51.59l3.006,1.77l-17.641,36.465l28.984-0.445
			L104.414,157.328z M93.578,117.792h27.514l-9.307,22.106l19.125-28.806l-28.016,0.43l10.771-22.266L93.578,117.792z"/>
	</g>
</g>
</svg>
