<?xml version="1.0" encoding="utf-8"?>
<!-- Generator: Adobe Illustrator 16.0.0, SVG Export Plug-In . SVG Version: 6.00 Build 0)  -->
<!DOCTYPE svg PUBLIC "-//W3C//DTD SVG 1.1//EN" "http://www.w3.org/Graphics/SVG/1.1/DTD/svg11.dtd">
<svg version="1.1" id="Layer_1" xmlns="http://www.w3.org/2000/svg" xmlns:xlink="http://www.w3.org/1999/xlink" x="0px" y="0px"
	 width="225px" height="225px" viewBox="0 0 225 225" enable-background="new 0 0 225 225" xml:space="preserve">
<path fill="#000000" d="M160.087,173.92c-0.64,0-1.278-0.244-1.769-0.732c-0.978-0.977-0.978-2.559,0-3.535
	c15.295-15.295,23.718-35.629,23.718-57.256c0-21.629-8.423-41.963-23.718-57.257c-0.978-0.976-0.978-2.559,0-3.535
	c0.978-0.977,2.56-0.977,3.535,0c16.237,16.238,25.183,37.827,25.183,60.792c0,22.963-8.943,44.555-25.183,60.792
	C161.366,173.676,160.727,173.92,160.087,173.92z"/>
<path fill="#000000" d="M142.094,154.261c-0.64,0-1.279-0.243-1.768-0.73c-0.977-0.978-0.977-2.561,0-3.535
	c20.602-20.606,20.602-54.133,0-74.736c-0.977-0.976-0.977-2.559,0-3.536c0.977-0.976,2.559-0.976,3.535,0
	c22.551,22.553,22.551,59.25,0,81.807C143.374,154.018,142.732,154.261,142.094,154.261z"/>
<g>
	<path fill="#000000" d="M105.77,100.716h-6.044v9.736h6.044c1.852,0,3.229-0.388,4.095-1.152c0.86-0.761,1.278-1.867,1.278-3.38
		v-0.756c0-1.35-0.422-2.404-1.29-3.221C108.989,101.129,107.615,100.716,105.77,100.716z"/>
	<path fill="#000000" d="M87.239,67.842c-0.031,0-0.062-0.009-0.09-0.009H55V24.625c0-1.381-1.119-2.5-2.5-2.5s-2.5,1.119-2.5,2.5
		v48.208v79.928v45.613c0,1.381,1.119,2.5,2.5,2.5s2.5-1.119,2.5-2.5v-40.613h32.148v0.039c25.055,0,45.365-20.136,45.365-44.981
		C132.514,88.007,112.251,67.891,87.239,67.842z M87.148,152.761H55V72.833h32.148V152.761z M115.666,106.171
		c0,1.169-0.323,2.352-0.962,3.514c-0.563,1.017-1.394,1.838-2.471,2.448c0.641,0.207,1.173,0.543,1.585,1.004
		c0.56,0.625,0.842,1.499,0.842,2.6v10.57c0,0.276-0.225,0.5-0.5,0.5h-3.524c-0.276,0-0.5-0.224-0.5-0.5v-9.813
		c0-0.603-0.129-1.058-0.383-1.354c-0.234-0.271-0.7-0.412-1.383-0.412h-8.645v11.58c0,0.276-0.224,0.5-0.5,0.5h-3.523
		c-0.276,0-0.5-0.224-0.5-0.5V96.943c0-0.276,0.224-0.5,0.5-0.5h10.487c1.565,0,2.952,0.23,4.124,0.684
		c1.176,0.457,2.171,1.079,2.958,1.849c0.791,0.779,1.394,1.692,1.793,2.715c0.396,1.013,0.601,2.098,0.601,3.223L115.666,106.171
		L115.666,106.171z"/>
</g>
</svg>
