<?xml version="1.0" encoding="utf-8"?>
<!-- Generator: Adobe Illustrator 16.0.0, SVG Export Plug-In . SVG Version: 6.00 Build 0)  -->
<!DOCTYPE svg PUBLIC "-//W3C//DTD SVG 1.1//EN" "http://www.w3.org/Graphics/SVG/1.1/DTD/svg11.dtd">
<svg version="1.1" id="Layer_1" xmlns="http://www.w3.org/2000/svg" xmlns:xlink="http://www.w3.org/1999/xlink" x="0px" y="0px"
	 width="225px" height="225px" viewBox="0 0 225 225" enable-background="new 0 0 225 225" xml:space="preserve">
<g>
	<path fill="#000000" d="M169.787,69.02v19.546v42.887H54.314V69.02h68.252H169.787 M169.787,64.02h-47.221H54.314
		c-2.761,0-5,2.239-5,5v62.434c0,2.762,2.239,5,5,5h115.473c2.762,0,5-2.238,5-5V88.566V69.02
		C174.787,66.258,172.549,64.02,169.787,64.02L169.787,64.02z"/>
	<path fill="#000000" d="M190.35,155.6l-13.99-9.848c-0.676-0.475-1.479-0.729-2.303-0.729H51.619c-0.717,0-1.422,0.192-2.039,0.559
		l-16.619,9.848c-1.55,0.92-2.295,2.762-1.819,4.499c0.477,1.737,2.056,2.942,3.858,2.942h153.046c1.744,0,3.287-1.13,3.813-2.792
		C192.386,158.415,191.773,156.604,190.35,155.6z"/>
</g>
</svg>
