<?xml version="1.0" encoding="utf-8"?>
<!-- Generator: Adobe Illustrator 16.0.0, SVG Export Plug-In . SVG Version: 6.00 Build 0)  -->
<!DOCTYPE svg PUBLIC "-//W3C//DTD SVG 1.1//EN" "http://www.w3.org/Graphics/SVG/1.1/DTD/svg11.dtd">
<svg version="1.1" id="Layer_1" xmlns="http://www.w3.org/2000/svg" xmlns:xlink="http://www.w3.org/1999/xlink" x="0px" y="0px"
	 width="225px" height="225px" viewBox="0 0 225 225" enable-background="new 0 0 225 225" xml:space="preserve">
<path fill="#000000" d="M114,137.875H62.513V89.787H114c1.381,0,2.5-1.119,2.5-2.5s-1.119-2.5-2.5-2.5H60.013
	c-1.381,0-2.5,1.119-2.5,2.5v53.088c0,1.381,1.119,2.5,2.5,2.5H114c1.381,0,2.5-1.119,2.5-2.5S115.381,137.875,114,137.875z"/>
<path fill="#000000" d="M185.289,113.098l-43.875-43.854c-0.572-0.571-1.432-0.741-2.18-0.433c-0.747,0.31-1.234,1.039-1.234,1.848
	v39.672H88c-1.381,0-2.5,1.119-2.5,2.5s1.119,2.5,2.5,2.5h50v39.762c0,0.796,0.471,1.515,1.199,1.832
	c0.257,0.113,0.529,0.168,0.801,0.168c0.494,0,0.98-0.183,1.357-0.53l43.875-40.58c0.399-0.37,0.632-0.887,0.643-1.431
	C185.885,114.007,185.674,113.48,185.289,113.098z"/>
</svg>
