<?xml version="1.0" encoding="utf-8"?>
<!-- Generator: Adobe Illustrator 15.1.0, SVG Export Plug-In . SVG Version: 6.00 Build 0)  -->
<!DOCTYPE svg PUBLIC "-//W3C//DTD SVG 1.1//EN" "http://www.w3.org/Graphics/SVG/1.1/DTD/svg11.dtd">
<svg version="1.1" id="Layer_1" xmlns="http://www.w3.org/2000/svg" xmlns:xlink="http://www.w3.org/1999/xlink" x="0px" y="0px"
	 width="225px" height="225px" viewBox="0 0 225 225" enable-background="new 0 0 225 225" xml:space="preserve">
<path fill="#000000" d="M175.706,137.421H53.822c-14.593,0-26.465-10.542-26.465-23.5s11.872-23.5,26.465-23.5h121.884
	c14.592,0,26.463,10.542,26.463,23.5S190.298,137.421,175.706,137.421z M53.822,95.42c-11.836,0-21.465,8.299-21.465,18.5
	s9.629,18.5,21.465,18.5h121.884c11.835,0,21.463-8.299,21.463-18.5s-9.628-18.5-21.463-18.5H53.822z"/>
<circle fill="#000000" cx="63.951" cy="113.921" r="9"/>
<circle fill="#000000" cx="97.952" cy="113.921" r="9"/>
<circle fill="#000000" cx="131.952" cy="113.921" r="9"/>
<circle fill="#000000" cx="165.951" cy="113.921" r="9"/>
</svg>
