<?xml version="1.0" encoding="utf-8"?>
<!-- Generator: Adobe Illustrator 16.0.0, SVG Export Plug-In . SVG Version: 6.00 Build 0)  -->
<!DOCTYPE svg PUBLIC "-//W3C//DTD SVG 1.1//EN" "http://www.w3.org/Graphics/SVG/1.1/DTD/svg11.dtd">
<svg version="1.1" id="Layer_1" xmlns="http://www.w3.org/2000/svg" xmlns:xlink="http://www.w3.org/1999/xlink" x="0px" y="0px"
	 width="225.07px" height="225.071px" viewBox="0 0 225.07 225.071" enable-background="new 0 0 225.07 225.071"
	 xml:space="preserve">
<path fill="#000000" d="M167.17,72.256h-18.01V46.845c0-1.381-1.119-2.5-2.5-2.5H77.518c-1.381,0-2.5,1.119-2.5,2.5v25.411h-18.01
	c-7.663,0-13.896,6.233-13.896,13.896v60.692c0,7.662,6.234,13.896,13.896,13.896h18.01v16.836c0,1.381,1.119,2.5,2.5,2.5
	l69.144,0.002c0.663,0,1.3-0.263,1.768-0.732c0.468-0.469,0.732-1.104,0.732-1.768v-16.838h18.009
	c7.662,0,13.896-6.234,13.896-13.896V86.151C181.067,78.489,174.833,72.256,167.17,72.256z M80.018,49.345h64.144v22.911H80.018
	V49.345z M144.161,175.079l-64.144-0.002v-42.295h64.144V175.079z M80.018,132.782h64.144 M167.171,155.74h-18.01v-22.958h6.447v-5
	H68.57v5h6.448v22.958h-18.01c-4.906,0-8.896-3.991-8.896-8.896V86.151c0-4.905,3.991-8.896,8.896-8.896H167.17
	c4.905,0,8.896,3.991,8.896,8.896v60.692h0.001C176.067,151.749,172.076,155.74,167.171,155.74z"/>
<g>
	<rect x="87.906" y="138.793" fill="#000000" width="23.184" height="5"/>
</g>
<g>
	<rect x="87.906" y="150.961" fill="#000000" width="46.367" height="5"/>
</g>
<g>
	<rect x="87.906" y="163.129" fill="#000000" width="46.367" height="5"/>
</g>
<g>
	<rect x="146.661" y="92" fill="#000000" width="19.34" height="5"/>
</g>
</svg>
