<?xml version="1.0" encoding="utf-8"?>
<!-- Generator: Adobe Illustrator 16.0.0, SVG Export Plug-In . SVG Version: 6.00 Build 0)  -->
<!DOCTYPE svg PUBLIC "-//W3C//DTD SVG 1.1//EN" "http://www.w3.org/Graphics/SVG/1.1/DTD/svg11.dtd">
<svg version="1.1" id="Layer_1" xmlns="http://www.w3.org/2000/svg" xmlns:xlink="http://www.w3.org/1999/xlink" x="0px" y="0px"
	 width="225px" height="225px" viewBox="0 0 225 225" enable-background="new 0 0 225 225" xml:space="preserve">
<g>
	<path fill="#000000" d="M183.376,111.938H49.657c-2.248,0-4.339,0.677-6.088,1.832V55.391c0-1.381-1.119-2.5-2.5-2.5
		c-1.381,0-2.5,1.119-2.5,2.5v67.632v20.937v8.909c0,6.113,4.974,11.087,11.088,11.087h133.719c6.114,0,11.088-4.974,11.088-11.087
		v-29.846C194.464,116.91,189.49,111.938,183.376,111.938z M189.464,152.869c0,3.355-2.731,6.087-6.088,6.087H49.657
		c-3.357,0-6.088-2.729-6.088-6.087v-8.909v-20.937c0-3.355,2.731-6.086,6.088-6.086h133.719c3.356,0,6.088,2.729,6.088,6.086
		V152.869z"/>
	<path fill="#000000" d="M88.087,134.898H62.938c-1.381,0-2.5,1.119-2.5,2.5c0,1.382,1.119,2.5,2.5,2.5h25.149
		c1.381,0,2.5-1.118,2.5-2.5C90.587,136.018,89.468,134.898,88.087,134.898z"/>
	<ellipse fill="#000000" cx="153.753" cy="137.398" rx="3.44" ry="3.371"/>
	<ellipse fill="#000000" cx="168.555" cy="137.398" rx="3.441" ry="3.371"/>
</g>
</svg>
