<?xml version="1.0" encoding="utf-8"?>
<!-- Generator: Adobe Illustrator 15.1.0, SVG Export Plug-In . SVG Version: 6.00 Build 0)  -->
<!DOCTYPE svg PUBLIC "-//W3C//DTD SVG 1.1//EN" "http://www.w3.org/Graphics/SVG/1.1/DTD/svg11.dtd">
<svg version="1.1" id="Layer_1" xmlns="http://www.w3.org/2000/svg" xmlns:xlink="http://www.w3.org/1999/xlink" x="0px" y="0px"
	 width="225.07px" height="225.07px" viewBox="0 0 225.07 225.07" enable-background="new 0 0 225.07 225.07" xml:space="preserve">
<g>
	<path fill="#000000" d="M140.908,119.096v-15.118h-5.162c-0.356-1.22-0.807-2.397-1.34-3.528l4.475-4.52l-10.741-10.639
		l-4.119,4.16c-1.285-0.7-2.644-1.286-4.056-1.748v-5.413h-15.118v5.413c-0.978,0.319-1.929,0.698-2.847,1.134l-4.205-4.594
		L86.643,94.451l4.379,4.783c-0.812,1.493-1.469,3.082-1.955,4.743h-5.162v15.117h5.627c0.416,1.15,0.916,2.263,1.494,3.324
		l-4.371,4.699l11.072,10.296l4.28-4.604c0.916,0.435,1.863,0.812,2.839,1.132v5.353h15.118v-5.354
		c1.15-0.375,2.263-0.834,3.328-1.369l4.074,4.228l10.885-10.491l-4.211-4.369c0.472-0.915,0.885-1.864,1.24-2.844L140.908,119.096
		L140.908,119.096z M95.453,111.283c0-9.343,7.574-16.917,16.916-16.917c9.344,0,16.918,7.574,16.918,16.917
		s-7.574,16.916-16.918,16.916C103.027,128.199,95.453,120.626,95.453,111.283z"/>
	<path fill="#FFFFFF" d="M179.588,65.326h-54.953H45.225c-2.762,0-5,2.239-5,5v80.957c0,2.762,2.238,5,5,5h65.131v12.639H73.928
		c-1.382,0-2.5,1.119-2.5,2.5s1.118,2.5,2.5,2.5h77.836c1.381,0,2.5-1.119,2.5-2.5s-1.119-2.5-2.5-2.5h-36.408v-12.639h64.231
		c2.763,0,5-2.238,5-5V95.672V70.326C184.588,67.565,182.35,65.326,179.588,65.326z M179.588,95.672v55.611H45.225V70.326h79.409
		h54.953V95.672z"/>
</g>
</svg>
