<?xml version="1.0" encoding="utf-8"?>
<!-- Generator: Adobe Illustrator 16.0.0, SVG Export Plug-In . SVG Version: 6.00 Build 0)  -->
<!DOCTYPE svg PUBLIC "-//W3C//DTD SVG 1.1//EN" "http://www.w3.org/Graphics/SVG/1.1/DTD/svg11.dtd">
<svg version="1.1" id="Layer_1" xmlns="http://www.w3.org/2000/svg" xmlns:xlink="http://www.w3.org/1999/xlink" x="0px" y="0px"
	 width="225.07px" height="225.07px" viewBox="0 0 225.07 225.07" enable-background="new 0 0 225.07 225.07" xml:space="preserve">
<path fill="#000000" d="M149.535,59.324h-74c-2.761,0-5,2.238-5,5v96.423c0,2.762,2.239,5,5,5h74c2.762,0,5-2.238,5-5V64.324
	C154.535,61.562,152.297,59.324,149.535,59.324z M112.535,161.164c-1.55,0-2.807-1.257-2.807-2.807c0-1.551,1.257-2.808,2.807-2.808
	c1.55,0,2.807,1.257,2.807,2.808C115.342,159.907,114.085,161.164,112.535,161.164z M151.219,152.657H73.885V67.324h77.334V152.657z
	"/>
</svg>
