<?xml version="1.0" encoding="utf-8"?>
<!-- Generator: Adobe Illustrator 15.1.0, SVG Export Plug-In . SVG Version: 6.00 Build 0)  -->
<!DOCTYPE svg PUBLIC "-//W3C//DTD SVG 1.1//EN" "http://www.w3.org/Graphics/SVG/1.1/DTD/svg11.dtd">
<svg version="1.1" id="Layer_1" xmlns="http://www.w3.org/2000/svg" xmlns:xlink="http://www.w3.org/1999/xlink" x="0px" y="0px"
	 width="225px" height="225px" viewBox="0 0 225 225" enable-background="new 0 0 225 225" xml:space="preserve">
<path fill="#000000" d="M188.413,89.122c-0.339-0.747-1.022-1.28-1.829-1.427c-0.812-0.147-1.635,0.112-2.215,0.692l-10.327,10.329
	c-0.394,0.393-1.06,0.813-1.509,1.019l-3.495-3.496c0.022-0.556,0.347-1.588,0.614-1.909l10.561-10.563
	c0.569-0.569,0.83-1.378,0.699-2.173c-0.131-0.795-0.637-1.478-1.357-1.835c-2.59-1.283-5.506-1.96-8.434-1.96
	c-5.064,0-9.801,1.947-13.337,5.483c-5.293,5.291-6.9,13.169-4.253,20.097l-16.465,16.466c1.271,0.406,2.545,0.821,3.808,1.265
	c0.498,0.174,0.978,0.354,1.465,0.533l15.933-15.934c0.761-0.759,0.949-1.917,0.475-2.878c-2.623-5.291-1.562-11.875,2.574-16.014
	c2.593-2.592,6.072-4.019,9.803-4.019c0.917,0,1.831,0.089,2.727,0.265l-7.729,7.732c-1.231,1.231-1.746,3.217-1.875,3.797
	c-0.459,2.073-0.119,3.806,0.955,4.878l4.342,4.342c0.479,0.478,1.321,1.048,2.633,1.048c2.21,0,4.501-1.705,5.404-2.607l7.37-7.371
	c0.593,4.134-0.816,8.323-4.028,11.534c-2.688,2.686-6.123,4.165-9.679,4.165h-0.001c-1.894,0-3.759-0.412-5.548-1.223
	c-0.949-0.431-2.063-0.228-2.801,0.509l-14.345,14.345c1.618,0.757,3.169,1.562,4.661,2.409l12.057-12.055
	c1.938,0.674,3.941,1.015,5.975,1.015c0.001,0,0.001,0,0.002,0c4.891,0,9.584-1.999,13.214-5.629
	C190.143,104.262,191.66,96.281,188.413,89.122z"/>
<path fill="#000000" d="M164.436,146.83c-0.068-1.533-0.635-3.125-1.283-4.523c-1.549-3.342-4.223-5.744-7.123-7.881
	c-5.119-3.746-10.819-6.463-16.774-8.529c-5.188-1.814-10.511-3.258-15.754-4.873c-0.358-0.131-0.905-0.441-0.916-0.688
	c-0.097-2.494-0.112-4.994-0.077-7.494c0-0.387,0.325-0.863,0.614-1.18c0.969-1.125,2.076-2.143,2.976-3.322
	c3.098-4.047,4.291-8.822,4.547-13.773c0.31-6.037,0.31-12.088,0.342-18.121c0-1.857-0.192-3.742-0.498-5.584
	c-1.065-6.299-3.94-11.525-9.457-15.023c-4.893-3.09-10.293-4.146-16-3.641c-4.776,0.422-9.156,1.93-12.93,4.975
	c-5.2,4.23-7.522,9.947-7.927,16.43c-0.474,7.564-0.544,15.133,0.327,22.699c0.694,5.998,2.795,11.326,7.44,15.439
	c0.291,0.248,0.527,0.688,0.527,1.039c0.062,2.307,0,4.61,0.054,6.915c0.027,0.916-0.324,1.224-1.195,1.406
	c-7.399,1.787-14.62,4.103-21.552,7.231c-5.014,2.25-9.825,4.853-13.862,8.672c-2.815,2.64-5.147,5.647-5.332,9.642
	c-0.218,4.433-0.053,20.621-0.053,25.104c38.027,0,75.982,0,113.963-0.008C164.488,167.309,164.602,151.164,164.436,146.83z
	 M90,154.062c0,1.623-1.315,2.938-2.938,2.938H67.938c-1.623,0-2.938-1.314-2.938-2.938v-4.123c0-1.623,1.315-2.938,2.938-2.938
	h19.125c1.623,0,2.938,1.315,2.938,2.938L90,154.062L90,154.062z"/>
</svg>
