<?xml version="1.0" encoding="utf-8"?>
<!-- Generator: Adobe Illustrator 16.0.0, SVG Export Plug-In . SVG Version: 6.00 Build 0)  -->
<!DOCTYPE svg PUBLIC "-//W3C//DTD SVG 1.1//EN" "http://www.w3.org/Graphics/SVG/1.1/DTD/svg11.dtd">
<svg version="1.1" id="Layer_1" xmlns="http://www.w3.org/2000/svg" xmlns:xlink="http://www.w3.org/1999/xlink" x="0px" y="0px"
	 width="225px" height="225px" viewBox="0 0 225 225" enable-background="new 0 0 225 225" xml:space="preserve">
<path fill="#000000" d="M179.461,63.621h-54.954H45.098c-2.761,0-5,2.239-5,5v80.957c0,2.762,2.239,5,5,5h64.682v12.639H73.352
	c-1.381,0-2.5,1.119-2.5,2.5s1.119,2.5,2.5,2.5h77.835c1.381,0,2.5-1.119,2.5-2.5s-1.119-2.5-2.5-2.5H114.78v-12.639h64.682
	c2.763,0,5-2.238,5-5V93.966V68.621C184.461,65.86,182.223,63.621,179.461,63.621z M179.461,93.966v55.612H45.098V68.621h79.409
	h54.954V93.966z"/>
</svg>
