<?xml version="1.0" encoding="utf-8"?>
<!-- Generator: Adobe Illustrator 16.0.0, SVG Export Plug-In . SVG Version: 6.00 Build 0)  -->
<!DOCTYPE svg PUBLIC "-//W3C//DTD SVG 1.1//EN" "http://www.w3.org/Graphics/SVG/1.1/DTD/svg11.dtd">
<svg version="1.1" id="Layer_1" xmlns="http://www.w3.org/2000/svg" xmlns:xlink="http://www.w3.org/1999/xlink" x="0px" y="0px"
	 width="225.07px" height="225.07px" viewBox="0 0 225.07 225.07" enable-background="new 0 0 225.07 225.07" xml:space="preserve">
<g>
	<g>
		<polygon fill="#000000" points="138.5,84.425 133.5,84.425 133.5,56.666 92.541,56.666 92.541,84.425 87.541,84.425 
			87.541,51.666 138.5,51.666 		"/>
	</g>
	<rect x="101.694" y="62.277" fill="#000000" width="8.106" height="8.106"/>
	<rect x="115.694" y="62.277" fill="#000000" width="8.106" height="8.106"/>
	<path fill="#000000" d="M150.667,82.896v-2.5H74.333v5h0.041v71.527c0,11.304,9.196,20.5,20.5,20.5h35.333
		c11.304,0,20.5-9.196,20.5-20.5V82.896H150.667z M130.207,172.423H94.874c-8.547,0-15.5-6.953-15.5-15.5V85.396h66.333v71.527
		C145.707,165.47,138.754,172.423,130.207,172.423z"/>
	<path fill="#000000" d="M134.069,111.935h-8.303v8.303h2.401v5.961c-1.351,1.329-7.676,4.873-14,8.083v-28.637h4.463l-6.045-8.37
		l-6.123,8.37h4.205v38.129c-0.353-0.195-0.724-0.401-1.13-0.626c-2.229-1.239-5.196-2.918-8.06-4.67
		c-0.712-0.441-1.416-0.89-2.082-1.343c-0.655-0.446-1.309-0.924-1.767-1.335c-0.042-0.039-0.083-0.077-0.12-0.113
		c-0.002-0.225-0.003-0.452-0.006-0.671c-0.01-0.734-0.021-1.43-0.029-2.072c-0.027-1.283-0.057-2.354-0.096-3.102
		c-0.006-0.144-0.011-0.264-0.017-0.383c1.802-0.652,3.097-2.362,3.097-4.389c0-2.586-2.096-4.683-4.682-4.683
		c-2.587,0-4.684,2.097-4.684,4.683c0,2.024,1.294,3.735,3.095,4.388c-0.005,0.12-0.01,0.24-0.017,0.384
		c-0.039,0.748-0.068,1.818-0.096,3.102c-0.009,0.643-0.02,1.338-0.029,2.072c-0.004,0.368-0.006,0.746-0.01,1.132
		c-0.016,0.325,0.206,1.022,0.297,1.097c0.115,0.207,0.262,0.424,0.349,0.515c0.215,0.267,0.399,0.439,0.587,0.618
		c0.733,0.666,1.442,1.142,2.177,1.645c0.731,0.489,1.476,0.954,2.222,1.408c2.98,1.816,6.025,3.416,8.316,4.611
		c1.099,0.55,2.016,1.009,2.684,1.343v3.165c-1.718,0.694-2.933,2.371-2.933,4.337c0,2.585,2.097,4.684,4.684,4.684
		c2.586,0,4.682-2.099,4.682-4.684c0-1.967-1.215-3.644-2.933-4.337v-12.347c17.495-8.668,17.5-10.463,17.5-11.546v-6.419h2.401
		V111.935z M97.512,135.985c0.006,0.072,0.006,0.137,0.001,0.162C97.513,136.092,97.513,136.04,97.512,135.985z"/>
</g>
</svg>
