<?xml version="1.0" encoding="utf-8"?>
<!-- Generator: Adobe Illustrator 16.0.0, SVG Export Plug-In . SVG Version: 6.00 Build 0)  -->
<!DOCTYPE svg PUBLIC "-//W3C//DTD SVG 1.1//EN" "http://www.w3.org/Graphics/SVG/1.1/DTD/svg11.dtd">
<svg version="1.1" id="Layer_1" xmlns="http://www.w3.org/2000/svg" xmlns:xlink="http://www.w3.org/1999/xlink" x="0px" y="0px"
	 width="225px" height="225px" viewBox="0 0 225 225" enable-background="new 0 0 225 225" xml:space="preserve">
<path fill="#000000" d="M78.69,116.544c0,10.993,8.913,20.133,19.906,20.133c8.146,0,15.148-2.677,18.228-11.677h10.341l5.26-5.913
	l5.258,4.929l5.256-5.425l4.804,4.724l7.569-6.43L147.268,110H116.84c-3.07-9-10.082-12.653-18.243-12.653
	C87.604,97.347,78.69,105.55,78.69,116.544z M98.343,116.811c0,4.021-3.259,7.287-7.286,7.287c-4.026,0-7.285-3.266-7.285-7.287
	c0-4.025,3.259-7.289,7.285-7.289C95.084,109.521,98.343,112.784,98.343,116.811z"/>
<path fill="#000000" d="M170.67,63.452H56.748c-9.687,0-16.193,7.753-16.193,14.994v68.413c0,8.599,8.021,17.037,16.193,17.037
	H170.67c7.965,0,14.952-7.961,14.952-17.037V78.446C185.622,70.039,179.055,63.452,170.67,63.452z M180.622,146.859
	c0,6.188-4.837,12.037-9.952,12.037H56.748c-4.934,0-11.193-5.668-11.193-12.037V110h29.042c2.885-10.2,12.395-17.494,24-17.494
	c9.772,0,17.454,4.621,21.557,12.812h27.113c1.174,0,2.31,0.413,3.209,1.166l4.202,3.516h25.943V146.859L180.622,146.859z
	 M180.622,88H45.555v-9.554c0-5.979,5.788-9.994,11.193-9.994H170.67c4.824,0,9.952,3.503,9.952,9.994V88z"/>
</svg>
