<?xml version="1.0" encoding="utf-8"?>
<!-- Generator: Adobe Illustrator 16.0.0, SVG Export Plug-In . SVG Version: 6.00 Build 0)  -->
<!DOCTYPE svg PUBLIC "-//W3C//DTD SVG 1.1//EN" "http://www.w3.org/Graphics/SVG/1.1/DTD/svg11.dtd">
<svg version="1.1" id="Layer_1" xmlns="http://www.w3.org/2000/svg" xmlns:xlink="http://www.w3.org/1999/xlink" x="0px" y="0px"
	 width="225px" height="225px" viewBox="0 0 225 225" enable-background="new 0 0 225 225" xml:space="preserve">
<g>
	<circle fill="#FF8158" cx="5346.54" cy="217.932" r="112.265"/>
</g>
<g>
	<rect x="5270" y="201" fill="#FFFFFF" width="102" height="15"/>
	<path fill="none" stroke="#FFFFFF" stroke-width="5" stroke-miterlimit="10" d="M5373,243.73c0,5.578-4.339,10.729-9.189,10.729
		h-84.082c-4.855,0-10.104-5.151-10.104-10.729v-50.491c0-5.577,5.249-9.222,10.104-9.222h84.082c4.852,0,9.189,3.645,9.189,9.222
		V243.73z"/>
</g>
<path fill="none" stroke="#FFFFFF" stroke-width="5" stroke-linecap="round" stroke-miterlimit="10" d="M5406.875,171.34
	c26.049,26.053,28.023,67.061,5.924,95.379"/>
<path fill="none" stroke="#FFFFFF" stroke-width="5" stroke-linecap="round" stroke-miterlimit="10" d="M5396.32,185.959
	c17.926,17.924,19.283,46.143,4.078,65.629"/>
<path fill="none" stroke="#FFFFFF" stroke-width="5" stroke-linecap="round" stroke-miterlimit="10" d="M5388.336,202.912
	c8.805,8.804,9.475,22.666,2.004,32.234"/>
<path d="M56.525,172.748c0-4.482-0.165-20.672,0.053-25.104c0.185-3.992,2.517-7.002,5.332-9.641
	c4.037-3.82,8.849-6.422,13.862-8.672c6.932-3.131,14.152-5.445,21.552-7.232c0.871-0.184,1.223-0.49,1.195-1.406
	c-0.054-2.305,0.008-4.609-0.054-6.916c0-0.35-0.236-0.791-0.527-1.039c-4.646-4.113-6.746-9.441-7.44-15.439
	c-0.871-7.566-0.801-15.135-0.327-22.699c0.404-6.482,2.727-12.199,7.927-16.43c3.773-3.045,8.153-4.553,12.93-4.975
	c5.707-0.506,11.108,0.551,16,3.641c5.517,3.498,8.392,8.725,9.457,15.023c0.306,1.842,0.499,3.727,0.499,5.584
	c-0.033,6.033-0.033,12.084-0.342,18.121c-0.255,4.951-1.45,9.727-4.547,13.773c-0.898,1.18-2.006,2.197-2.975,3.322
	c-0.289,0.316-0.614,0.793-0.614,1.18c-0.036,2.5-0.019,5,0.077,7.494c0.01,0.246,0.556,0.559,0.916,0.689
	c5.243,1.615,10.563,3.057,15.754,4.873c5.955,2.066,11.655,4.783,16.775,8.529c2.901,2.137,5.574,4.539,7.123,7.881
	c0.649,1.398,1.214,2.99,1.284,4.523c0.166,4.334,0.053,20.479,0.053,24.91C132.508,172.748,94.553,172.748,56.525,172.748z"/>
</svg>
