<?xml version="1.0" encoding="utf-8"?>
<!-- Generator: Adobe Illustrator 16.0.0, SVG Export Plug-In . SVG Version: 6.00 Build 0)  -->
<!DOCTYPE svg PUBLIC "-//W3C//DTD SVG 1.1//EN" "http://www.w3.org/Graphics/SVG/1.1/DTD/svg11.dtd">
<svg version="1.1" id="Layer_1" xmlns="http://www.w3.org/2000/svg" xmlns:xlink="http://www.w3.org/1999/xlink" x="0px" y="0px"
	 width="225px" height="225px" viewBox="0 0 225 225" enable-background="new 0 0 225 225" xml:space="preserve">
<path fill="#010000" d="M56.525,172.748c0-4.482-0.165-20.672,0.053-25.104c0.185-3.992,2.517-7.002,5.332-9.643
	c4.037-3.818,8.849-6.422,13.862-8.672c6.932-3.131,14.152-5.445,21.552-7.23c0.871-0.186,1.223-0.49,1.195-1.406
	c-0.054-2.307,0.008-4.609-0.054-6.916c0-0.352-0.236-0.792-0.527-1.039c-4.646-4.113-6.746-9.441-7.44-15.439
	c-0.871-7.566-0.801-15.135-0.327-22.699c0.404-6.482,2.727-12.199,7.927-16.43c3.773-3.045,8.153-4.553,12.93-4.975
	c5.707-0.506,11.108,0.551,16,3.641c5.519,3.498,8.394,8.725,9.457,15.023c0.308,1.842,0.5,3.727,0.5,5.584
	c-0.032,6.033-0.032,12.084-0.342,18.121c-0.256,4.951-1.451,9.727-4.548,13.773c-0.896,1.18-2.006,2.197-2.975,3.322
	c-0.289,0.316-0.614,0.793-0.614,1.18c-0.036,2.5-0.019,5,0.077,7.494c0.01,0.246,0.556,0.56,0.916,0.688
	c5.243,1.614,10.563,3.058,15.754,4.873c5.955,2.065,11.655,4.782,16.774,8.528c2.9,2.138,5.574,4.539,7.123,7.881
	c0.648,1.398,1.215,2.99,1.285,4.523c0.166,4.334,0.053,20.479,0.053,24.91C132.508,172.748,94.553,172.748,56.525,172.748z"/>
</svg>
