<?xml version="1.0" encoding="utf-8"?>
<!-- Generator: Adobe Illustrator 16.0.0, SVG Export Plug-In . SVG Version: 6.00 Build 0)  -->
<!DOCTYPE svg PUBLIC "-//W3C//DTD SVG 1.1//EN" "http://www.w3.org/Graphics/SVG/1.1/DTD/svg11.dtd">
<svg version="1.1" id="Layer_1" xmlns="http://www.w3.org/2000/svg" xmlns:xlink="http://www.w3.org/1999/xlink" x="0px" y="0px"
	 width="225px" height="225px" viewBox="0 0 225 225" enable-background="new 0 0 225 225" xml:space="preserve">
<g>
	<circle fill="#FF8158" cx="5346.54" cy="217.932" r="112.265"/>
</g>
<g>
	<rect x="5270" y="201" fill="#FFFFFF" width="102" height="15"/>
	<path fill="none" stroke="#FFFFFF" stroke-width="5" stroke-miterlimit="10" d="M5373,243.73c0,5.578-4.339,10.729-9.189,10.729
		h-84.082c-4.855,0-10.104-5.151-10.104-10.729v-50.491c0-5.577,5.249-9.222,10.104-9.222h84.082c4.852,0,9.189,3.645,9.189,9.222
		V243.73z"/>
</g>
<path fill="none" stroke="#FFFFFF" stroke-width="5" stroke-linecap="round" stroke-miterlimit="10" d="M5406.875,171.34
	c26.049,26.053,28.023,67.061,5.924,95.379"/>
<path fill="none" stroke="#FFFFFF" stroke-width="5" stroke-linecap="round" stroke-miterlimit="10" d="M5396.32,185.959
	c17.926,17.924,19.283,46.143,4.078,65.629"/>
<path fill="none" stroke="#FFFFFF" stroke-width="5" stroke-linecap="round" stroke-miterlimit="10" d="M5388.336,202.912
	c8.805,8.804,9.475,22.666,2.004,32.234"/>
<path fill="none" d="M116.792,53.678c-0.383-0.148-0.767-0.287-1.153-0.415C116.025,53.391,116.409,53.53,116.792,53.678z"/>
<path fill="none" d="M114.943,53.044c-0.403-0.119-0.81-0.224-1.217-0.322C114.134,52.82,114.54,52.925,114.943,53.044z"/>
<path fill="none" d="M118.67,54.503c-0.398-0.196-0.799-0.384-1.203-0.556C117.871,54.119,118.271,54.308,118.67,54.503z"/>
<path fill="none" d="M111.201,52.24c-0.635-0.084-1.275-0.143-1.919-0.181C109.926,52.097,110.566,52.156,111.201,52.24z"/>
<path fill="none" d="M120.969,55.771c-0.568-0.359-1.146-0.684-1.728-0.989C119.823,55.086,120.4,55.412,120.969,55.771z"/>
<path fill="none" d="M106.867,52.026c-0.629,0.017-1.261,0.046-1.898,0.103C105.606,52.073,106.238,52.043,106.867,52.026z"/>
<path fill="none" d="M113.082,52.568c-0.504-0.106-1.013-0.193-1.524-0.269C112.069,52.375,112.578,52.462,113.082,52.568z"/>
<path fill="none" d="M107.27,52.017c0.5-0.007,0.995,0.006,1.489,0.026c-0.37-0.015-0.739-0.035-1.113-0.035
	C107.521,52.008,107.395,52.015,107.27,52.017z"/>
<path fill="#F95428" d="M119.241,54.782c-0.188-0.099-0.381-0.185-0.571-0.278C118.86,54.597,119.053,54.683,119.241,54.782z"/>
<path fill="#F95428" d="M109.281,52.06c-0.173-0.01-0.349-0.01-0.522-0.017C108.933,52.05,109.108,52.049,109.281,52.06z"/>
<path fill="#F95428" d="M117.467,53.948c-0.224-0.095-0.449-0.182-0.675-0.27C117.018,53.766,117.243,53.853,117.467,53.948z"/>
<path fill="#F95428" d="M113.727,52.722c-0.215-0.052-0.428-0.108-0.645-0.154C113.299,52.614,113.512,52.67,113.727,52.722z"/>
<path fill="#F95428" d="M115.639,53.264c-0.231-0.076-0.463-0.151-0.695-0.22C115.176,53.113,115.407,53.188,115.639,53.264z"/>
<path fill="#F95428" d="M111.201,52.24c0.12,0.016,0.238,0.042,0.357,0.06C111.438,52.282,111.32,52.256,111.201,52.24z"/>
<path fill="#F95428" d="M106.867,52.026c0.135-0.004,0.269-0.008,0.403-0.009C107.136,52.019,107.001,52.022,106.867,52.026z"/>
<path opacity="0.6" fill="#FF8158" d="M148,153.727c0,1.625-1.607,4.273-3.23,4.273h-20.571c-1.623,0-3.198-2.648-3.198-4.273
	v-13.225c0-1.621,1.575-1.502,3.198-1.502h20.571c1.623,0,3.23-0.119,3.23,1.502V153.727z"/>
<g>
	<path d="M158.618,152.155c-1.196-4.656-0.451-9.587,2.034-13.662c-1.355-1.554-2.957-2.892-4.643-4.132
		c-5.12-3.745-10.819-6.463-16.774-8.529c-5.19-1.817-10.513-3.258-15.755-4.873c-0.36-0.133-0.905-0.442-0.914-0.689
		c-0.098-2.494-0.115-4.993-0.079-7.493c0-0.388,0.326-0.864,0.614-1.18c0.969-1.125,2.076-2.144,2.975-3.323
		c3.097-4.047,4.291-8.822,4.548-13.772c0.309-6.039,0.309-12.089,0.341-18.121c0-1.859-0.193-3.742-0.5-5.585
		c-1.063-6.3-3.939-11.525-9.455-15.024c-4.893-3.088-10.293-4.146-16-3.642c-4.777,0.422-9.156,1.935-12.931,4.977
		c-5.2,4.23-7.522,9.947-7.927,16.431c-0.474,7.564-0.544,15.13,0.327,22.698c0.694,5.998,2.796,11.324,7.44,15.44
		c0.291,0.249,0.528,0.688,0.528,1.038c0.062,2.305,0,4.609,0.053,6.917c0.026,0.915-0.324,1.223-1.196,1.406
		c-7.399,1.785-14.62,4.102-21.551,7.232c-5.014,2.25-9.825,4.85-13.861,8.67c-2.815,2.641-5.147,5.65-5.333,9.643
		c-0.218,4.432-0.055,20.621-0.055,25.104c29.559,0,59.073-0.001,88.589-0.005L158.618,152.155z M90,154.062
		c0,1.623-1.315,2.938-2.938,2.938H67.938c-1.623,0-2.938-1.315-2.938-2.938v-4.123c0-1.623,1.315-2.938,2.938-2.938h19.125
		c1.623,0,2.938,1.315,2.938,2.938V154.062z"/>
	<path d="M164.417,146.765c-0.047-1.023-0.323-2.069-0.689-3.07c-1.054,3.202-0.816,6.739,0.675,9.747l-18.236,18.236
		c4.114,0,8.229,0,12.344-0.001l5.979-5.979C164.512,159.113,164.537,149.883,164.417,146.765z"/>
</g>
<g>
	<path d="M139.527,100H143l5.201,15h-3.33l-0.971-3h-5.41l-0.998,3h-3.212L139.527,100z M139.322,110h3.764l-1.854-5.783
		L139.322,110z"/>
	<path d="M159.688,100v3h-5v12h-3v-12h-4v-3H159.688z"/>
	<path d="M170.786,100h4.901v15h-3v-9.752c0-0.285-0.17-0.688-0.162-1.202c0.007-0.515-0.076-1.005-0.076-1.285L169.578,115h-2.984
		l-2.764-12.239c0,0.28-0.077,0.724-0.072,1.238c0.006,0.515-0.07,0.964-0.07,1.249V115h-3v-15h4.768l2.676,11.556L170.786,100z"/>
</g>
<g>
	<path d="M114.248,79c-5.182,0-10.731,3.941-10.735,9.811l0.004,39.126c-0.001,2.698,1.243,5.5,3.412,7.685
		c2.131,2.146,4.798,3.378,7.317,3.378h46.837c-1.442-1.785-3.217-3.281-5.091-4.661c-0.16-0.117-0.325-0.224-0.486-0.339h-41.26
		c-1.161,0-2.604-0.729-3.769-1.9c-1.228-1.237-1.961-2.792-1.96-4.161l-0.004-39.126c0.001-2.981,3.341-4.812,5.735-4.812h16.646
		c0.018-1.667,0.031-3.334,0.04-5H114.248z"/>
	<path d="M180.201,79h-44.268c-0.009,1.653-0.022,3.321-0.04,5h44.308c1.724,0,3.486,0.494,3.486,4.16v39.607
		c0,2.997-1.334,6.232-3.49,6.232h-16.902c1.396,1.408,2.713,3.06,3.772,5h13.13c5.515,0,8.49-5.787,8.49-11.232V88.16
		C188.688,82.51,185.436,79,180.201,79z"/>
</g>
<path d="M164.399,146.743c-0.07-1.534-0.635-3.126-1.284-4.523c-1.549-3.343-4.223-5.745-7.123-7.881
	c-5.121-3.746-10.82-6.464-16.775-8.53c-5.189-1.815-10.512-3.258-15.753-4.873c-0.361-0.131-0.907-0.442-0.915-0.689
	c-0.098-2.494-0.115-4.993-0.079-7.493c0-0.388,0.325-0.864,0.614-1.18c0.969-1.125,2.076-2.144,2.975-3.323
	c3.097-4.047,4.29-8.822,4.547-13.772c0.309-6.037,0.309-12.089,0.342-18.121c0-1.858-0.193-3.742-0.501-5.585
	c-1.063-6.3-3.938-11.525-9.454-15.024c-4.893-3.088-10.294-4.146-16-3.64c-4.777,0.422-9.157,1.933-12.931,4.975
	c-5.2,4.23-7.522,9.947-7.926,16.431c-0.474,7.564-0.544,15.132,0.327,22.698c0.694,5.998,2.795,11.326,7.438,15.439
	c0.293,0.25,0.53,0.69,0.53,1.039c0.062,2.307,0,4.611,0.053,6.917c0.026,0.915-0.324,1.223-1.197,1.406
	c-7.398,1.786-14.619,4.101-21.55,7.232c-5.014,2.25-9.824,4.852-13.862,8.671c-2.815,2.639-5.146,5.649-5.332,9.642
	c-0.218,4.432-0.055,20.62-0.055,25.104c38.029,0,75.984,0,113.965-0.009C164.452,167.222,164.565,151.076,164.399,146.743z
	 M89.688,154.062c0,1.623-1.315,2.938-2.938,2.938H67.625c-1.623,0-2.938-1.315-2.938-2.938v-4.123c0-1.623,1.315-2.938,2.938-2.938
	H86.75c1.623,0,2.938,1.315,2.938,2.938V154.062z"/>
</svg>
