<?xml version="1.0" encoding="utf-8"?>
<!-- Generator: Adobe Illustrator 16.0.0, SVG Export Plug-In . SVG Version: 6.00 Build 0)  -->
<!DOCTYPE svg PUBLIC "-//W3C//DTD SVG 1.1//EN" "http://www.w3.org/Graphics/SVG/1.1/DTD/svg11.dtd">
<svg version="1.1" id="Layer_1" xmlns="http://www.w3.org/2000/svg" xmlns:xlink="http://www.w3.org/1999/xlink" x="0px" y="0px"
	 width="225px" height="225px" viewBox="0 0 225 225" enable-background="new 0 0 225 225" xml:space="preserve">
<path fill="#010000" d="M116.792,53.678c-0.383-0.147-0.767-0.287-1.153-0.415C116.025,53.391,116.409,53.53,116.792,53.678z"/>
<path fill="#010000" d="M114.943,53.044c-0.403-0.119-0.811-0.224-1.217-0.322C114.134,52.82,114.54,52.925,114.943,53.044z"/>
<path fill="#010000" d="M118.67,54.503c-0.398-0.196-0.799-0.384-1.203-0.556C117.871,54.119,118.271,54.308,118.67,54.503z"/>
<path fill="#010000" d="M120.969,55.771c-0.568-0.359-1.146-0.684-1.728-0.989C119.823,55.086,120.4,55.412,120.969,55.771z"/>
<path fill="#010000" d="M113.082,52.568c-0.504-0.106-1.013-0.193-1.524-0.269C112.069,52.375,112.578,52.462,113.082,52.568z"/>
<path fill="#010000" d="M119.241,54.782c-0.188-0.099-0.382-0.185-0.571-0.278C118.859,54.597,119.053,54.683,119.241,54.782z"/>
<path fill="#010000" d="M117.467,53.948c-0.224-0.095-0.449-0.182-0.675-0.271C117.018,53.766,117.243,53.853,117.467,53.948z"/>
<path fill="#010000" d="M113.727,52.722c-0.215-0.052-0.428-0.108-0.645-0.154C113.299,52.614,113.512,52.67,113.727,52.722z"/>
<path fill="#010000" d="M115.639,53.264c-0.23-0.076-0.463-0.151-0.695-0.22C115.176,53.113,115.407,53.188,115.639,53.264z"/>
<path fill="#010000" d="M111.201,52.24c0.12,0.016,0.238,0.042,0.357,0.06C111.438,52.282,111.32,52.256,111.201,52.24z"/>
<g>
	<path fill="#010000" d="M139.527,100H143l5.201,15h-3.33l-0.971-3h-5.41l-0.998,3h-3.212L139.527,100z M139.322,110h3.764
		l-1.854-5.783L139.322,110z"/>
	<path fill="#010000" d="M159.688,100v3h-5v12h-3v-12h-4v-3H159.688z"/>
	<path fill="#010000" d="M170.786,100h4.901v15h-3v-9.752c0-0.285-0.17-0.688-0.162-1.202c0.007-0.515-0.076-1.005-0.076-1.285
		L169.578,115h-2.984l-2.764-12.239c0,0.28-0.077,0.724-0.072,1.238c0.006,0.515-0.07,0.964-0.07,1.249V115h-3v-15h4.769
		l2.676,11.556L170.786,100z"/>
</g>
<g>
	<path fill="#010000" d="M180.201,79h-44.268c-0.01,1.653-0.022,3.321-0.041,5h44.309c1.724,0,3.486,0.494,3.486,4.16v39.607
		c0,2.996-1.334,6.231-3.49,6.231h-16.902c1.396,1.408,2.713,3.06,3.771,5h13.131c5.515,0,8.49-5.787,8.49-11.231V88.16
		C188.688,82.51,185.436,79,180.201,79z"/>
	<path fill="#010000" d="M163.729,143.695c-0.002,0.006-0.003,0.012-0.005,0.018c-0.186-0.512-0.387-1.016-0.608-1.493
		c-1.032-2.229-2.57-4.033-4.336-5.626c-0.072-0.065-0.146-0.13-0.221-0.195c-0.332-0.293-0.672-0.58-1.018-0.86
		c-0.095-0.077-0.188-0.154-0.283-0.23c-0.416-0.329-0.837-0.653-1.266-0.969c-5.121-3.746-10.82-6.464-16.775-8.53
		c-5.188-1.814-10.512-3.258-15.753-4.873c-0.266-0.097-0.631-0.291-0.808-0.485c-0.052-0.062-0.088-0.123-0.09-0.181
		c-0.099-2.494-0.115-4.992-0.08-7.493c0-0.388,0.326-0.864,0.615-1.18c0.969-1.125,2.075-2.144,2.975-3.323
		c3.097-4.047,4.291-8.822,4.548-13.772c0.31-6.039,0.31-12.089,0.341-18.121c0-1.859-0.193-3.742-0.5-5.585
		c-0.664-3.939-2.038-7.458-4.323-10.398c-1.372-1.771-3.073-3.332-5.148-4.648c-4.894-3.088-10.294-4.146-16-3.64
		c-4.777,0.422-9.157,1.933-12.931,4.975c-5.2,4.23-7.522,9.947-7.926,16.431c-0.474,7.564-0.544,15.132,0.327,22.698
		c0.521,4.507,1.838,8.636,4.43,12.155c0.861,1.173,1.864,2.278,3.026,3.308c0.07,0.061,0.138,0.133,0.199,0.211
		c0.184,0.243,0.313,0.547,0.313,0.804c0.062,2.307,0,4.611,0.053,6.917c0.026,0.916-0.324,1.224-1.197,1.406
		c-7.398,1.786-14.619,4.102-21.55,7.232c-5.014,2.25-9.824,4.852-13.862,8.671c-2.815,2.64-5.146,5.649-5.332,9.642
		c-0.218,4.433-0.055,20.62-0.055,25.104c0.005,0,0.011,0,0.016,0c0,0.007,0,0.016,0,0.022c29.559,0,59.073,0,88.589-0.004
		l0.024-0.023c2.356-0.001,4.714-0.001,7.07-0.002l-0.021,0.021c4.114,0,8.229,0,12.344-0.001l0.021-0.021
		c1.974-0.001,3.947-0.001,5.921-0.001c0-1.236,0.008-3.387,0.018-5.936l0.02-0.021c0.021-6.585,0.047-15.815-0.073-18.933
		C164.37,145.742,164.094,144.696,163.729,143.695z M89.688,154.062c0,1.623-1.315,2.938-2.938,2.938H67.938
		c-1.623,0-2.938-1.314-2.938-2.938v-4.123c0-1.623,1.315-2.938,2.938-2.938H86.75c1.623,0,2.938,1.315,2.938,2.938V154.062z"/>
</g>
</svg>
