<?xml version="1.0" encoding="utf-8"?>
<!-- Generator: Adobe Illustrator 16.0.0, SVG Export Plug-In . SVG Version: 6.00 Build 0)  -->
<!DOCTYPE svg PUBLIC "-//W3C//DTD SVG 1.1//EN" "http://www.w3.org/Graphics/SVG/1.1/DTD/svg11.dtd">
<svg version="1.1" id="Layer_1" xmlns="http://www.w3.org/2000/svg" xmlns:xlink="http://www.w3.org/1999/xlink" x="0px" y="0px"
	 width="225px" height="225px" viewBox="0 0 225 225" enable-background="new 0 0 225 225" xml:space="preserve">
<g>
	<polygon fill="#010000" points="56.223,108.099 64.551,108.099 60.449,95.299 	"/>
	<path fill="#010000" d="M132.413,64.375H50.262C43.488,64.375,38,70.172,38,77.324v59.564c0,7.152,5.488,12.949,12.262,12.949
		h82.151c6.772,0,12.262-5.797,12.262-12.949V77.324C144.675,70.172,139.186,64.375,132.413,64.375z M68.502,120.387l-2.15-6.684
		H54.379l-2.208,6.684h-7.106l11.611-32.521h7.688l11.508,32.521H68.502z M100.307,93.625h-9.732v26.761h-6.843V93.625h-9.77v-5.761
		h26.345V93.625z M135.629,120.387h-6.332V98.389c0-0.632,0.004-1.521,0.023-2.661c0.014-1.14,0.021-2.015,0.021-2.636
		l-6.163,27.294h-6.604l-6.118-27.294c0,0.621,0.008,1.497,0.019,2.636c0.014,1.14,0.021,2.028,0.021,2.661v21.998h-6.332V87.865
		h9.89l5.922,25.57l5.875-25.57h9.778L135.629,120.387L135.629,120.387z"/>
</g>
<path fill="#010000" d="M169.852,77.941c0,1.391-1.127,2.517-2.518,2.517h-8.844c-1.391,0-2.518-1.126-2.518-2.517v-8.844
	c0-1.391,1.127-2.517,2.518-2.517h8.844c1.391,0,2.518,1.126,2.518,2.517V77.941z"/>
<path fill="#010000" d="M192,77.941c0,1.391-1.127,2.517-2.518,2.517h-8.845c-1.391,0-2.518-1.126-2.518-2.517v-8.844
	c0-1.391,1.127-2.517,2.518-2.517h8.845c1.391,0,2.518,1.126,2.518,2.517V77.941z"/>
<path fill="#010000" d="M169.852,100.636c0,1.391-1.127,2.517-2.518,2.517h-8.844c-1.391,0-2.518-1.126-2.518-2.517v-8.844
	c0-1.39,1.127-2.518,2.518-2.518h8.844c1.391,0,2.518,1.127,2.518,2.518V100.636z"/>
<path fill="#010000" d="M192,100.636c0,1.391-1.127,2.517-2.518,2.517h-8.845c-1.391,0-2.518-1.126-2.518-2.517v-8.844
	c0-1.39,1.127-2.518,2.518-2.518h8.845c1.391,0,2.518,1.127,2.518,2.518V100.636z"/>
<path fill="#010000" d="M169.852,146.025c0,1.391-1.127,2.518-2.518,2.518h-8.844c-1.391,0-2.518-1.127-2.518-2.518v-8.844
	c0-1.392,1.127-2.519,2.518-2.519h8.844c1.391,0,2.518,1.127,2.518,2.519V146.025z"/>
<path fill="#010000" d="M192,146.025c0,1.391-1.127,2.518-2.518,2.518h-8.845c-1.391,0-2.518-1.127-2.518-2.518v-8.844
	c0-1.392,1.127-2.519,2.518-2.519h8.845c1.391,0,2.518,1.127,2.518,2.519V146.025z"/>
<path fill="#010000" d="M169.852,123.332c0,1.391-1.127,2.518-2.518,2.518h-8.844c-1.391,0-2.518-1.127-2.518-2.518v-8.845
	c0-1.39,1.127-2.52,2.518-2.52h8.844c1.391,0,2.518,1.13,2.518,2.52V123.332z"/>
<path fill="#010000" d="M192,123.332c0,1.391-1.127,2.518-2.518,2.518h-8.845c-1.391,0-2.518-1.127-2.518-2.518v-8.845
	c0-1.39,1.127-2.52,2.518-2.52h8.845c1.391,0,2.518,1.13,2.518,2.52V123.332z"/>
<path fill="#010000" d="M186.439,168.973H39.379c-1.381,0-2.5-1.119-2.5-2.5s1.119-2.5,2.5-2.5h147.061c1.382,0,2.5,1.119,2.5,2.5
	S187.82,168.973,186.439,168.973z"/>
</svg>
