<?xml version="1.0" encoding="utf-8"?>
<!-- Generator: Adobe Illustrator 16.0.0, SVG Export Plug-In . SVG Version: 6.00 Build 0)  -->
<!DOCTYPE svg PUBLIC "-//W3C//DTD SVG 1.1//EN" "http://www.w3.org/Graphics/SVG/1.1/DTD/svg11.dtd">
<svg version="1.1" id="Layer_1" xmlns="http://www.w3.org/2000/svg" xmlns:xlink="http://www.w3.org/1999/xlink" x="0px" y="0px"
	 width="225px" height="225px" viewBox="0 0 225 225" enable-background="new 0 0 225 225" xml:space="preserve">
<g>
	<circle fill="#FF8158" cx="5346.54" cy="217.932" r="112.265"/>
</g>
<g>
	<rect x="5270" y="201" fill="#FFFFFF" width="102" height="15"/>
	<path fill="none" stroke="#FFFFFF" stroke-width="5" stroke-miterlimit="10" d="M5373,243.73c0,5.578-4.339,10.729-9.189,10.729
		h-84.082c-4.855,0-10.104-5.151-10.104-10.729v-50.491c0-5.577,5.249-9.222,10.104-9.222h84.082c4.852,0,9.189,3.645,9.189,9.222
		V243.73z"/>
</g>
<path fill="none" stroke="#FFFFFF" stroke-width="5" stroke-linecap="round" stroke-miterlimit="10" d="M5406.875,171.34
	c26.049,26.053,28.023,67.061,5.924,95.379"/>
<path fill="none" stroke="#FFFFFF" stroke-width="5" stroke-linecap="round" stroke-miterlimit="10" d="M5396.32,185.959
	c17.926,17.924,19.283,46.143,4.078,65.629"/>
<path fill="none" stroke="#FFFFFF" stroke-width="5" stroke-linecap="round" stroke-miterlimit="10" d="M5388.336,202.912
	c8.805,8.804,9.475,22.666,2.004,32.234"/>
<path d="M164.436,146.83c-0.07-1.533-0.635-3.125-1.284-4.523c-1.549-3.342-4.222-5.744-7.123-7.881
	c-5.12-3.746-10.82-6.463-16.775-8.529c-5.19-1.816-10.511-3.258-15.754-4.873c-0.36-0.131-0.906-0.443-0.916-0.689
	c-0.096-2.494-0.113-4.994-0.077-7.494c0-0.387,0.325-0.863,0.614-1.18c0.969-1.125,2.076-2.143,2.975-3.322
	c3.097-4.047,4.292-8.822,4.547-13.773c0.309-6.037,0.309-12.088,0.342-18.121c0-1.857-0.193-3.742-0.499-5.584
	c-1.065-6.299-3.94-11.525-9.457-15.023c-4.892-3.09-10.293-4.146-16-3.641c-4.776,0.422-9.156,1.93-12.93,4.975
	c-5.2,4.23-7.522,9.947-7.927,16.43c-0.474,7.564-0.544,15.133,0.327,22.699c0.694,5.998,2.795,11.326,7.44,15.439
	c0.291,0.248,0.527,0.689,0.527,1.039c0.062,2.307,0,4.611,0.054,6.916c0.027,0.916-0.324,1.223-1.195,1.406
	c-7.399,1.787-14.62,4.102-21.552,7.232c-5.014,2.25-9.825,4.852-13.862,8.672c-2.815,2.639-5.147,5.648-5.332,9.641
	c-0.218,4.432-0.053,20.621-0.053,25.104c38.027,0,75.982,0,113.963-0.008C164.488,167.309,164.602,151.164,164.436,146.83z
	 M90,154.062c0,1.623-1.315,2.938-2.938,2.938H67.938c-1.622,0-2.938-1.315-2.938-2.938v-4.123c0-1.623,1.315-2.938,2.938-2.938
	h19.125c1.622,0,2.938,1.315,2.938,2.938V154.062z"/>
<g>
	<path d="M160.24,122.029h10.57c1.334,0,2.433-1.047,2.497-2.379l2.04-42.003c0.033-0.683-0.215-1.35-0.687-1.845
		c-0.473-0.496-1.126-0.776-1.811-0.776h-14.742c-0.685,0-1.34,0.281-1.812,0.778c-0.473,0.496-0.72,1.165-0.686,1.849l2.132,42.003
		C157.811,120.985,158.909,122.029,160.24,122.029z M170.227,80.026l-1.798,37.003h-5.812l-1.878-37.003H170.227z"/>
	<path d="M165.268,126.377c-3.07,0-5.688,1.194-7.482,3.176c0.404,0.281,0.812,0.558,1.208,0.847
		c0.89,0.655,1.844,1.406,2.801,2.244c0.872-0.799,2.058-1.267,3.474-1.267c2.996,0,4.896,1.981,4.955,5.123
		c0,2.024-0.834,3.569-2.238,4.411c0.745,1.741,1.194,3.358,1.362,4.911c3.559-1.496,5.876-4.973,5.876-9.369
		C175.11,130.521,171.017,126.377,165.268,126.377z"/>
	<path d="M164.406,146.582c-0.116-1.456-0.641-2.952-1.255-4.275c-0.247-0.532-0.53-1.033-0.831-1.521
		c-0.83-0.554-1.437-1.369-1.777-2.372c-1.329-1.491-2.881-2.785-4.515-3.988c-0.175-0.128-0.354-0.245-0.531-0.37
		c-0.17,0.777-0.27,1.591-0.27,2.444C155.228,142.07,159.039,146.183,164.406,146.582z"/>
</g>
</svg>
