<?xml version="1.0" encoding="utf-8"?>
<!-- Generator: Adobe Illustrator 16.0.0, SVG Export Plug-In . SVG Version: 6.00 Build 0)  -->
<!DOCTYPE svg PUBLIC "-//W3C//DTD SVG 1.1//EN" "http://www.w3.org/Graphics/SVG/1.1/DTD/svg11.dtd">
<svg version="1.1" id="Layer_1" xmlns="http://www.w3.org/2000/svg" xmlns:xlink="http://www.w3.org/1999/xlink" x="0px" y="0px"
	 width="225px" height="225px" viewBox="0 0 225 225" enable-background="new 0 0 225 225" xml:space="preserve">
<g>
	<circle fill="#FF8158" cx="5346.54" cy="217.932" r="112.265"/>
</g>
<g>
	<rect x="5270" y="201" fill="#FFFFFF" width="102" height="15"/>
	<path fill="none" stroke="#FFFFFF" stroke-width="5" stroke-miterlimit="10" d="M5373,243.73c0,5.578-4.339,10.729-9.189,10.729
		h-84.082c-4.855,0-10.104-5.151-10.104-10.729v-50.491c0-5.577,5.249-9.222,10.104-9.222h84.082c4.852,0,9.189,3.645,9.189,9.222
		V243.73z"/>
</g>
<path fill="none" stroke="#FFFFFF" stroke-width="5" stroke-linecap="round" stroke-miterlimit="10" d="M5406.875,171.34
	c26.049,26.053,28.023,67.061,5.924,95.379"/>
<path fill="none" stroke="#FFFFFF" stroke-width="5" stroke-linecap="round" stroke-miterlimit="10" d="M5396.32,185.959
	c17.926,17.924,19.283,46.143,4.078,65.629"/>
<path fill="none" stroke="#FFFFFF" stroke-width="5" stroke-linecap="round" stroke-miterlimit="10" d="M5388.336,202.912
	c8.805,8.804,9.475,22.666,2.004,32.234"/>
<path d="M179,169H45c-1.381,0-2.5-1.119-2.5-2.5s1.119-2.5,2.5-2.5h134c1.381,0,2.5,1.119,2.5,2.5S180.381,169,179,169z"/>
<path d="M60.5,158.5c-1.381,0-2.5-1.119-2.5-2.5v-42c0-1.381,1.119-2.5,2.5-2.5s2.5,1.119,2.5,2.5v42
	C63,157.381,61.881,158.5,60.5,158.5z"/>
<path d="M94.5,158.5c-1.381,0-2.5-1.119-2.5-2.5v-42c0-1.381,1.119-2.5,2.5-2.5s2.5,1.119,2.5,2.5v42
	C97,157.381,95.881,158.5,94.5,158.5z"/>
<path d="M127.5,158.5c-1.381,0-2.5-1.119-2.5-2.5v-42c0-1.381,1.119-2.5,2.5-2.5s2.5,1.119,2.5,2.5v42
	C130,157.381,128.881,158.5,127.5,158.5z"/>
<path d="M161.5,158.5c-1.381,0-2.5-1.119-2.5-2.5v-42c0-1.381,1.119-2.5,2.5-2.5s2.5,1.119,2.5,2.5v42
	C164,157.381,162.881,158.5,161.5,158.5z"/>
<path d="M190.191,101.431l-75.829-51.387c-0.848-0.574-1.958-0.574-2.805,0l-75.83,51.386c-0.909,0.616-1.31,1.753-0.988,2.803
	S36.032,106,37.13,106h151.659c1.099,0,2.067-0.717,2.39-1.767S191.101,102.046,190.191,101.431z M121.562,94.314L121.562,94.314
	c-2.47,1.832-5.434,2.809-8.55,2.809c-5.71,0-10.642-3.344-12.977-8.169H97c-1.381,0-2.5-1.119-2.5-2.5s1.119-2.5,2.5-2.5h1.654
	c-0.036-0.413-0.063-0.829-0.063-1.251c0-0.294,0.027-0.582,0.044-0.872H97c-1.381,0-2.5-1.119-2.5-2.5s1.119-2.5,2.5-2.5h2.853
	c2.254-5.03,7.3-8.549,13.16-8.549c2.985,0,5.851,0.905,8.286,2.618c1.13,0.794,1.401,2.354,0.607,3.483
	c-0.793,1.13-2.354,1.402-3.482,0.607c-1.59-1.117-3.461-1.708-5.411-1.708c-2.975,0-5.627,1.389-7.355,3.549h6.283
	c1.381,0,2.5,1.119,2.5,2.5s-1.119,2.5-2.5,2.5h-8.306c-0.027,0.288-0.044,0.577-0.044,0.872c0,0.425,0.038,0.841,0.093,1.251h8.257
	c1.381,0,2.5,1.119,2.5,2.5s-1.119,2.5-2.5,2.5h-5.957c1.727,1.939,4.234,3.169,7.029,3.169c2.035,0,3.97-0.637,5.595-1.842
	l0.046-0.035c0.444-0.388,1.018-0.631,1.653-0.631c1.395,0,2.523,1.13,2.523,2.523C122.83,93.072,122.317,93.878,121.562,94.314z"/>
</svg>
