<?xml version="1.0" encoding="utf-8"?>
<!-- Generator: Adobe Illustrator 16.0.0, SVG Export Plug-In . SVG Version: 6.00 Build 0)  -->
<!DOCTYPE svg PUBLIC "-//W3C//DTD SVG 1.1//EN" "http://www.w3.org/Graphics/SVG/1.1/DTD/svg11.dtd">
<svg version="1.1" id="Layer_1" xmlns="http://www.w3.org/2000/svg" xmlns:xlink="http://www.w3.org/1999/xlink" x="0px" y="0px"
	 width="225px" height="225px" viewBox="0 0 225 225" enable-background="new 0 0 225 225" xml:space="preserve">
<path fill="#010000" d="M179,169H45c-1.381,0-2.5-1.119-2.5-2.5s1.119-2.5,2.5-2.5h134c1.381,0,2.5,1.119,2.5,2.5
	S180.381,169,179,169z"/>
<path fill="#010000" d="M60.5,158.5c-1.381,0-2.5-1.119-2.5-2.5v-42c0-1.381,1.119-2.5,2.5-2.5s2.5,1.119,2.5,2.5v42
	C63,157.381,61.881,158.5,60.5,158.5z"/>
<path fill="#010000" d="M94.5,158.5c-1.381,0-2.5-1.119-2.5-2.5v-42c0-1.381,1.119-2.5,2.5-2.5s2.5,1.119,2.5,2.5v42
	C97,157.381,95.881,158.5,94.5,158.5z"/>
<path fill="#010000" d="M127.5,158.5c-1.381,0-2.5-1.119-2.5-2.5v-42c0-1.381,1.119-2.5,2.5-2.5s2.5,1.119,2.5,2.5v42
	C130,157.381,128.881,158.5,127.5,158.5z"/>
<path fill="#010000" d="M161.5,158.5c-1.381,0-2.5-1.119-2.5-2.5v-42c0-1.381,1.119-2.5,2.5-2.5s2.5,1.119,2.5,2.5v42
	C164,157.381,162.881,158.5,161.5,158.5z"/>
<path fill="#010000" d="M190.191,101.431l-75.83-51.387c-0.848-0.574-1.957-0.574-2.804,0l-75.83,51.386
	c-0.909,0.616-1.31,1.753-0.988,2.803c0.322,1.05,1.293,1.767,2.391,1.767h151.659c1.099,0,2.066-0.717,2.39-1.767
	C191.502,103.183,191.102,102.046,190.191,101.431z M121.562,94.314L121.562,94.314c-2.471,1.832-5.435,2.809-8.551,2.809
	c-5.71,0-10.642-3.344-12.977-8.169H97c-1.381,0-2.5-1.119-2.5-2.5s1.119-2.5,2.5-2.5h1.654c-0.036-0.413-0.063-0.829-0.063-1.251
	c0-0.294,0.027-0.582,0.044-0.872H97c-1.381,0-2.5-1.119-2.5-2.5s1.119-2.5,2.5-2.5h2.853c2.254-5.03,7.3-8.549,13.16-8.549
	c2.985,0,5.852,0.905,8.286,2.618c1.13,0.794,1.401,2.354,0.607,3.483c-0.793,1.13-2.354,1.402-3.482,0.607
	c-1.59-1.117-3.461-1.708-5.411-1.708c-2.975,0-5.627,1.389-7.354,3.549h6.283c1.381,0,2.5,1.119,2.5,2.5s-1.119,2.5-2.5,2.5h-8.306
	c-0.027,0.288-0.044,0.577-0.044,0.872c0,0.425,0.038,0.841,0.093,1.251h8.257c1.381,0,2.5,1.119,2.5,2.5s-1.119,2.5-2.5,2.5h-5.957
	c1.727,1.939,4.234,3.169,7.029,3.169c2.035,0,3.97-0.637,5.595-1.842l0.047-0.035c0.443-0.388,1.018-0.631,1.652-0.631
	c1.396,0,2.523,1.13,2.523,2.522C122.83,93.072,122.316,93.878,121.562,94.314z"/>
</svg>
