<?xml version="1.0" encoding="utf-8"?>
<!-- Generator: Adobe Illustrator 16.0.0, SVG Export Plug-In . SVG Version: 6.00 Build 0)  -->
<!DOCTYPE svg PUBLIC "-//W3C//DTD SVG 1.1//EN" "http://www.w3.org/Graphics/SVG/1.1/DTD/svg11.dtd">
<svg version="1.1" id="Layer_1" xmlns="http://www.w3.org/2000/svg" xmlns:xlink="http://www.w3.org/1999/xlink" x="0px" y="0px"
	 width="225.07px" height="225.07px" viewBox="0 0 225.07 225.07" enable-background="new 0 0 225.07 225.07" xml:space="preserve">
<g>
	<g>
		<path fill="#ffffff" d="M153.244,169.562H71.827v-61.11l10.059-8.731h6.926V80.18l9.544-16.182h7.438v-8.489h13.489v8.489h7.42
			l9.562,16.181v19.543h6.924l10.057,8.731V169.562z M76.827,164.562h71.417v-53.828l-6.924-6.013h-10.057V81.545l-7.416-12.548
			h-9.566v-8.489h-3.489v8.489h-9.582l-7.399,12.546v23.177H83.752l-6.926,6.013V164.562z"/>
	</g>
	<g>
		<rect x="102.082" y="82.317" fill="#ffffff" width="7.511" height="7.51"/>
	</g>
	<g>
		<rect x="116.082" y="82.317" fill="#ffffff" width="7.51" height="7.51"/>
	</g>
	<g>
		<rect x="116.082" y="96.317" fill="#ffffff" width="7.51" height="7.51"/>
	</g>
	<g>
		<rect x="102.082" y="96.317" fill="#ffffff" width="7.511" height="7.51"/>
	</g>
	<g>
		<rect x="94.082" y="117.381" fill="#ffffff" width="7.511" height="7.51"/>
	</g>
	<g>
		<rect x="109.082" y="117.381" fill="#ffffff" width="7.51" height="7.51"/>
	</g>
	<g>
		<rect x="109.082" y="133.381" fill="#ffffff" width="7.51" height="7.51"/>
	</g>
	<g>
		<rect x="94.082" y="133.381" fill="#ffffff" width="7.511" height="7.51"/>
	</g>
	<g>
		<rect x="94.082" y="149.381" fill="#ffffff" width="7.511" height="7.51"/>
	</g>
	<g>
		<rect x="109.082" y="149.381" fill="#ffffff" width="7.51" height="7.51"/>
	</g>
	<g>
		<rect x="124.082" y="117.381" fill="#ffffff" width="7.51" height="7.51"/>
	</g>
	<g>
		<rect x="124.082" y="133.381" fill="#ffffff" width="7.51" height="7.51"/>
	</g>
	<g>
		<rect x="124.082" y="149.381" fill="#ffffff" width="7.51" height="7.51"/>
	</g>
</g>
</svg>
