<?xml version="1.0" encoding="utf-8"?>
<!-- Generator: Adobe Illustrator 16.0.0, SVG Export Plug-In . SVG Version: 6.00 Build 0)  -->
<!DOCTYPE svg PUBLIC "-//W3C//DTD SVG 1.1//EN" "http://www.w3.org/Graphics/SVG/1.1/DTD/svg11.dtd">
<svg version="1.1" id="Layer_1" xmlns="http://www.w3.org/2000/svg" xmlns:xlink="http://www.w3.org/1999/xlink" x="0px" y="0px"
	 width="225px" height="225px" viewBox="0 0 225 225" enable-background="new 0 0 225 225" xml:space="preserve">
<path fill="#050505" d="M89.82,84.51c7.854,0,14.219,6.364,14.219,14.218c0,7.852-6.365,14.217-14.219,14.217V84.51z"/>
<path fill="#050505" d="M106,62c-1.381,0-2.5-1.119-2.5-2.5v-15c0-1.381,1.119-2.5,2.5-2.5s2.5,1.119,2.5,2.5v15
	C108.5,60.881,107.381,62,106,62z"/>
<path fill="#050505" d="M74.745,66.29c-0.64,0-1.28-0.244-1.768-0.732L61.162,53.74c-0.976-0.978-0.976-2.559,0-3.536
	c0.977-0.976,2.559-0.976,3.536,0l11.814,11.817c0.977,0.977,0.977,2.559,0,3.536C76.024,66.046,75.385,66.29,74.745,66.29z"/>
<path fill="#050505" d="M137.838,66.29c-0.64,0-1.279-0.244-1.768-0.732c-0.978-0.977-0.978-2.56,0-3.536l11.815-11.817
	c0.978-0.977,2.56-0.976,3.535,0c0.978,0.977,0.978,2.56,0,3.536l-11.815,11.817C139.117,66.046,138.479,66.29,137.838,66.29z"/>
<g>
	<path fill="#050505" d="M133,83.948v8.512c1.324-0.292,2.682-0.521,4.074-0.678c0.31-0.035,0.615-0.051,0.926-0.08v-7.754
		c0-9.531-7.207-16.448-17.138-16.448H94.193C84.963,67.5,75,73.789,75,83.948V120.5c0,1.381,1.119,2.5,2.5,2.5s2.5-1.119,2.5-2.5
		V83.948C80,76.877,87.367,72.5,94.193,72.5h26.669C128.009,72.5,133,77.208,133,83.948z"/>
</g>
<g>
	<path fill="#050505" d="M172.062,173.79c-0.543,0.034-0.806-0.19-1.021-0.665c-1.098-2.434-2.253-4.857-3.35-7.303
		c-0.158-0.363-0.229-0.814-0.185-1.21c0.478-4.189,0.976-8.371,1.472-12.563c0.748-6.283,1.52-12.564,2.269-18.849
		c0.315-2.634,0.835-5.273,0.848-7.904c0.022-6.457-2.082-12.287-6.19-17.263c-7.346-8.855-16.911-12.575-28.266-11.283
		c-5.002,0.565-9.445,2.095-13.291,4.569v-0.001c-0.442,0.285-0.876,0.583-1.303,0.894c-0.149,0.108-0.294,0.225-0.441,0.337
		c-0.281,0.212-0.561,0.425-0.834,0.649c-0.178,0.145-0.351,0.297-0.525,0.447c-0.235,0.202-0.47,0.405-0.7,0.615
		c-0.183,0.167-0.363,0.34-0.543,0.513c-0.213,0.205-0.424,0.413-0.632,0.626c-0.182,0.186-0.362,0.374-0.541,0.566
		c-0.197,0.212-0.392,0.431-0.585,0.651c-0.177,0.202-0.354,0.403-0.527,0.611c-0.188,0.225-0.37,0.457-0.553,0.688
		c-0.168,0.213-0.339,0.424-0.503,0.644c-0.19,0.254-0.374,0.518-0.559,0.78c-0.147,0.208-0.299,0.41-0.441,0.624
		c-0.001,0-0.001,0-0.001,0l0,0c-0.33,0.49-0.652,0.991-0.964,1.507c-2.794,4.611-4.22,9.673-3.745,15.104
		c0.183,2.137,0.424,4.268,0.681,6.397c0.001,0.01,0.002,0.019,0.003,0.028c0.362,3.008,0.761,6.014,1.118,9.025
		c0.441,3.65,0.873,7.314,1.312,10.975h-0.001c0.2,1.667,0.399,3.332,0.599,5c0.271,2.275,0.548,4.548,0.815,6.822
		c0.033,0.264-0.01,0.598-0.125,0.859c-1.153,2.522-2.307,5.029-3.52,7.526c-0.125,0.261-0.544,0.522-0.85,0.543
		c-0.915,0.079-1.844,0.035-2.759,0.035c0,3.554,0,6.973,0,10.39c22.218,0,44.369,0,66.552,0c0-3.465,0-6.869,0-10.39
		C173.807,173.786,172.932,173.751,172.062,173.79z M123.481,132.98c0.028-0.277,0.097-0.565,0.19-0.86
		c0.035-0.106,0.064-0.212,0.109-0.321c0.043-0.11,0.094-0.222,0.146-0.334c0.123-0.258,0.255-0.519,0.426-0.787
		c0.16-0.252,0.342-0.482,0.533-0.7c0.055-0.063,0.113-0.121,0.171-0.181c0.147-0.154,0.303-0.3,0.465-0.435
		c0.064-0.054,0.128-0.108,0.195-0.159c0.205-0.155,0.419-0.298,0.644-0.423c0.021-0.013,0.042-0.028,0.064-0.041
		c0.247-0.134,0.506-0.244,0.771-0.34c0.076-0.028,0.154-0.049,0.231-0.073c0.197-0.062,0.397-0.114,0.601-0.155
		c0.09-0.018,0.179-0.035,0.27-0.049c0.23-0.035,0.464-0.057,0.7-0.064c0.055-0.001,0.108-0.009,0.163-0.01
		c0.189-0.001,0.382,0.022,0.574,0.04c0.13,0.012,0.259,0.01,0.39,0.03c0.32,0.048,0.642,0.12,0.962,0.221
		c2.228,0.698,5.613,3.155,7.233,5.236c-0.151,0.169-0.307,0.315-0.459,0.475c0.002,0.001,0.005,0.002,0.007,0.003
		c-3.473,3.594-7.322,4.305-11.728,2.514C124.184,135.764,123.321,134.516,123.481,132.98z M150.464,154.959
		c-0.68,0.135-1.359,0.252-2.038,0.356c-0.193,0.03-0.387,0.055-0.58,0.082c-0.506,0.071-1.012,0.136-1.517,0.19
		c-0.224,0.023-0.446,0.047-0.67,0.067c-0.501,0.047-1.002,0.083-1.503,0.113c-0.199,0.012-0.398,0.027-0.599,0.036
		c-0.692,0.032-1.385,0.053-2.077,0.053c-0.067,0-0.135-0.004-0.201-0.004c-0.536-0.002-1.072-0.011-1.608-0.032
		c-0.012-0.001-0.022-0.002-0.034-0.002c-4.208-0.173-8.424-0.937-12.68-2.294c4.176-3.148,8.591-5.247,13.717-5.473
		c1.702-0.077,3.33,0.073,4.902,0.407c1.701,0.36,3.334,0.95,4.924,1.703v-0.013c1.897,0.9,3.73,2.046,5.533,3.363
		C154.17,154.109,152.314,154.59,150.464,154.959z M158.138,135.997c-2.694,1.567-5.579,2.017-8.581,0.931
		c-0.436-0.159-0.85-0.354-1.251-0.571c-0.124-0.067-0.239-0.148-0.36-0.221c-0.25-0.149-0.498-0.305-0.736-0.475
		c-0.142-0.102-0.281-0.209-0.42-0.317c-0.222-0.173-0.439-0.354-0.652-0.543c-0.115-0.103-0.231-0.202-0.344-0.309
		c-0.3-0.284-0.594-0.579-0.88-0.89c-0.016-0.018-0.033-0.033-0.049-0.051c0.21-0.215,0.422-0.427,0.634-0.638c0,0,0,0-0.001,0
		c1.944-1.938,3.991-3.69,6.641-4.562c3.205-1.047,6.487,0.646,7.414,3.787C160.062,133.882,159.7,135.08,158.138,135.997z"/>
	<path fill="#050505" d="M109.037,153H67.5v-8.391c0-7.978,7.621-11.609,14.701-11.609h24.394c-0.197-1.658-0.376-3.327-0.531-5
		H82.201c-11.416,0-19.701,6.984-19.701,16.609V155.5c0,1.381,1.119,2.5,2.5,2.5h44.634
		C109.443,156.396,109.244,154.734,109.037,153z"/>
	<path fill="#050505" d="M124.35,95.587V84.51c-7.854,0-14.221,6.364-14.221,14.218c0,2.725,0.78,5.262,2.11,7.425
		C115.533,101.595,119.609,98.047,124.35,95.587z"/>
</g>
</svg>
