<?xml version="1.0" encoding="utf-8"?>
<!-- Generator: Adobe Illustrator 15.1.0, SVG Export Plug-In . SVG Version: 6.00 Build 0)  -->
<!DOCTYPE svg PUBLIC "-//W3C//DTD SVG 1.1//EN" "http://www.w3.org/Graphics/SVG/1.1/DTD/svg11.dtd">
<svg version="1.1" id="Layer_1" xmlns="http://www.w3.org/2000/svg" xmlns:xlink="http://www.w3.org/1999/xlink" x="0px" y="0px"
	 width="225px" height="225px" viewBox="0 0 225 225" enable-background="new 0 0 225 225" xml:space="preserve">
<path fill="#ffffff" d="M89.82,84.51c7.854,0,14.219,6.364,14.219,14.218c0,7.852-6.365,14.217-14.219,14.217V84.51z"/>
<path fill="#ffffff" d="M106,62c-1.381,0-2.5-1.119-2.5-2.5v-15c0-1.381,1.119-2.5,2.5-2.5s2.5,1.119,2.5,2.5v15
	C108.5,60.881,107.381,62,106,62z"/>
<path fill="#ffffff" d="M74.745,66.29c-0.64,0-1.28-0.244-1.768-0.732L61.162,53.74c-0.976-0.978-0.976-2.559,0-3.536
	c0.977-0.976,2.559-0.976,3.536,0l11.814,11.817c0.977,0.977,0.977,2.559,0,3.536C76.024,66.046,75.385,66.29,74.745,66.29z"/>
<path fill="#ffffff" d="M137.838,66.29c-0.64,0-1.279-0.244-1.768-0.732c-0.979-0.977-0.979-2.56,0-3.536l11.814-11.817
	c0.979-0.977,2.561-0.976,3.535,0c0.979,0.977,0.979,2.56,0,3.536l-11.814,11.817C139.117,66.046,138.479,66.29,137.838,66.29z"/>
<g>
	<path fill="#ffffff" d="M133,83.948v8.512c1.324-0.292,2.682-0.521,4.074-0.678c0.31-0.035,0.615-0.051,0.926-0.08v-7.754
		c0-9.531-7.207-16.448-17.139-16.448H94.193C84.963,67.5,75,73.789,75,83.948V120.5c0,1.381,1.119,2.5,2.5,2.5s2.5-1.119,2.5-2.5
		V83.948C80,76.877,87.367,72.5,94.193,72.5h26.668C128.009,72.5,133,77.208,133,83.948z"/>
</g>
<g>
	<path fill="#ffffff" d="M172.062,173.79c-0.543,0.034-0.807-0.19-1.021-0.665c-1.098-2.434-2.253-4.857-3.35-7.303
		c-0.158-0.363-0.229-0.814-0.186-1.211c0.479-4.188,0.977-8.37,1.473-12.562c0.748-6.283,1.52-12.564,2.269-18.849
		c0.315-2.634,0.835-5.273,0.849-7.904c0.021-6.457-2.082-12.287-6.191-17.263c-7.346-8.855-16.91-12.575-28.266-11.283
		c-5.002,0.565-9.445,2.095-13.291,4.569v-0.001c-0.441,0.285-0.875,0.583-1.303,0.894c-0.148,0.108-0.294,0.225-0.441,0.337
		c-0.281,0.212-0.561,0.425-0.834,0.649c-0.178,0.145-0.351,0.297-0.524,0.447c-0.235,0.202-0.47,0.405-0.7,0.615
		c-0.184,0.167-0.363,0.34-0.543,0.513c-0.213,0.205-0.424,0.413-0.632,0.626c-0.183,0.186-0.362,0.374-0.541,0.566
		c-0.197,0.212-0.392,0.431-0.585,0.651c-0.178,0.202-0.354,0.403-0.527,0.611c-0.188,0.225-0.369,0.457-0.553,0.688
		c-0.168,0.213-0.339,0.424-0.503,0.644c-0.19,0.254-0.374,0.518-0.56,0.78c-0.146,0.208-0.299,0.41-0.44,0.624
		c-0.001,0-0.001,0-0.001,0l0,0c-0.33,0.49-0.652,0.991-0.965,1.507c-2.793,4.611-4.219,9.673-3.744,15.104
		c0.183,2.137,0.424,4.268,0.681,6.396c0.001,0.01,0.002,0.02,0.003,0.028c0.362,3.008,0.761,6.015,1.118,9.024
		c0.44,3.65,0.873,7.314,1.312,10.976l0,0c0.199,1.667,0.398,3.332,0.599,5c0.271,2.274,0.548,4.548,0.815,6.821
		c0.032,0.265-0.011,0.599-0.125,0.859c-1.153,2.522-2.308,5.029-3.521,7.526c-0.125,0.261-0.544,0.522-0.85,0.543
		c-0.915,0.079-1.844,0.035-2.759,0.035c0,3.554,0,6.973,0,10.39c22.217,0,44.369,0,66.551,0c0-3.465,0-6.869,0-10.39
		C173.807,173.786,172.932,173.751,172.062,173.79z M123.48,132.98c0.028-0.277,0.098-0.565,0.19-0.86
		c0.035-0.106,0.063-0.212,0.108-0.321c0.044-0.109,0.095-0.222,0.146-0.334c0.123-0.258,0.256-0.52,0.426-0.787
		c0.16-0.252,0.342-0.482,0.533-0.699c0.055-0.063,0.113-0.121,0.172-0.182c0.146-0.154,0.303-0.3,0.465-0.436
		c0.063-0.053,0.127-0.107,0.194-0.158c0.205-0.155,0.419-0.298,0.644-0.423c0.021-0.013,0.043-0.028,0.064-0.041
		c0.247-0.134,0.506-0.244,0.771-0.341c0.076-0.027,0.154-0.049,0.23-0.072c0.197-0.062,0.397-0.114,0.602-0.155
		c0.09-0.019,0.179-0.035,0.27-0.049c0.23-0.035,0.465-0.058,0.7-0.063c0.055-0.002,0.108-0.01,0.163-0.011
		c0.189-0.001,0.382,0.022,0.574,0.04c0.13,0.012,0.259,0.01,0.39,0.03c0.319,0.048,0.642,0.12,0.962,0.221
		c2.229,0.698,5.613,3.155,7.232,5.236c-0.15,0.169-0.307,0.315-0.459,0.475c0.002,0.001,0.006,0.002,0.008,0.003
		c-3.473,3.594-7.322,4.305-11.729,2.514C124.184,135.764,123.32,134.516,123.48,132.98z M150.464,154.959
		c-0.68,0.135-1.358,0.252-2.038,0.355c-0.193,0.031-0.387,0.056-0.58,0.082c-0.506,0.071-1.012,0.137-1.517,0.19
		c-0.224,0.022-0.446,0.047-0.67,0.067c-0.501,0.047-1.002,0.082-1.503,0.113c-0.199,0.012-0.398,0.026-0.6,0.035
		c-0.691,0.032-1.385,0.053-2.076,0.053c-0.067,0-0.135-0.004-0.201-0.004c-0.536-0.002-1.072-0.011-1.608-0.031
		c-0.012-0.002-0.022-0.002-0.034-0.002c-4.207-0.174-8.424-0.938-12.68-2.295c4.176-3.147,8.591-5.246,13.717-5.473
		c1.702-0.076,3.33,0.073,4.902,0.407c1.701,0.36,3.334,0.95,4.924,1.703v-0.013c1.896,0.899,3.73,2.045,5.533,3.362
		C154.17,154.109,152.314,154.59,150.464,154.959z M158.139,135.997c-2.695,1.567-5.58,2.017-8.582,0.931
		c-0.436-0.158-0.85-0.354-1.25-0.57c-0.125-0.067-0.24-0.148-0.361-0.222c-0.25-0.149-0.497-0.305-0.735-0.475
		c-0.142-0.103-0.28-0.209-0.42-0.317c-0.222-0.173-0.438-0.354-0.651-0.543c-0.115-0.103-0.231-0.201-0.345-0.309
		c-0.3-0.284-0.594-0.579-0.88-0.891c-0.016-0.018-0.033-0.033-0.049-0.051c0.21-0.215,0.422-0.427,0.634-0.638c0,0,0,0-0.001,0
		c1.943-1.938,3.991-3.69,6.641-4.562c3.205-1.047,6.487,0.646,7.414,3.787C160.062,133.882,159.7,135.08,158.139,135.997z"/>
	<path fill="#ffffff" d="M109.037,153H67.5v-8.391c0-7.979,7.621-11.609,14.701-11.609h24.394c-0.197-1.658-0.376-3.327-0.531-5
		H82.201c-11.416,0-19.701,6.984-19.701,16.609V155.5c0,1.381,1.119,2.5,2.5,2.5h44.634
		C109.443,156.396,109.244,154.734,109.037,153z"/>
	<path fill="#ffffff" d="M124.35,95.587V84.51c-7.854,0-14.221,6.364-14.221,14.218c0,2.725,0.78,5.262,2.11,7.425
		C115.533,101.595,119.609,98.047,124.35,95.587z"/>
</g>
</svg>
