<?xml version="1.0" encoding="utf-8"?>
<!-- Generator: Adobe Illustrator 16.0.0, SVG Export Plug-In . SVG Version: 6.00 Build 0)  -->
<!DOCTYPE svg PUBLIC "-//W3C//DTD SVG 1.1//EN" "http://www.w3.org/Graphics/SVG/1.1/DTD/svg11.dtd">
<svg version="1.1" id="Layer_1" xmlns="http://www.w3.org/2000/svg" xmlns:xlink="http://www.w3.org/1999/xlink" x="0px" y="0px"
	 width="225px" height="225px" viewBox="0 0 225 225" enable-background="new 0 0 225 225" xml:space="preserve">
<g>
	<circle fill="#FF8158" cx="5346.54" cy="217.932" r="112.265"/>
</g>
<g>
	<rect x="5270" y="201" fill="#FFFFFF" width="102" height="15"/>
	<path fill="none" stroke="#FFFFFF" stroke-width="5" stroke-miterlimit="10" d="M5373,243.73c0,5.578-4.339,10.729-9.189,10.729
		h-84.082c-4.855,0-10.104-5.151-10.104-10.729v-50.491c0-5.577,5.249-9.222,10.104-9.222h84.082c4.852,0,9.189,3.645,9.189,9.222
		V243.73z"/>
</g>
<path fill="none" stroke="#FFFFFF" stroke-width="5" stroke-linecap="round" stroke-miterlimit="10" d="M5406.875,171.34
	c26.049,26.053,28.023,67.061,5.924,95.379"/>
<path fill="none" stroke="#FFFFFF" stroke-width="5" stroke-linecap="round" stroke-miterlimit="10" d="M5396.32,185.959
	c17.926,17.924,19.283,46.143,4.078,65.629"/>
<path fill="none" stroke="#FFFFFF" stroke-width="5" stroke-linecap="round" stroke-miterlimit="10" d="M5388.336,202.912
	c8.805,8.804,9.475,22.666,2.004,32.234"/>
<path fill="none" stroke="#000000" stroke-width="2.9891" stroke-miterlimit="10" d="M80.159,76.294"/>
<path fill="none" stroke="#000000" stroke-width="3.0515" stroke-miterlimit="10" d="M81.4,76.294"/>
<path fill="none" stroke="#000000" stroke-width="2.8311" stroke-miterlimit="10" d="M80.159,76.294"/>
<path d="M89.82,84.51c7.854,0,14.219,6.364,14.219,14.218c0,7.852-6.365,14.217-14.219,14.217"/>
<path d="M106,62c-1.381,0-2.5-1.119-2.5-2.5v-15c0-1.381,1.119-2.5,2.5-2.5s2.5,1.119,2.5,2.5v15C108.5,60.881,107.381,62,106,62z"
	/>
<path d="M74.745,66.29c-0.64,0-1.28-0.244-1.768-0.732L61.162,53.74c-0.976-0.977-0.976-2.559,0-3.536
	c0.977-0.976,2.559-0.976,3.536,0l11.815,11.817c0.976,0.977,0.976,2.559,0,3.536C76.024,66.046,75.385,66.29,74.745,66.29z"/>
<path d="M137.838,66.29c-0.64,0-1.279-0.244-1.768-0.732c-0.977-0.977-0.977-2.56,0-3.536l11.816-11.817
	c0.977-0.977,2.559-0.976,3.535,0c0.977,0.977,0.977,2.56,0,3.536l-11.816,11.817C139.117,66.046,138.478,66.29,137.838,66.29z"/>
<path d="M174.776,173.786c0,3.52,0,6.925,0,10.39c-22.184,0-44.335,0-66.553,0c0-3.417,0-6.836,0-10.39
	c0.915,0,1.844,0.044,2.759-0.035c0.306-0.021,0.725-0.282,0.85-0.543c1.213-2.497,2.366-5.004,3.52-7.527
	c0.115-0.261,0.158-0.595,0.125-0.859c-0.895-7.6-1.809-15.214-2.725-22.797c-0.612-5.154-1.359-10.287-1.802-15.451
	c-0.475-5.431,0.951-10.493,3.745-15.104c5.22-8.637,12.973-13.594,22.944-14.72c11.354-1.292,20.919,2.428,28.265,11.283
	c4.109,4.976,6.213,10.806,6.191,17.263c-0.013,2.631-0.533,5.27-0.848,7.904c-0.749,6.284-1.52,12.565-2.268,18.849
	c-0.496,4.192-0.995,8.374-1.472,12.563c-0.044,0.396,0.026,0.847,0.185,1.21c1.096,2.445,2.252,4.869,3.349,7.303
	c0.216,0.474,0.478,0.699,1.021,0.665C172.932,173.751,173.806,173.786,174.776,173.786z M156.033,153.514
	c-4.707-3.442-9.621-5.722-15.359-5.461c-5.127,0.225-9.542,2.325-13.719,5.474C136.723,156.637,146.266,156.637,156.033,153.514z
	 M138.32,133.575c-1.62-2.081-5.005-4.538-7.233-5.236c-2.616-0.819-5.321,0.115-6.733,2.339c-1.653,2.6-1.078,4.713,1.787,5.889
	C130.737,138.436,134.731,137.589,138.32,133.575z M144.863,133.552c1.365,1.495,2.863,2.706,4.694,3.376
	c3.002,1.086,5.886,0.637,8.581-0.931c1.562-0.917,1.924-2.115,1.414-3.859c-0.927-3.141-4.209-4.833-7.414-3.787
	C149.199,129.319,147.001,131.367,144.863,133.552z"/>
<g>
	<path d="M133,83.948v8.512c1.324-0.292,2.682-0.521,4.074-0.678c0.31-0.035,0.616-0.051,0.926-0.08v-7.754
		c0-9.531-7.207-16.448-17.138-16.448H94.193C84.963,67.5,75,73.789,75,83.948V120.5c0,1.381,1.119,2.5,2.5,2.5s2.5-1.119,2.5-2.5
		V83.948C80,76.877,87.367,72.5,94.193,72.5h26.669C128.009,72.5,133,77.208,133,83.948z"/>
</g>
<g>
	<path d="M123.479,133c0.07-0.717,0.346-1.491,0.874-2.322c1.071-1.688,2.887-2.632,4.844-2.632c0.622,0,1.259,0.096,1.89,0.293
		c2.229,0.698,5.613,3.155,7.233,5.236c-0.151,0.169-0.306,0.316-0.459,0.475c4.207,1.509,7.639,4.769,7.639,10.56v3.831
		c1.729,0.359,3.387,0.957,5,1.722v-5.553c0-3.085-0.778-5.875-2.189-8.251c-1.284-0.695-2.406-1.666-3.447-2.807
		c0.21-0.215,0.422-0.427,0.634-0.638c-3.354-3.093-8.19-4.914-13.931-4.914h-20.475c0.16,1.669,0.342,3.335,0.542,5H123.479z"/>
	<path d="M109.037,153H67.5v-8.391c0-7.977,7.621-11.609,14.701-11.609h24.394c-0.197-1.658-0.376-3.327-0.531-5H82.201
		c-11.416,0-19.701,6.985-19.701,16.609V155.5c0,1.381,1.119,2.5,2.5,2.5h44.634C109.443,156.397,109.244,154.734,109.037,153z"/>
	<path d="M148,158c1.381,0,2.5-1.119,2.5-2.5v-0.548c-3.016,0.603-6.018,0.905-9.021,0.905c-4.822,0-9.646-0.777-14.524-2.331
		c0.243-0.184,0.49-0.351,0.735-0.526h-13.627c0.2,1.667,0.399,3.332,0.598,5H148z"/>
</g>
<g>
	<path d="M115.659,109.963c2.404,1.862,5.413,2.981,8.689,2.981v-11.626C120.985,103.482,118.081,106.368,115.659,109.963z"/>
	<path d="M124.349,95.587V84.51c-7.854,0-14.22,6.364-14.22,14.218c0,2.725,0.78,5.262,2.11,7.425
		C115.533,101.595,119.61,98.047,124.349,95.587z"/>
</g>
</svg>
