<?xml version="1.0" encoding="utf-8"?>
<!-- Generator: Adobe Illustrator 16.0.0, SVG Export Plug-In . SVG Version: 6.00 Build 0)  -->
<!DOCTYPE svg PUBLIC "-//W3C//DTD SVG 1.1//EN" "http://www.w3.org/Graphics/SVG/1.1/DTD/svg11.dtd">
<svg version="1.1" id="Layer_1" xmlns="http://www.w3.org/2000/svg" xmlns:xlink="http://www.w3.org/1999/xlink" x="0px" y="0px"
	 width="225px" height="225px" viewBox="0 0 225 225" enable-background="new 0 0 225 225" xml:space="preserve">
<g>
	<path fill="#010000" d="M111.693,88.009c-13.691,0-24.83,11.139-24.83,24.831c0,13.692,11.139,24.832,24.83,24.832
		c13.693,0,24.834-11.14,24.834-24.832C136.527,99.148,125.387,88.009,111.693,88.009z"/>
	<path fill="#010000" d="M169.598,68H137v-3.489C137,58.153,131.848,53,125.489,53H98.511C92.153,53,87,58.153,87,64.511V68H55.402
		C48.553,68,43,73.553,43,80.402v65.196C43,152.447,48.553,158,55.402,158h114.196c6.851,0,12.401-5.553,12.401-12.402V80.402
		C182,73.553,176.447,68,169.598,68z M111.693,142.672c-16.448,0-29.83-13.383-29.83-29.832c0-16.449,13.382-29.831,29.83-29.831
		c16.45,0,29.834,13.382,29.834,29.831C141.527,129.289,128.145,142.672,111.693,142.672z"/>
</g>
</svg>
