<?xml version="1.0" encoding="utf-8"?>
<!-- Generator: Adobe Illustrator 16.0.0, SVG Export Plug-In . SVG Version: 6.00 Build 0)  -->
<!DOCTYPE svg PUBLIC "-//W3C//DTD SVG 1.1//EN" "http://www.w3.org/Graphics/SVG/1.1/DTD/svg11.dtd">
<svg version="1.1" id="Layer_1" xmlns="http://www.w3.org/2000/svg" xmlns:xlink="http://www.w3.org/1999/xlink" x="0px" y="0px"
	 width="225px" height="225px" viewBox="0 0 225 225" enable-background="new 0 0 225 225" xml:space="preserve">
<g>
	<circle fill="#FF8158" cx="5346.54" cy="217.932" r="112.265"/>
</g>
<g>
	<rect x="5270" y="201" fill="#FFFFFF" width="102" height="15"/>
	<path fill="none" stroke="#FFFFFF" stroke-width="5" stroke-miterlimit="10" d="M5373,243.73c0,5.578-4.339,10.729-9.189,10.729
		h-84.082c-4.855,0-10.104-5.151-10.104-10.729v-50.491c0-5.577,5.249-9.222,10.104-9.222h84.082c4.852,0,9.189,3.645,9.189,9.222
		V243.73z"/>
</g>
<path fill="none" stroke="#FFFFFF" stroke-width="5" stroke-linecap="round" stroke-miterlimit="10" d="M5406.875,171.34
	c26.049,26.053,28.023,67.061,5.924,95.379"/>
<path fill="none" stroke="#FFFFFF" stroke-width="5" stroke-linecap="round" stroke-miterlimit="10" d="M5396.32,185.959
	c17.926,17.924,19.283,46.143,4.078,65.629"/>
<path fill="none" stroke="#FFFFFF" stroke-width="5" stroke-linecap="round" stroke-miterlimit="10" d="M5388.336,202.912
	c8.805,8.804,9.475,22.666,2.004,32.234"/>
<g>
	<path d="M111.693,88.009c-13.691,0-24.83,11.139-24.83,24.831c0,13.692,11.139,24.832,24.83,24.832
		c13.693,0,24.834-11.14,24.834-24.832C136.527,99.148,125.387,88.009,111.693,88.009z"/>
	<path d="M169.598,68H137v-3.489C137,58.153,131.847,53,125.489,53H98.511C92.153,53,87,58.153,87,64.511V68H55.402
		C48.553,68,43,73.553,43,80.402v65.195C43,152.447,48.553,158,55.402,158h114.195c6.85,0,12.402-5.553,12.402-12.402V80.402
		C182,73.553,176.447,68,169.598,68z M111.693,142.672c-16.448,0-29.83-13.383-29.83-29.832c0-16.449,13.382-29.831,29.83-29.831
		c16.45,0,29.834,13.382,29.834,29.831C141.527,129.289,128.144,142.672,111.693,142.672z"/>
</g>
</svg>
