<?xml version="1.0" encoding="utf-8"?>
<!-- Generator: Adobe Illustrator 16.0.0, SVG Export Plug-In . SVG Version: 6.00 Build 0)  -->
<!DOCTYPE svg PUBLIC "-//W3C//DTD SVG 1.1//EN" "http://www.w3.org/Graphics/SVG/1.1/DTD/svg11.dtd">
<svg version="1.1" id="Layer_1" xmlns="http://www.w3.org/2000/svg" xmlns:xlink="http://www.w3.org/1999/xlink" x="0px" y="0px"
	 width="225px" height="225px" viewBox="0 0 225 225" enable-background="new 0 0 225 225" xml:space="preserve">
<g>
	<circle fill="#FF8158" cx="5346.54" cy="217.932" r="112.265"/>
</g>
<g>
	<rect x="5270" y="201" fill="#FFFFFF" width="102" height="15"/>
	<path fill="none" stroke="#FFFFFF" stroke-width="5" stroke-miterlimit="10" d="M5373,243.73c0,5.578-4.339,10.729-9.189,10.729
		h-84.082c-4.855,0-10.104-5.151-10.104-10.729v-50.491c0-5.577,5.249-9.222,10.104-9.222h84.082c4.852,0,9.189,3.645,9.189,9.222
		V243.73z"/>
</g>
<path fill="none" stroke="#FFFFFF" stroke-width="5" stroke-linecap="round" stroke-miterlimit="10" d="M5406.875,171.34
	c26.049,26.053,28.023,67.061,5.924,95.379"/>
<path fill="none" stroke="#FFFFFF" stroke-width="5" stroke-linecap="round" stroke-miterlimit="10" d="M5396.32,185.959
	c17.926,17.924,19.283,46.143,4.078,65.629"/>
<path fill="none" stroke="#FFFFFF" stroke-width="5" stroke-linecap="round" stroke-miterlimit="10" d="M5388.336,202.912
	c8.805,8.804,9.475,22.666,2.004,32.234"/>
<g>
	<path d="M142.998,38H86.316C80.584,38,76,40.425,76,46.937v102.289C76,155.737,80.584,164,86.316,164h4.834v-12.958h0.017v-0.916
		c0-0.656,0.445-1.188,0.996-1.188h44.841c0.551,0,0.996,0.532,0.996,1.188v0.916h0.02V164h4.979
		c5.732,0,10.002-8.263,10.002-14.774V46.937C153,40.425,148.73,38,142.998,38z M101.174,138.511c0,1.119-0.908,2.025-2.026,2.025
		h-7.12c-1.118,0-2.027-0.906-2.027-2.025v-7.119c0-1.119,0.909-2.027,2.027-2.027h7.12c1.118,0,2.026,0.908,2.026,2.027V138.511z
		 M101.174,118.908c0,1.119-0.908,2.026-2.026,2.026h-7.12c-1.118,0-2.027-0.907-2.027-2.026v-7.12c0-1.119,0.909-2.025,2.027-2.025
		h7.12c1.118,0,2.026,0.906,2.026,2.025V118.908z M101.174,99.187c0,1.12-0.908,2.027-2.026,2.027h-7.12
		c-1.118,0-2.027-0.907-2.027-2.027v-7.119c0-1.119,0.909-2.025,2.027-2.025h7.12c1.118,0,2.026,0.906,2.026,2.025V99.187z
		 M120.425,138.511c0,1.119-0.906,2.025-2.025,2.025h-7.119c-1.12,0-2.027-0.906-2.027-2.025v-7.119
		c0-1.119,0.907-2.027,2.027-2.027h7.119c1.119,0,2.025,0.908,2.025,2.027V138.511z M120.425,118.908
		c0,1.119-0.906,2.026-2.025,2.026h-7.119c-1.12,0-2.027-0.907-2.027-2.026v-7.12c0-1.119,0.907-2.025,2.027-2.025h7.119
		c1.119,0,2.025,0.906,2.025,2.025V118.908z M120.425,99.187c0,1.12-0.906,2.027-2.025,2.027h-7.119
		c-1.12,0-2.027-0.907-2.027-2.027v-7.119c0-1.119,0.907-2.025,2.027-2.025h7.119c1.119,0,2.025,0.906,2.025,2.025V99.187z
		 M139.5,138.511c0,1.119-0.907,2.025-2.024,2.025h-7.121c-1.119,0-2.025-0.906-2.025-2.025v-7.119c0-1.119,0.906-2.027,2.025-2.027
		h7.121c1.117,0,2.024,0.908,2.024,2.027V138.511z M139.5,118.908c0,1.119-0.907,2.026-2.024,2.026h-7.121
		c-1.119,0-2.025-0.907-2.025-2.026v-7.12c0-1.119,0.906-2.025,2.025-2.025h7.121c1.117,0,2.024,0.906,2.024,2.025V118.908z
		 M139.5,99.187c0,1.12-0.907,2.027-2.024,2.027h-7.121c-1.119,0-2.025-0.907-2.025-2.027v-7.119c0-1.119,0.906-2.025,2.025-2.025
		h7.121c1.117,0,2.024,0.906,2.024,2.025V99.187z M143,71.785C143,78.255,137.936,84,131.688,84H98.312
		C92.064,84,87,78.255,87,71.785v-12.57C87,52.745,92.064,48,98.312,48h33.376C137.936,48,143,52.745,143,59.215V71.785z"/>
	<path d="M131.52,153.146v23.729c0,3.584-2.916,6.5-6.5,6.5h-0.52v-30.229H116v30.229h-11.85c-3.584,0-6.5-2.916-6.5-6.5v-23.729
		h-1.5h-1.5V164v12.875c0,5.238,4.262,9.5,9.5,9.5h20.869c5.238,0,9.5-4.262,9.5-9.5V164v-10.854h-1.5H131.52z"/>
</g>
</svg>
