<?xml version="1.0" encoding="utf-8"?>
<!-- Generator: Adobe Illustrator 16.0.0, SVG Export Plug-In . SVG Version: 6.00 Build 0)  -->
<!DOCTYPE svg PUBLIC "-//W3C//DTD SVG 1.1//EN" "http://www.w3.org/Graphics/SVG/1.1/DTD/svg11.dtd">
<svg version="1.1" id="Layer_1" xmlns="http://www.w3.org/2000/svg" xmlns:xlink="http://www.w3.org/1999/xlink" x="0px" y="0px"
	 width="225px" height="225px" viewBox="0 0 225 225" enable-background="new 0 0 225 225" xml:space="preserve">
<path fill="#010000" d="M164.417,146.766c-0.069-1.533-0.634-3.125-1.284-4.522c-1.549-3.345-4.222-5.746-7.123-7.881
	c-5.119-3.745-10.818-6.464-16.773-8.529c-5.19-1.817-10.514-3.258-15.756-4.873c-0.359-0.133-0.904-0.442-0.914-0.688
	c-0.098-2.494-0.114-4.994-0.078-7.494c0-0.388,0.326-0.864,0.613-1.18c0.97-1.125,2.076-2.144,2.976-3.323
	c3.097-4.047,4.291-8.822,4.548-13.772c0.309-6.039,0.309-12.089,0.341-18.121c0-0.914-0.048-1.833-0.132-2.751v-20.13
	c0-1.104-0.893-2-1.992-2h-42.85c-1.101,0-1.992,0.896-1.992,2v22.776c-0.324,6.651-0.286,13.303,0.479,19.957
	c0.694,5.998,2.796,11.324,7.44,15.44c0.291,0.249,0.528,0.688,0.528,1.038c0.062,2.306,0,4.609,0.053,6.917
	c0.026,0.915-0.324,1.223-1.196,1.406c-7.398,1.785-14.62,4.102-21.551,7.232c-5.014,2.25-9.825,4.85-13.861,8.67
	c-2.815,2.641-5.147,5.649-5.333,9.643c-0.218,4.432-0.055,20.621-0.055,25.104c38.03,0,75.984,0,113.966-0.009
	C164.471,167.245,164.584,151.1,164.417,146.766z M90.001,154.062L90.001,154.062C90,155.686,88.685,157,87.062,157H67.938
	c-1.623,0-2.938-1.314-2.938-2.938v-4.123c0-1.623,1.315-2.938,2.938-2.938h19.125c1.623,0,2.938,1.315,2.938,2.938V154.062z
	 M116.16,64.34h-5.996v5.995h-3.854V64.34h-5.994v-3.854h5.994v-5.993h3.854v5.993h5.996V64.34z"/>
<g>
	<path fill="#010000" d="M165.42,59.236c-5.972,0-11.389,2.96-14.521,7.536c-3.133-4.6-8.556-7.578-14.531-7.578
		c-0.182,0-0.355,0.021-0.534,0.026v5c0.179-0.007,0.354-0.025,0.534-0.025c5.835,0,10.917,3.91,12.084,9.296
		c0.249,1.15,1.267,1.971,2.443,1.971c1.176,0,2.193-0.821,2.442-1.971c1.161-5.362,6.242-9.254,12.082-9.254
		c6.801,0,12.334,5.235,12.334,11.671c0,2.128-0.608,4.311-1.631,5.867l-25.229,29.896c-4.845-5.735-10.508-12.449-15.229-18.065
		c-0.018,0.385-0.027,0.771-0.047,1.156c-0.104,2.013-0.359,3.896-0.732,5.687c5.148,6.117,10.629,12.604,14.102,16.712
		c0.475,0.562,1.174,0.886,1.908,0.886h0.002c0.735,0,1.435-0.325,1.908-0.888l27.229-32.264c0.056-0.066,0.108-0.135,0.155-0.206
		c1.631-2.394,2.564-5.594,2.564-8.779C182.754,66.715,174.979,59.236,165.42,59.236z"/>
</g>
</svg>
