<?xml version="1.0" encoding="utf-8"?>
<!-- Generator: Adobe Illustrator 16.0.0, SVG Export Plug-In . SVG Version: 6.00 Build 0)  -->
<!DOCTYPE svg PUBLIC "-//W3C//DTD SVG 1.1//EN" "http://www.w3.org/Graphics/SVG/1.1/DTD/svg11.dtd">
<svg version="1.1" id="Layer_1" xmlns="http://www.w3.org/2000/svg" xmlns:xlink="http://www.w3.org/1999/xlink" x="0px" y="0px"
	 width="225px" height="225px" viewBox="0 0 225 225" enable-background="new 0 0 225 225" xml:space="preserve">
<g>
	<path fill="#010000" d="M178.7,112.519c-0.254-0.71-0.779-1.29-1.461-1.613l-14.867-7.037c-1.42-0.672-3.113-0.066-3.785,1.353
		l-8.446,17.84c-0.322,0.682-0.361,1.463-0.107,2.174c0.254,0.71,0.779,1.289,1.461,1.611l14.867,7.037
		c0.393,0.187,0.807,0.273,1.214,0.273c1.063,0,2.085-0.602,2.571-1.626l8.446-17.841
		C178.915,114.011,178.954,113.229,178.7,112.519z"/>
	<g>
		<path fill="#010000" d="M158.68,87.038c-2.611-1.284-92.434-43.255-96.256-45.042c-1.419-0.664-3.103-0.055-3.773,1.359
			L47.567,66.767l79.328,37.423l35.763-11.583c0.026-0.156,0.044-0.304,0.052-0.436C162.788,90.772,162.152,88.746,158.68,87.038z"
			/>
		<path fill="#010000" d="M126.723,109.373c-0.365,0-0.729-0.08-1.065-0.239l-80.23-37.848l-4.375,9.24
			c-0.322,0.681-0.361,1.463-0.107,2.173c0.254,0.71,0.779,1.29,1.46,1.613l46.882,22.192l-25.855,41.305
			c-0.45-0.315-0.917-0.615-1.411-0.886c-7.211-3.958-16.262-1.315-20.217,5.897c-2.424,4.422-2.359,9.531-0.29,13.738L0,182.807
			v5.584l44.579-17.66c0.92,0.879,1.957,1.666,3.126,2.308c7.212,3.955,16.264,1.312,20.217-5.897
			c2.816-5.137,2.273-11.195-0.87-15.69l26.785-42.79l43.728,20.699c0.394,0.186,0.808,0.272,1.215,0.272
			c1.062,0,2.082-0.599,2.568-1.623l13.045-27.469l-26.899,8.713C127.242,109.333,126.982,109.373,126.723,109.373z"/>
	</g>
</g>
</svg>
