<?xml version="1.0" encoding="utf-8"?>
<!-- Generator: Adobe Illustrator 16.0.0, SVG Export Plug-In . SVG Version: 6.00 Build 0)  -->
<!DOCTYPE svg PUBLIC "-//W3C//DTD SVG 1.1//EN" "http://www.w3.org/Graphics/SVG/1.1/DTD/svg11.dtd">
<svg version="1.1" id="Layer_1" xmlns="http://www.w3.org/2000/svg" xmlns:xlink="http://www.w3.org/1999/xlink" x="0px" y="0px"
	 width="225px" height="225px" viewBox="0 0 225 225" enable-background="new 0 0 225 225" xml:space="preserve">
<g>
	<circle fill="#FF8158" cx="5346.54" cy="217.932" r="112.265"/>
</g>
<g>
	<rect x="5270" y="201" fill="#FFFFFF" width="102" height="15"/>
	<path fill="none" stroke="#FFFFFF" stroke-width="5" stroke-miterlimit="10" d="M5373,243.73c0,5.578-4.339,10.729-9.189,10.729
		h-84.082c-4.855,0-10.104-5.151-10.104-10.729v-50.491c0-5.577,5.249-9.222,10.104-9.222h84.082c4.852,0,9.189,3.645,9.189,9.222
		V243.73z"/>
</g>
<path fill="none" stroke="#FFFFFF" stroke-width="5" stroke-linecap="round" stroke-miterlimit="10" d="M5406.875,171.34
	c26.049,26.053,28.023,67.061,5.924,95.379"/>
<path fill="none" stroke="#FFFFFF" stroke-width="5" stroke-linecap="round" stroke-miterlimit="10" d="M5396.32,185.959
	c17.926,17.924,19.283,46.143,4.078,65.629"/>
<path fill="none" stroke="#FFFFFF" stroke-width="5" stroke-linecap="round" stroke-miterlimit="10" d="M5388.336,202.912
	c8.805,8.804,9.475,22.666,2.004,32.234"/>
<g>
	<path d="M178.7,112.519c-0.254-0.71-0.779-1.29-1.461-1.613l-14.867-7.037c-1.42-0.672-3.113-0.066-3.785,1.353l-8.447,17.84
		c-0.322,0.682-0.361,1.464-0.107,2.174s0.779,1.29,1.461,1.612l14.867,7.037c0.393,0.186,0.807,0.273,1.214,0.273
		c1.064,0,2.085-0.601,2.571-1.626l8.447-17.841C178.915,114.011,178.954,113.229,178.7,112.519z"/>
	<g>
		<path d="M158.68,87.038c-2.612-1.284-92.434-43.255-96.256-45.042c-1.419-0.664-3.103-0.055-3.773,1.359L47.567,66.767
			l79.328,37.423l35.762-11.583c0.027-0.156,0.044-0.304,0.052-0.436C162.788,90.772,162.153,88.746,158.68,87.038z"/>
		<path d="M126.723,109.373c-0.365,0-0.73-0.08-1.066-0.239L45.427,71.286l-4.375,9.24c-0.322,0.681-0.361,1.463-0.107,2.173
			s0.779,1.29,1.46,1.613l46.882,22.192l-25.855,41.305c-0.45-0.316-0.917-0.615-1.411-0.886
			c-7.211-3.958-16.262-1.315-20.217,5.897c-2.424,4.422-2.359,9.532-0.29,13.738L0,182.806v5.584l44.579-17.66
			c0.92,0.88,1.957,1.666,3.126,2.308c7.212,3.955,16.264,1.312,20.217-5.898c2.816-5.136,2.273-11.195-0.87-15.69l26.785-42.79
			l43.728,20.699c0.393,0.186,0.807,0.273,1.214,0.273c1.063,0,2.083-0.599,2.569-1.623l13.045-27.469l-26.9,8.713
			C127.242,109.333,126.982,109.373,126.723,109.373z"/>
	</g>
</g>
</svg>
