<?xml version="1.0" encoding="utf-8"?>
<!-- Generator: Adobe Illustrator 16.0.0, SVG Export Plug-In . SVG Version: 6.00 Build 0)  -->
<!DOCTYPE svg PUBLIC "-//W3C//DTD SVG 1.1//EN" "http://www.w3.org/Graphics/SVG/1.1/DTD/svg11.dtd">
<svg version="1.1" id="Layer_1" xmlns="http://www.w3.org/2000/svg" xmlns:xlink="http://www.w3.org/1999/xlink" x="0px" y="0px"
	 width="225px" height="225px" viewBox="0 0 225 225" enable-background="new 0 0 225 225" xml:space="preserve">
<g>
	<circle fill="#FF8158" cx="5346.54" cy="217.932" r="112.265"/>
</g>
<g>
	<rect x="5270" y="201" fill="#FFFFFF" width="102" height="15"/>
	<path fill="none" stroke="#FFFFFF" stroke-width="5" stroke-miterlimit="10" d="M5373,243.73c0,5.578-4.339,10.729-9.189,10.729
		h-84.082c-4.855,0-10.104-5.151-10.104-10.729v-50.491c0-5.577,5.249-9.222,10.104-9.222h84.082c4.852,0,9.189,3.645,9.189,9.222
		V243.73z"/>
</g>
<path fill="none" stroke="#FFFFFF" stroke-width="5" stroke-linecap="round" stroke-miterlimit="10" d="M5406.875,171.34
	c26.049,26.053,28.023,67.061,5.924,95.379"/>
<path fill="none" stroke="#FFFFFF" stroke-width="5" stroke-linecap="round" stroke-miterlimit="10" d="M5396.32,185.959
	c17.926,17.924,19.283,46.143,4.078,65.629"/>
<path fill="none" stroke="#FFFFFF" stroke-width="5" stroke-linecap="round" stroke-miterlimit="10" d="M5388.336,202.912
	c8.805,8.804,9.475,22.666,2.004,32.234"/>
<path fill="none" stroke="#000000" stroke-width="4.3231" stroke-miterlimit="10" d="M172.22,77.646"/>
<path d="M187.863,131.053H162V93.832c0-1.508-0.896-2.936-2.068-3.885l-44.637-36.068c-0.92-0.744-2.142-1.115-3.256-1.115
	c-1.155,0-2.31,0.399-3.243,1.194L66.612,90.026C65.497,90.976,65,92.367,65,93.832v37.221H40.747c-1.381,0-2.5,1.119-2.5,2.5
	s1.119,2.5,2.5,2.5h23.921v36.322H119.5v-11.217h-13.133c-1.381,0-2.5-1.119-2.5-2.5v-12.184H88.279c-1.376,0-2.494-1.112-2.5-2.488
	l-0.059-12.834H72.834c-0.23,0-0.449-0.041-0.661-0.1H70V93.832l42.4-36.068L157,93.832v37.221H90.72l0.048,10.422h15.599
	c1.381,0,2.5,1.119,2.5,2.5v12.184H122c1.381,0,2.5,1.119,2.5,2.5v13.717h37.766v-36.322h25.598c1.381,0,2.5-1.119,2.5-2.5
	S189.244,131.053,187.863,131.053z"/>
</svg>
