<?xml version="1.0" encoding="utf-8"?>
<!-- Generator: Adobe Illustrator 16.0.0, SVG Export Plug-In . SVG Version: 6.00 Build 0)  -->
<!DOCTYPE svg PUBLIC "-//W3C//DTD SVG 1.1//EN" "http://www.w3.org/Graphics/SVG/1.1/DTD/svg11.dtd">
<svg version="1.1" id="Layer_1" xmlns="http://www.w3.org/2000/svg" xmlns:xlink="http://www.w3.org/1999/xlink" x="0px" y="0px"
	 width="225px" height="225px" viewBox="0 0 225 225" enable-background="new 0 0 225 225" xml:space="preserve">
<path fill="#000000" d="M187.863,131.053H162V93.832c0-1.508-0.896-2.936-2.068-3.885l-44.637-36.068
	c-0.92-0.744-2.143-1.115-3.256-1.115c-1.155,0-2.31,0.399-3.243,1.194L66.612,90.026C65.497,90.976,65,92.367,65,93.832v37.221
	H40.747c-1.381,0-2.5,1.119-2.5,2.5s1.119,2.5,2.5,2.5h23.921v36.322H119.5v-11.217h-13.133c-1.381,0-2.5-1.119-2.5-2.5v-12.184
	H88.279c-1.376,0-2.494-1.112-2.5-2.488l-0.06-12.834H72.834c-0.23,0-0.449-0.041-0.661-0.101H70v-37.22l42.4-36.068L157,93.832
	v37.221H90.72l0.048,10.422h15.599c1.381,0,2.5,1.119,2.5,2.5v12.185H122c1.381,0,2.5,1.119,2.5,2.5v13.717h37.766v-36.322h25.599
	c1.381,0,2.5-1.118,2.5-2.5C190.364,132.173,189.244,131.053,187.863,131.053z"/>
</svg>
