<?xml version="1.0" encoding="utf-8"?>
<!-- Generator: Adobe Illustrator 16.0.0, SVG Export Plug-In . SVG Version: 6.00 Build 0)  -->
<!DOCTYPE svg PUBLIC "-//W3C//DTD SVG 1.1//EN" "http://www.w3.org/Graphics/SVG/1.1/DTD/svg11.dtd">
<svg version="1.1" id="Layer_1" xmlns="http://www.w3.org/2000/svg" xmlns:xlink="http://www.w3.org/1999/xlink" x="0px" y="0px"
	 width="225px" height="225px" viewBox="245 0 225 225" enable-background="new 245 0 225 225" xml:space="preserve">
<g>
	<rect x="327.904" y="130.485" fill="none" width="6.298" height="6.301"/>
	<rect x="327.904" y="143.083" fill="none" width="6.298" height="6.297"/>
	<rect x="334.202" y="98.995" fill="none" width="6.298" height="6.299"/>
	<rect x="353.096" y="130.485" fill="none" width="6.297" height="6.301"/>
	<rect x="334.202" y="111.593" fill="none" width="6.298" height="6.297"/>
	<rect x="353.096" y="155.677" fill="none" width="6.297" height="6.301"/>
	<rect x="346.797" y="98.995" fill="none" width="6.299" height="6.299"/>
	<rect x="353.096" y="143.083" fill="none" width="6.297" height="6.297"/>
	<rect x="346.797" y="111.593" fill="none" width="6.299" height="6.297"/>
	<rect x="340.5" y="143.083" fill="none" width="6.297" height="6.297"/>
	<rect x="340.5" y="155.677" fill="none" width="6.297" height="6.301"/>
	<rect x="340.5" y="130.485" fill="none" width="6.297" height="6.301"/>
	<rect x="327.904" y="155.677" fill="none" width="6.298" height="6.301"/>
	<rect x="285.593" y="117.653" fill="none" width="6.299" height="6.293"/>
	<rect x="298.19" y="155.435" fill="none" width="6.299" height="6.299"/>
	<rect x="307.762" y="78.019" fill="none" width="6.297" height="6.299"/>
	<rect x="298.19" y="142.841" fill="none" width="6.299" height="6.299"/>
	<rect x="298.19" y="117.653" fill="none" width="6.299" height="6.293"/>
	<rect x="298.19" y="130.245" fill="none" width="6.299" height="6.297"/>
	<rect x="320.356" y="78.019" fill="none" width="6.297" height="6.299"/>
	<rect x="307.762" y="90.616" fill="none" width="6.297" height="6.297"/>
	<rect x="285.593" y="142.841" fill="none" width="6.299" height="6.299"/>
	<rect x="285.593" y="155.435" fill="none" width="6.299" height="6.299"/>
	<rect x="285.593" y="130.245" fill="none" width="6.299" height="6.297"/>
	<rect x="395.403" y="117.692" fill="none" width="6.3" height="6.299"/>
	<rect x="418.821" y="142.993" fill="none" width="6.299" height="6.296"/>
	<rect x="395.403" y="130.288" fill="none" width="6.3" height="6.294"/>
	<rect x="395.403" y="66.798" fill="none" width="6.3" height="6.297"/>
	<rect x="395.403" y="91.989" fill="none" width="6.3" height="6.297"/>
	<rect x="395.403" y="104.583" fill="none" width="6.3" height="6.299"/>
	<rect x="418.821" y="155.587" fill="none" width="6.299" height="6.301"/>
	<rect x="418.821" y="130.397" fill="none" width="6.299" height="6.297"/>
	<rect x="431.417" y="130.397" fill="none" width="6.293" height="6.297"/>
	<rect x="431.417" y="155.587" fill="none" width="6.293" height="6.301"/>
	<rect x="431.417" y="142.993" fill="none" width="6.293" height="6.296"/>
	<rect x="395.403" y="79.392" fill="none" width="6.3" height="6.299"/>
	<rect x="382.808" y="104.583" fill="none" width="6.3" height="6.299"/>
	<rect x="382.808" y="79.392" fill="none" width="6.3" height="6.299"/>
	<rect x="382.808" y="91.989" fill="none" width="6.3" height="6.297"/>
	<rect x="382.808" y="130.288" fill="none" width="6.3" height="6.294"/>
	<rect x="382.808" y="117.692" fill="none" width="6.3" height="6.299"/>
	<rect x="382.808" y="155.478" fill="none" width="6.3" height="6.299"/>
	<rect x="382.808" y="66.798" fill="none" width="6.3" height="6.297"/>
	<rect x="395.403" y="142.884" fill="none" width="6.3" height="6.299"/>
	<rect x="395.403" y="155.478" fill="none" width="6.3" height="6.299"/>
	<rect x="382.808" y="142.884" fill="none" width="6.3" height="6.299"/>
	<path fill="#010000" d="M279.298,174.328h31.488v-69.276h-31.488V174.328z M298.19,117.653h6.299v6.293h-6.299V117.653z
		 M298.19,130.245h6.299v6.297h-6.299V130.245z M298.19,142.841h6.299v6.299h-6.299V142.841z M298.19,155.435h6.299v6.299h-6.299
		V155.435z M285.593,117.653h6.299v6.293h-6.299V117.653z M285.593,130.245h6.299v6.297h-6.299V130.245z M285.593,142.841h6.299
		v6.299h-6.299V142.841z M285.593,155.435h6.299v6.299h-6.299V155.435z"/>
	<path fill="#010000" d="M412.522,117.799v56.529h31.488v-56.529H412.522z M425.12,161.888h-6.299v-6.301h6.299V161.888z
		 M425.12,149.289h-6.299v-6.296h6.299V149.289z M425.12,136.694h-6.299v-6.297h6.299V136.694z M437.71,161.888h-6.293v-6.301h6.293
		V161.888z M437.71,149.289h-6.293v-6.296h6.293V149.289z M437.71,136.694h-6.293v-6.297h6.293V136.694z"/>
	<path fill="#010000" d="M401.216,47.716h-14.357l-10.348-3.176v67.383v1.89v60.558h31.486v-60.557v-1.889V54.202l-6.781-2.081
		V47.716z M389.107,161.776h-6.3v-6.299h6.3V161.776z M389.107,149.183h-6.3v-6.299h6.3V149.183z M389.107,136.582h-6.3v-6.294h6.3
		V136.582z M389.107,123.991h-6.3v-6.299h6.3V123.991z M389.107,110.882h-6.3v-6.299h6.3V110.882z M389.107,98.286h-6.3v-6.297h6.3
		V98.286z M389.107,85.69h-6.3v-6.299h6.3V85.69z M389.107,73.095h-6.3v-6.297h6.3V73.095z M401.703,161.776h-6.3v-6.299h6.3
		V161.776z M401.703,149.183h-6.3v-6.299h6.3V149.183z M401.703,136.582h-6.3v-6.294h6.3V136.582z M401.703,123.991h-6.3v-6.299h6.3
		V123.991z M401.703,110.882h-6.3v-6.299h6.3V110.882z M401.703,98.286h-6.3v-6.297h6.3V98.286z M401.703,85.69h-6.3v-6.299h6.3
		V85.69z M401.703,66.798v6.297h-6.3v-6.297H401.703z"/>
	<path fill="#010000" d="M359.393,117.722V98.997l-6.297-12.594h-6.299V78.96H340.5v7.443h-6.312l-6.284,12.594v18.725h-6.299
		l-6.299,6.463v50.387h56.682v-50.387l-6.299-6.463H359.393z M346.797,98.995h6.299v6.299h-6.299V98.995z M334.202,98.995h6.298
		v6.299h-6.298V98.995z M334.202,161.978h-6.298v-6.301h6.298V161.978z M334.202,149.38h-6.298v-6.297h6.298V149.38z
		 M334.202,136.786h-6.298v-6.301h6.298V136.786z M334.202,111.593h6.298v6.297h-6.298V111.593z M346.797,161.978H340.5v-6.301
		h6.297V161.978z M346.797,149.38H340.5v-6.297h6.297V149.38z M346.797,136.786H340.5v-6.301h6.297V136.786z M346.797,111.593h6.299
		v6.297h-6.299V111.593z M359.393,161.978h-6.297v-6.301h6.297V161.978z M359.393,149.38h-6.297v-6.297h6.297V149.38z
		 M359.393,136.786h-6.297v-6.301h6.297V136.786z"/>
	<path fill="#010000" d="M321.048,111.755h2.348v-2.244h-3.039v-6.297h3.039v-5.528l0.389-0.773h-3.428v-6.297h6.568l0.036,0.001
		l5.4-10.822l0.86-1.723V64.88l-31.759,7.594v28.241h13.828v16.859L321.048,111.755z M320.356,78.019h6.297v6.299h-6.297V78.019z
		 M314.059,96.913h-6.297v-6.297h6.297V96.913z M314.059,84.317h-6.297v-6.299h6.297V84.317z"/>
</g>
</svg>
