<?xml version="1.0" encoding="utf-8"?>
<!-- Generator: Adobe Illustrator 16.0.0, SVG Export Plug-In . SVG Version: 6.00 Build 0)  -->
<!DOCTYPE svg PUBLIC "-//W3C//DTD SVG 1.1//EN" "http://www.w3.org/Graphics/SVG/1.1/DTD/svg11.dtd">
<svg version="1.1" id="Layer_1" xmlns="http://www.w3.org/2000/svg" xmlns:xlink="http://www.w3.org/1999/xlink" x="0px" y="0px"
	 width="225px" height="225px" viewBox="0 0 225 225" enable-background="new 0 0 225 225" xml:space="preserve">
<g>
	<circle fill="#FF8158" cx="5346.54" cy="217.932" r="112.265"/>
</g>
<g>
	<rect x="5270" y="201" fill="#FFFFFF" width="102" height="15"/>
	<path fill="none" stroke="#FFFFFF" stroke-width="5" stroke-miterlimit="10" d="M5373,243.73c0,5.578-4.339,10.729-9.189,10.729
		h-84.082c-4.855,0-10.104-5.151-10.104-10.729v-50.491c0-5.577,5.249-9.222,10.104-9.222h84.082c4.852,0,9.189,3.645,9.189,9.222
		V243.73z"/>
</g>
<path fill="none" stroke="#FFFFFF" stroke-width="5" stroke-linecap="round" stroke-miterlimit="10" d="M5406.875,171.34
	c26.049,26.053,28.023,67.061,5.924,95.379"/>
<path fill="none" stroke="#FFFFFF" stroke-width="5" stroke-linecap="round" stroke-miterlimit="10" d="M5396.32,185.959
	c17.926,17.924,19.283,46.143,4.078,65.629"/>
<path fill="none" stroke="#FFFFFF" stroke-width="5" stroke-linecap="round" stroke-miterlimit="10" d="M5388.336,202.912
	c8.805,8.804,9.475,22.666,2.004,32.234"/>
<g>
	<path d="M111.257,99.646c-9.178,0-16.645-7.465-16.645-16.641c0-9.178,7.467-16.644,16.645-16.644
		c9.177,0,16.643,7.466,16.643,16.644C127.899,92.182,120.434,99.646,111.257,99.646z M111.257,71.362
		c-6.421,0-11.645,5.224-11.645,11.644c0,6.418,5.224,11.641,11.645,11.641c6.42,0,11.643-5.222,11.643-11.641
		C122.899,76.585,117.677,71.362,111.257,71.362z"/>
	<path d="M123.731,174.73H97.795c-3.698,0-6.707-3.008-6.707-6.705v-55.58c0-3.697,3.009-6.705,6.707-6.705h25.937
		c3.697,0,6.706,3.008,6.706,6.705v55.58C130.438,171.723,127.429,174.73,123.731,174.73z M97.795,110.74
		c-0.941,0-1.707,0.765-1.707,1.705v55.58c0,0.94,0.766,1.705,1.707,1.705h25.937c0.94,0,1.706-0.765,1.706-1.705v-55.58
		c0-0.94-0.766-1.705-1.706-1.705H97.795z"/>
	<path d="M73.71,87.104c-8.831,0-16.016-7.183-16.016-16.013c0-8.832,7.185-16.017,16.016-16.017
		c8.832,0,16.018,7.185,16.018,16.017C89.728,79.921,82.542,87.104,73.71,87.104z M73.71,60.075
		c-6.074,0-11.016,4.942-11.016,11.017c0,6.072,4.941,11.013,11.016,11.013c6.075,0,11.018-4.94,11.018-11.013
		C84.728,65.017,79.785,60.075,73.71,60.075z"/>
	<path d="M81.322,164.062H59.939c-3.697,0-6.705-3.009-6.705-6.706v-55.58c0-3.698,3.008-6.707,6.705-6.707h21.383
		c1.381,0,2.5,1.119,2.5,2.5s-1.119,2.5-2.5,2.5H59.939c-0.94,0-1.705,0.766-1.705,1.707v55.58c0,0.94,0.765,1.706,1.705,1.706
		h21.383c1.381,0,2.5,1.119,2.5,2.5S82.703,164.062,81.322,164.062z"/>
	<path d="M149.478,86.977c-8.797,0-15.954-7.155-15.954-15.949c0-8.796,7.157-15.953,15.954-15.953
		c8.796,0,15.951,7.156,15.951,15.953C165.429,79.822,158.273,86.977,149.478,86.977z M149.478,60.075
		c-6.04,0-10.954,4.914-10.954,10.953c0,6.038,4.914,10.949,10.954,10.949c6.038,0,10.951-4.912,10.951-10.949
		C160.429,64.988,155.516,60.075,149.478,60.075z"/>
	<path d="M162.498,164.062h-21.383c-1.381,0-2.5-1.119-2.5-2.5s1.119-2.5,2.5-2.5h21.383c0.94,0,1.705-0.766,1.705-1.706v-55.58
		c0-0.941-0.765-1.707-1.705-1.707h-21.383c-1.381,0-2.5-1.119-2.5-2.5s1.119-2.5,2.5-2.5h21.383c3.697,0,6.705,3.008,6.705,6.707
		v55.58C169.203,161.053,166.195,164.062,162.498,164.062z"/>
</g>
</svg>
