<?xml version="1.0" encoding="utf-8"?>
<!-- Generator: Adobe Illustrator 16.0.0, SVG Export Plug-In . SVG Version: 6.00 Build 0)  -->
<!DOCTYPE svg PUBLIC "-//W3C//DTD SVG 1.1//EN" "http://www.w3.org/Graphics/SVG/1.1/DTD/svg11.dtd">
<svg version="1.1" id="Layer_1" xmlns="http://www.w3.org/2000/svg" xmlns:xlink="http://www.w3.org/1999/xlink" x="0px" y="0px"
	 width="225.07px" height="225.07px" viewBox="0 0 225.07 225.07" enable-background="new 0 0 225.07 225.07" xml:space="preserve">
<g>
	<g>
		<path fill="#ffffff" d="M149.854,170.492H76.488c-7.768,0-14.085-5.615-14.085-12.518v-36.103c0-0.401,0.024-0.813,0.074-1.258
			l-0.079-46.649h27.679v30.107l25.739-35.933v34.068l24.064-34.179v34.179l24.065-34.179l-0.009,89.944
			C163.938,164.877,157.62,170.492,149.854,170.492z M67.407,78.966l0.071,41.95l-0.02,0.157c-0.038,0.298-0.056,0.56-0.056,0.8
			v36.104c0,4.145,4.075,7.517,9.085,7.517h73.366c5.009,0,9.084-3.372,9.084-7.517l0.009-74.16l-24.065,34.179v-34.18
			l-24.065,34.179V83.707l-25.739,35.934V78.966H67.407z"/>
	</g>
	<g>
		<path fill="#ffffff" d="M90.384,69.937H61.778v-3.542c0-6.516,6.136-11.815,13.678-11.815h1.252c7.541,0,13.676,5.3,13.676,11.815
			V69.937z M66.978,64.937h18.206c-0.852-3.061-4.329-5.357-8.476-5.357h-1.252C71.308,59.579,67.83,61.876,66.978,64.937z"/>
	</g>
	<g>
		<rect x="75.269" y="129.484" fill="#ffffff" width="9.316" height="9.315"/>
	</g>
	<g>
		<rect x="91.571" y="129.484" fill="#ffffff" width="9.315" height="9.315"/>
	</g>
	<g>
		<rect x="107.874" y="129.484" fill="#ffffff" width="9.315" height="9.315"/>
	</g>
	<g>
		<rect x="124.177" y="129.484" fill="#ffffff" width="9.314" height="9.315"/>
	</g>
	<g>
		<rect x="140.479" y="129.484" fill="#ffffff" width="9.315" height="9.315"/>
	</g>
	<g>
		<rect x="75.269" y="145.787" fill="#ffffff" width="9.316" height="9.316"/>
	</g>
	<g>
		<rect x="91.571" y="145.787" fill="#ffffff" width="9.315" height="9.316"/>
	</g>
	<g>
		<rect x="107.874" y="145.787" fill="#ffffff" width="9.315" height="9.316"/>
	</g>
	<g>
		<rect x="124.177" y="145.787" fill="#ffffff" width="9.314" height="9.316"/>
	</g>
	<g>
		<rect x="140.479" y="145.787" fill="#ffffff" width="9.315" height="9.316"/>
	</g>
</g>
</svg>
