<?xml version="1.0" encoding="utf-8"?>
<!-- Generator: Adobe Illustrator 16.0.0, SVG Export Plug-In . SVG Version: 6.00 Build 0)  -->
<!DOCTYPE svg PUBLIC "-//W3C//DTD SVG 1.1//EN" "http://www.w3.org/Graphics/SVG/1.1/DTD/svg11.dtd">
<svg version="1.1" id="Layer_1" xmlns="http://www.w3.org/2000/svg" xmlns:xlink="http://www.w3.org/1999/xlink" x="0px" y="0px"
	 width="225px" height="225px" viewBox="0 0 225 225" enable-background="new 0 0 225 225" xml:space="preserve">
<g>
	<circle fill="#FF8158" cx="5346.54" cy="217.932" r="112.265"/>
</g>
<g>
	<rect x="5270" y="201" fill="#FFFFFF" width="102" height="15"/>
	<path fill="none" stroke="#FFFFFF" stroke-width="5" stroke-miterlimit="10" d="M5373,243.73c0,5.578-4.339,10.729-9.189,10.729
		h-84.082c-4.855,0-10.104-5.151-10.104-10.729v-50.491c0-5.577,5.249-9.222,10.104-9.222h84.082c4.852,0,9.189,3.645,9.189,9.222
		V243.73z"/>
</g>
<path fill="none" stroke="#FFFFFF" stroke-width="5" stroke-linecap="round" stroke-miterlimit="10" d="M5406.875,171.34
	c26.049,26.053,28.023,67.061,5.924,95.379"/>
<path fill="none" stroke="#FFFFFF" stroke-width="5" stroke-linecap="round" stroke-miterlimit="10" d="M5396.32,185.959
	c17.926,17.924,19.283,46.143,4.078,65.629"/>
<path fill="none" stroke="#FFFFFF" stroke-width="5" stroke-linecap="round" stroke-miterlimit="10" d="M5388.336,202.912
	c8.805,8.804,9.475,22.666,2.004,32.234"/>
<g>
	<path d="M97.923,68.494c0,7.716-6.248,13.957-13.961,13.957c-7.709,0-13.959-6.241-13.959-13.957c0-7.707,6.25-13.96,13.959-13.96
		C91.675,54.533,97.923,60.787,97.923,68.494z"/>
</g>
<g>
	<path d="M154.794,68.494c0,7.716-6.25,13.957-13.963,13.957c-7.71,0-13.96-6.241-13.96-13.957c0-7.707,6.25-13.96,13.96-13.96
		C148.544,54.533,154.794,60.787,154.794,68.494z"/>
</g>
<g>
	<path fill="none" d="M125.584,88.604c-1.234-6.445-6.895-11.323-13.704-11.323c-6.808,0-12.47,4.877-13.704,11.323H125.584z"/>
	<path d="M125.252,118.807H99.748c-0.902,0-1.636,0.733-1.636,1.636v54.653c0,0.901,0.734,1.635,1.636,1.635h25.504
		c0.902,0,1.637-0.733,1.637-1.635v-54.653C126.889,119.54,126.154,118.807,125.252,118.807z"/>
	<path d="M154.029,88.604h-23.394c0.121,0.864,0.205,1.74,0.205,2.638c0,10.454-8.506,18.958-18.961,18.958
		s-18.961-8.504-18.961-18.958c0-0.897,0.084-1.773,0.206-2.638H73.514c-2.403,0-4.352,1.949-4.352,4.352v51.949
		c0,2.402,1.948,4.352,4.352,4.352h19.598v-28.813c0-3.659,2.977-6.636,6.636-6.636h25.504c3.658,0,6.637,2.977,6.637,6.636v28.813
		h22.141c2.403,0,4.353-1.949,4.353-4.352V92.956C158.382,90.552,156.433,88.604,154.029,88.604z"/>
	<path d="M97.919,91.241c0,7.716,6.25,13.958,13.961,13.958c7.713,0,13.961-6.242,13.961-13.958c0-0.902-0.093-1.783-0.257-2.638
		H98.176C98.012,89.458,97.919,90.339,97.919,91.241z"/>
</g>
<path d="M125.841,91.241c0,7.716-6.248,13.958-13.961,13.958c-7.711,0-13.961-6.242-13.961-13.958c0-7.707,6.25-13.96,13.961-13.96
	C119.593,77.281,125.841,83.535,125.841,91.241z"/>
</svg>
