<?xml version="1.0" encoding="utf-8"?>
<!-- Generator: Adobe Illustrator 16.0.0, SVG Export Plug-In . SVG Version: 6.00 Build 0)  -->
<!DOCTYPE svg PUBLIC "-//W3C//DTD SVG 1.1//EN" "http://www.w3.org/Graphics/SVG/1.1/DTD/svg11.dtd">
<svg version="1.1" id="Layer_1" xmlns="http://www.w3.org/2000/svg" xmlns:xlink="http://www.w3.org/1999/xlink" x="0px" y="0px"
	 width="225px" height="225px" viewBox="0 0 225 225" enable-background="new 0 0 225 225" xml:space="preserve">
<g>
	<circle fill="#FF8158" cx="5346.54" cy="217.932" r="112.265"/>
</g>
<g>
	<rect x="5270" y="201" fill="#FFFFFF" width="102" height="15"/>
	<path fill="none" stroke="#FFFFFF" stroke-width="5" stroke-miterlimit="10" d="M5373,243.731c0,5.578-4.339,10.729-9.19,10.729
		h-84.081c-4.856,0-10.105-5.151-10.105-10.729v-50.492c0-5.577,5.249-9.222,10.105-9.222h84.081c4.852,0,9.19,3.645,9.19,9.222
		V243.731z"/>
</g>
<path fill="none" stroke="#FFFFFF" stroke-width="5" stroke-linecap="round" stroke-miterlimit="10" d="M5406.875,171.34
	c26.049,26.052,28.023,67.061,5.924,95.379"/>
<path fill="none" stroke="#FFFFFF" stroke-width="5" stroke-linecap="round" stroke-miterlimit="10" d="M5396.32,185.959
	c17.926,17.924,19.283,46.143,4.078,65.629"/>
<path fill="none" stroke="#FFFFFF" stroke-width="5" stroke-linecap="round" stroke-miterlimit="10" d="M5388.336,202.912
	c8.805,8.804,9.475,22.666,2.004,32.234"/>
<g>
	<path d="M129.81,76.518H45.729c-6.087,0-12.605,4.71-12.605,11.721v50.492c0,6.8,6.126,13.229,12.605,13.229h84.081
		c6.228,0,11.69-6.182,11.69-13.229V88.239C141.5,81.667,136.365,76.518,129.81,76.518z M45.729,81.518h84.081
		c3.243,0,6.69,2.355,6.69,6.721V96H38.123v-7.761C38.123,84.219,42.056,81.518,45.729,81.518z M129.81,146.961H45.729
		c-3.353,0-7.605-3.875-7.605-8.229V111H136.5v27.731C136.5,142.962,133.249,146.961,129.81,146.961z"/>
	<path d="M178.797,164.219c-0.537,0-1.079-0.173-1.536-0.529c-1.089-0.85-1.282-2.42-0.433-3.509
		c21.577-27.649,19.118-67.231-5.721-92.073c-0.977-0.976-0.977-2.559,0-3.536c0.977-0.976,2.559-0.976,3.535,0
		c26.621,26.623,29.255,69.048,6.127,98.684C180.276,163.889,179.541,164.219,178.797,164.219z"/>
	<path d="M166.396,149.088c-0.537,0-1.079-0.173-1.536-0.529c-1.089-0.849-1.282-2.42-0.433-3.509
		c14.604-18.717,12.938-45.51-3.875-62.324c-0.977-0.976-0.977-2.559,0-3.535c0.977-0.977,2.559-0.977,3.535,0
		c18.597,18.595,20.437,48.231,4.281,68.935C167.877,148.758,167.141,149.088,166.396,149.088z"/>
	<path d="M156.338,132.646c-0.538,0-1.08-0.173-1.536-0.529c-1.089-0.85-1.282-2.421-0.433-3.509
		c6.781-8.686,6.007-21.122-1.801-28.928c-0.977-0.977-0.977-2.559,0-3.536c0.975-0.977,2.559-0.976,3.535,0
		c9.591,9.589,10.539,24.868,2.207,35.54C157.817,132.316,157.081,132.646,156.338,132.646z"/>
</g>
</svg>
