<?xml version="1.0" encoding="utf-8"?>
<!-- Generator: Adobe Illustrator 16.0.0, SVG Export Plug-In . SVG Version: 6.00 Build 0)  -->
<!DOCTYPE svg PUBLIC "-//W3C//DTD SVG 1.1//EN" "http://www.w3.org/Graphics/SVG/1.1/DTD/svg11.dtd">
<svg version="1.1" id="Layer_1" xmlns="http://www.w3.org/2000/svg" xmlns:xlink="http://www.w3.org/1999/xlink" x="0px" y="0px"
	 width="225px" height="225px" viewBox="0 0 225 225" enable-background="new 0 0 225 225" xml:space="preserve">
<path d="M170.67,63.452H56.748c-9.687,0-16.193,7.753-16.193,14.994v68.413c0,8.599,8.021,17.037,16.193,17.037H170.67
	c7.965,0,14.952-7.961,14.952-17.037V78.446C185.622,70.039,179.055,63.452,170.67,63.452z M56.748,68.452H170.67
	c4.824,0,9.952,3.503,9.952,9.994V88H45.555v-9.554C45.555,72.468,51.342,68.452,56.748,68.452z M170.67,158.896H56.748
	c-4.934,0-11.193-5.667-11.193-12.037V110h135.067v36.859C180.622,153.047,175.785,158.896,170.67,158.896z"/>
<path d="M169.798,144.266c0,2.163-1.754,3.917-3.918,3.917h-8.452c-2.162,0-3.917-1.754-3.917-3.917v-8.452
	c0-2.163,1.755-3.917,3.917-3.917h8.452c2.164,0,3.918,1.754,3.918,3.917V144.266z"/>
</svg>
