<?xml version="1.0" encoding="utf-8"?>
<!-- Generator: Adobe Illustrator 15.1.0, SVG Export Plug-In . SVG Version: 6.00 Build 0)  -->
<!DOCTYPE svg PUBLIC "-//W3C//DTD SVG 1.1//EN" "http://www.w3.org/Graphics/SVG/1.1/DTD/svg11.dtd">
<svg version="1.1" id="Layer_1" xmlns="http://www.w3.org/2000/svg" xmlns:xlink="http://www.w3.org/1999/xlink" x="0px" y="0px"
	 width="225.07px" height="225.07px" viewBox="0 0 225.07 225.07" enable-background="new 0 0 225.07 225.07" xml:space="preserve">
<path fill="#FFFFFF" d="M131.482,102.763c-0.017-9.36-7.998-16.691-18.21-16.691c-4.903,0.009-9.522,1.732-13.007,4.853
	c-3.542,3.174-5.488,7.4-5.479,11.903c0.011,6.703,3.728,12.186,10.008,14.88l0.013,7.416l3.913,3.207l-4.176,3.921l4.503,3.928
	l-3.889,3.533l8.235,8.215l7.808-7.81l-0.04-22.422C127.572,114.932,131.494,109.308,131.482,102.763z M118.815,114.861
	l-1.157,0.418l0.042,23.391l-4.309,4.311l-3.158-3.15l4.078-3.706l-4.552-3.968l4.263-4.003l-5.718-4.688l-0.014-8.184l-1.159-0.414
	c-5.529-1.978-8.836-6.481-8.845-12.047c-0.007-3.492,1.524-6.791,4.313-9.289c2.843-2.546,6.635-3.953,10.709-3.96
	c8.216,0,14.66,5.797,14.673,13.197C127.992,108.181,124.479,112.815,118.815,114.861z"/>
<path fill="#FFFFFF" d="M113.074,91.611h-0.017c-2.202,0.003-4.317,0.86-5.802,2.351c-1.333,1.338-2.064,3.077-2.061,4.896
	c0.006,3.979,3.538,7.216,7.889,7.216c4.343-0.007,7.871-3.257,7.864-7.245C120.939,94.848,117.407,91.611,113.074,91.611z
	 M113.074,95.112c2.408,0,4.37,1.67,4.375,3.723c0.003,2.058-1.957,3.734-4.381,3.738c-2.407,0-4.368-1.669-4.372-3.723
	c-0.002-0.884,0.367-1.742,1.04-2.417c0.834-0.837,2.046-1.318,3.328-1.32L113.074,95.112z"/>
<path fill="#FFFFFF" d="M112.25,63.25c4.963,0,9-4.038,9-9s-4.037-9-9-9c-4.962,0-9,4.038-9,9S107.288,63.25,112.25,63.25z"/>
<path fill="#FFFFFF" d="M112.25,171.25c-4.962,0-9,4.037-9,9s4.038,9,9,9c4.963,0,9-4.037,9-9S117.213,171.25,112.25,171.25z"/>
<path fill="#FFFFFF" d="M60.25,140.25c-4.962,0-9,4.037-9,9s4.038,9,9,9s9-4.037,9-9S65.212,140.25,60.25,140.25z"/>
<path fill="#FFFFFF" d="M60.25,97.25c4.962,0,9-4.038,9-9s-4.038-9-9-9s-9,4.038-9,9S55.288,97.25,60.25,97.25z"/>
<path fill="#FFFFFF" d="M164.25,140.25c-4.963,0-9,4.037-9,9s4.037,9,9,9s9-4.037,9-9S169.213,140.25,164.25,140.25z"/>
<path fill="#FFFFFF" d="M164.25,97.25c4.963,0,9-4.038,9-9s-4.037-9-9-9s-9,4.038-9,9S159.287,97.25,164.25,97.25z"/>
<rect x="58.5" y="101" fill="#FFFFFF" width="3.5" height="35.5"/>
<rect x="162.5" y="101" fill="#FFFFFF" width="3.5" height="35.5"/>
<rect x="137.431" y="52.046" transform="matrix(0.5133 -0.8582 0.8582 0.5133 7.8362 153.409)" fill="#FFFFFF" width="3.5" height="35.498"/>
<polygon fill="#FFFFFF" points="71.144,155.359 70.839,155.177 69.133,158.031 69.043,158.182 99.511,176.4 101.307,173.396 "/>
<rect x="83.422" y="52.036" transform="matrix(-0.513 -0.8584 0.8584 -0.513 68.9651 178.6957)" fill="#FFFFFF" width="3.501" height="35.498"/>
<polygon fill="#FFFFFF" points="155.289,157.945 124.863,176.139 126.66,179.143 157.128,160.924 155.446,158.113 155.331,157.92 
	"/>
<rect x="78.754" y="89.05" transform="matrix(-0.5181 0.8553 -0.8553 -0.5181 205.8804 79.6388)" fill="#FFFFFF" width="3.501" height="17.54"/>
<rect x="135.771" y="137.301" transform="matrix(0.8419 0.5397 -0.5397 0.8419 97.9428 -56.159)" fill="#FFFFFF" width="18.062" height="3.5"/>
<rect x="78.334" y="129.198" transform="matrix(0.5258 0.8506 -0.8506 0.5258 155.3352 -2.694)" fill="#FFFFFF" width="3.499" height="17.538"/>
<polygon fill="#FFFFFF" points="152.902,93.46 137.39,102.513 139.153,105.536 154.753,96.432 154.629,96.219 152.989,93.41 "/>
<polygon fill="#FFFFFF" points="110.5,66.25 110.5,66.613 110.5,81.25 114,81.25 114,66.613 114,66.25 "/>
<rect x="110.5" y="151.25" fill="#FFFFFF" width="3.5" height="15"/>
</svg>
