<?xml version="1.0" encoding="utf-8"?>
<!-- Generator: Adobe Illustrator 16.0.0, SVG Export Plug-In . SVG Version: 6.00 Build 0)  -->
<!DOCTYPE svg PUBLIC "-//W3C//DTD SVG 1.1//EN" "http://www.w3.org/Graphics/SVG/1.1/DTD/svg11.dtd">
<svg version="1.1" id="Layer_1" xmlns="http://www.w3.org/2000/svg" xmlns:xlink="http://www.w3.org/1999/xlink" x="0px" y="0px"
	 width="225px" height="225px" viewBox="0 0 225 225" enable-background="new 0 0 225 225" xml:space="preserve">
<g>
	<circle fill="#FF8158" cx="5346.54" cy="217.932" r="112.265"/>
</g>
<g>
	<rect x="5270" y="201" fill="#FFFFFF" width="102" height="15"/>
	<path fill="none" stroke="#FFFFFF" stroke-width="5" stroke-miterlimit="10" d="M5373,243.73c0,5.578-4.339,10.729-9.189,10.729
		h-84.082c-4.855,0-10.104-5.151-10.104-10.729v-50.491c0-5.577,5.249-9.222,10.104-9.222h84.082c4.852,0,9.189,3.645,9.189,9.222
		V243.73z"/>
</g>
<path fill="none" stroke="#FFFFFF" stroke-width="5" stroke-linecap="round" stroke-miterlimit="10" d="M5406.875,171.34
	c26.049,26.053,28.023,67.061,5.924,95.379"/>
<path fill="none" stroke="#FFFFFF" stroke-width="5" stroke-linecap="round" stroke-miterlimit="10" d="M5396.32,185.959
	c17.926,17.924,19.283,46.143,4.078,65.629"/>
<path fill="none" stroke="#FFFFFF" stroke-width="5" stroke-linecap="round" stroke-miterlimit="10" d="M5388.336,202.912
	c8.805,8.804,9.475,22.666,2.004,32.234"/>
<path d="M180.18,79h-44.268c-0.009,1.653-0.022,3.321-0.04,5h44.308c1.724,0,3.486,0.494,3.486,4.16V96h-48.191
	c-0.414,5.036-1.707,9.326-3.928,13h52.119v18.768c0,2.997-1.334,6.232-3.49,6.232h-16.901c1.396,1.408,2.712,3.06,3.771,5h13.13
	c5.515,0,8.49-5.787,8.49-11.232V88.16C188.666,82.51,185.414,79,180.18,79z"/>
<path d="M164.436,146.83c-0.07-1.533-0.635-3.125-1.284-4.523c-1.549-3.342-4.222-5.744-7.123-7.881
	c-5.12-3.746-10.82-6.463-16.775-8.529c-5.19-1.816-10.511-3.258-15.754-4.873c-0.36-0.131-0.906-0.443-0.916-0.689
	c-0.096-2.494-0.113-4.994-0.077-7.494c0-0.387,0.325-0.863,0.614-1.18c0.969-1.125,2.076-2.143,2.975-3.322
	c3.097-4.047,4.292-8.822,4.547-13.773c0.309-6.037,0.309-12.088,0.342-18.121c0-1.857-0.193-3.742-0.499-5.584
	c-1.065-6.299-3.94-11.525-9.457-15.023c-4.892-3.09-10.293-4.146-16-3.641c-4.776,0.422-9.156,1.93-12.93,4.975
	c-5.2,4.23-7.522,9.947-7.927,16.43c-0.474,7.564-0.544,15.133,0.327,22.699c0.694,5.998,2.795,11.326,7.44,15.439
	c0.291,0.248,0.527,0.689,0.527,1.039c0.062,2.307,0,4.611,0.054,6.916c0.027,0.916-0.324,1.223-1.195,1.406
	c-7.399,1.787-14.62,4.102-21.552,7.232c-5.014,2.25-9.825,4.852-13.862,8.672c-2.815,2.639-5.147,5.648-5.332,9.641
	c-0.218,4.432-0.053,20.621-0.053,25.104c38.027,0,75.982,0,113.963-0.008C164.488,167.309,164.602,151.164,164.436,146.83z"/>
</svg>
