<?xml version="1.0" encoding="utf-8"?>
<!-- Generator: Adobe Illustrator 16.0.0, SVG Export Plug-In . SVG Version: 6.00 Build 0)  -->
<!DOCTYPE svg PUBLIC "-//W3C//DTD SVG 1.1//EN" "http://www.w3.org/Graphics/SVG/1.1/DTD/svg11.dtd">
<svg version="1.1" id="Layer_1" xmlns="http://www.w3.org/2000/svg" xmlns:xlink="http://www.w3.org/1999/xlink" x="0px" y="0px"
	 width="225px" height="225px" viewBox="245 0 225 225" enable-background="new 245 0 225 225" xml:space="preserve">
<g>
	<path fill="#010000" d="M395.133,175.145h-77.824c-1.995,0-4.168-1.254-5.165-2.98l-38.913-67.398
		c-0.998-1.728-0.998-4.236,0-5.964l38.912-67.398c0.998-1.728,3.171-2.982,5.166-2.982h77.824c1.994,0,4.166,1.254,5.164,2.981
		l38.912,67.399c0.998,1.728,0.998,4.236,0,5.964l-38.912,67.397C399.299,173.891,397.127,175.145,395.133,175.145z M395.129,33.421
		h-77.82c-0.227,0.011-0.714,0.292-0.838,0.486l-38.91,67.395c-0.104,0.201-0.104,0.763,0.002,0.967l38.91,67.395
		c0.122,0.19,0.609,0.472,0.84,0.481h77.816c0.23-0.011,0.717-0.292,0.841-0.485l38.909-67.394c0.104-0.201,0.104-0.763-0.002-0.967
		l-38.91-67.396C395.846,33.713,395.357,33.432,395.129,33.421z"/>
</g>
<g>
	<path fill="#010000" d="M325.42,195.34c-5.137,0-9.316-4.18-9.316-9.316c0-5.138,4.18-9.317,9.316-9.317
		c5.138,0,9.317,4.18,9.317,9.317C334.737,191.16,330.558,195.34,325.42,195.34z M325.42,181.706c-2.38,0-4.316,1.937-4.316,4.317
		c0,2.38,1.937,4.316,4.316,4.316c2.381,0,4.317-1.937,4.317-4.316C329.737,183.643,327.801,181.706,325.42,181.706z"/>
</g>
<g>
	<path fill="#010000" d="M392.074,196.35c-5.138,0-9.317-4.18-9.317-9.316c0-5.138,4.18-9.317,9.317-9.317
		c5.137,0,9.316,4.18,9.316,9.317C401.391,192.17,397.211,196.35,392.074,196.35z M392.074,182.716
		c-2.381,0-4.317,1.937-4.317,4.317c0,2.38,1.937,4.316,4.317,4.316c2.38,0,4.316-1.937,4.316-4.316
		C396.391,184.652,394.454,182.716,392.074,182.716z"/>
</g>
<g>
	<g>
		<path fill="#010000" d="M364.047,99.486h-15.654c-1.381,0-2.5-1.119-2.5-2.5V81.333c0-1.381,1.119-2.5,2.5-2.5h15.654
			c1.381,0,2.5,1.119,2.5,2.5v15.653C366.547,98.367,365.428,99.486,364.047,99.486z M350.893,94.486h10.654V83.833h-10.654V94.486z
			"/>
	</g>
	<g>
		<path fill="#010000" d="M393.334,99.486H377.68c-1.381,0-2.5-1.119-2.5-2.5V81.333c0-1.381,1.119-2.5,2.5-2.5h15.654
			c1.381,0,2.5,1.119,2.5,2.5v15.653C395.834,98.367,394.715,99.486,393.334,99.486z M380.18,94.486h10.654V83.833H380.18V94.486z"
			/>
	</g>
	<g>
		<path fill="#010000" d="M334.76,124.734h-15.654c-1.381,0-2.5-1.119-2.5-2.5v-15.654c0-1.381,1.119-2.5,2.5-2.5h15.654
			c1.381,0,2.5,1.119,2.5,2.5v15.654C337.26,123.615,336.141,124.734,334.76,124.734z M321.605,119.734h10.654v-10.654h-10.654
			V119.734z"/>
	</g>
	<g>
		<path fill="#010000" d="M334.76,78.833h-15.654c-1.381,0-2.5,1.119-2.5,2.5v15.653c0,1.381,1.119,2.5,2.5,2.5h15.654
			c1.381,0,2.5-1.119,2.5-2.5V81.333C337.26,79.952,336.141,78.833,334.76,78.833z"/>
		<path fill="#010000" d="M364.047,104.081h-15.654c-1.381,0-2.5,1.119-2.5,2.5v15.654c0,1.381,1.119,2.5,2.5,2.5h15.654
			c1.381,0,2.5-1.119,2.5-2.5v-15.654C366.547,105.2,365.428,104.081,364.047,104.081z"/>
		<path fill="#010000" d="M393.334,104.081H377.68c-1.381,0-2.5,1.119-2.5,2.5v15.654c0,1.381,1.119,2.5,2.5,2.5h15.654
			c1.381,0,2.5-1.119,2.5-2.5v-15.654C395.834,105.2,394.715,104.081,393.334,104.081z"/>
	</g>
</g>
</svg>
