<?xml version="1.0" encoding="utf-8"?>
<!-- Generator: Adobe Illustrator 16.0.0, SVG Export Plug-In . SVG Version: 6.00 Build 0)  -->
<!DOCTYPE svg PUBLIC "-//W3C//DTD SVG 1.1//EN" "http://www.w3.org/Graphics/SVG/1.1/DTD/svg11.dtd">
<svg version="1.1" id="Layer_1" xmlns="http://www.w3.org/2000/svg" xmlns:xlink="http://www.w3.org/1999/xlink" x="0px" y="0px"
	 width="225.07px" height="225.07px" viewBox="0 0 225.07 225.07" enable-background="new 0 0 225.07 225.07" xml:space="preserve">
<path fill="#ffffff" d="M112.144,55.137c-30.929,0-54.253,9.675-54.253,22.504v70.896h0.063c1.3,12.274,24.157,21.397,54.19,21.397
	c30.034,0,52.891-9.123,54.19-21.397h0.062V77.641C166.396,64.812,143.074,55.137,112.144,55.137z M76.451,65.827
	c9.494-3.669,22.17-5.69,35.693-5.69c29.026,0,49.252,9.225,49.252,17.504c0,4.176-4.941,8.482-13.559,11.812
	c-9.494,3.669-22.17,5.69-35.694,5.69c-29.025,0-49.253-9.224-49.253-17.503C62.891,73.464,67.833,69.158,76.451,65.827z
	 M147.838,159.243c-9.494,3.67-22.17,5.69-35.694,5.69c-29.025,0-49.253-9.225-49.253-17.504V133.3
	c8.451,7.671,26.854,12.747,49.253,12.747c22.399,0,40.801-5.076,49.252-12.747v14.13
	C161.396,151.606,156.455,155.912,147.838,159.243z M147.838,135.356c-9.494,3.67-22.17,5.69-35.694,5.69
	c-29.025,0-49.253-9.224-49.253-17.502v-14.131c8.451,7.672,26.854,12.748,49.253,12.748c22.399,0,40.801-5.076,49.252-12.748
	v14.131C161.396,127.721,156.455,132.026,147.838,135.356z M147.838,111.472c-9.494,3.67-22.17,5.69-35.694,5.69
	c-29.025,0-49.253-9.225-49.253-17.504V87.396c8.451,7.672,26.854,12.748,49.253,12.748c22.399,0,40.801-5.076,49.252-12.748v12.263
	C161.396,103.835,156.455,108.141,147.838,111.472z"/>
</svg>
