<?xml version="1.0" encoding="utf-8"?>
<!-- Generator: Adobe Illustrator 16.0.0, SVG Export Plug-In . SVG Version: 6.00 Build 0)  -->
<!DOCTYPE svg PUBLIC "-//W3C//DTD SVG 1.1//EN" "http://www.w3.org/Graphics/SVG/1.1/DTD/svg11.dtd">
<svg version="1.1" id="Layer_1" xmlns="http://www.w3.org/2000/svg" xmlns:xlink="http://www.w3.org/1999/xlink" x="0px" y="0px"
	 width="225px" height="225px" viewBox="0 0 225 225" enable-background="new 0 0 225 225" xml:space="preserve">
<g>
	<circle fill="#FF8158" cx="5346.54" cy="217.932" r="112.265"/>
</g>
<g>
	<rect x="5270" y="201" fill="#FFFFFF" width="102" height="15"/>
	<path fill="none" stroke="#FFFFFF" stroke-width="5" stroke-miterlimit="10" d="M5373,243.73c0,5.578-4.339,10.729-9.189,10.729
		h-84.082c-4.855,0-10.104-5.151-10.104-10.729v-50.491c0-5.577,5.249-9.222,10.104-9.222h84.082c4.852,0,9.189,3.645,9.189,9.222
		V243.73z"/>
</g>
<path fill="none" stroke="#FFFFFF" stroke-width="5" stroke-linecap="round" stroke-miterlimit="10" d="M5406.875,171.34
	c26.049,26.053,28.023,67.061,5.924,95.379"/>
<path fill="none" stroke="#FFFFFF" stroke-width="5" stroke-linecap="round" stroke-miterlimit="10" d="M5396.32,185.959
	c17.926,17.924,19.283,46.143,4.078,65.629"/>
<path fill="none" stroke="#FFFFFF" stroke-width="5" stroke-linecap="round" stroke-miterlimit="10" d="M5388.336,202.912
	c8.805,8.804,9.475,22.666,2.004,32.234"/>
<path d="M164.573,94c4.304,0,7.427-3.381,7.427-8.04V61.688c0-4.527-3.054-7.688-7.427-7.688h-24.269
	c-4.657,0-8.305,3.377-8.305,7.688V74H92V62.088C92,57.628,88.372,54,83.911,54H59.089C54.628,54,51,57.628,51,62.088v24.824
	C51,91.372,54.628,95,59.089,95H69v39h-9.911c-4.46,0-8.089,3.629-8.089,8.09v24.82c0,4.461,3.628,8.09,8.089,8.09h24.822
	c4.46,0,8.089-3.629,8.089-8.09V158h40v8.785c0,4.606,3.424,8.215,7.794,8.215h25.008c4.238,0,7.198-3.378,7.198-8.215v-25.011
	c0-4.65-2.893-7.774-7.198-7.774H154V94H164.573z M137,61.688c0-1.746,1.703-2.688,3.305-2.688h24.269
	c1.61,0,2.427,0.904,2.427,2.688V85.96c0,0.713-0.175,3.04-2.427,3.04h-24.269c-1.791,0-3.305-1.392-3.305-3.04V61.688z M59.089,90
	C57.386,90,56,88.615,56,86.912V62.088C56,60.385,57.386,59,59.089,59h24.822C85.614,59,87,60.385,87,62.088v24.824
	C87,88.615,85.614,90,83.911,90H59.089z M87,166.91c0,1.704-1.386,3.09-3.089,3.09H59.089c-1.703,0-3.089-1.386-3.089-3.09v-24.82
	c0-1.704,1.386-3.09,3.089-3.09h24.822c1.703,0,3.089,1.386,3.089,3.09V166.91z M139.794,134c-4.443,0-7.794,3.342-7.794,7.774V153
	H92v-10.91c0-4.461-3.628-8.09-8.089-8.09H74V95h9.911C88.372,95,92,91.372,92,86.912V79h40v6.96c0,4.433,3.726,8.04,8.305,8.04H149
	v40H139.794z"/>
</svg>
