<?xml version="1.0" encoding="utf-8"?>
<!-- Generator: Adobe Illustrator 16.0.0, SVG Export Plug-In . SVG Version: 6.00 Build 0)  -->
<!DOCTYPE svg PUBLIC "-//W3C//DTD SVG 1.1//EN" "http://www.w3.org/Graphics/SVG/1.1/DTD/svg11.dtd">
<svg version="1.1" id="Layer_1" xmlns="http://www.w3.org/2000/svg" xmlns:xlink="http://www.w3.org/1999/xlink" x="0px" y="0px"
	 width="225px" height="225px" viewBox="0 0 225 225" enable-background="new 0 0 225 225" xml:space="preserve">
<path fill="#ffffff" d="M179.466,107.254c-0.844,0-1.668-0.428-2.139-1.202c-0.718-1.18-0.343-2.718,0.838-3.435l17.174-10.438
	l-16.741-11.112c-1.149-0.764-1.464-2.315-0.699-3.465c0.764-1.151,2.313-1.463,3.466-0.701l20.02,13.288
	c0.712,0.473,1.134,1.278,1.116,2.133c-0.018,0.854-0.47,1.643-1.2,2.086l-20.536,12.48
	C180.355,107.137,179.908,107.254,179.466,107.254z"/>
<path fill="#ffffff" d="M154.279,114.261c-0.292,0-0.59-0.052-0.879-0.159c-1.293-0.484-1.946-1.927-1.463-3.219l14.863-39.646
	c0.484-1.293,1.93-1.947,3.219-1.463c1.293,0.484,1.947,1.926,1.463,3.218l-14.862,39.646
	C156.244,113.641,155.291,114.261,154.279,114.261z"/>
<g>
	<path fill="#ffffff" d="M135.88,86.531l8.229-5.462c1.149-0.764,1.464-2.315,0.699-3.465c-0.765-1.152-2.314-1.463-3.466-0.701
		l-5.401,3.585C135.932,82.487,135.914,84.5,135.88,86.531z"/>
	<path fill="#ffffff" d="M144.542,102.618l-9.113-5.539c-0.202,1.854-0.54,3.595-0.993,5.247l7.51,4.564
		c0.406,0.247,0.854,0.364,1.297,0.364c0.844,0,1.668-0.428,2.139-1.202C146.098,104.873,145.723,103.334,144.542,102.618z"/>
</g>
<path fill="#ffffff" d="M164.417,146.766c-0.069-1.533-0.634-3.125-1.284-4.522c-1.549-3.345-4.222-5.746-7.123-7.881
	c-5.119-3.745-10.818-6.464-16.773-8.529c-5.19-1.817-10.514-3.258-15.756-4.873c-0.359-0.133-0.904-0.442-0.914-0.688
	c-0.098-2.494-0.114-4.994-0.078-7.494c0-0.388,0.326-0.864,0.613-1.18c0.97-1.125,2.076-2.144,2.976-3.323
	c3.097-4.047,4.291-8.822,4.548-13.772c0.309-6.039,0.309-12.089,0.341-18.121c0-1.859-0.192-3.742-0.5-5.585
	c-1.063-6.3-3.938-11.525-9.455-15.024c-4.893-3.088-10.293-4.146-16-3.642c-4.777,0.422-9.156,1.935-12.931,4.977
	c-5.2,4.23-7.522,9.947-7.927,16.431c-0.474,7.564-0.544,15.13,0.327,22.698c0.694,5.998,2.796,11.324,7.44,15.439
	c0.291,0.249,0.528,0.688,0.528,1.038c0.062,2.305,0,4.609,0.053,6.917c0.026,0.915-0.324,1.224-1.196,1.406
	c-7.399,1.785-14.62,4.103-21.551,7.231c-5.014,2.25-9.825,4.851-13.861,8.67c-2.815,2.642-5.147,5.65-5.333,9.644
	c-0.218,4.433-0.055,20.621-0.055,25.104c38.03,0,75.984,0,113.966-0.01C164.471,167.245,164.584,151.1,164.417,146.766z
	 M90.001,154.062L90.001,154.062C90,155.686,88.685,157,87.062,157H67.938c-1.623,0-2.938-1.314-2.938-2.938v-4.123
	c0-1.623,1.315-2.938,2.938-2.938h19.125c1.623,0,2.938,1.315,2.938,2.938V154.062z"/>
</svg>
