<?xml version="1.0" encoding="utf-8"?>
<!-- Generator: Adobe Illustrator 16.0.0, SVG Export Plug-In . SVG Version: 6.00 Build 0)  -->
<!DOCTYPE svg PUBLIC "-//W3C//DTD SVG 1.1//EN" "http://www.w3.org/Graphics/SVG/1.1/DTD/svg11.dtd">
<svg version="1.1" id="Layer_1" xmlns="http://www.w3.org/2000/svg" xmlns:xlink="http://www.w3.org/1999/xlink" x="0px" y="0px"
	 width="225px" height="225px" viewBox="0 0 225 225" enable-background="new 0 0 225 225" xml:space="preserve">
<g>
	<circle fill="#FF8158" cx="5346.54" cy="217.932" r="112.265"/>
</g>
<g>
	<rect x="5270" y="201" fill="#FFFFFF" width="102" height="15"/>
	<path fill="none" stroke="#FFFFFF" stroke-width="5" stroke-miterlimit="10" d="M5373,243.73c0,5.578-4.339,10.729-9.189,10.729
		h-84.082c-4.855,0-10.104-5.151-10.104-10.729v-50.491c0-5.577,5.249-9.222,10.104-9.222h84.082c4.852,0,9.189,3.645,9.189,9.222
		V243.73z"/>
</g>
<path fill="none" stroke="#FFFFFF" stroke-width="5" stroke-linecap="round" stroke-miterlimit="10" d="M5406.875,171.34
	c26.049,26.053,28.023,67.061,5.924,95.379"/>
<path fill="none" stroke="#FFFFFF" stroke-width="5" stroke-linecap="round" stroke-miterlimit="10" d="M5396.32,185.959
	c17.926,17.924,19.283,46.143,4.078,65.629"/>
<path fill="none" stroke="#FFFFFF" stroke-width="5" stroke-linecap="round" stroke-miterlimit="10" d="M5388.336,202.912
	c8.805,8.804,9.475,22.666,2.004,32.234"/>
<path opacity="0.6" fill="#FF8158" d="M148,153.727c0,1.625-1.607,4.273-3.23,4.273h-20.571c-1.623,0-3.198-2.648-3.198-4.273
	v-13.225c0-1.621,1.575-1.502,3.198-1.502h20.571c1.623,0,3.23-0.119,3.23,1.502V153.727z"/>
<path opacity="0.5" fill="#FF8158" d="M148,153.727c0,1.625-1.607,4.273-3.23,4.273h-20.571c-1.623,0-3.198-2.648-3.198-4.273
	v-13.225c0-1.621,1.575-1.502,3.198-1.502h20.571c1.623,0,3.23-0.119,3.23,1.502V153.727z"/>
<path d="M179.466,107.254c-0.844,0-1.668-0.428-2.139-1.202c-0.717-1.18-0.342-2.718,0.838-3.435l17.174-10.437l-16.741-11.112
	c-1.15-0.764-1.464-2.315-0.7-3.465c0.764-1.151,2.314-1.463,3.466-0.701l20.02,13.288c0.712,0.473,1.134,1.278,1.116,2.133
	c-0.017,0.855-0.47,1.643-1.2,2.086l-20.536,12.48C180.356,107.137,179.908,107.254,179.466,107.254z"/>
<path d="M154.279,114.261c-0.292,0-0.589-0.052-0.878-0.16c-1.293-0.484-1.947-1.926-1.463-3.218l14.863-39.646
	c0.484-1.293,1.929-1.947,3.219-1.463c1.293,0.484,1.947,1.926,1.463,3.218l-14.863,39.646
	C156.244,113.641,155.291,114.261,154.279,114.261z"/>
<g>
	<path d="M135.88,86.531l8.229-5.462c1.15-0.764,1.464-2.315,0.7-3.465c-0.765-1.152-2.315-1.463-3.466-0.701l-5.401,3.585
		C135.931,82.487,135.914,84.5,135.88,86.531z"/>
	<path d="M144.542,102.618l-9.113-5.539c-0.202,1.854-0.54,3.595-0.994,5.247l7.51,4.564c0.406,0.247,0.854,0.364,1.297,0.364
		c0.844,0,1.668-0.428,2.139-1.202C146.097,104.873,145.722,103.334,144.542,102.618z"/>
</g>
<path d="M164.417,146.765c-0.07-1.532-0.634-3.125-1.284-4.522c-1.549-3.344-4.222-5.746-7.123-7.881
	c-5.12-3.745-10.819-6.463-16.774-8.529c-5.19-1.817-10.513-3.258-15.755-4.873c-0.36-0.133-0.905-0.442-0.914-0.689
	c-0.098-2.494-0.115-4.993-0.079-7.493c0-0.388,0.326-0.864,0.614-1.18c0.969-1.125,2.076-2.144,2.975-3.323
	c3.097-4.047,4.291-8.822,4.548-13.772c0.309-6.039,0.309-12.089,0.341-18.121c0-1.859-0.193-3.742-0.5-5.585
	c-1.063-6.3-3.939-11.525-9.455-15.024c-4.893-3.088-10.293-4.146-16-3.642c-4.777,0.422-9.156,1.935-12.931,4.977
	c-5.2,4.23-7.522,9.947-7.927,16.431c-0.474,7.564-0.544,15.13,0.327,22.698c0.694,5.998,2.796,11.324,7.44,15.44
	c0.291,0.249,0.528,0.688,0.528,1.038c0.062,2.305,0,4.609,0.053,6.917c0.026,0.915-0.324,1.223-1.196,1.406
	c-7.399,1.785-14.62,4.102-21.551,7.232c-5.014,2.25-9.825,4.85-13.861,8.67c-2.815,2.641-5.147,5.65-5.333,9.643
	c-0.218,4.432-0.055,20.621-0.055,25.104c38.03,0,75.984,0,113.966-0.009C164.471,167.245,164.584,151.099,164.417,146.765z
	 M90,154.062c0,1.623-1.315,2.938-2.938,2.938H67.938c-1.623,0-2.938-1.315-2.938-2.938v-4.123c0-1.623,1.315-2.938,2.938-2.938
	h19.125c1.623,0,2.938,1.315,2.938,2.938V154.062z"/>
</svg>
