<?xml version="1.0" encoding="utf-8"?>
<!-- Generator: Adobe Illustrator 16.0.0, SVG Export Plug-In . SVG Version: 6.00 Build 0)  -->
<!DOCTYPE svg PUBLIC "-//W3C//DTD SVG 1.1//EN" "http://www.w3.org/Graphics/SVG/1.1/DTD/svg11.dtd">
<svg version="1.1" id="Layer_1" xmlns="http://www.w3.org/2000/svg" xmlns:xlink="http://www.w3.org/1999/xlink" x="0px" y="0px"
	 width="225px" height="225px" viewBox="0 0 225 225" enable-background="new 0 0 225 225" xml:space="preserve">
<g>
	<circle fill="#FF8158" cx="5346.54" cy="217.932" r="112.265"/>
</g>
<g>
	<rect x="5270" y="201" fill="#FFFFFF" width="102" height="15"/>
	<path fill="none" stroke="#FFFFFF" stroke-width="5" stroke-miterlimit="10" d="M5373,243.73c0,5.578-4.339,10.729-9.189,10.729
		h-84.082c-4.855,0-10.104-5.151-10.104-10.729v-50.491c0-5.577,5.249-9.222,10.104-9.222h84.082c4.852,0,9.189,3.645,9.189,9.222
		V243.73z"/>
</g>
<path fill="none" stroke="#FFFFFF" stroke-width="5" stroke-linecap="round" stroke-miterlimit="10" d="M5406.875,171.34
	c26.049,26.053,28.023,67.061,5.924,95.379"/>
<path fill="none" stroke="#FFFFFF" stroke-width="5" stroke-linecap="round" stroke-miterlimit="10" d="M5396.32,185.959
	c17.926,17.924,19.283,46.143,4.078,65.629"/>
<path fill="none" stroke="#FFFFFF" stroke-width="5" stroke-linecap="round" stroke-miterlimit="10" d="M5388.336,202.912
	c8.805,8.804,9.475,22.666,2.004,32.234"/>
<path fill="none" stroke="#000000" stroke-width="3.5" stroke-miterlimit="10" d="M130.129,80.084"/>
<path d="M186.75,111.657l-30.336-30.336c-0.573-0.573-1.432-0.744-2.18-0.434c-0.747,0.31-1.234,1.039-1.234,1.848V110H67V82.735
	c0-0.809-0.487-1.538-1.235-1.848c-0.746-0.311-1.608-0.139-2.179,0.434L33.25,111.657c-0.781,0.781-0.781,2.047,0,2.828
	l30.336,30.337c0.382,0.383,0.894,0.586,1.415,0.586c0.257,0,0.518-0.05,0.765-0.152c0.748-0.31,1.235-1.039,1.235-1.848V115h86
	v28.408c0,0.809,0.487,1.538,1.234,1.848c0.248,0.103,0.508,0.152,0.766,0.152c0.521,0,1.031-0.203,1.414-0.586l30.336-30.337
	C187.531,113.704,187.531,112.438,186.75,111.657z"/>
</svg>
