<?xml version="1.0" encoding="utf-8"?>
<!-- Generator: Adobe Illustrator 15.1.0, SVG Export Plug-In . SVG Version: 6.00 Build 0)  -->
<!DOCTYPE svg PUBLIC "-//W3C//DTD SVG 1.1//EN" "http://www.w3.org/Graphics/SVG/1.1/DTD/svg11.dtd">
<svg version="1.1" id="Layer_1" xmlns="http://www.w3.org/2000/svg" xmlns:xlink="http://www.w3.org/1999/xlink" x="0px" y="0px"
	 width="225px" height="225px" viewBox="0 0 225 225" enable-background="new 0 0 225 225" xml:space="preserve">
<path fill="#ffffff" d="M186.75,111.657l-30.336-30.336c-0.573-0.573-1.432-0.744-2.18-0.435c-0.748,0.312-1.234,1.039-1.234,1.848
	V110H67V82.735c0-0.809-0.487-1.538-1.235-1.848c-0.746-0.311-1.608-0.139-2.179,0.435L33.25,111.657
	c-0.781,0.781-0.781,2.047,0,2.827l30.336,30.338c0.382,0.383,0.894,0.586,1.415,0.586c0.257,0,0.518-0.051,0.765-0.152
	c0.748-0.311,1.235-1.039,1.235-1.848V115h86v28.408c0,0.809,0.487,1.537,1.233,1.848c0.248,0.104,0.509,0.152,0.767,0.152
	c0.521,0,1.031-0.203,1.414-0.586l30.336-30.338C187.531,113.704,187.531,112.438,186.75,111.657z"/>
</svg>
