<?xml version="1.0" encoding="utf-8"?>
<!-- Generator: Adobe Illustrator 16.0.0, SVG Export Plug-In . SVG Version: 6.00 Build 0)  -->
<!DOCTYPE svg PUBLIC "-//W3C//DTD SVG 1.1//EN" "http://www.w3.org/Graphics/SVG/1.1/DTD/svg11.dtd">
<svg version="1.1" id="Layer_1" xmlns="http://www.w3.org/2000/svg" xmlns:xlink="http://www.w3.org/1999/xlink" x="0px" y="0px"
	 width="225px" height="225px" viewBox="0 0 225 225" enable-background="new 0 0 225 225" xml:space="preserve">
<path fill="#ffffff" d="M118.541,48.008c-0.917-0.69-2.107-0.908-3.209-0.592L76.24,58.68c-1.565,0.451-2.643,1.883-2.643,3.512
	v106.187c0,1.628,1.077,3.061,2.641,3.512l39.092,11.282c0.333,0.097,0.675,0.144,1.014,0.144c0.783,0,1.557-0.252,2.197-0.732
	c0.918-0.689,1.458-1.771,1.458-2.921V50.929C119.999,49.78,119.459,48.699,118.541,48.008z M106.725,131.323
	c-2.361,0-4.297-2.697-4.297-6.005c0-3.301,1.937-6.006,4.297-6.006c2.375,0,4.297,2.705,4.297,6.006
	C111.022,128.626,109.1,131.323,106.725,131.323z"/>
<path fill="#ffffff" d="M147.748,171.456h-21.415c-1.381,0-2.5-1.119-2.5-2.5s1.119-2.5,2.5-2.5h18.915V65.003h-18.915
	c-1.381,0-2.5-1.119-2.5-2.5s1.119-2.5,2.5-2.5h21.415c1.381,0,2.5,1.119,2.5,2.5v106.453
	C150.248,170.337,149.129,171.456,147.748,171.456z"/>
</svg>
