<?xml version="1.0" encoding="utf-8"?>
<!-- Generator: Adobe Illustrator 16.0.0, SVG Export Plug-In . SVG Version: 6.00 Build 0)  -->
<!DOCTYPE svg PUBLIC "-//W3C//DTD SVG 1.1//EN" "http://www.w3.org/Graphics/SVG/1.1/DTD/svg11.dtd">
<svg version="1.1" id="Layer_1" xmlns="http://www.w3.org/2000/svg" xmlns:xlink="http://www.w3.org/1999/xlink" x="0px" y="0px"
	 width="225px" height="225px" viewBox="0 0 225 225" enable-background="new 0 0 225 225" xml:space="preserve">
<g>
	<circle fill="#FF8158" cx="5346.54" cy="217.932" r="112.265"/>
</g>
<g>
	<rect x="5270" y="201" fill="#FFFFFF" width="102" height="15"/>
	<path fill="none" stroke="#FFFFFF" stroke-width="5" stroke-miterlimit="10" d="M5373,243.73c0,5.578-4.339,10.729-9.189,10.729
		h-84.082c-4.855,0-10.104-5.151-10.104-10.729v-50.491c0-5.577,5.249-9.222,10.104-9.222h84.082c4.852,0,9.189,3.645,9.189,9.222
		V243.73z"/>
</g>
<path fill="none" stroke="#FFFFFF" stroke-width="5" stroke-linecap="round" stroke-miterlimit="10" d="M5406.875,171.34
	c26.049,26.053,28.023,67.061,5.924,95.379"/>
<path fill="none" stroke="#FFFFFF" stroke-width="5" stroke-linecap="round" stroke-miterlimit="10" d="M5396.32,185.959
	c17.926,17.924,19.283,46.143,4.078,65.629"/>
<path fill="none" stroke="#FFFFFF" stroke-width="5" stroke-linecap="round" stroke-miterlimit="10" d="M5388.336,202.912
	c8.805,8.804,9.475,22.666,2.004,32.234"/>
<path d="M116.091,180.976c-0.162,0-0.326-0.022-0.485-0.068l-39.091-11.282c-0.749-0.217-1.265-0.902-1.265-1.682V61.757
	c0-0.78,0.516-1.466,1.266-1.682l39.091-11.264c0.527-0.151,1.097-0.047,1.537,0.283c0.438,0.331,0.697,0.849,0.697,1.398v128.732
	c0,0.55-0.259,1.068-0.698,1.398C116.836,180.854,116.466,180.976,116.091,180.976z M78.75,166.627l35.591,10.272V52.818
	L78.75,63.074V166.627z"/>
<path d="M101.176,124.884c0,3.307,1.936,6.004,4.298,6.004c2.373,0,4.297-2.697,4.297-6.004c0-3.302-1.924-6.006-4.297-6.006
	C103.111,118.878,101.176,121.582,101.176,124.884z"/>
<path d="M146.496,170.271h-21.415c-0.967,0-1.75-0.783-1.75-1.75s0.783-1.75,1.75-1.75h19.665V63.817h-19.665
	c-0.967,0-1.75-0.784-1.75-1.75s0.783-1.75,1.75-1.75h21.415c0.967,0,1.75,0.784,1.75,1.75v106.453
	C148.246,169.487,147.463,170.271,146.496,170.271z"/>
</svg>
