<?xml version="1.0" encoding="utf-8"?>
<!-- Generator: Adobe Illustrator 16.0.0, SVG Export Plug-In . SVG Version: 6.00 Build 0)  -->
<!DOCTYPE svg PUBLIC "-//W3C//DTD SVG 1.1//EN" "http://www.w3.org/Graphics/SVG/1.1/DTD/svg11.dtd">
<svg version="1.1" id="Layer_1" xmlns="http://www.w3.org/2000/svg" xmlns:xlink="http://www.w3.org/1999/xlink" x="0px" y="0px"
	 width="225px" height="225px" viewBox="0 0 225 225" enable-background="new 0 0 225 225" xml:space="preserve">
<g>
	<circle fill="#FF8158" cx="5346.54" cy="217.932" r="112.265"/>
</g>
<g>
	<rect x="5270" y="201" fill="#FFFFFF" width="102" height="15"/>
	<path fill="none" stroke="#FFFFFF" stroke-width="5" stroke-miterlimit="10" d="M5373,243.73c0,5.578-4.339,10.729-9.189,10.729
		h-84.082c-4.855,0-10.104-5.151-10.104-10.729v-50.491c0-5.577,5.249-9.222,10.104-9.222h84.082c4.852,0,9.189,3.645,9.189,9.222
		V243.73z"/>
</g>
<path fill="none" stroke="#FFFFFF" stroke-width="5" stroke-linecap="round" stroke-miterlimit="10" d="M5406.875,171.34
	c26.049,26.053,28.023,67.061,5.924,95.379"/>
<path fill="none" stroke="#FFFFFF" stroke-width="5" stroke-linecap="round" stroke-miterlimit="10" d="M5396.32,185.959
	c17.926,17.924,19.283,46.143,4.078,65.629"/>
<path fill="none" stroke="#FFFFFF" stroke-width="5" stroke-linecap="round" stroke-miterlimit="10" d="M5388.336,202.912
	c8.805,8.804,9.475,22.666,2.004,32.234"/>
<path d="M118.541,48.008c-0.917-0.69-2.108-0.908-3.209-0.592L76.24,58.68c-1.565,0.451-2.643,1.883-2.643,3.512v106.187
	c0,1.628,1.077,3.061,2.641,3.512l39.092,11.282c0.333,0.096,0.675,0.144,1.014,0.144c0.783,0,1.557-0.252,2.197-0.734
	c0.918-0.69,1.458-1.772,1.458-2.921V50.929C119.999,49.78,119.459,48.699,118.541,48.008z"/>
<path fill="#FFFFFF" d="M102.428,125.319c0,3.307,1.936,6.004,4.297,6.004c2.375,0,4.297-2.697,4.297-6.004
	c0-3.302-1.922-6.006-4.297-6.006C104.363,119.313,102.428,122.018,102.428,125.319z"/>
<path d="M147.748,171.456h-21.415c-1.381,0-2.5-1.119-2.5-2.5s1.119-2.5,2.5-2.5h18.915V65.003h-18.915c-1.381,0-2.5-1.119-2.5-2.5
	s1.119-2.5,2.5-2.5h21.415c1.381,0,2.5,1.119,2.5,2.5v106.453C150.248,170.337,149.129,171.456,147.748,171.456z"/>
</svg>
