<?xml version="1.0" encoding="utf-8"?>
<!-- Generator: Adobe Illustrator 16.0.0, SVG Export Plug-In . SVG Version: 6.00 Build 0)  -->
<!DOCTYPE svg PUBLIC "-//W3C//DTD SVG 1.1//EN" "http://www.w3.org/Graphics/SVG/1.1/DTD/svg11.dtd">
<svg version="1.1" id="Layer_1" xmlns="http://www.w3.org/2000/svg" xmlns:xlink="http://www.w3.org/1999/xlink" x="0px" y="0px"
	 width="225px" height="225px" viewBox="0 0 225 225" enable-background="new 0 0 225 225" xml:space="preserve">
<g>
	<circle fill="#FF8158" cx="5346.54" cy="217.932" r="112.265"/>
</g>
<g>
	<rect x="5270" y="201" fill="#FFFFFF" width="102" height="15"/>
	<path fill="none" stroke="#FFFFFF" stroke-width="5" stroke-miterlimit="10" d="M5373,243.73c0,5.578-4.339,10.729-9.189,10.729
		h-84.082c-4.855,0-10.104-5.151-10.104-10.729v-50.491c0-5.577,5.249-9.222,10.104-9.222h84.082c4.852,0,9.189,3.645,9.189,9.222
		V243.73z"/>
</g>
<path fill="none" stroke="#FFFFFF" stroke-width="5" stroke-linecap="round" stroke-miterlimit="10" d="M5406.875,171.34
	c26.049,26.053,28.023,67.061,5.924,95.379"/>
<path fill="none" stroke="#FFFFFF" stroke-width="5" stroke-linecap="round" stroke-miterlimit="10" d="M5396.32,185.959
	c17.926,17.924,19.283,46.143,4.078,65.629"/>
<path fill="none" stroke="#FFFFFF" stroke-width="5" stroke-linecap="round" stroke-miterlimit="10" d="M5388.336,202.912
	c8.805,8.804,9.475,22.666,2.004,32.234"/>
<g>
	<polygon fill="none" stroke="#000000" stroke-width="9" stroke-linejoin="round" stroke-miterlimit="10" points="78.279,167.943 
		117.37,179.227 117.37,50.494 78.279,61.757 	"/>
	<path d="M98.455,124.885c0,3.307,1.936,6.004,4.297,6.004c2.375,0,4.297-2.697,4.297-6.004c0-3.303-1.922-6.006-4.297-6.006
		C100.391,118.879,98.455,121.582,98.455,124.885z"/>
	
		<polyline fill="none" stroke="#000000" stroke-width="9" stroke-linecap="round" stroke-linejoin="round" stroke-miterlimit="10" points="
		132.473,168.521 147.775,168.521 147.775,62.068 132.473,62.068 	"/>
</g>
</svg>
