<?xml version="1.0" encoding="utf-8"?>
<!-- Generator: Adobe Illustrator 16.0.0, SVG Export Plug-In . SVG Version: 6.00 Build 0)  -->
<!DOCTYPE svg PUBLIC "-//W3C//DTD SVG 1.1//EN" "http://www.w3.org/Graphics/SVG/1.1/DTD/svg11.dtd">
<svg version="1.1" id="Layer_1" xmlns="http://www.w3.org/2000/svg" xmlns:xlink="http://www.w3.org/1999/xlink" x="0px" y="0px"
	 width="225px" height="225px" viewBox="0 0 225 225" enable-background="new 0 0 225 225" xml:space="preserve">
<path fill="#000000" d="M117.643,45.652c-0.918-0.69-2.107-0.908-3.209-0.592L75.342,56.324c-1.565,0.451-2.643,1.883-2.643,3.512
	v106.188c0,1.627,1.077,3.062,2.641,3.513l39.09,11.28c0.334,0.098,0.676,0.146,1.014,0.146c0.783,0,1.559-0.252,2.197-0.733
	c0.918-0.689,1.459-1.771,1.459-2.92V48.572C119.1,47.424,118.561,46.342,117.643,45.652z M105.827,128.967
	c-2.362,0-4.298-2.697-4.298-6.004c0-3.302,1.936-6.006,4.298-6.006c2.374,0,4.296,2.704,4.296,6.006
	C110.123,126.27,108.201,128.967,105.827,128.967z"/>
<path fill="#000000" d="M43.467,159.117c-0.64,0-1.28-0.244-1.768-0.732c-25.216-25.218-25.216-66.25,0-91.467
	c0.976-0.977,2.56-0.977,3.535,0c0.977,0.976,0.977,2.559,0,3.535c-23.267,23.268-23.267,61.128,0,84.396
	c0.976,0.977,0.976,2.56,0,3.533C44.747,158.873,44.106,159.117,43.467,159.117z"/>
<path fill="#000000" d="M55.355,141.825c-0.64,0-1.279-0.244-1.768-0.732c-7.597-7.596-11.78-17.696-11.78-28.44
	s4.184-20.845,11.78-28.441c0.976-0.977,2.56-0.977,3.535,0c0.977,0.976,0.977,2.559,0,3.535
	c-6.652,6.652-10.315,15.498-10.315,24.906s3.664,18.253,10.315,24.906c0.977,0.977,0.977,2.56,0,3.534
	C56.635,141.581,55.995,141.825,55.355,141.825z"/>
<path fill="#000000" d="M179.145,159.117c-0.64,0-1.277-0.244-1.768-0.732c-0.977-0.976-0.977-2.559,0-3.535
	c23.268-23.269,23.268-61.129,0-84.396c-0.977-0.976-0.977-2.559,0-3.535c0.977-0.977,2.559-0.977,3.535,0
	c25.216,25.217,25.216,66.249,0,91.467C180.424,158.873,179.784,159.117,179.145,159.117z"/>
<path fill="#000000" d="M167.256,141.825c-0.64,0-1.279-0.244-1.768-0.732c-0.979-0.977-0.979-2.56,0-3.534
	c6.652-6.651,10.313-15.498,10.313-24.906c0-9.409-3.661-18.254-10.313-24.906c-0.979-0.976-0.979-2.559,0-3.535
	c0.977-0.977,2.559-0.977,3.535,0c7.597,7.596,11.778,17.697,11.778,28.441s-4.184,20.845-11.778,28.44
	C168.535,141.581,167.896,141.825,167.256,141.825z"/>
<path fill="#000000" d="M146.85,169.1h-21.414c-1.382,0-2.5-1.119-2.5-2.5s1.118-2.5,2.5-2.5h18.914V62.646h-18.914
	c-1.382,0-2.5-1.119-2.5-2.5s1.118-2.5,2.5-2.5h21.414c1.381,0,2.5,1.119,2.5,2.5V166.6C149.35,167.98,148.23,169.1,146.85,169.1z"
	/>
</svg>
