<?xml version="1.0" encoding="utf-8"?>
<!-- Generator: Adobe Illustrator 16.0.0, SVG Export Plug-In . SVG Version: 6.00 Build 0)  -->
<!DOCTYPE svg PUBLIC "-//W3C//DTD SVG 1.1//EN" "http://www.w3.org/Graphics/SVG/1.1/DTD/svg11.dtd">
<svg version="1.1" id="Layer_1" xmlns="http://www.w3.org/2000/svg" xmlns:xlink="http://www.w3.org/1999/xlink" x="0px" y="0px"
	 width="225px" height="225px" viewBox="0 0 225 225" enable-background="new 0 0 225 225" xml:space="preserve">
<g>
	<circle fill="#FF8158" cx="5346.54" cy="217.932" r="112.265"/>
</g>
<g>
	<rect x="5270" y="201" fill="#FFFFFF" width="102" height="15"/>
	<path fill="none" stroke="#FFFFFF" stroke-width="5" stroke-miterlimit="10" d="M5373,243.73c0,5.578-4.339,10.729-9.189,10.729
		h-84.082c-4.855,0-10.104-5.151-10.104-10.729v-50.491c0-5.577,5.249-9.222,10.104-9.222h84.082c4.852,0,9.189,3.645,9.189,9.222
		V243.73z"/>
</g>
<path fill="none" stroke="#FFFFFF" stroke-width="5" stroke-linecap="round" stroke-miterlimit="10" d="M5406.875,171.34
	c26.049,26.053,28.023,67.061,5.924,95.379"/>
<path fill="none" stroke="#FFFFFF" stroke-width="5" stroke-linecap="round" stroke-miterlimit="10" d="M5396.32,185.959
	c17.926,17.924,19.283,46.143,4.078,65.629"/>
<path fill="none" stroke="#FFFFFF" stroke-width="5" stroke-linecap="round" stroke-miterlimit="10" d="M5388.336,202.912
	c8.805,8.804,9.475,22.666,2.004,32.234"/>
<path d="M117.642,45.652c-0.917-0.69-2.108-0.908-3.209-0.592L75.342,56.324c-1.565,0.451-2.643,1.883-2.643,3.512v106.187
	c0,1.628,1.077,3.061,2.641,3.512l39.09,11.282c0.333,0.096,0.675,0.144,1.014,0.144c0.783,0,1.557-0.252,2.197-0.734
	c0.918-0.69,1.458-1.772,1.458-2.921V48.572C119.1,47.424,118.56,46.342,117.642,45.652z M105.827,128.967
	c-2.362,0-4.298-2.697-4.298-6.004c0-3.302,1.936-6.006,4.298-6.006c2.374,0,4.296,2.704,4.296,6.006
	C110.123,126.27,108.201,128.967,105.827,128.967z"/>
<path d="M43.467,159.117c-0.64,0-1.28-0.244-1.768-0.732c-25.216-25.218-25.216-66.25,0-91.467c0.976-0.977,2.56-0.977,3.535,0
	c0.977,0.976,0.977,2.559,0,3.535c-23.267,23.268-23.267,61.128,0,84.396c0.976,0.977,0.976,2.56,0,3.535
	C44.747,158.873,44.106,159.117,43.467,159.117z"/>
<path d="M55.355,141.825c-0.64,0-1.279-0.244-1.768-0.732c-7.597-7.596-11.78-17.696-11.78-28.44s4.184-20.845,11.78-28.441
	c0.976-0.977,2.56-0.977,3.535,0c0.977,0.976,0.977,2.559,0,3.535c-6.652,6.652-10.315,15.498-10.315,24.906
	c0,9.408,3.664,18.253,10.315,24.905c0.977,0.976,0.977,2.559,0,3.535C56.635,141.581,55.995,141.825,55.355,141.825z"/>
<path d="M179.145,159.117c-0.64,0-1.279-0.244-1.768-0.732c-0.977-0.976-0.977-2.559,0-3.535c23.267-23.269,23.267-61.129,0-84.396
	c-0.977-0.976-0.977-2.559,0-3.535c0.977-0.977,2.559-0.977,3.535,0c25.216,25.217,25.216,66.249,0,91.467
	C180.424,158.873,179.784,159.117,179.145,159.117z"/>
<path d="M167.256,141.825c-0.64,0-1.279-0.244-1.768-0.732c-0.977-0.977-0.977-2.56,0-3.535
	c6.652-6.652,10.315-15.497,10.315-24.905c0-9.409-3.663-18.254-10.315-24.906c-0.977-0.976-0.977-2.559,0-3.535
	c0.977-0.977,2.559-0.977,3.535,0c7.597,7.596,11.78,17.697,11.78,28.441s-4.184,20.845-11.78,28.44
	C168.535,141.581,167.896,141.825,167.256,141.825z"/>
<path d="M146.85,169.1h-21.415c-1.381,0-2.5-1.119-2.5-2.5s1.119-2.5,2.5-2.5h18.915V62.646h-18.915c-1.381,0-2.5-1.119-2.5-2.5
	s1.119-2.5,2.5-2.5h21.415c1.381,0,2.5,1.119,2.5,2.5V166.6C149.35,167.98,148.23,169.1,146.85,169.1z"/>
</svg>
