<?xml version="1.0" encoding="utf-8"?>
<!-- Generator: Adobe Illustrator 16.0.0, SVG Export Plug-In . SVG Version: 6.00 Build 0)  -->
<!DOCTYPE svg PUBLIC "-//W3C//DTD SVG 1.1//EN" "http://www.w3.org/Graphics/SVG/1.1/DTD/svg11.dtd">
<svg version="1.1" id="Layer_1" xmlns="http://www.w3.org/2000/svg" xmlns:xlink="http://www.w3.org/1999/xlink" x="0px" y="0px"
	 width="225px" height="225px" viewBox="0 0 225 225" enable-background="new 0 0 225 225" xml:space="preserve">
<g>
	<circle fill="#FF8158" cx="5346.54" cy="217.932" r="112.265"/>
</g>
<g>
	<rect x="5270" y="201" fill="#FFFFFF" width="102" height="15"/>
	<path fill="none" stroke="#FFFFFF" stroke-width="5" stroke-miterlimit="10" d="M5373,243.73c0,5.578-4.339,10.729-9.189,10.729
		h-84.082c-4.855,0-10.104-5.151-10.104-10.729v-50.491c0-5.577,5.249-9.222,10.104-9.222h84.082c4.852,0,9.189,3.645,9.189,9.222
		V243.73z"/>
</g>
<path fill="none" stroke="#FFFFFF" stroke-width="5" stroke-linecap="round" stroke-miterlimit="10" d="M5406.875,171.34
	c26.049,26.053,28.023,67.061,5.924,95.379"/>
<path fill="none" stroke="#FFFFFF" stroke-width="5" stroke-linecap="round" stroke-miterlimit="10" d="M5396.32,185.959
	c17.926,17.924,19.283,46.143,4.078,65.629"/>
<path fill="none" stroke="#FFFFFF" stroke-width="5" stroke-linecap="round" stroke-miterlimit="10" d="M5388.336,202.912
	c8.805,8.804,9.475,22.666,2.004,32.234"/>
<path d="M98.256,62.881c-0.64,0-1.28-0.244-1.768-0.732c-0.977-0.976-0.977-2.559,0-3.535l10.986-10.987
	c0.976-0.977,2.559-0.976,3.535,0l10.987,10.986c0.977,0.977,0.977,2.56,0,3.536c-0.977,0.977-2.559,0.976-3.535,0l-9.22-9.219
	l-9.219,9.219C99.536,62.637,98.896,62.881,98.256,62.881z"/>
<path d="M109.242,183.479c-0.663,0-1.299-0.264-1.768-0.732L96.488,171.76c-0.977-0.977-0.977-2.559,0-3.535
	c0.976-0.977,2.56-0.977,3.535,0l9.219,9.219l9.22-9.221c0.977-0.977,2.559-0.977,3.535,0c0.977,0.976,0.977,2.559,0,3.535
	l-10.987,10.988C110.541,183.215,109.905,183.479,109.242,183.479z"/>
<path d="M145.889,70.169H72.25c-3.267,0-5.549,2.552-5.549,6.206v76.065c0,4.001,2.385,7.019,5.549,7.019h73.639
	c3.211,0,6.136-3.346,6.136-7.019V76.375C152.024,72.895,149.329,70.169,145.889,70.169z M71.701,152.44V76.375
	c0-1.206,0.413-1.206,0.549-1.206h34.202v79.29H72.325C72.119,154.28,71.701,153.53,71.701,152.44z M147.024,152.44
	c0,1.053-0.8,1.954-1.146,2.019h-34.426v-79.29h34.437c0.393,0,1.136,0.252,1.136,1.206V152.44z"/>
</svg>
