<?xml version="1.0" encoding="utf-8"?>
<!-- Generator: Adobe Illustrator 16.0.0, SVG Export Plug-In . SVG Version: 6.00 Build 0)  -->
<!DOCTYPE svg PUBLIC "-//W3C//DTD SVG 1.1//EN" "http://www.w3.org/Graphics/SVG/1.1/DTD/svg11.dtd">
<svg version="1.1" id="Layer_1" xmlns="http://www.w3.org/2000/svg" xmlns:xlink="http://www.w3.org/1999/xlink" x="0px" y="0px"
	 width="225px" height="225px" viewBox="0 0 225 225" enable-background="new 0 0 225 225" xml:space="preserve">
<path fill="#010000" d="M98.256,62.881c-0.64,0-1.28-0.244-1.768-0.732c-0.979-0.976-0.979-2.559,0-3.535l10.986-10.987
	c0.976-0.977,2.559-0.976,3.535,0l10.987,10.986c0.977,0.977,0.977,2.56,0,3.536c-0.977,0.977-2.559,0.976-3.535,0l-9.22-9.219
	l-9.219,9.219C99.536,62.637,98.896,62.881,98.256,62.881z"/>
<path fill="#010000" d="M109.242,183.479c-0.663,0-1.299-0.264-1.768-0.73L96.488,171.76c-0.979-0.977-0.979-2.559,0-3.535
	c0.976-0.977,2.56-0.977,3.535,0l9.219,9.219l9.22-9.221c0.978-0.977,2.56-0.977,3.535,0c0.978,0.978,0.978,2.561,0,3.535
	l-10.987,10.988C110.541,183.215,109.905,183.479,109.242,183.479z"/>
<path fill="#010000" d="M145.889,70.169H72.25c-3.267,0-5.549,2.552-5.549,6.206v76.064c0,4.002,2.385,7.02,5.549,7.02h73.639
	c3.211,0,6.137-3.346,6.137-7.02V76.375C152.023,72.895,149.329,70.169,145.889,70.169z M71.701,152.439V76.375
	c0-1.206,0.413-1.206,0.549-1.206h34.202v79.29H72.325C72.119,154.28,71.701,153.53,71.701,152.439z M147.023,152.439
	c0,1.054-0.799,1.955-1.146,2.02h-34.426v-79.29h34.437c0.395,0,1.138,0.252,1.138,1.206v76.064H147.023z"/>
</svg>
