<?xml version="1.0" encoding="utf-8"?>
<!-- Generator: Adobe Illustrator 16.0.0, SVG Export Plug-In . SVG Version: 6.00 Build 0)  -->
<!DOCTYPE svg PUBLIC "-//W3C//DTD SVG 1.1//EN" "http://www.w3.org/Graphics/SVG/1.1/DTD/svg11.dtd">
<svg version="1.1" id="Layer_1" xmlns="http://www.w3.org/2000/svg" xmlns:xlink="http://www.w3.org/1999/xlink" x="0px" y="0px"
	 width="225px" height="225px" viewBox="0 0 225 225" enable-background="new 0 0 225 225" xml:space="preserve">
<g>
	<path fill="#010000" d="M124.818,156.271c0.091,0.019,0.177,0.057,0.266,0.078C124.995,156.328,124.909,156.29,124.818,156.271z"/>
	<path fill="#010000" d="M125.725,156.541c0.17,0.068,0.329,0.171,0.493,0.261C126.054,156.712,125.895,156.609,125.725,156.541z"/>
	<path fill="#010000" d="M122.05,156.538c0.027-0.011,0.058-0.015,0.084-0.024C122.105,156.523,122.077,156.527,122.05,156.538z"/>
	<path fill="#010000" d="M122.955,156.271c0.035-0.008,0.07-0.004,0.105-0.011C123.025,156.268,122.99,156.264,122.955,156.271z"/>
	<path fill="#010000" d="M123.887,156.182c0.086,0,0.17,0.021,0.256,0.024C124.057,156.202,123.973,156.182,123.887,156.182z"/>
	<path fill="#010000" d="M126.572,156.988c0.271,0.179,0.527,0.388,0.766,0.626C127.1,157.376,126.843,157.167,126.572,156.988z"/>
	<polygon fill="#010000" points="170.152,146.095 170.152,146.095 152.952,163.297 	"/>
	<path fill="#010000" d="M120.436,157.609c0.478-0.477,1.027-0.834,1.614-1.071C121.463,156.775,120.912,157.133,120.436,157.609z"
		/>
	<path fill="#010000" d="M122.134,156.514c0.269-0.104,0.542-0.188,0.821-0.242C122.676,156.324,122.402,156.41,122.134,156.514z"/>
	<path fill="#010000" d="M123.883,156.182c-0.275,0-0.55,0.032-0.822,0.079c0.273-0.047,0.551-0.079,0.826-0.079
		C123.885,156.182,123.884,156.182,123.883,156.182z"/>
	<path fill="#010000" d="M124.143,156.206c0.227,0.013,0.453,0.022,0.678,0.065C124.596,156.229,124.368,156.219,124.143,156.206z"
		/>
	<path fill="#010000" d="M126.218,156.802c0.117,0.063,0.241,0.112,0.354,0.188C126.459,156.914,126.335,156.865,126.218,156.802z"
		/>
	<path fill="#010000" d="M164.79,137.659l-28.706,28.703L164.79,137.659z"/>
	<path fill="#010000" d="M125.084,156.352c0.216,0.055,0.432,0.104,0.641,0.189C125.516,156.456,125.3,156.405,125.084,156.352z"/>
	<g>
		<path fill="#010000" d="M143.507,172.742l9.445-9.446l17.2-17.202l5.414-5.414c1.902-1.904,1.902-4.992,0-6.896
			c-1.906-1.91-4.998-1.91-6.9,0l-3.876,3.875l-28.706,28.703l-8.746-8.748c-0.238-0.238-0.495-0.447-0.766-0.626
			c-0.113-0.074-0.237-0.123-0.354-0.188c-0.164-0.09-0.323-0.191-0.493-0.261c-0.209-0.085-0.425-0.136-0.641-0.19
			c-0.089-0.021-0.175-0.061-0.266-0.078c-0.224-0.043-0.45-0.054-0.678-0.065c-0.086-0.004-0.17-0.024-0.255-0.024
			c-0.276,0-0.553,0.032-0.825,0.079c-0.035,0.007-0.07,0.003-0.105,0.011c-0.279,0.054-0.553,0.14-0.821,0.242
			c-0.026,0.01-0.057,0.014-0.084,0.024c-0.587,0.237-1.138,0.596-1.614,1.071c-1.903,1.904-1.903,4.994-0.002,6.902l8.23,8.232"/>
		<path fill="#010000" d="M128.664,172.745l-8.23-8.232l15.65,15.654l16.868-16.87l-9.445,9.446"/>
	</g>
	<path fill="#010000" d="M116.898,154.076c1.863-1.866,4.345-2.895,6.983-2.895c2.642,0,5.125,1.028,6.991,2.896l5.211,5.212
		l24.721-24.718c-4.801-3.307-10.064-5.772-15.553-7.678c-5.189-1.815-10.511-3.258-15.754-4.873
		c-0.36-0.131-0.906-0.442-0.916-0.688c-0.096-2.494-0.113-4.994-0.077-7.494c0-0.387,0.325-0.863,0.614-1.18
		c0.969-1.125,2.076-2.143,2.975-3.322c3.098-4.047,4.292-8.822,4.547-13.773c0.31-6.037,0.31-12.088,0.342-18.121
		c0-1.857-0.192-3.742-0.498-5.584c-1.065-6.299-3.94-11.525-9.457-15.023c-4.893-3.09-10.293-4.146-16-3.641
		c-4.776,0.422-9.156,1.93-12.93,4.975c-5.2,4.23-7.522,9.947-7.927,16.43c-0.474,7.564-0.544,15.133,0.327,22.699
		c0.695,5.998,2.795,11.326,7.441,15.439c0.291,0.248,0.527,0.688,0.527,1.039c0.062,2.307,0,4.61,0.054,6.916
		c0.027,0.916-0.324,1.223-1.195,1.406c-7.399,1.786-14.62,4.102-21.552,7.231c-5.014,2.25-9.825,4.853-13.862,8.672
		c-2.815,2.64-5.147,5.647-5.332,9.642c-0.218,4.432-0.053,20.621-0.053,25.104c21.708,0,43.391,0,65.069-0.002l-4.701-4.703
		C113.05,164.188,113.053,157.922,116.898,154.076z M96,155.062c0,1.623-1.315,2.938-2.938,2.938H73.938
		c-1.623,0-2.938-1.314-2.938-2.938v-4.123c0-1.623,1.315-2.938,2.938-2.938h19.125c1.623,0,2.938,1.315,2.938,2.938L96,155.062
		L96,155.062z"/>
	<path fill="#010000" d="M150.578,172.742c6.637,0,13.271-0.001,19.91-0.002c0-3.346,0.063-13.358,0.023-19.934L150.578,172.742z"/>
</g>
</svg>
