<?xml version="1.0" encoding="utf-8"?>
<!-- Generator: Adobe Illustrator 16.0.0, SVG Export Plug-In . SVG Version: 6.00 Build 0)  -->
<!DOCTYPE svg PUBLIC "-//W3C//DTD SVG 1.1//EN" "http://www.w3.org/Graphics/SVG/1.1/DTD/svg11.dtd">
<svg version="1.1" id="Layer_1" xmlns="http://www.w3.org/2000/svg" xmlns:xlink="http://www.w3.org/1999/xlink" x="0px" y="0px"
	 width="225px" height="225px" viewBox="0 0 225 225" enable-background="new 0 0 225 225" xml:space="preserve">
<g>
	<circle fill="#FF8158" cx="5346.54" cy="217.932" r="112.265"/>
</g>
<g>
	<rect x="5270" y="201" fill="#FFFFFF" width="102" height="15"/>
	<path fill="none" stroke="#FFFFFF" stroke-width="5" stroke-miterlimit="10" d="M5373,243.73c0,5.578-4.339,10.729-9.189,10.729
		h-84.082c-4.855,0-10.104-5.151-10.104-10.729v-50.491c0-5.577,5.249-9.222,10.104-9.222h84.082c4.852,0,9.189,3.645,9.189,9.222
		V243.73z"/>
</g>
<path fill="none" stroke="#FFFFFF" stroke-width="5" stroke-linecap="round" stroke-miterlimit="10" d="M5406.875,171.34
	c26.049,26.053,28.023,67.061,5.924,95.379"/>
<path fill="none" stroke="#FFFFFF" stroke-width="5" stroke-linecap="round" stroke-miterlimit="10" d="M5396.32,185.959
	c17.926,17.924,19.283,46.143,4.078,65.629"/>
<path fill="none" stroke="#FFFFFF" stroke-width="5" stroke-linecap="round" stroke-miterlimit="10" d="M5388.336,202.912
	c8.805,8.804,9.475,22.666,2.004,32.234"/>
<g>
	<path d="M124.819,156.272c0.09,0.018,0.176,0.056,0.265,0.078C124.995,156.328,124.909,156.29,124.819,156.272z"/>
	<path d="M125.724,156.541c0.171,0.069,0.33,0.171,0.494,0.261C126.054,156.712,125.895,156.61,125.724,156.541z"/>
	<path d="M122.05,156.538c0.027-0.011,0.057-0.015,0.084-0.024C122.106,156.523,122.077,156.527,122.05,156.538z"/>
	<path d="M122.955,156.271c0.035-0.007,0.07-0.004,0.105-0.01C123.025,156.267,122.99,156.264,122.955,156.271z"/>
	<path d="M123.887,156.182c0.085,0,0.169,0.021,0.255,0.024C124.056,156.202,123.972,156.182,123.887,156.182z"/>
	<path d="M175.566,133.784c-1.906-1.91-4.998-1.91-6.9,0l-3.876,3.875c1.777,1.598,3.324,3.409,4.361,5.647
		c0.405,0.874,0.763,1.824,1.002,2.788l5.413-5.414C177.469,138.776,177.469,135.687,175.566,133.784z"/>
	<path d="M128.664,172.745l-8.23-8.232l15.65,15.654l16.868-16.87l-9.445,9.446C138.56,172.744,133.611,172.745,128.664,172.745z"/>
	<path d="M126.572,156.988c0.271,0.179,0.527,0.388,0.766,0.626C127.1,157.376,126.843,157.167,126.572,156.988z"/>
	<polygon points="170.153,146.095 170.153,146.095 152.952,163.297 	"/>
	<path d="M120.436,157.61c0.477-0.477,1.027-0.834,1.614-1.072C121.463,156.776,120.912,157.133,120.436,157.61z"/>
	<path d="M122.134,156.514c0.269-0.104,0.542-0.189,0.821-0.243C122.676,156.324,122.402,156.41,122.134,156.514z"/>
	<path d="M123.883,156.182c-0.275,0-0.55,0.032-0.822,0.079c0.273-0.047,0.55-0.079,0.826-0.079
		C123.885,156.182,123.884,156.182,123.883,156.182z"/>
	<path d="M124.142,156.206c0.227,0.013,0.454,0.022,0.678,0.066C124.596,156.229,124.368,156.219,124.142,156.206z"/>
	<path d="M126.218,156.802c0.117,0.063,0.241,0.112,0.354,0.187C126.459,156.914,126.335,156.865,126.218,156.802z"/>
	<polygon points="164.79,137.659 136.084,166.362 164.79,137.659 	"/>
	<path d="M125.084,156.351c0.216,0.055,0.432,0.105,0.64,0.19C125.516,156.456,125.3,156.405,125.084,156.351z"/>
	<path d="M164.79,137.659l-28.706,28.703l-8.746-8.748c-0.238-0.238-0.495-0.447-0.766-0.626c-0.113-0.074-0.237-0.123-0.354-0.187
		c-0.164-0.09-0.323-0.191-0.494-0.261c-0.208-0.085-0.424-0.136-0.64-0.19c-0.089-0.022-0.175-0.061-0.265-0.078
		c-0.224-0.044-0.451-0.054-0.678-0.066c-0.086-0.004-0.17-0.024-0.255-0.024c-0.276,0-0.553,0.032-0.826,0.079
		c-0.035,0.006-0.07,0.003-0.105,0.01c-0.279,0.054-0.553,0.14-0.821,0.243c-0.027,0.01-0.057,0.014-0.084,0.024
		c-0.587,0.238-1.138,0.596-1.614,1.072c-1.904,1.904-1.904,4.994-0.002,6.902l8.23,8.232c4.947,0,9.896-0.001,14.843-0.002
		l9.445-9.446l17.201-17.202c-0.239-0.964-0.597-1.914-1.002-2.788C168.114,141.068,166.567,139.257,164.79,137.659z"/>
	<path d="M116.898,154.076c1.864-1.866,4.345-2.895,6.984-2.895c2.642,0,5.125,1.029,6.991,2.897l5.211,5.212l24.721-24.718
		c-4.801-3.306-10.065-5.772-15.553-7.677c-5.19-1.816-10.511-3.258-15.754-4.873c-0.36-0.131-0.906-0.443-0.916-0.689
		c-0.096-2.494-0.113-4.994-0.077-7.494c0-0.387,0.325-0.863,0.614-1.18c0.969-1.125,2.076-2.143,2.975-3.322
		c3.097-4.047,4.292-8.822,4.547-13.773c0.309-6.037,0.309-12.088,0.342-18.121c0-1.857-0.193-3.742-0.499-5.584
		c-1.065-6.299-3.94-11.525-9.457-15.023c-4.892-3.09-10.293-4.146-16-3.641c-4.776,0.422-9.156,1.93-12.93,4.975
		c-5.2,4.23-7.522,9.947-7.927,16.43c-0.474,7.564-0.544,15.133,0.327,22.699c0.695,5.998,2.795,11.326,7.441,15.439
		c0.291,0.248,0.527,0.689,0.527,1.039c0.062,2.307,0,4.611,0.054,6.916c0.027,0.916-0.324,1.223-1.195,1.406
		c-7.399,1.787-14.62,4.102-21.552,7.232c-5.014,2.25-9.825,4.852-13.862,8.672c-2.815,2.639-5.147,5.648-5.332,9.641
		c-0.218,4.432-0.053,20.621-0.053,25.104c21.708,0,43.391,0,65.069-0.002l-4.702-4.703
		C113.05,164.188,113.053,157.922,116.898,154.076z M96,155.062c0,1.623-1.315,2.938-2.938,2.938H73.938
		c-1.623,0-2.938-1.315-2.938-2.938v-4.123c0-1.623,1.315-2.938,2.938-2.938h19.125c1.623,0,2.938,1.315,2.938,2.938V155.062z"/>
	<path d="M150.578,172.742c6.637,0,13.272-0.001,19.91-0.002c0-3.345,0.064-13.358,0.024-19.934L150.578,172.742z"/>
</g>
</svg>
