<?xml version="1.0" encoding="utf-8"?>
<!-- Generator: Adobe Illustrator 16.0.0, SVG Export Plug-In . SVG Version: 6.00 Build 0)  -->
<!DOCTYPE svg PUBLIC "-//W3C//DTD SVG 1.1//EN" "http://www.w3.org/Graphics/SVG/1.1/DTD/svg11.dtd">
<svg version="1.1" id="Layer_1" xmlns="http://www.w3.org/2000/svg" xmlns:xlink="http://www.w3.org/1999/xlink" x="0px" y="0px"
	 width="225px" height="225px" viewBox="0 0 225 225" enable-background="new 0 0 225 225" xml:space="preserve">
<path fill="#010000" d="M170.436,147.83c-0.069-1.533-0.635-3.125-1.283-4.523c-1.549-3.342-4.223-5.744-7.123-7.881
	c-5.12-3.746-10.82-6.463-16.775-8.529c-5.189-1.815-10.511-3.258-15.754-4.873c-0.359-0.131-0.906-0.442-0.916-0.688
	c-0.096-2.494-0.113-4.994-0.077-7.494c0-0.387,0.325-0.863,0.614-1.18c0.969-1.125,2.076-2.143,2.975-3.322
	c3.098-4.047,4.293-8.822,4.547-13.773c0.31-6.037,0.31-12.088,0.342-18.121c0-1.857-0.192-3.742-0.498-5.584
	c-1.065-6.299-3.94-11.525-9.457-15.023c-4.893-3.09-10.293-4.146-16-3.641c-4.776,0.422-9.156,1.93-12.93,4.975
	c-5.2,4.23-7.522,9.947-7.927,16.43c-0.474,7.564-0.544,15.133,0.327,22.699c0.695,5.998,2.795,11.326,7.441,15.439
	c0.291,0.248,0.527,0.688,0.527,1.039c0.062,2.307,0,4.611,0.054,6.916c0.027,0.916-0.324,1.223-1.195,1.406
	c-7.399,1.787-14.62,4.102-21.552,7.231c-5.014,2.25-9.825,4.853-13.862,8.672c-2.815,2.64-5.147,5.647-5.332,9.642
	c-0.218,4.432-0.053,20.621-0.053,25.104c38.027,0,75.982,0,113.963-0.008C170.488,168.309,170.602,152.164,170.436,147.83z
	 M96.001,155.062L96.001,155.062C96,156.686,94.685,158,93.062,158H73.938c-1.623,0-2.938-1.314-2.938-2.938v-4.123
	c0-1.623,1.315-2.938,2.938-2.938h19.125c1.623,0,2.938,1.315,2.938,2.938V155.062z"/>
</svg>
