<?xml version="1.0" encoding="utf-8"?>
<!-- Generator: Adobe Illustrator 16.0.0, SVG Export Plug-In . SVG Version: 6.00 Build 0)  -->
<!DOCTYPE svg PUBLIC "-//W3C//DTD SVG 1.1//EN" "http://www.w3.org/Graphics/SVG/1.1/DTD/svg11.dtd">
<svg version="1.1" id="Layer_1" xmlns="http://www.w3.org/2000/svg" xmlns:xlink="http://www.w3.org/1999/xlink" x="0px" y="0px"
	 width="225px" height="225px" viewBox="0 0 225 225" enable-background="new 0 0 225 225" xml:space="preserve">
<g>
	<path fill="#000000" d="M92.558,142.196v-32.085c0-10.149,9.427-18.407,21.014-18.407c11.593,0,21.023,8.257,21.023,18.407v31.044
		l5,5.411v-36.456c0-12.907-11.675-23.407-26.023-23.407c-14.344,0-26.014,10.5-26.014,23.407v37.097L92.558,142.196z"/>
</g>
<path fill="#000000" d="M145.005,158.488l-28.468-30.777c-0.461-0.499-1.105-0.789-1.786-0.803
	c-0.673,0.005-1.336,0.251-1.817,0.732l-30.953,30.967c-0.715,0.715-0.929,1.789-0.542,2.725c0.387,0.934,1.298,1.543,2.31,1.543
	H112V192c0,1.381,1.119,2.5,2.5,2.5s2.5-1.119,2.5-2.5v-29.125h26.344c0.008,0.001,0.016,0,0.021,0c1.381,0,2.5-1.119,2.5-2.5
	C145.863,159.622,145.531,158.947,145.005,158.488z"/>
<g>
	<path fill="#000000" d="M181.547,173.633h-44.051c-1.381,0-2.5-1.119-2.5-2.5s1.119-2.5,2.5-2.5h41.551V58.875h-129v109.758h41.957
		c1.381,0,2.5,1.119,2.5,2.5s-1.119,2.5-2.5,2.5H47.547c-1.381,0-2.5-1.119-2.5-2.5V56.375c0-1.381,1.119-2.5,2.5-2.5h134
		c1.381,0,2.5,1.119,2.5,2.5v114.758C184.047,172.514,182.928,173.633,181.547,173.633z"/>
</g>
</svg>
