<?xml version="1.0" encoding="utf-8"?>
<!-- Generator: Adobe Illustrator 16.0.0, SVG Export Plug-In . SVG Version: 6.00 Build 0)  -->
<!DOCTYPE svg PUBLIC "-//W3C//DTD SVG 1.1//EN" "http://www.w3.org/Graphics/SVG/1.1/DTD/svg11.dtd">
<svg version="1.1" id="Layer_1" xmlns="http://www.w3.org/2000/svg" xmlns:xlink="http://www.w3.org/1999/xlink" x="0px" y="0px"
	 width="225px" height="225px" viewBox="0 0 225 225" enable-background="new 0 0 225 225" xml:space="preserve">
<g>
	<circle fill="#FF8158" cx="5346.54" cy="217.932" r="112.265"/>
</g>
<g>
	<rect x="5270" y="201" fill="#FFFFFF" width="102" height="15"/>
	<path fill="none" stroke="#FFFFFF" stroke-width="5" stroke-miterlimit="10" d="M5373,243.73c0,5.578-4.339,10.729-9.189,10.729
		h-84.082c-4.855,0-10.104-5.151-10.104-10.729v-50.491c0-5.577,5.249-9.222,10.104-9.222h84.082c4.852,0,9.189,3.645,9.189,9.222
		V243.73z"/>
</g>
<path fill="none" stroke="#FFFFFF" stroke-width="5" stroke-linecap="round" stroke-miterlimit="10" d="M5406.875,171.34
	c26.049,26.053,28.023,67.061,5.924,95.379"/>
<path fill="none" stroke="#FFFFFF" stroke-width="5" stroke-linecap="round" stroke-miterlimit="10" d="M5396.32,185.959
	c17.926,17.924,19.283,46.143,4.078,65.629"/>
<path fill="none" stroke="#FFFFFF" stroke-width="5" stroke-linecap="round" stroke-miterlimit="10" d="M5388.336,202.912
	c8.805,8.804,9.475,22.666,2.004,32.234"/>
<path d="M158.767,92.375c-0.004-0.292-0.031-0.583-0.086-0.869c-0.012-0.059-0.031-0.114-0.044-0.173
	c-0.053-0.229-0.121-0.454-0.205-0.674c-0.032-0.084-0.066-0.166-0.104-0.249c-0.093-0.208-0.201-0.409-0.323-0.605
	c-0.036-0.058-0.065-0.118-0.104-0.174c-0.151-0.222-0.318-0.437-0.508-0.636l-32.971-34.587c-0.963-1.01-2.278-1.55-3.62-1.55
	c-0.275,0-1.35,0-1.616,0H69.163c-2.761,0-5,2.239-5,5v110.474c0,2.762,2.239,5,5,5h84.61c2.762,0,5-2.238,5-5V92.445
	C158.773,92.421,158.767,92.399,158.767,92.375z M120.803,59.475l32.971,32.97h-32.971V59.475z M153.773,168.332h-84.61V57.858
	h46.64v34.587c0,2.761,2.238,5,5,5h32.971V168.332z"/>
</svg>
