<?xml version="1.0" encoding="utf-8"?>
<!-- Generator: Adobe Illustrator 16.0.0, SVG Export Plug-In . SVG Version: 6.00 Build 0)  -->
<!DOCTYPE svg PUBLIC "-//W3C//DTD SVG 1.1//EN" "http://www.w3.org/Graphics/SVG/1.1/DTD/svg11.dtd">
<svg version="1.1" id="Layer_1" xmlns="http://www.w3.org/2000/svg" xmlns:xlink="http://www.w3.org/1999/xlink" x="0px" y="0px"
	 width="225px" height="225px" viewBox="0 0 225 225" enable-background="new 0 0 225 225" xml:space="preserve">
<path fill="#000000" d="M166.812,94.248c-19.713-20.502-13.302-39.513-13.233-39.702c0.274-0.779,0.043-1.647-0.584-2.185
	c-0.371-0.318-0.835-0.482-1.302-0.482c-0.324,0-0.649,0.078-0.946,0.238c-19.964,10.728-27.497,24.937-30.302,34.968
	c-1.209,4.324-1.672,8.24-1.785,11.417c-2.448-6.522-3.594-15.63-3.868-19.69c-0.058-0.848-0.644-1.567-1.463-1.793
	c-0.177-0.049-0.355-0.072-0.532-0.072c-0.645,0-1.263,0.312-1.644,0.86c-11.889,17.138-16.733,34.668-14.01,50.696
	c2.209,13.001,9.398,24.597,19.724,31.812c0.345,0.242,0.746,0.36,1.146,0.36c0.46,0,0.919-0.157,1.29-0.472
	c0.692-0.584,0.905-1.562,0.52-2.382c-7.091-15.029-1.356-28.374,1.738-33.827c3.398,5.363,11.537,16.25,21.612,16.25
	c6.192,0,11.888-4.053,16.964-12.061c3.249,11.611,2.223,22.11-2.939,28.656c-0.583,0.739-0.571,1.785,0.027,2.512
	c0.391,0.474,0.961,0.728,1.543,0.728c0.312,0,0.627-0.072,0.918-0.224c10.291-5.319,17.64-15.782,19.655-27.989
	C181.576,118.323,177.127,104.963,166.812,94.248z"/>
<path fill="#000000" d="M95.593,156.03H71.607v-20.953h14.556c1.381,0,2.5-1.119,2.5-2.5s-1.119-2.5-2.5-2.5H48.167v-14.869h39.357
	c1.381,0,2.5-1.119,2.5-2.5s-1.119-2.5-2.5-2.5H70.745V89.986h21.926c1.381,0,2.5-1.119,2.5-2.5c0-1.381-1.119-2.5-2.5-2.5H45.667
	c-1.381,0-2.5,1.119-2.5,2.5v71.044c0,1.381,1.119,2.5,2.5,2.5h49.926c1.381,0,2.5-1.119,2.5-2.5
	C98.093,157.148,96.974,156.03,95.593,156.03z M65.745,89.986v20.222H48.167V89.986H65.745z M48.167,135.077h18.44v20.953h-18.44
	V135.077z"/>
</svg>
