<?xml version="1.0" encoding="utf-8"?>
<!-- Generator: Adobe Illustrator 16.0.0, SVG Export Plug-In . SVG Version: 6.00 Build 0)  -->
<!DOCTYPE svg PUBLIC "-//W3C//DTD SVG 1.1//EN" "http://www.w3.org/Graphics/SVG/1.1/DTD/svg11.dtd">
<svg version="1.1" id="Layer_1" xmlns="http://www.w3.org/2000/svg" xmlns:xlink="http://www.w3.org/1999/xlink" x="0px" y="0px"
	 width="225px" height="225px" viewBox="0 0 225 225" enable-background="new 0 0 225 225" xml:space="preserve">
<g>
	<path d="M63.16,139.043h35.752c1.163,0,2.105-0.943,2.105-2.104V63.347H61.055v73.593C61.055,138.1,61.998,139.043,63.16,139.043z"
		/>
	<path d="M166.907,63.347h-60.89v73.593c0,3.917-3.188,7.104-7.105,7.104H63.16c-3.918,0-7.105-3.187-7.105-7.104V63.347h-2.18
		c-5.469,0-9.9,4.333-9.9,9.677v80.507c0,5.345,4.432,9.677,9.9,9.677h25.233v11.441c0,8.912,7.182,16.162,16.009,16.162h38.54
		c6.071,0,11.011,5.915,11.011,13.186v13.853c0,1.381,1.119,2.5,2.5,2.5s2.5-1.119,2.5-2.5v-13.853
		c0-9.979-7.114-18.107-15.885-18.185l-38.666-0.001c-6.07,0-11.009-5.007-11.009-11.162v-11.441h82.799
		c5.469,0,9.899-4.332,9.899-9.677V73.023C176.807,67.679,172.376,63.347,166.907,63.347z M125.437,136.107
		c0,1.129-0.919,2.045-2.048,2.045h-7.182c-1.129,0-2.044-0.916-2.044-2.045v-7.182c0-1.129,0.915-2.045,2.044-2.045h7.182
		c1.129,0,2.048,0.916,2.048,2.045V136.107z M125.437,118.35c0,1.129-0.919,2.045-2.048,2.045h-7.182
		c-1.129,0-2.044-0.916-2.044-2.045v-7.183c0-1.128,0.915-2.044,2.044-2.044h7.182c1.129,0,2.048,0.916,2.048,2.044V118.35z
		 M125.437,100.472c0,1.128-0.919,2.045-2.048,2.045h-7.182c-1.129,0-2.044-0.917-2.044-2.045V93.29
		c0-1.129,0.915-2.045,2.044-2.045h7.182c1.129,0,2.048,0.916,2.048,2.045V100.472z M143.42,136.107
		c0,1.129-0.914,2.045-2.043,2.045h-7.184c-1.129,0-2.042-0.916-2.042-2.045v-7.182c0-1.129,0.913-2.045,2.042-2.045h7.184
		c1.129,0,2.043,0.916,2.043,2.045V136.107z M143.42,118.35c0,1.129-0.914,2.045-2.043,2.045h-7.184
		c-1.129,0-2.042-0.916-2.042-2.045v-7.183c0-1.128,0.913-2.044,2.042-2.044h7.184c1.129,0,2.043,0.916,2.043,2.044V118.35z
		 M143.42,100.472c0,1.128-0.914,2.045-2.043,2.045h-7.184c-1.129,0-2.042-0.917-2.042-2.045V93.29c0-1.129,0.913-2.045,2.042-2.045
		h7.184c1.129,0,2.043,0.916,2.043,2.045V100.472z M162.241,136.107c0,1.129-0.917,2.045-2.046,2.045h-7.184
		c-1.127,0-2.045-0.916-2.045-2.045v-7.182c0-1.129,0.918-2.045,2.045-2.045h7.184c1.129,0,2.046,0.916,2.046,2.045V136.107z
		 M162.241,118.35c0,1.129-0.917,2.045-2.046,2.045h-7.184c-1.127,0-2.045-0.916-2.045-2.045v-7.183
		c0-1.128,0.918-2.044,2.045-2.044h7.184c1.129,0,2.046,0.916,2.046,2.044V118.35z M162.241,100.472
		c0,1.128-0.917,2.045-2.046,2.045h-7.184c-1.127,0-2.045-0.917-2.045-2.045V93.29c0-1.129,0.918-2.045,2.045-2.045h7.184
		c1.129,0,2.046,0.916,2.046,2.045V100.472z M162.241,81.979c0,1.162-0.945,2.104-2.105,2.104h-43.869
		c-1.163,0-2.104-0.942-2.104-2.104v-7.064c0-1.162,0.94-2.103,2.104-2.103h43.869c1.16,0,2.105,0.941,2.105,2.103V81.979z"/>
</g>
<path d="M101.018,136.939c0,1.16-0.942,2.104-2.105,2.104H63.16c-1.162,0-2.105-0.943-2.105-2.104V54.417
	c0-1.163,0.943-2.104,2.105-2.104h35.752c1.163,0,2.105,0.941,2.105,2.104V136.939z"/>
</svg>
