<?xml version="1.0" encoding="utf-8"?>
<!-- Generator: Adobe Illustrator 16.0.0, SVG Export Plug-In . SVG Version: 6.00 Build 0)  -->
<!DOCTYPE svg PUBLIC "-//W3C//DTD SVG 1.1//EN" "http://www.w3.org/Graphics/SVG/1.1/DTD/svg11.dtd">
<svg version="1.1" id="Layer_1" xmlns="http://www.w3.org/2000/svg" xmlns:xlink="http://www.w3.org/1999/xlink" x="0px" y="0px"
	 width="225px" height="225px" viewBox="0 0 225 225" enable-background="new 0 0 225 225" xml:space="preserve">
<path fill="#ffffff" d="M175.179,102.455c0,1.079-0.772,1.955-1.728,1.955h-18.141c-0.955,0-1.729-0.876-1.729-1.955V88.772
	c0-1.08,0.773-1.955,1.729-1.955h18.142c0.954,0,1.728,0.875,1.728,1.955L175.179,102.455L175.179,102.455z"/>
<path fill="#ffffff" d="M201.368,90.735c-0.179-0.336-0.427-0.627-0.731-0.85l-5.291-6.149c-0.902-1.046-2.479-1.166-3.525-0.265
	c-1.047,0.9-1.165,2.479-0.266,3.525l5.114,5.944v12.305c0,1.381,1.119,2.5,2.5,2.5h1.97v15.245c0,0.443-0.062,0.865-0.14,1.175
	h-13.884V80.391c0-2.481-2.02-4.5-4.5-4.5h-36.471c-2.48,0-4.5,2.019-4.5,4.5v41.057c1.732,0.618,3.398,1.274,5,1.969V80.891h35.471
	v59.654h-14.284c0.795,1.779,1.283,3.423,1.485,5h13.299c2.48,0,4.5-2.02,4.5-4.5v-11.88h14.691c2.592,0,4.331-2.481,4.331-6.175
	V96.279L201.368,90.735z"/>
<path fill="#ffffff" d="M164.436,146.83c-0.069-1.533-0.635-3.125-1.283-4.523c-1.549-3.342-4.223-5.744-7.123-7.881
	c-5.12-3.746-10.82-6.463-16.775-8.529c-5.189-1.815-10.511-3.258-15.754-4.873c-0.359-0.131-0.906-0.442-0.916-0.688
	c-0.096-2.494-0.113-4.994-0.077-7.494c0-0.387,0.325-0.863,0.614-1.18c0.969-1.125,2.076-2.143,2.975-3.322
	c3.098-4.047,4.292-8.822,4.547-13.773c0.31-6.037,0.31-12.088,0.342-18.121c0-1.857-0.192-3.742-0.498-5.584
	c-1.065-6.299-3.94-11.525-9.457-15.023c-4.893-3.09-10.293-4.146-16-3.641c-4.776,0.422-9.156,1.93-12.93,4.975
	c-5.2,4.23-7.522,9.947-7.927,16.43c-0.474,7.564-0.544,15.133,0.327,22.699c0.694,5.998,2.795,11.326,7.44,15.439
	c0.291,0.248,0.527,0.688,0.527,1.039c0.062,2.307,0,4.611,0.054,6.916c0.027,0.916-0.324,1.223-1.195,1.406
	c-7.399,1.787-14.62,4.102-21.552,7.231c-5.014,2.25-9.825,4.853-13.862,8.672c-2.815,2.64-5.147,5.647-5.332,9.642
	c-0.218,4.432-0.053,20.621-0.053,25.104c38.027,0,75.982,0,113.963-0.008C164.488,167.309,164.602,151.164,164.436,146.83z
	 M90,154.062c0,1.623-1.315,2.938-2.938,2.938H67.938c-1.623,0-2.938-1.314-2.938-2.938v-4.123c0-1.623,1.315-2.938,2.938-2.938
	h19.125c1.623,0,2.938,1.315,2.938,2.938L90,154.062L90,154.062z"/>
</svg>
