<?xml version="1.0" encoding="utf-8"?>
<!-- Generator: Adobe Illustrator 16.0.0, SVG Export Plug-In . SVG Version: 6.00 Build 0)  -->
<!DOCTYPE svg PUBLIC "-//W3C//DTD SVG 1.1//EN" "http://www.w3.org/Graphics/SVG/1.1/DTD/svg11.dtd">
<svg version="1.1" id="Layer_1" xmlns="http://www.w3.org/2000/svg" xmlns:xlink="http://www.w3.org/1999/xlink" x="0px" y="0px"
	 width="225px" height="225px" viewBox="0 0 225 225" enable-background="new 0 0 225 225" xml:space="preserve">
<g>
	<circle fill="#FF8158" cx="5346.54" cy="217.932" r="112.265"/>
</g>
<g>
	<rect x="5270" y="201" fill="#FFFFFF" width="102" height="15"/>
	<path fill="none" stroke="#FFFFFF" stroke-width="5" stroke-miterlimit="10" d="M5373,243.73c0,5.578-4.339,10.729-9.189,10.729
		h-84.082c-4.855,0-10.104-5.151-10.104-10.729v-50.491c0-5.577,5.249-9.222,10.104-9.222h84.082c4.852,0,9.189,3.645,9.189,9.222
		V243.73z"/>
</g>
<path fill="none" stroke="#FFFFFF" stroke-width="5" stroke-linecap="round" stroke-miterlimit="10" d="M5406.875,171.34
	c26.049,26.053,28.023,67.061,5.924,95.379"/>
<path fill="none" stroke="#FFFFFF" stroke-width="5" stroke-linecap="round" stroke-miterlimit="10" d="M5396.32,185.959
	c17.926,17.924,19.283,46.143,4.078,65.629"/>
<path fill="none" stroke="#FFFFFF" stroke-width="5" stroke-linecap="round" stroke-miterlimit="10" d="M5388.336,202.912
	c8.805,8.804,9.475,22.666,2.004,32.234"/>
<path fill="none" stroke="#000000" stroke-width="2.9917" stroke-miterlimit="10" d="M87.355,69.637"/>
<path fill="none" stroke="#000000" stroke-width="3.0541" stroke-miterlimit="10" d="M88.598,69.637"/>
<path fill="none" stroke="#000000" stroke-width="2.8335" stroke-miterlimit="10" d="M87.355,69.637"/>
<circle fill="none" stroke="#000000" stroke-width="5" stroke-linecap="round" stroke-linejoin="round" stroke-miterlimit="10" cx="88.723" cy="105.633" r="18.49"/>
<circle cx="52.236" cy="105.786" r="5.376"/>
<path d="M160.208,138.012c-1.803,0-3.534,0.272-5.179,0.762c-1.938-10.855-11.407-19.099-22.812-19.099
	c-11.506,0-21.026,8.38-22.855,19.372c-1.881-0.659-3.888-1.035-5.994-1.035c-10.046,0-18.19,7.679-18.19,17.714
	c0,8.708,6.134,15.633,14.315,17.316c1.631,8.706,9.258,15.3,18.436,15.3c3.648,0,7.041-1.059,9.922-2.857
	c3.376,3.259,7.962,5.793,13.025,5.793c9.874,0,17.949-6.097,18.694-16.791c0.228,0,0.451,0,0.639,0
	c10.042,0,18.182-8.198,18.182-18.239C178.39,146.214,170.25,138.012,160.208,138.012z"/>
<g>
	<path d="M140.126,121.069c-1.55-0.563-3.181-0.951-4.864-1.173c-6.111,19.901-24.661,34.412-46.539,34.412
		c-1.167,0-2.32-0.056-3.467-0.137c-0.043,0.512-0.079,1.027-0.079,1.554c0,1.198,0.126,2.358,0.348,3.479
		c1.059,0.062,2.124,0.104,3.198,0.104C112.954,159.309,133.478,143.164,140.126,121.069z"/>
	<path d="M80.177,155.726c0-0.731,0.038-1.453,0.104-2.165c-22.829-4.011-40.235-23.968-40.235-47.928
		c0-26.841,21.836-48.678,48.677-48.678c26.84,0,48.676,21.837,48.676,48.678c0,3.205-0.32,6.335-0.914,9.369
		c1.673,0.254,3.295,0.665,4.863,1.201c0.686-3.419,1.051-6.953,1.051-10.57c0-29.598-24.079-53.678-53.676-53.678
		c-29.598,0-53.677,24.08-53.677,53.678c0,26.759,19.685,49.003,45.333,53.023C80.256,157.695,80.177,156.72,80.177,155.726z"/>
</g>
<path d="M154.772,125.973c1.028,1.375,1.931,2.852,2.7,4.414c13.283-13.445,13.236-35.188-0.146-48.571
	c-0.977-0.977-2.559-0.976-3.535,0c-0.977,0.977-0.977,2.56,0,3.536C164.937,96.498,165.263,114.428,154.772,125.973z"/>
<g>
	<path d="M178.556,107.095c0,10.161-3.006,19.857-8.587,28.084c1.524,0.713,2.96,1.586,4.284,2.6
		c6.05-9.003,9.303-19.593,9.303-30.684c0-14.737-5.738-28.592-16.159-39.013c-0.977-0.977-2.559-0.977-3.535,0
		c-0.977,0.976-0.977,2.559,0,3.535C173.337,81.094,178.556,93.693,178.556,107.095z"/>
</g>
</svg>
