<?xml version="1.0" encoding="utf-8"?>
<!-- Generator: Adobe Illustrator 16.0.0, SVG Export Plug-In . SVG Version: 6.00 Build 0)  -->
<!DOCTYPE svg PUBLIC "-//W3C//DTD SVG 1.1//EN" "http://www.w3.org/Graphics/SVG/1.1/DTD/svg11.dtd">
<svg version="1.1" id="Layer_1" xmlns="http://www.w3.org/2000/svg" xmlns:xlink="http://www.w3.org/1999/xlink" x="0px" y="0px"
	 width="225px" height="225px" viewBox="0 0 225 225" enable-background="new 0 0 225 225" xml:space="preserve">
<g>
	<circle fill="#FF8158" cx="5346.54" cy="217.932" r="112.265"/>
</g>
<g>
	<rect x="5270" y="201" fill="#FFFFFF" width="102" height="15"/>
	<path fill="none" stroke="#FFFFFF" stroke-width="5" stroke-miterlimit="10" d="M5373,243.73c0,5.578-4.339,10.729-9.189,10.729
		h-84.082c-4.855,0-10.104-5.151-10.104-10.729v-50.491c0-5.577,5.249-9.222,10.104-9.222h84.082c4.852,0,9.189,3.645,9.189,9.222
		V243.73z"/>
</g>
<path fill="none" stroke="#FFFFFF" stroke-width="5" stroke-linecap="round" stroke-miterlimit="10" d="M5406.875,171.34
	c26.049,26.053,28.023,67.061,5.924,95.379"/>
<path fill="none" stroke="#FFFFFF" stroke-width="5" stroke-linecap="round" stroke-miterlimit="10" d="M5396.32,185.959
	c17.926,17.924,19.283,46.143,4.078,65.629"/>
<path fill="none" stroke="#FFFFFF" stroke-width="5" stroke-linecap="round" stroke-miterlimit="10" d="M5388.336,202.912
	c8.805,8.804,9.475,22.666,2.004,32.234"/>
<path fill="none" stroke="#000000" stroke-width="5.4047" stroke-miterlimit="10" d="M110.313,88.264"/>
<path d="M190.105,132.773H34.508c-1.381,0-2.5,1.119-2.5,2.5s1.119,2.5,2.5,2.5h32.076v23.434c0,1.381,1.119,2.5,2.5,2.5
	s2.5-1.119,2.5-2.5v-23.434h38.223v23.434c0,1.381,1.119,2.5,2.5,2.5s2.5-1.119,2.5-2.5v-23.434h39.303v23.434
	c0,1.381,1.119,2.5,2.5,2.5s2.5-1.119,2.5-2.5v-23.434h30.996c1.381,0,2.5-1.119,2.5-2.5S191.486,132.773,190.105,132.773z"/>
<path d="M34.508,93.472h155.598c1.381,0,2.5-1.119,2.5-2.5s-1.119-2.5-2.5-2.5h-30.996V63.958c0-1.381-1.119-2.5-2.5-2.5
	s-2.5,1.119-2.5,2.5v24.514h-39.303V63.958c0-1.381-1.119-2.5-2.5-2.5s-2.5,1.119-2.5,2.5v24.514H71.584V63.958
	c0-1.381-1.119-2.5-2.5-2.5s-2.5,1.119-2.5,2.5v24.514H34.508c-1.381,0-2.5,1.119-2.5,2.5S33.127,93.472,34.508,93.472z"/>
</svg>
