<?xml version="1.0" encoding="utf-8"?>
<!-- Generator: Adobe Illustrator 16.0.0, SVG Export Plug-In . SVG Version: 6.00 Build 0)  -->
<!DOCTYPE svg PUBLIC "-//W3C//DTD SVG 1.1//EN" "http://www.w3.org/Graphics/SVG/1.1/DTD/svg11.dtd">
<svg version="1.1" id="Layer_1" xmlns="http://www.w3.org/2000/svg" xmlns:xlink="http://www.w3.org/1999/xlink" x="0px" y="0px"
	 width="225px" height="225px" viewBox="0 0 225 225" enable-background="new 0 0 225 225" xml:space="preserve">
<path fill="#010000" d="M163.699,103H63.758c-0.552,0-1,0.448-1,1c0,13.766,5.302,26.62,14.931,36.195
	c9.582,9.529,22.381,14.777,36.04,14.777c13.659,0,26.459-5.248,36.041-14.777c9.627-9.575,14.931-22.43,14.931-36.195
	C164.699,103.448,164.252,103,163.699,103z M125.5,137c0,6.075-4.925,11-11,11h-2c-6.075,0-11-4.925-11-11v-13.5
	c0-6.075,4.925-11,11-11h2c6.075,0,11,4.925,11,11V137z"/>
<path fill="#010000" d="M174,68H52c-1.381,0-2.5,1.119-2.5,2.5v24c0,1.381,1.119,2.5,2.5,2.5h122c1.381,0,2.5-1.119,2.5-2.5v-24
	C176.5,69.119,175.381,68,174,68z"/>
<path fill="#010000" d="M120.383,130.982c0,3.943-3.195,7.142-7.137,7.142c-3.944,0-7.141-3.197-7.141-7.142
	c0-3.941,3.197-7.139,7.141-7.139C117.188,123.845,120.383,127.041,120.383,130.982z"/>
</svg>
