<?xml version="1.0" encoding="utf-8"?>
<!-- Generator: Adobe Illustrator 16.0.0, SVG Export Plug-In . SVG Version: 6.00 Build 0)  -->
<!DOCTYPE svg PUBLIC "-//W3C//DTD SVG 1.1//EN" "http://www.w3.org/Graphics/SVG/1.1/DTD/svg11.dtd">
<svg version="1.1" id="Layer_1" xmlns="http://www.w3.org/2000/svg" xmlns:xlink="http://www.w3.org/1999/xlink" x="0px" y="0px"
	 width="225px" height="225px" viewBox="0 0 225 225" enable-background="new 0 0 225 225" xml:space="preserve">
<path d="M163.699,103H63.758c-0.552,0-1,0.448-1,1c0,13.766,5.302,26.62,14.931,36.195c9.582,9.529,22.381,14.777,36.04,14.777
	c13.659,0,26.458-5.248,36.04-14.777c9.628-9.575,14.931-22.43,14.931-36.195C164.699,103.448,164.252,103,163.699,103z M125.5,137
	c0,6.075-4.925,11-11,11h-2c-6.075,0-11-4.925-11-11v-13.5c0-6.075,4.925-11,11-11h2c6.075,0,11,4.925,11,11V137z"/>
<g>
	<circle fill="#FF8158" cx="5346.54" cy="217.932" r="112.265"/>
</g>
<g>
	<rect x="5270" y="201" fill="#FFFFFF" width="102" height="15"/>
	<path fill="none" stroke="#FFFFFF" stroke-width="5" stroke-miterlimit="10" d="M5373,243.73c0,5.578-4.339,10.729-9.189,10.729
		h-84.082c-4.855,0-10.104-5.151-10.104-10.729v-50.491c0-5.577,5.249-9.222,10.104-9.222h84.082c4.852,0,9.189,3.645,9.189,9.222
		V243.73z"/>
</g>
<path fill="none" stroke="#FFFFFF" stroke-width="5" stroke-linecap="round" stroke-miterlimit="10" d="M5406.875,171.34
	c26.049,26.053,28.023,67.061,5.924,95.379"/>
<path fill="none" stroke="#FFFFFF" stroke-width="5" stroke-linecap="round" stroke-miterlimit="10" d="M5396.32,185.959
	c17.926,17.924,19.283,46.143,4.078,65.629"/>
<path fill="none" stroke="#FFFFFF" stroke-width="5" stroke-linecap="round" stroke-miterlimit="10" d="M5388.336,202.912
	c8.805,8.804,9.475,22.666,2.004,32.234"/>
<path fill="none" stroke="#000000" stroke-width="1.9862" stroke-miterlimit="10" d="M150.562,58.941"/>
<path fill="none" stroke="#000000" stroke-width="2.0277" stroke-miterlimit="10" d="M151.387,58.941"/>
<path fill="none" stroke="#000000" stroke-width="1.8812" stroke-miterlimit="10" d="M150.562,58.941"/>
<path d="M174,68H52c-1.381,0-2.5,1.119-2.5,2.5v24c0,1.381,1.119,2.5,2.5,2.5h122c1.381,0,2.5-1.119,2.5-2.5v-24
	C176.5,69.119,175.381,68,174,68z"/>
<path d="M120.383,130.982c0,3.944-3.195,7.142-7.137,7.142c-3.944,0-7.141-3.197-7.141-7.142c0-3.941,3.197-7.138,7.141-7.138
	C117.188,123.845,120.383,127.041,120.383,130.982z"/>
</svg>
