<?xml version="1.0" encoding="utf-8"?>
<!-- Generator: Adobe Illustrator 16.0.0, SVG Export Plug-In . SVG Version: 6.00 Build 0)  -->
<!DOCTYPE svg PUBLIC "-//W3C//DTD SVG 1.1//EN" "http://www.w3.org/Graphics/SVG/1.1/DTD/svg11.dtd">
<svg version="1.1" id="Layer_1" xmlns="http://www.w3.org/2000/svg" xmlns:xlink="http://www.w3.org/1999/xlink" x="0px" y="0px"
	 width="225px" height="225px" viewBox="0 0 225 225" enable-background="new 0 0 225 225" xml:space="preserve">
<g>
	<path fill="#010000" d="M77.95,177.122c0,3.622-2.937,6.553-6.555,6.553l0,0c-3.612,0-6.551-2.931-6.551-6.553l0,0
		c0-3.609,2.938-6.552,6.551-6.552l0,0C75.014,170.57,77.95,173.513,77.95,177.122L77.95,177.122z"/>
	<path fill="#010000" d="M123.555,177.122c0,3.622-2.937,6.553-6.554,6.553l0,0c-3.613,0-6.553-2.931-6.553-6.553l0,0
		c0-3.609,2.938-6.552,6.553-6.552l0,0C120.618,170.57,123.555,173.513,123.555,177.122L123.555,177.122z"/>
	<path fill="#010000" d="M164.802,177.122c0,3.622-2.938,6.553-6.555,6.553l0,0c-3.612,0-6.552-2.931-6.552-6.553l0,0
		c0-3.609,2.938-6.552,6.552-6.552l0,0C161.864,170.57,164.802,173.513,164.802,177.122L164.802,177.122z"/>
	<path fill="#010000" d="M160.747,142.167c0-1.381-1.119-2.5-2.5-2.5h-38.884v-11.313c0-1.381-1.118-2.5-2.5-2.5
		c-1.381,0-2.5,1.119-2.5,2.5v11.313H71.397c-1.381,0-2.5,1.119-2.5,2.5v21.046c0,1.381,1.119,2.5,2.5,2.5s2.5-1.119,2.5-2.5
		v-18.546h40.467v18.546c0,1.381,1.119,2.5,2.5,2.5s2.5-1.119,2.5-2.5v-18.546h36.385v18.546c0,1.381,1.119,2.5,2.5,2.5
		c1.382,0,2.5-1.119,2.5-2.5L160.747,142.167z"/>
</g>
<g>
	<path fill="#010000" d="M179.228,76.229H50.417c-4.463,0-8.095-3.846-8.095-8.573V48.314c0-4.728,3.631-8.574,8.095-8.574h128.812
		c4.464,0,8.095,3.847,8.095,8.574v19.342C187.322,72.383,183.691,76.229,179.228,76.229z M50.417,44.74
		c-1.707,0-3.095,1.604-3.095,3.574v19.342c0,1.972,1.388,3.573,3.095,3.573h128.812c1.706,0,3.095-1.604,3.095-3.573V48.314
		c0-1.971-1.389-3.574-3.095-3.574H50.417z"/>
	<circle fill="#010000" cx="169.059" cy="57.983" r="5.504"/>
	<path fill="#010000" d="M56.822,66.985c-1.381,0-2.5-1.119-2.5-2.5v-13c0-1.381,1.119-2.5,2.5-2.5s2.5,1.119,2.5,2.5v13
		C59.322,65.866,58.203,66.985,56.822,66.985z"/>
	<path fill="#010000" d="M66.822,66.985c-1.381,0-2.5-1.119-2.5-2.5v-13c0-1.381,1.119-2.5,2.5-2.5s2.5,1.119,2.5,2.5v13
		C69.322,65.866,68.203,66.985,66.822,66.985z"/>
	<path fill="#010000" d="M76.822,66.985c-1.381,0-2.5-1.119-2.5-2.5v-13c0-1.381,1.119-2.5,2.5-2.5s2.5,1.119,2.5,2.5v13
		C79.322,65.866,78.203,66.985,76.822,66.985z"/>
	<path fill="#010000" d="M179.228,119.785H50.417c-4.463,0-8.095-3.846-8.095-8.574V91.87c0-4.728,3.631-8.574,8.095-8.574h128.812
		c4.464,0,8.095,3.848,8.095,8.574v19.342C187.322,115.939,183.691,119.785,179.228,119.785z M50.417,88.295
		c-1.707,0-3.095,1.604-3.095,3.574v19.342c0,1.97,1.388,3.574,3.095,3.574h128.812c1.706,0,3.095-1.604,3.095-3.574V91.87
		c0-1.972-1.389-3.574-3.095-3.574H50.417z"/>
	<circle fill="#010000" cx="169.059" cy="101.54" r="5.504"/>
	<path fill="#010000" d="M56.822,110.542c-1.381,0-2.5-1.119-2.5-2.5v-13c0-1.381,1.119-2.5,2.5-2.5s2.5,1.119,2.5,2.5v13
		C59.322,109.42,58.203,110.542,56.822,110.542z"/>
	<path fill="#010000" d="M66.822,110.542c-1.381,0-2.5-1.119-2.5-2.5v-13c0-1.381,1.119-2.5,2.5-2.5s2.5,1.119,2.5,2.5v13
		C69.322,109.42,68.203,110.542,66.822,110.542z"/>
	<path fill="#010000" d="M76.822,110.542c-1.381,0-2.5-1.119-2.5-2.5v-13c0-1.381,1.119-2.5,2.5-2.5s2.5,1.119,2.5,2.5v13
		C79.322,109.42,78.203,110.542,76.822,110.542z"/>
</g>
</svg>
