<?xml version="1.0" encoding="utf-8"?>
<!-- Generator: Adobe Illustrator 15.1.0, SVG Export Plug-In . SVG Version: 6.00 Build 0)  -->
<!DOCTYPE svg PUBLIC "-//W3C//DTD SVG 1.1//EN" "http://www.w3.org/Graphics/SVG/1.1/DTD/svg11.dtd">
<svg version="1.1" id="Layer_1" xmlns="http://www.w3.org/2000/svg" xmlns:xlink="http://www.w3.org/1999/xlink" x="0px" y="0px"
	 width="225px" height="225px" viewBox="0 0 225 225" enable-background="new 0 0 225 225" xml:space="preserve">
<path fill="#FFFFFF" d="M121.316,84.712c-1.719-1.775-3.953-2.983-6.353-3.479h0.001c-0.808-0.167-1.634-0.254-2.466-0.254
	c-0.799,0-1.598,0.087-2.382,0.254h-0.001c-2.339,0.498-4.555,1.713-6.305,3.5c-0.466,0.475-0.876,0.979-1.243,1.501h19.983
	C122.189,85.701,121.781,85.191,121.316,84.712z"/>
<path fill="#FFFFFF" d="M86.242,81.233H45.595c-1.707,0-3.095-1.243-3.095-2.772V61.672c0-1.528,1.388-2.772,3.095-2.772
	l128.812,0.001c1.706,0,3.095,1.243,3.095,2.772v16.788c0,1.528-1.389,2.772-3.095,2.772h-35.616
	c0.529,1.204,0.979,2.435,1.318,3.691c0.117,0.434,0.215,0.872,0.31,1.31h33.985c4.465,0,8.096-3.487,8.098-7.772V61.673
	c0-4.285-3.631-7.772-8.095-7.772H45.595c-4.464,0-8.095,3.486-8.095,7.772v16.789c0,4.285,3.632,7.772,8.095,7.772h39.006
	c0.097-0.443,0.196-0.886,0.316-1.324C85.261,83.659,85.712,82.433,86.242,81.233z"/>
<path fill="#FFFFFF" d="M175.407,98.386c1.706,0,3.095,1.604,3.095,3.574v19.342c0,1.97-1.389,3.573-3.095,3.573h-26.003v5h26
	c4.465,0,8.096-3.846,8.098-8.573V101.96c0-4.728-3.631-8.574-8.095-8.574h-34.4v5H175.407z"/>
<path fill="#FFFFFF" d="M46.595,124.875c-1.707,0-3.095-1.602-3.095-3.573V101.96c0-1.97,1.388-3.574,3.095-3.574h37.398v-5H46.595
	c-4.464,0-8.095,3.846-8.095,8.574v19.342c0,4.729,3.632,8.573,8.095,8.573h29.003v-5H46.595z"/>
<rect x="100.706" y="93.386" fill="#FFFFFF" width="23.583" height="5"/>
<circle fill="#FFFFFF" cx="164.236" cy="70.068" r="5.504"/>
<circle fill="#FFFFFF" cx="165.236" cy="111.629" r="5.504"/>
<path fill="#FFFFFF" d="M52,61.067c-1.381,0-2.5,1.119-2.5,2.5v13c0,1.381,1.119,2.5,2.5,2.5s2.5-1.119,2.5-2.5v-13
	C54.5,62.186,53.381,61.067,52,61.067z"/>
<path fill="#FFFFFF" d="M62,61.067c-1.381,0-2.5,1.119-2.5,2.5v13c0,1.381,1.119,2.5,2.5,2.5s2.5-1.119,2.5-2.5v-13
	C64.5,62.186,63.381,61.067,62,61.067z"/>
<path fill="#FFFFFF" d="M72,61.067c-1.381,0-2.5,1.119-2.5,2.5v13c0,1.381,1.119,2.5,2.5,2.5s2.5-1.119,2.5-2.5v-13
	C74.5,62.186,73.381,61.067,72,61.067z"/>
<path fill="#FFFFFF" d="M53,120.631c1.381,0,2.5-1.119,2.5-2.5v-13c0-1.381-1.119-2.5-2.5-2.5s-2.5,1.119-2.5,2.5v13
	C50.5,119.512,51.619,120.631,53,120.631z"/>
<path fill="#FFFFFF" d="M63,120.631c1.381,0,2.5-1.119,2.5-2.5v-13c0-1.381-1.119-2.5-2.5-2.5s-2.5,1.119-2.5,2.5v13
	C60.5,119.512,61.619,120.631,63,120.631z"/>
<path fill="#FFFFFF" d="M73,120.631c1.381,0,2.5-1.119,2.5-2.5v-13c0-1.381-1.119-2.5-2.5-2.5s-2.5,1.119-2.5,2.5v13
	C70.5,119.512,71.619,120.631,73,120.631z"/>
<path fill="#FFFFFF" d="M175.407,141.941c1.706,0,3.095,1.602,3.095,3.574v19.342c0,1.97-1.389,3.574-3.095,3.574H46.595
	c-1.707,0-3.095-1.604-3.095-3.574v-19.342c0-1.972,1.388-3.574,3.095-3.574h29.003v-5H46.595c-4.464,0-8.095,3.847-8.095,8.574
	v19.342c0,4.728,3.632,8.574,8.095,8.574h128.809c4.465,0,8.096-3.848,8.098-8.574v-19.342c0-4.727-3.631-8.574-8.095-8.574h-26.003
	v5H175.407z"/>
<circle fill="#FFFFFF" cx="165.236" cy="155.186" r="5.504"/>
<path fill="#FFFFFF" d="M53,164.188c1.381,0,2.5-1.121,2.5-2.5v-13c0-1.381-1.119-2.5-2.5-2.5s-2.5,1.119-2.5,2.5v13
	C50.5,163.068,51.619,164.188,53,164.188z"/>
<path fill="#FFFFFF" d="M63,164.188c1.381,0,2.5-1.121,2.5-2.5v-13c0-1.381-1.119-2.5-2.5-2.5s-2.5,1.119-2.5,2.5v13
	C60.5,163.068,61.619,164.188,63,164.188z"/>
<path fill="#FFFFFF" d="M73,164.188c1.381,0,2.5-1.121,2.5-2.5v-13c0-1.381-1.119-2.5-2.5-2.5s-2.5,1.119-2.5,2.5v13
	C70.5,163.068,71.619,164.188,73,164.188z"/>
<path fill="#FFFFFF" d="M144.404,106.982h-8.397v-8.597v-5v-1.771c0-1.847-0.253-3.65-0.723-5.38
	c-0.476-1.753-1.177-3.429-2.068-5.001c-4.006-7.052-11.884-11.971-20.716-11.971c-8.806,0-16.663,4.915-20.68,11.971
	c-0.895,1.571-1.6,3.248-2.081,5.001c-0.485,1.768-0.746,3.613-0.746,5.503v1.648v5v8.6h-8.395v17.89v5v7.066v5V154h63.806v-12.059
	v-5v-7.066v-5V106.982L144.404,106.982z M119.502,129.875c-0.369,2.08-1.587,3.812-3.451,4.814v2.252v5v2.541
	c0,0.406-0.33,0.738-0.738,0.738h-5.754c-0.408,0-0.738-0.332-0.738-0.738v-2.541v-5v-2.252c-1.829-0.988-2.988-2.693-3.333-4.814
	c-0.07-0.432-0.119-0.875-0.119-1.34c0-1.34,0.382-2.59,1.034-3.66c1.257-2.064,3.537-3.453,6.145-3.453
	c2.571,0,4.822,1.389,6.064,3.453c0.644,1.07,1.021,2.32,1.021,3.66C119.633,128.997,119.579,129.439,119.502,129.875z
	 M129.289,93.386v5v8.597H95.706v-8.597v-5v-1.648c0-1.916,0.426-3.771,1.163-5.503c0.785-1.845,1.939-3.539,3.372-5.001
	c3.119-3.183,7.529-5.254,12.259-5.254c4.863,0,9.311,2.056,12.409,5.254c1.411,1.457,2.536,3.149,3.294,5.001
	c0.689,1.688,1.087,3.498,1.087,5.38L129.289,93.386L129.289,93.386z"/>
</svg>
