<?xml version="1.0" encoding="utf-8"?>
<!-- Generator: Adobe Illustrator 16.0.0, SVG Export Plug-In . SVG Version: 6.00 Build 0)  -->
<!DOCTYPE svg PUBLIC "-//W3C//DTD SVG 1.1//EN" "http://www.w3.org/Graphics/SVG/1.1/DTD/svg11.dtd">
<svg version="1.1" id="Layer_1" xmlns="http://www.w3.org/2000/svg" xmlns:xlink="http://www.w3.org/1999/xlink" x="0px" y="0px"
	 width="225px" height="225px" viewBox="0 0 225 225" enable-background="new 0 0 225 225" xml:space="preserve">
<path d="M87.239,67.842c-0.031,0-0.06-0.009-0.09-0.009H55V24.625c0-1.381-1.119-2.5-2.5-2.5s-2.5,1.119-2.5,2.5v48.208v79.928
	v45.613c0,1.381,1.119,2.5,2.5,2.5s2.5-1.119,2.5-2.5v-40.613h32.148v0.039c25.055,0,45.365-20.136,45.365-44.981
	C132.514,88.007,112.251,67.891,87.239,67.842z M55,152.761V72.833h32.148v79.928H55z"/>
<g>
	<circle fill="#FF8158" cx="5346.54" cy="217.932" r="112.265"/>
</g>
<g>
	<rect x="5270" y="201" fill="#FFFFFF" width="102" height="15"/>
	<path fill="none" stroke="#FFFFFF" stroke-width="5" stroke-miterlimit="10" d="M5373,243.73c0,5.578-4.339,10.729-9.189,10.729
		h-84.082c-4.855,0-10.104-5.151-10.104-10.729v-50.491c0-5.577,5.249-9.222,10.104-9.222h84.082c4.852,0,9.189,3.645,9.189,9.222
		V243.73z"/>
</g>
<path fill="none" stroke="#FFFFFF" stroke-width="5" stroke-linecap="round" stroke-miterlimit="10" d="M5406.875,171.34
	c26.049,26.053,28.023,67.061,5.924,95.379"/>
<path fill="none" stroke="#FFFFFF" stroke-width="5" stroke-linecap="round" stroke-miterlimit="10" d="M5396.32,185.959
	c17.926,17.924,19.283,46.143,4.078,65.629"/>
<path fill="none" stroke="#FFFFFF" stroke-width="5" stroke-linecap="round" stroke-miterlimit="10" d="M5388.336,202.912
	c8.805,8.804,9.475,22.666,2.004,32.234"/>
<path d="M160.087,173.92c-0.64,0-1.279-0.244-1.768-0.732c-0.977-0.977-0.977-2.559,0-3.535
	c15.294-15.295,23.717-35.629,23.717-57.258s-8.423-41.963-23.717-57.257c-0.977-0.976-0.977-2.559,0-3.535
	c0.977-0.977,2.559-0.977,3.535,0c16.238,16.238,25.182,37.827,25.182,60.792c0,22.964-8.943,44.555-25.182,60.793
	C161.366,173.676,160.727,173.92,160.087,173.92z"/>
<path d="M142.094,154.261c-0.64,0-1.279-0.244-1.768-0.732c-0.977-0.976-0.977-2.559,0-3.535c20.602-20.606,20.602-54.133,0-74.736
	c-0.977-0.976-0.977-2.559,0-3.536c0.977-0.976,2.559-0.976,3.535,0c22.551,22.553,22.551,59.251,0,81.807
	C143.374,154.017,142.733,154.261,142.094,154.261z"/>
</svg>
