<?xml version="1.0" encoding="utf-8"?>
<!-- Generator: Adobe Illustrator 16.0.0, SVG Export Plug-In . SVG Version: 6.00 Build 0)  -->
<!DOCTYPE svg PUBLIC "-//W3C//DTD SVG 1.1//EN" "http://www.w3.org/Graphics/SVG/1.1/DTD/svg11.dtd">
<svg version="1.1" id="Layer_1" xmlns="http://www.w3.org/2000/svg" xmlns:xlink="http://www.w3.org/1999/xlink" x="0px" y="0px"
	 width="225px" height="225px" viewBox="0 0 225 225" enable-background="new 0 0 225 225" xml:space="preserve">
<path d="M87.239,67.842c-0.031,0-0.061-0.009-0.09-0.009H55V24.625c0-1.381-1.119-2.5-2.5-2.5s-2.5,1.119-2.5,2.5v48.208v79.928
	v45.613c0,1.381,1.119,2.5,2.5,2.5s2.5-1.119,2.5-2.5v-40.613h32.148v0.039c25.055,0,45.365-20.136,45.365-44.981
	C132.514,88.007,112.251,67.891,87.239,67.842z M55,152.761V72.833h32.148v79.928H55z"/>
<path d="M160.087,173.92c-0.64,0-1.278-0.244-1.769-0.732c-0.977-0.977-0.977-2.559,0-3.535
	c15.295-15.295,23.718-35.629,23.718-57.257c0-21.629-8.423-41.963-23.718-57.257c-0.977-0.976-0.977-2.559,0-3.535
	c0.978-0.977,2.56-0.977,3.535,0c16.238,16.238,25.183,37.827,25.183,60.792c0,22.964-8.943,44.555-25.183,60.792
	C161.366,173.676,160.727,173.92,160.087,173.92z"/>
<path d="M142.094,154.261c-0.64,0-1.279-0.243-1.768-0.731c-0.977-0.977-0.977-2.56,0-3.535c20.602-20.606,20.602-54.133,0-74.736
	c-0.977-0.976-0.977-2.559,0-3.536c0.977-0.976,2.559-0.976,3.535,0c22.551,22.553,22.551,59.25,0,81.807
	C143.374,154.018,142.732,154.261,142.094,154.261z"/>
</svg>
