<?xml version="1.0" encoding="utf-8"?>
<!-- Generator: Adobe Illustrator 16.0.0, SVG Export Plug-In . SVG Version: 6.00 Build 0)  -->
<!DOCTYPE svg PUBLIC "-//W3C//DTD SVG 1.1//EN" "http://www.w3.org/Graphics/SVG/1.1/DTD/svg11.dtd">
<svg version="1.1" id="Layer_1" xmlns="http://www.w3.org/2000/svg" xmlns:xlink="http://www.w3.org/1999/xlink" x="0px" y="0px"
	 width="225px" height="225px" viewBox="0 0 225 225" enable-background="new 0 0 225 225" xml:space="preserve">
<path fill="#010000" d="M187.303,62.542h-51.508c-3.324,0-6.029,2.705-6.029,6.03v31.848c0,3.325,2.705,6.03,6.029,6.03h11.567
	v3.744c0,3.748,3.049,6.798,6.796,6.798h14.781c3.748,0,6.798-3.051,6.798-6.798v-3.744h11.564c3.325,0,6.03-2.705,6.03-6.03V68.572
	C193.333,65.247,190.628,62.542,187.303,62.542z M188.333,100.419c0,0.568-0.462,1.03-1.03,1.03h-16.564v8.744
	c0,0.991-0.807,1.798-1.799,1.798h-14.78c-0.99,0-1.796-0.807-1.796-1.798v-8.744h-16.567c-0.567,0-1.028-0.462-1.028-1.03V68.572
	c0-0.568,0.461-1.03,1.028-1.03h6.705v17.917c0,1.381,1.119,2.5,2.5,2.5s2.5-1.119,2.5-2.5V67.542h5.776v17.917
	c0,1.381,1.119,2.5,2.5,2.5c1.382,0,2.5-1.119,2.5-2.5V67.542h5.779v17.917c0,1.381,1.119,2.5,2.5,2.5s2.5-1.119,2.5-2.5V67.542
	h5.777v17.917c0,1.381,1.119,2.5,2.5,2.5s2.5-1.119,2.5-2.5V67.542h7.469c0.568,0,1.03,0.462,1.03,1.03V100.419z"/>
<path fill="#010000" d="M103.588,149.041l-52.312-0.001c-8.699,0-15.776-7.17-15.776-15.983v-26.607
	c0-8.69,6.885-15.77,15.417-15.965v13.328c0,1.827,1.682,3.312,3.75,3.312h45.709l-23.938,6.94
	c-1.326,0.386-2.089,1.771-1.705,3.099c0.317,1.094,1.315,1.805,2.4,1.805c0.23,0,0.465-0.032,0.697-0.1l39.615-11.487
	c0.892-0.258,1.519-0.973,1.723-1.815c0.363-0.51,0.582-1.108,0.582-1.753V67.271c0-1.827-1.684-3.312-3.75-3.312H54.667
	c-2.068,0-3.75,1.486-3.75,3.312v18.213C39.628,85.68,30.5,95.001,30.5,106.449v26.607c0,11.57,9.32,20.983,20.776,20.983h52.142
	c8.7,0,15.777,8.397,15.777,18.721V225h5v-52.239C124.195,159.746,114.967,149.146,103.588,149.041z"/>
</svg>
