<?xml version="1.0" encoding="utf-8"?>
<!-- Generator: Adobe Illustrator 16.0.0, SVG Export Plug-In . SVG Version: 6.00 Build 0)  -->
<!DOCTYPE svg PUBLIC "-//W3C//DTD SVG 1.1//EN" "http://www.w3.org/Graphics/SVG/1.1/DTD/svg11.dtd">
<svg version="1.1" id="Layer_1" xmlns="http://www.w3.org/2000/svg" xmlns:xlink="http://www.w3.org/1999/xlink" x="0px" y="0px"
	 width="225px" height="225px" viewBox="0 0 225 225" enable-background="new 0 0 225 225" xml:space="preserve">
<g>
	<path fill="none" d="M174.5,94c1.381,0,2.5,1.119,2.5,2.5s-1.119,2.5-2.5,2.5s-2.5-1.119-2.5-2.5S173.119,94,174.5,94z M164.5,94
		c1.381,0,2.5,1.119,2.5,2.5s-1.119,2.5-2.5,2.5s-2.5-1.119-2.5-2.5S163.119,94,164.5,94z"/>
	<path fill="#ffffff" d="M153.5,96.5c0-1.381-1.119-2.5-2.5-2.5h-15.352c-0.014,0.253-0.02,0.507-0.031,0.76
		c-0.076,1.479-0.237,2.883-0.459,4.24H151C152.381,99,153.5,97.881,153.5,96.5z"/>
	<circle fill="#ffffff" cx="164.5" cy="96.5" r="2.5"/>
	<circle fill="#ffffff" cx="174.5" cy="96.5" r="2.5"/>
	<path fill="#ffffff" d="M184.5,52.5c-1.381,0-2.5,1.119-2.5,2.5v27.184c-0.504-0.117-1.016-0.184-1.521-0.184h-44.545
		c-0.013,1.657-0.033,3.325-0.063,5h44.608c0.637,0,1.521,0.407,1.521,1.07V90v11.922c0,0.947-1.068,2.049-1.523,2.078h-46.545
		c-0.608,1.786-1.395,3.444-2.332,5h48.879c3.354,0,6.521-3.44,6.521-7.078V90v-1.93V55C187,53.619,185.881,52.5,184.5,52.5z"/>
</g>
<path fill="#ffffff" d="M156.283,171.284v-7.683c0-4.349,1.304-6.014,6.449-9.854c2.607-2.03,3.912-3.771,3.912-7.248
	c0-4.781-2.826-8.188-7.754-8.188s-7.535,3.405-7.535,7.971h-5.437c0.363-7.682,5.291-12.537,13.044-12.537
	c7.971,0,13.116,4.927,13.116,12.971c0,4.712-1.667,7.174-4.638,9.782c-4.276,3.841-5.727,3.623-5.727,7.103v7.683H156.283z
	 M159.605,174.155c2.319,0,4.314,1.778,4.314,4.151s-1.995,4.207-4.314,4.207c-2.373,0-4.367-1.834-4.367-4.207
	S157.287,174.155,159.605,174.155z"/>
<g>
	<path fill="#ffffff" d="M151.283,171.284v-7.683c0-6.483,2.48-9.396,8.416-13.828c1.867-1.459,1.945-1.889,1.945-3.272
		c0-3.188-1.86-3.188-2.754-3.188c-0.949,0-2.535,0-2.535,2.972c0,2.762-2.238,5-5,5h-5.437c-1.367,0-2.675-0.56-3.618-1.55
		c-0.943-0.988-1.439-2.321-1.376-3.688c0.335-7.093,3.849-12.589,9.341-15.346c-3.517-1.954-7.221-3.549-11.031-4.87
		c-5.189-1.817-10.512-3.258-15.754-4.873c-0.36-0.133-0.905-0.442-0.914-0.688c-0.099-2.494-0.115-4.994-0.079-7.494
		c0-0.388,0.325-0.864,0.614-1.18c0.969-1.125,2.075-2.144,2.975-3.323c3.097-4.047,4.291-8.822,4.548-13.772
		c0.31-6.039,0.31-12.089,0.341-18.121c0-1.859-0.193-3.742-0.5-5.585c-1.062-6.3-3.939-11.525-9.455-15.024
		c-4.893-3.088-10.293-4.146-16-3.642c-4.777,0.422-9.156,1.935-12.931,4.977c-5.2,4.23-7.522,9.947-7.927,16.431
		c-0.474,7.564-0.544,15.13,0.327,22.698c0.694,5.998,2.796,11.324,7.44,15.44c0.291,0.249,0.528,0.688,0.528,1.038
		c0.062,2.305,0,4.609,0.053,6.917c0.026,0.915-0.324,1.224-1.196,1.406c-7.398,1.785-14.62,4.102-21.551,7.231
		c-5.014,2.25-9.825,4.851-13.861,8.67c-2.815,2.642-5.147,5.65-5.333,9.644c-0.218,4.432-0.055,20.621-0.055,25.104
		c33.635,0,67.212-0.002,100.8-0.008C151.294,171.547,151.283,171.417,151.283,171.284z M90,154.062
		c0,1.623-1.315,2.938-2.938,2.938H67.938c-1.623,0-2.938-1.314-2.938-2.938v-4.123c0-1.623,1.315-2.938,2.938-2.938h19.125
		c1.623,0,2.938,1.315,2.938,2.938L90,154.062L90,154.062z"/>
</g>
</svg>
