<?xml version="1.0" encoding="utf-8"?>
<!-- Generator: Adobe Illustrator 16.0.0, SVG Export Plug-In . SVG Version: 6.00 Build 0)  -->
<!DOCTYPE svg PUBLIC "-//W3C//DTD SVG 1.1//EN" "http://www.w3.org/Graphics/SVG/1.1/DTD/svg11.dtd">
<svg version="1.1" id="Layer_1" xmlns="http://www.w3.org/2000/svg" xmlns:xlink="http://www.w3.org/1999/xlink" x="0px" y="0px"
	 width="225px" height="225px" viewBox="0 0 225 225" enable-background="new 0 0 225 225" xml:space="preserve">
<g>
	<circle fill="#FF8158" cx="5346.54" cy="217.932" r="112.265"/>
</g>
<g>
	<rect x="5270" y="201" fill="#FFFFFF" width="102" height="15"/>
	<path fill="none" stroke="#FFFFFF" stroke-width="5" stroke-miterlimit="10" d="M5373,243.731c0,5.578-4.339,10.729-9.19,10.729
		h-84.081c-4.856,0-10.105-5.151-10.105-10.729v-50.492c0-5.577,5.249-9.222,10.105-9.222h84.081c4.852,0,9.19,3.645,9.19,9.222
		V243.731z"/>
</g>
<path fill="none" stroke="#FFFFFF" stroke-width="5" stroke-linecap="round" stroke-miterlimit="10" d="M5406.875,171.34
	c26.049,26.052,28.023,67.061,5.924,95.379"/>
<path fill="none" stroke="#FFFFFF" stroke-width="5" stroke-linecap="round" stroke-miterlimit="10" d="M5396.32,185.959
	c17.926,17.924,19.283,46.143,4.078,65.629"/>
<path fill="none" stroke="#FFFFFF" stroke-width="5" stroke-linecap="round" stroke-miterlimit="10" d="M5388.336,202.912
	c8.805,8.804,9.475,22.666,2.004,32.234"/>
<path d="M179.46,63.621h-54.953H45.098c-2.761,0-5,2.239-5,5v80.957c0,2.762,2.239,5,5,5h64.682v12.639H73.352
	c-1.381,0-2.5,1.119-2.5,2.5s1.119,2.5,2.5,2.5h77.836c1.381,0,2.5-1.119,2.5-2.5s-1.119-2.5-2.5-2.5h-36.408v-12.639h64.681
	c2.762,0,5-2.238,5-5V93.966V68.621C184.46,65.86,182.222,63.621,179.46,63.621z M179.46,93.966v55.612H45.098V68.621h79.409h54.953
	V93.966z"/>
<path d="M130.978,123.998c-0.84-1.096-2.409-1.305-3.505-0.466l-0.259,0.195c-2.826,2.092-6.186,3.198-9.715,3.198
	c-6.7,0-12.464-4.055-14.987-9.835h13.293c1.381,0,2.5-1.119,2.5-2.5s-1.119-2.5-2.5-2.5h-14.579
	c-0.046-0.499-0.077-1.002-0.077-1.513c0-0.804,0.078-1.588,0.19-2.361h14.465c1.381,0,2.5-1.119,2.5-2.5s-1.119-2.5-2.5-2.5
	h-12.884c2.7-5.321,8.212-8.984,14.577-8.984c3.387,0,6.633,1.025,9.389,2.964c1.13,0.796,2.688,0.523,3.483-0.605
	c0.794-1.129,0.523-2.689-0.606-3.483c-3.603-2.535-7.844-3.875-12.266-3.875c-9.181,0-17.004,5.836-20.013,13.984h-5.304
	c-1.381,0-2.5,1.119-2.5,2.5s1.119,2.5,2.5,2.5h4.106c-0.086,0.776-0.138,1.562-0.138,2.361c0,0.511,0.041,1.011,0.077,1.513h-4.044
	c-1.381,0-2.5,1.119-2.5,2.5s1.119,2.5,2.5,2.5h4.992c2.761,8.595,10.824,14.835,20.324,14.835c4.608,0,8.997-1.445,12.68-4.173
	l0.333-0.25C131.608,126.664,131.816,125.095,130.978,123.998z"/>
</svg>
