<?xml version="1.0" encoding="utf-8"?>
<!-- Generator: Adobe Illustrator 16.0.0, SVG Export Plug-In . SVG Version: 6.00 Build 0)  -->
<!DOCTYPE svg PUBLIC "-//W3C//DTD SVG 1.1//EN" "http://www.w3.org/Graphics/SVG/1.1/DTD/svg11.dtd">
<svg version="1.1" id="Layer_1" xmlns="http://www.w3.org/2000/svg" xmlns:xlink="http://www.w3.org/1999/xlink" x="0px" y="0px"
	 width="225px" height="225px" viewBox="0 0 225 225" enable-background="new 0 0 225 225" xml:space="preserve">
<path d="M167,96.5c0,1.381-1.119,2.5-2.5,2.5l0,0c-1.381,0-2.5-1.119-2.5-2.5l0,0c0-1.381,1.119-2.5,2.5-2.5l0,0
	C165.881,94,167,95.119,167,96.5L167,96.5z"/>
<path d="M177,96.5c0,1.381-1.119,2.5-2.5,2.5l0,0c-1.381,0-2.5-1.119-2.5-2.5l0,0c0-1.381,1.119-2.5,2.5-2.5l0,0
	C175.881,94,177,95.119,177,96.5L177,96.5z"/>
<line fill="#FF8158" x1="184" y1="55" x2="184" y2="90"/>
<g>
	<circle fill="#FF8158" cx="5346.54" cy="217.932" r="112.265"/>
</g>
<g>
	<rect x="5270" y="201" fill="#FFFFFF" width="102" height="15"/>
	<path fill="none" stroke="#FFFFFF" stroke-width="5" stroke-miterlimit="10" d="M5373,243.73c0,5.578-4.339,10.729-9.189,10.729
		h-84.082c-4.855,0-10.104-5.151-10.104-10.729v-50.491c0-5.577,5.249-9.222,10.104-9.222h84.082c4.852,0,9.189,3.645,9.189,9.222
		V243.73z"/>
</g>
<path fill="none" stroke="#FFFFFF" stroke-width="5" stroke-linecap="round" stroke-miterlimit="10" d="M5406.875,171.34
	c26.049,26.053,28.023,67.061,5.924,95.379"/>
<path fill="none" stroke="#FFFFFF" stroke-width="5" stroke-linecap="round" stroke-miterlimit="10" d="M5396.32,185.959
	c17.926,17.924,19.283,46.143,4.078,65.629"/>
<path fill="none" stroke="#FFFFFF" stroke-width="5" stroke-linecap="round" stroke-miterlimit="10" d="M5388.336,202.912
	c8.805,8.804,9.475,22.666,2.004,32.234"/>
<path fill="none" d="M116.792,53.678c-0.383-0.148-0.767-0.287-1.153-0.415C116.025,53.391,116.409,53.53,116.792,53.678z"/>
<path fill="none" d="M114.943,53.044c-0.403-0.119-0.81-0.224-1.217-0.322C114.134,52.82,114.54,52.925,114.943,53.044z"/>
<path fill="none" d="M118.67,54.503c-0.398-0.196-0.799-0.384-1.203-0.556C117.871,54.119,118.271,54.308,118.67,54.503z"/>
<path fill="none" d="M111.201,52.24c-0.635-0.084-1.275-0.143-1.919-0.181C109.926,52.097,110.566,52.156,111.201,52.24z"/>
<path fill="none" d="M120.969,55.771c-0.568-0.359-1.146-0.684-1.728-0.989C119.823,55.086,120.4,55.412,120.969,55.771z"/>
<path fill="none" d="M106.867,52.026c-0.629,0.017-1.261,0.046-1.898,0.103C105.606,52.073,106.238,52.043,106.867,52.026z"/>
<path fill="none" d="M113.082,52.568c-0.504-0.106-1.013-0.193-1.524-0.269C112.069,52.375,112.578,52.462,113.082,52.568z"/>
<path fill="none" d="M107.27,52.017c0.5-0.007,0.995,0.006,1.489,0.026c-0.37-0.015-0.739-0.035-1.113-0.035
	C107.521,52.008,107.395,52.015,107.27,52.017z"/>
<path fill="#F95428" d="M119.241,54.782c-0.188-0.099-0.381-0.185-0.571-0.278C118.86,54.597,119.053,54.683,119.241,54.782z"/>
<path fill="#F95428" d="M109.281,52.06c-0.173-0.01-0.349-0.01-0.522-0.017C108.933,52.05,109.108,52.049,109.281,52.06z"/>
<path fill="#F95428" d="M117.467,53.948c-0.224-0.095-0.449-0.182-0.675-0.27C117.018,53.766,117.243,53.853,117.467,53.948z"/>
<path fill="#F95428" d="M113.727,52.722c-0.215-0.052-0.428-0.108-0.645-0.154C113.299,52.614,113.512,52.67,113.727,52.722z"/>
<path fill="#F95428" d="M115.639,53.264c-0.231-0.076-0.463-0.151-0.695-0.22C115.176,53.113,115.407,53.188,115.639,53.264z"/>
<path fill="#F95428" d="M111.201,52.24c0.12,0.016,0.238,0.042,0.357,0.06C111.438,52.282,111.32,52.256,111.201,52.24z"/>
<path fill="#F95428" d="M106.867,52.026c0.135-0.004,0.269-0.008,0.403-0.009C107.136,52.019,107.001,52.022,106.867,52.026z"/>
<path opacity="0.6" fill="#FF8158" d="M148,153.727c0,1.625-1.607,4.273-3.23,4.273h-20.571c-1.623,0-3.198-2.648-3.198-4.273
	v-13.225c0-1.621,1.575-1.502,3.198-1.502h20.571c1.623,0,3.23-0.119,3.23,1.502V153.727z"/>
<path d="M187.482,142.704l-8.045,8.044c-0.771,0.771-2.736,1.985-3.507,1.215l-3.382-3.382c-0.77-0.769-0.053-3.233,0.718-4.003
	l8.225-8.228c-4.715-2.336-10.73-1.607-14.716,2.376c-3.982,3.981-4.71,10.001-2.373,14.715l-23.537,23.537
	c-0.267-0.03-0.537-0.051-0.811-0.051c-3.852,0-6.973,3.121-6.973,6.973c0,3.851,3.121,6.972,6.973,6.972
	c3.85,0,6.971-3.121,6.971-6.972c0-0.237-0.012-0.473-0.035-0.705l23.764-23.763c4.851,2.198,10.242,1.109,14.04-2.689
	C188.59,152.947,189.684,147.556,187.482,142.704z M139.963,187.122c-1.773,0-3.211-1.438-3.211-3.21
	c0-1.773,1.438-3.212,3.211-3.212s3.211,1.438,3.211,3.212C143.174,185.685,141.736,187.122,139.963,187.122z"/>
<g>
	<path d="M158.618,152.155c-1.196-4.656-0.451-9.587,2.034-13.662c-1.355-1.554-2.957-2.892-4.643-4.132
		c-5.12-3.745-10.819-6.463-16.774-8.529c-5.19-1.817-10.513-3.258-15.755-4.873c-0.36-0.133-0.905-0.442-0.914-0.689
		c-0.098-2.494-0.115-4.993-0.079-7.493c0-0.388,0.326-0.864,0.614-1.18c0.969-1.125,2.076-2.144,2.975-3.323
		c3.097-4.047,4.291-8.822,4.548-13.772c0.309-6.039,0.309-12.089,0.341-18.121c0-1.859-0.193-3.742-0.5-5.585
		c-1.063-6.3-3.939-11.525-9.455-15.024c-4.893-3.088-10.293-4.146-16-3.642c-4.777,0.422-9.156,1.935-12.931,4.977
		c-5.2,4.23-7.522,9.947-7.927,16.431c-0.474,7.564-0.544,15.13,0.327,22.698c0.694,5.998,2.796,11.324,7.44,15.44
		c0.291,0.249,0.528,0.688,0.528,1.038c0.062,2.305,0,4.609,0.053,6.917c0.026,0.915-0.324,1.223-1.196,1.406
		c-7.399,1.785-14.62,4.102-21.551,7.232c-5.014,2.25-9.825,4.85-13.861,8.67c-2.815,2.641-5.147,5.65-5.333,9.643
		c-0.218,4.432-0.055,20.621-0.055,25.104c29.559,0,59.073-0.001,88.589-0.005L158.618,152.155z M90,154.062
		c0,1.623-1.315,2.938-2.938,2.938H67.938c-1.623,0-2.938-1.315-2.938-2.938v-4.123c0-1.623,1.315-2.938,2.938-2.938h19.125
		c1.623,0,2.938,1.315,2.938,2.938V154.062z"/>
	<path d="M164.417,146.765c-0.047-1.023-0.323-2.069-0.689-3.07c-1.054,3.202-0.816,6.739,0.675,9.747l-18.236,18.236
		c4.114,0,8.229,0,12.344-0.001l5.979-5.979C164.512,159.113,164.537,149.883,164.417,146.765z"/>
</g>
<path d="M135.617,94.76c-0.076,1.478-0.237,2.883-0.459,4.24H151c1.381,0,2.5-1.119,2.5-2.5S152.381,94,151,94h-15.352
	C135.636,94.253,135.63,94.507,135.617,94.76z"/>
<g>
	<path d="M125.348,82c-2.467,0-5.348,1.59-5.348,6.07v13.852c0,4.167,2.199,7.078,5.348,7.078h0.13
		c0.205-0.238,0.408-0.477,0.599-0.727c1.032-1.349,1.836-2.784,2.481-4.273h-3.073c-0.193-0.258-0.484-1.022-0.484-2.078V88.07
		c0-0.732,0.143-1.025,0.129-1.049c0.027-0.007,0.096-0.021,0.219-0.021h5.518c0.031-1.667,0.054-3.333,0.065-5H125.348z"/>
	<path d="M184.5,52.5c-1.381,0-2.5,1.119-2.5,2.5v27.184c-0.504-0.117-1.016-0.184-1.521-0.184h-44.545
		c-0.013,1.657-0.034,3.325-0.064,5h44.609c0.636,0,1.521,0.407,1.521,1.07V90v11.922c0,0.947-1.068,2.049-1.523,2.078h-46.545
		c-0.609,1.786-1.395,3.444-2.332,5h48.879c3.353,0,6.521-3.44,6.521-7.078V90v-1.93V55C187,53.619,185.881,52.5,184.5,52.5z"/>
</g>
</svg>
