<?xml version="1.0" encoding="utf-8"?>
<!-- Generator: Adobe Illustrator 16.0.0, SVG Export Plug-In . SVG Version: 6.00 Build 0)  -->
<!DOCTYPE svg PUBLIC "-//W3C//DTD SVG 1.1//EN" "http://www.w3.org/Graphics/SVG/1.1/DTD/svg11.dtd">
<svg version="1.1" id="Layer_1" xmlns="http://www.w3.org/2000/svg" xmlns:xlink="http://www.w3.org/1999/xlink" x="0px" y="0px"
	 width="225px" height="225px" viewBox="0 0 225 225" enable-background="new 0 0 225 225" xml:space="preserve">
<g>
	<circle fill="#FF8158" cx="5346.54" cy="217.932" r="112.265"/>
</g>
<g>
	<rect x="5270" y="201" fill="#FFFFFF" width="102" height="15"/>
	<path fill="none" stroke="#FFFFFF" stroke-width="5" stroke-miterlimit="10" d="M5373,243.73c0,5.578-4.339,10.729-9.189,10.729
		h-84.082c-4.855,0-10.104-5.151-10.104-10.729v-50.491c0-5.577,5.249-9.222,10.104-9.222h84.082c4.852,0,9.189,3.645,9.189,9.222
		V243.73z"/>
</g>
<path fill="none" stroke="#FFFFFF" stroke-width="5" stroke-linecap="round" stroke-miterlimit="10" d="M5406.875,171.34
	c26.049,26.053,28.023,67.061,5.924,95.379"/>
<path fill="none" stroke="#FFFFFF" stroke-width="5" stroke-linecap="round" stroke-miterlimit="10" d="M5396.32,185.959
	c17.926,17.924,19.283,46.143,4.078,65.629"/>
<path fill="none" stroke="#FFFFFF" stroke-width="5" stroke-linecap="round" stroke-miterlimit="10" d="M5388.336,202.912
	c8.805,8.804,9.475,22.666,2.004,32.234"/>
<g>
	<path fill="none" d="M151,94c1.381,0,2.5,1.119,2.5,2.5S152.381,99,151,99h-15.842c-0.288,1.762-0.69,3.431-1.227,5h46.545
		c0.455-0.029,1.523-1.131,1.523-2.078V90v-1.93c0-0.663-0.886-1.07-1.521-1.07h-44.609c-0.042,2.327-0.111,4.665-0.221,7H151z
		 M174.5,94c1.381,0,2.5,1.119,2.5,2.5s-1.119,2.5-2.5,2.5s-2.5-1.119-2.5-2.5S173.119,94,174.5,94z M164.5,94
		c1.381,0,2.5,1.119,2.5,2.5s-1.119,2.5-2.5,2.5s-2.5-1.119-2.5-2.5S163.119,94,164.5,94z"/>
	<path d="M153.5,96.5c0-1.381-1.119-2.5-2.5-2.5h-15.352c-0.013,0.253-0.019,0.507-0.031,0.76c-0.076,1.478-0.237,2.883-0.459,4.24
		H151C152.381,99,153.5,97.881,153.5,96.5z"/>
	<circle cx="164.5" cy="96.5" r="2.5"/>
	<circle cx="174.5" cy="96.5" r="2.5"/>
	<path d="M184.5,52.5c-1.381,0-2.5,1.119-2.5,2.5v27.184c-0.504-0.117-1.016-0.184-1.521-0.184h-44.545
		c-0.013,1.657-0.034,3.325-0.064,5h44.609c0.636,0,1.521,0.407,1.521,1.07V90v11.922c0,0.947-1.068,2.049-1.523,2.078h-46.545
		c-0.609,1.786-1.395,3.444-2.332,5h48.879c3.353,0,6.521-3.44,6.521-7.078V90v-1.93V55C187,53.619,185.881,52.5,184.5,52.5z"/>
</g>
<path d="M156.283,171.284v-7.682c0-4.349,1.304-6.014,6.449-9.854c2.608-2.03,3.912-3.771,3.912-7.248
	c0-4.781-2.825-8.188-7.754-8.188c-4.927,0-7.535,3.406-7.535,7.971h-5.436c0.363-7.681,5.291-12.537,13.044-12.537
	c7.971,0,13.116,4.927,13.116,12.971c0,4.712-1.667,7.174-4.638,9.782c-4.276,3.841-5.726,3.623-5.726,7.103v7.682H156.283z
	 M159.606,174.155c2.319,0,4.314,1.779,4.314,4.152s-1.995,4.207-4.314,4.207c-2.373,0-4.368-1.834-4.368-4.207
	S157.287,174.155,159.606,174.155z"/>
<g>
	<path d="M164.497,152.188c-0.501,0.524-1.087,1.034-1.765,1.562c-5.146,3.84-6.449,5.505-6.449,9.854v7.682h5.434v-7.682
		c0-2.512,0.762-3.103,2.79-4.678C164.51,156.57,164.508,154.232,164.497,152.188z"/>
	<path d="M145.92,146.284h5.436c0-4.564,2.608-7.971,7.535-7.971c0.613,0,1.193,0.053,1.739,0.154
		c-1.351-1.542-2.943-2.873-4.62-4.106c-0.127-0.093-0.258-0.177-0.385-0.269C149.821,135.31,146.228,139.776,145.92,146.284z"/>
	<path d="M151.283,171.284v-7.682c0-6.484,2.481-9.396,8.416-13.829c1.867-1.458,1.945-1.888,1.945-3.272
		c0-3.188-1.86-3.188-2.754-3.188c-0.948,0-2.535,0-2.535,2.971c0,2.762-2.238,5-5,5h-5.436c-1.367,0-2.675-0.56-3.618-1.549
		s-1.44-2.322-1.376-3.688c0.335-7.093,3.849-12.589,9.341-15.346c-3.517-1.954-7.221-3.548-11.031-4.87
		c-5.19-1.817-10.513-3.258-15.755-4.873c-0.36-0.133-0.905-0.442-0.914-0.689c-0.098-2.494-0.115-4.993-0.079-7.493
		c0-0.388,0.326-0.864,0.614-1.18c0.969-1.125,2.076-2.144,2.975-3.323c3.097-4.047,4.291-8.822,4.548-13.772
		c0.309-6.039,0.309-12.089,0.341-18.121c0-1.859-0.193-3.742-0.5-5.585c-1.063-6.3-3.939-11.525-9.455-15.024
		c-4.893-3.088-10.293-4.146-16-3.642c-4.777,0.422-9.156,1.935-12.931,4.977c-5.2,4.23-7.522,9.947-7.927,16.431
		c-0.474,7.564-0.544,15.13,0.327,22.698c0.694,5.998,2.796,11.324,7.44,15.44c0.291,0.249,0.528,0.688,0.528,1.038
		c0.062,2.305,0,4.609,0.053,6.917c0.026,0.915-0.324,1.223-1.196,1.406c-7.399,1.785-14.62,4.102-21.551,7.232
		c-5.014,2.25-9.825,4.85-13.861,8.67c-2.815,2.641-5.147,5.65-5.333,9.643c-0.218,4.432-0.055,20.621-0.055,25.104
		c33.635,0,67.212-0.001,100.8-0.007C151.294,171.547,151.283,171.417,151.283,171.284z M90,154.062
		c0,1.623-1.315,2.938-2.938,2.938H67.938c-1.623,0-2.938-1.315-2.938-2.938v-4.123c0-1.623,1.315-2.938,2.938-2.938h19.125
		c1.623,0,2.938,1.315,2.938,2.938V154.062z"/>
</g>
</svg>
