<?xml version="1.0" encoding="utf-8"?>
<!-- Generator: Adobe Illustrator 16.0.0, SVG Export Plug-In . SVG Version: 6.00 Build 0)  -->
<!DOCTYPE svg PUBLIC "-//W3C//DTD SVG 1.1//EN" "http://www.w3.org/Graphics/SVG/1.1/DTD/svg11.dtd">
<svg version="1.1" id="Layer_1" xmlns="http://www.w3.org/2000/svg" xmlns:xlink="http://www.w3.org/1999/xlink" x="0px" y="0px"
	 width="225px" height="225px" viewBox="0 0 225 225" enable-background="new 0 0 225 225" xml:space="preserve">
<path fill="#010000" d="M167,96.5c0,1.381-1.119,2.5-2.5,2.5l0,0c-1.381,0-2.5-1.119-2.5-2.5l0,0c0-1.381,1.119-2.5,2.5-2.5l0,0
	C165.881,94,167,95.119,167,96.5L167,96.5z"/>
<path fill="#010000" d="M177,96.5c0,1.381-1.119,2.5-2.5,2.5l0,0c-1.381,0-2.5-1.119-2.5-2.5l0,0c0-1.381,1.119-2.5,2.5-2.5l0,0
	C175.881,94,177,95.119,177,96.5L177,96.5z"/>
<path fill="none" d="M114.943,53.044c-0.403-0.119-0.811-0.224-1.217-0.322C114.134,52.82,114.54,52.925,114.943,53.044z"/>
<path fill="none" d="M111.201,52.24c-0.635-0.084-1.275-0.143-1.919-0.181C109.926,52.097,110.566,52.156,111.201,52.24z"/>
<path fill="none" d="M106.867,52.026c-0.629,0.017-1.261,0.046-1.898,0.103C105.606,52.073,106.238,52.043,106.867,52.026z"/>
<path fill="none" d="M113.082,52.568c-0.504-0.106-1.013-0.193-1.524-0.269C112.069,52.375,112.578,52.462,113.082,52.568z"/>
<path fill="none" d="M107.27,52.017c0.5-0.007,0.995,0.006,1.489,0.026c-0.37-0.015-0.739-0.035-1.113-0.035
	C107.521,52.008,107.395,52.015,107.27,52.017z"/>
<path fill="#F95428" d="M109.281,52.06c-0.173-0.01-0.349-0.01-0.522-0.017C108.933,52.05,109.108,52.049,109.281,52.06z"/>
<path fill="#F95428" d="M113.727,52.722c-0.215-0.052-0.428-0.108-0.645-0.154C113.299,52.614,113.512,52.67,113.727,52.722z"/>
<path fill="#F95428" d="M115.639,53.264c-0.23-0.076-0.463-0.151-0.695-0.22C115.176,53.113,115.407,53.188,115.639,53.264z"/>
<path fill="#F95428" d="M111.201,52.24c0.12,0.016,0.238,0.042,0.357,0.06C111.438,52.282,111.32,52.256,111.201,52.24z"/>
<path fill="#F95428" d="M106.867,52.026c0.135-0.004,0.269-0.008,0.403-0.009C107.136,52.019,107.001,52.022,106.867,52.026z"/>
<path fill="#010000" d="M187.482,142.704l-8.045,8.044c-0.771,0.771-2.736,1.984-3.508,1.215l-3.382-3.382
	c-0.771-0.769-0.053-3.233,0.718-4.003l8.226-8.229c-4.716-2.336-10.73-1.606-14.716,2.377c-3.982,3.98-4.711,10-2.373,14.715
	l-23.537,23.537c-0.268-0.03-0.537-0.052-0.812-0.052c-3.852,0-6.973,3.121-6.973,6.974c0,3.851,3.121,6.972,6.973,6.972
	c3.851,0,6.972-3.121,6.972-6.972c0-0.237-0.013-0.474-0.035-0.705l23.764-23.764c4.852,2.198,10.242,1.109,14.04-2.688
	C188.59,152.947,189.684,147.557,187.482,142.704z M139.963,187.122c-1.773,0-3.211-1.438-3.211-3.21
	c0-1.773,1.438-3.212,3.211-3.212s3.211,1.438,3.211,3.212C143.174,185.686,141.736,187.122,139.963,187.122z"/>
<path fill="#010000" d="M135.617,94.76c-0.076,1.479-0.237,2.883-0.459,4.24H151c1.381,0,2.5-1.119,2.5-2.5S152.381,94,151,94
	h-15.352C135.636,94.253,135.63,94.507,135.617,94.76z"/>
<g>
	<path fill="#010000" d="M160.652,138.493c-1.355-1.554-2.957-2.892-4.644-4.132c-5.12-3.745-10.819-6.463-16.774-8.529
		c-5.189-1.816-10.513-3.258-15.754-4.873c-0.36-0.133-0.905-0.441-0.914-0.689c-0.099-2.494-0.115-4.992-0.08-7.493
		c0-0.388,0.326-0.864,0.615-1.18c0.764-0.887,1.609-1.711,2.376-2.597h0.001c0.205-0.238,0.407-0.477,0.599-0.727
		c0.327-0.428,0.624-0.868,0.908-1.312c0.118-0.183,0.231-0.368,0.343-0.553c0.135-0.227,0.262-0.457,0.387-0.688
		c0.295-0.54,0.564-1.088,0.809-1.645c0.012-0.025,0.024-0.05,0.035-0.075h-0.001c1.29-2.98,1.896-6.197,2.066-9.498
		c0.128-2.5,0.195-5.001,0.242-7.502h0.001c0.001-0.05,0.001-0.1,0.002-0.15c0.029-1.608,0.051-3.216,0.062-4.824
		c0-0.008,0-0.017,0-0.025l0,0c0.014-1.874,0.023-3.748,0.033-5.619c0-1.859-0.193-3.742-0.5-5.585
		c-1.062-6.3-3.939-11.525-9.455-15.024c-4.893-3.088-10.293-4.146-16-3.642c-4.777,0.422-9.156,1.935-12.931,4.977
		c-5.2,4.23-7.522,9.947-7.927,16.431c-0.474,7.564-0.544,15.13,0.327,22.698c0.694,5.998,2.796,11.324,7.44,15.44
		c0.291,0.249,0.528,0.688,0.528,1.038c0.062,2.306,0,4.609,0.053,6.917c0.026,0.915-0.324,1.223-1.196,1.406
		c-7.398,1.785-14.62,4.102-21.551,7.232c-5.014,2.25-9.825,4.85-13.861,8.67c-2.815,2.641-5.147,5.649-5.333,9.643
		c-0.218,4.432-0.055,20.621-0.055,25.104c29.559,0,59.073,0,88.589-0.004l19.525-19.526
		C157.422,147.499,158.167,142.568,160.652,138.493z M90.001,154.062L90.001,154.062C90,155.686,88.685,157,87.062,157H67.938
		c-1.623,0-2.938-1.314-2.938-2.938v-4.123c0-1.623,1.315-2.938,2.938-2.938h19.125c1.623,0,2.938,1.315,2.938,2.938V154.062z"/>
	<path fill="#010000" d="M184.5,52.5c-1.381,0-2.5,1.119-2.5,2.5v27.184c-0.504-0.117-1.016-0.184-1.521-0.184h-44.545
		c-0.013,1.657-0.033,3.325-0.063,5h44.608c0.637,0,1.521,0.407,1.521,1.07V90v11.922c0,0.947-1.068,2.049-1.523,2.078h-46.545
		c-0.608,1.786-1.395,3.444-2.332,5h48.879c3.354,0,6.521-3.44,6.521-7.078V90v-1.93V55C187,53.619,185.881,52.5,184.5,52.5z"/>
</g>
</svg>
