<?xml version="1.0" encoding="utf-8"?>
<!-- Generator: Adobe Illustrator 16.0.0, SVG Export Plug-In . SVG Version: 6.00 Build 0)  -->
<!DOCTYPE svg PUBLIC "-//W3C//DTD SVG 1.1//EN" "http://www.w3.org/Graphics/SVG/1.1/DTD/svg11.dtd">
<svg version="1.1" id="Layer_1" xmlns="http://www.w3.org/2000/svg" xmlns:xlink="http://www.w3.org/1999/xlink" x="0px" y="0px"
	 width="225px" height="225px" viewBox="0 0 225 225" enable-background="new 0 0 225 225" xml:space="preserve">
<path fill="#ffffff" d="M163.092,142.242c-1.549-3.344-4.222-5.746-7.123-7.881c-5.119-3.745-10.818-6.463-16.773-8.529
	c-5.19-1.816-10.514-3.258-15.756-4.873c-0.359-0.133-0.904-0.441-0.914-0.689c-0.098-2.494-0.114-4.992-0.078-7.493
	c0-0.388,0.326-0.864,0.613-1.18c0.97-1.125,2.076-2.144,2.976-3.323c1.467-1.917,2.495-4,3.211-6.186
	c5.833-1.5,10.151-6.778,10.151-13.081c0-2.658-0.775-5.13-2.103-7.218c1.015-3.083,1.569-6.371,1.569-9.789
	c0-17.33-14.1-31.429-31.43-31.429c-17.33,0-31.429,14.099-31.429,31.429c0,2.901,0.403,5.708,1.143,8.377
	c-1.952,2.34-3.135,5.342-3.135,8.629c0,6.317,5.174,11.603,11.287,13.088l0.252-0.135c0.044,0.083,0.101,0.155,0.146,0.236
	c0.007,0.001,0.014,0.004,0.021,0.005c0.007,0.023,0.017,0.045,0.024,0.068c2.487,4.4,6.878,7.196,11.738,7.684V109.9
	c0-1.256,1.019-2.274,2.275-2.274h8.529c1.257,0,2.275,1.019,2.275,2.274v4.354c0,1.256-1.018,2.273-2.275,2.273h-8.529
	c-0.996,0-1.833-0.644-2.141-1.532c-1.788-0.122-3.532-0.484-5.197-1.058c0.021,1.896-0.001,3.793,0.042,5.689
	c0.026,0.915-0.324,1.223-1.196,1.406c-7.399,1.785-14.62,4.102-21.551,7.232c-5.014,2.25-9.825,4.85-13.861,8.67
	c-2.815,2.641-5.147,5.649-5.333,9.643c-0.218,4.432-0.055,20.621-0.055,25.104c38.03,0,75.984,0,113.967-0.009
	c0-4.431,0.112-20.577-0.055-24.911C164.307,145.232,163.742,143.641,163.092,142.242z M89.845,154.834c0,1.104-0.896,2-2,2h-21
	c-1.104,0-2-0.896-2-2v-6.253c0-1.104,0.896-2,2-2h21c1.104,0,2,0.896,2,2V154.834z M109.281,52.06
	c-0.173-0.01-0.349-0.01-0.522-0.017c-0.494-0.02-0.989-0.033-1.489-0.026c-0.134,0.001-0.269,0.005-0.403,0.009
	c-0.629,0.017-1.261,0.046-1.898,0.103c-4.777,0.422-9.156,1.935-12.931,4.977c-5.2,4.23-7.522,9.947-7.927,16.431
	c-0.051,0.812-0.095,1.626-0.136,2.438c-0.873,0.238-1.706,0.57-2.499,0.969c-0.305-1.603-0.471-3.254-0.471-4.944
	c0-14.573,11.856-26.429,26.429-26.429c14.574,0,26.43,11.855,26.43,26.429c0,1.953-0.22,3.854-0.623,5.688
	c-0.729-0.475-1.502-0.889-2.319-1.218c0.001-0.03,0.001-0.06,0.001-0.09c0-1.859-0.192-3.742-0.5-5.585
	c-1.063-6.3-3.938-11.525-9.455-15.024c-0.567-0.359-1.146-0.684-1.728-0.989c-0.188-0.099-0.381-0.185-0.571-0.278
	c-0.397-0.196-0.799-0.384-1.203-0.556c-0.224-0.095-0.448-0.182-0.675-0.271c-0.383-0.147-0.768-0.287-1.153-0.415
	c-0.23-0.076-0.463-0.151-0.694-0.22c-0.403-0.119-0.811-0.224-1.217-0.322c-0.216-0.052-0.429-0.108-0.646-0.154
	c-0.504-0.106-1.013-0.193-1.524-0.269c-0.12-0.018-0.238-0.043-0.357-0.06C110.566,52.156,109.926,52.097,109.281,52.06z"/>
<circle fill="#ffffff" cx="164.5" cy="96.5" r="2.5"/>
<circle fill="#ffffff" cx="174.5" cy="96.5" r="2.5"/>
<path fill="none" d="M116.792,53.678c-0.383-0.147-0.767-0.287-1.153-0.415C116.025,53.391,116.409,53.53,116.792,53.678z"/>
<path fill="none" d="M114.943,53.044c-0.403-0.119-0.811-0.224-1.217-0.322C114.134,52.82,114.54,52.925,114.943,53.044z"/>
<path fill="none" d="M118.67,54.503c-0.398-0.196-0.799-0.384-1.203-0.556C117.871,54.119,118.271,54.308,118.67,54.503z"/>
<path fill="none" d="M111.201,52.24c-0.635-0.084-1.275-0.143-1.919-0.181C109.926,52.097,110.566,52.156,111.201,52.24z"/>
<path fill="none" d="M120.969,55.771c-0.568-0.359-1.146-0.684-1.728-0.989C119.823,55.086,120.4,55.412,120.969,55.771z"/>
<path fill="none" d="M106.867,52.026c-0.629,0.017-1.261,0.046-1.898,0.103C105.606,52.073,106.238,52.043,106.867,52.026z"/>
<path fill="none" d="M113.082,52.568c-0.504-0.106-1.013-0.193-1.524-0.269C112.069,52.375,112.578,52.462,113.082,52.568z"/>
<path fill="none" d="M107.27,52.017c0.5-0.007,0.995,0.006,1.489,0.026c-0.37-0.015-0.739-0.035-1.113-0.035
	C107.521,52.008,107.395,52.015,107.27,52.017z"/>
<path fill="#ffffff" d="M184.5,52.5c-1.381,0-2.5,1.119-2.5,2.5v27.184c-0.504-0.117-1.016-0.184-1.521-0.184h-37.491
	c0.657,1.601,1.112,3.276,1.302,5h36.189c0.637,0,1.521,0.407,1.521,1.07V90v11.922c0,0.947-1.068,2.049-1.523,2.078h-43.744
	c-1.123,0.812-2.344,1.507-3.65,2.058c-0.446,1.025-0.955,2.005-1.516,2.942h48.912c3.354,0,6.521-3.44,6.521-7.078V90v-1.93V55
	C187,53.619,185.881,52.5,184.5,52.5z"/>
<path fill="#F95428" d="M119.241,54.782c-0.188-0.099-0.382-0.185-0.571-0.278C118.859,54.597,119.053,54.683,119.241,54.782z"/>
<path fill="#F95428" d="M109.281,52.06c-0.173-0.01-0.349-0.01-0.522-0.017C108.933,52.05,109.108,52.049,109.281,52.06z"/>
<path fill="#F95428" d="M117.467,53.948c-0.224-0.095-0.449-0.182-0.675-0.271C117.018,53.766,117.243,53.853,117.467,53.948z"/>
<path fill="#F95428" d="M113.727,52.722c-0.215-0.052-0.428-0.108-0.645-0.154C113.299,52.614,113.512,52.67,113.727,52.722z"/>
<path fill="#F95428" d="M115.639,53.264c-0.23-0.076-0.463-0.151-0.695-0.22C115.176,53.113,115.407,53.188,115.639,53.264z"/>
<path fill="#F95428" d="M111.201,52.24c0.12,0.016,0.238,0.042,0.357,0.06C111.438,52.282,111.32,52.256,111.201,52.24z"/>
<path fill="#F95428" d="M106.867,52.026c0.135-0.004,0.269-0.008,0.403-0.009C107.136,52.019,107.001,52.022,106.867,52.026z"/>
<path fill="#ffffff" d="M151,94h-6.66c-0.443,1.798-1.17,3.481-2.14,5h8.8c1.381,0,2.5-1.119,2.5-2.5S152.381,94,151,94z"/>
</svg>
