<?xml version="1.0" encoding="utf-8"?>
<!-- Generator: Adobe Illustrator 16.0.0, SVG Export Plug-In . SVG Version: 6.00 Build 0)  -->
<!DOCTYPE svg PUBLIC "-//W3C//DTD SVG 1.1//EN" "http://www.w3.org/Graphics/SVG/1.1/DTD/svg11.dtd">
<svg version="1.1" id="Layer_1" xmlns="http://www.w3.org/2000/svg" xmlns:xlink="http://www.w3.org/1999/xlink" x="0px" y="0px"
	 width="225px" height="225px" viewBox="0 0 225 225" enable-background="new 0 0 225 225" xml:space="preserve">
<path fill="#060000" d="M161.637,165.051c-0.047,0-0.094-0.001-0.141-0.004l-16.184-0.909c-1.317-0.073-2.353-1.159-2.359-2.479
	l-0.051-8.272l-9.497,0.105c-0.009,0-0.02,0-0.028,0c-1.355,0-2.468-1.084-2.498-2.444l-0.204-9.064l-9.851,0.416
	c-0.697,0.014-1.379-0.235-1.873-0.73l-10.518-10.518c-3.679,1.361-7.457,2.051-11.255,2.051c-8.709,0-17.196-3.69-23.896-10.391
	c-13.37-13.372-13.354-35.144,0.039-48.536c6.346-6.345,14.742-9.84,23.643-9.84c9.151,0,17.831,3.641,24.442,10.252
	c9.599,9.597,12.541,23.125,7.872,35.665l33.196,33.198c0.437,0.437,0.694,1.019,0.729,1.634l0.93,17.233
	c0.038,0.71-0.228,1.401-0.729,1.904C162.934,164.789,162.297,165.051,161.637,165.051z M147.938,159.277l11.053,0.621
	l-0.729-13.491l-33.685-33.687c-0.724-0.722-0.933-1.811-0.531-2.75c4.722-11.055,2.354-23.221-6.176-31.75
	c-5.667-5.667-13.092-8.788-20.907-8.788c-7.565,0-14.706,2.975-20.107,8.375c-11.442,11.442-11.459,30.042-0.038,41.463
	c5.756,5.756,12.987,8.927,20.36,8.927c3.668,0,7.329-0.769,10.88-2.28c0.939-0.398,2.026-0.188,2.748,0.532l10.904,10.903
	l11.302-0.477c0.667-0.021,1.324,0.215,1.815,0.674c0.489,0.46,0.774,1.098,0.789,1.77l0.206,9.142l9.537-0.104
	c0.645-0.029,1.306,0.25,1.779,0.717c0.475,0.467,0.743,1.103,0.747,1.768L147.938,159.277z M91.335,107.026
	c-3.777,0-7.327-1.471-9.996-4.142c-2.672-2.669-4.145-6.22-4.145-9.997c0-3.776,1.472-7.326,4.144-9.996
	c2.669-2.671,6.22-4.142,9.997-4.142c3.775,0,7.326,1.471,9.998,4.143c5.511,5.511,5.511,14.479,0,19.992
	C98.662,105.555,95.111,107.026,91.335,107.026z M91.335,83.75c-2.44,0-4.735,0.951-6.461,2.678
	c-1.728,1.727-2.679,4.021-2.679,6.459c0,2.44,0.952,4.735,2.679,6.461c1.727,1.727,4.02,2.677,6.461,2.677
	c2.44,0,4.736-0.951,6.462-2.677c3.561-3.562,3.562-9.359,0-12.921C96.07,84.701,93.775,83.75,91.335,83.75z"/>
</svg>
