<?xml version="1.0" encoding="utf-8"?>
<!-- Generator: Adobe Illustrator 16.0.0, SVG Export Plug-In . SVG Version: 6.00 Build 0)  -->
<!DOCTYPE svg PUBLIC "-//W3C//DTD SVG 1.1//EN" "http://www.w3.org/Graphics/SVG/1.1/DTD/svg11.dtd">
<svg version="1.1" id="Layer_1" xmlns="http://www.w3.org/2000/svg" xmlns:xlink="http://www.w3.org/1999/xlink" x="0px" y="0px"
	 width="225.07px" height="225.07px" viewBox="0 0 225.07 225.07" enable-background="new 0 0 225.07 225.07" xml:space="preserve">
<g>
	<g>
		<path fill="#ffffff" d="M171.002,172.284H53.8c-7.995,0-14.5-5.801-14.5-12.932V116.55c0-7.13,6.505-12.931,14.5-12.931h117.202
			c7.994,0,14.5,5.801,14.5,12.931v42.803C185.502,166.483,178.996,172.284,171.002,172.284z M53.8,108.619
			c-5.238,0-9.5,3.558-9.5,7.931v42.803c0,4.373,4.262,7.932,9.5,7.932h117.202c5.238,0,9.5-3.559,9.5-7.932V116.55
			c0-4.373-4.262-7.931-9.5-7.931H53.8z"/>
	</g>
	<path fill="#ffffff" d="M58.601,158.377c0,0.552,0.448,1,1,1h9c0.552,0,1-0.448,1-1v-7c0-0.552-0.448-1-1-1h-9
		c-0.552,0-1,0.448-1,1V158.377z"/>
	<path fill="#ffffff" d="M58.601,126.377c0,0.552,0.448,1,1,1h9c0.552,0,1-0.448,1-1v-7c0-0.552-0.448-1-1-1h-9
		c-0.552,0-1,0.448-1,1V126.377z"/>
	<path fill="#ffffff" d="M156.602,126.377c0,0.552,0.447,1,1,1h9c0.551,0,1-0.448,1-1v-7c0-0.552-0.449-1-1-1h-9
		c-0.553,0-1,0.448-1,1V126.377z"/>
	<path fill="#ffffff" d="M106.651,126.377c0,0.552,0.447,1,1,1h9c0.553,0,1-0.448,1-1v-7c0-0.552-0.447-1-1-1h-9
		c-0.553,0-1,0.448-1,1V126.377z"/>
	<path fill="#ffffff" d="M139.65,126.377c0,0.552,0.447,1,1,1h9c0.553,0,1-0.448,1-1v-7c0-0.552-0.447-1-1-1h-9
		c-0.553,0-1,0.448-1,1V126.377z"/>
	<path fill="#ffffff" d="M122.65,126.377c0,0.552,0.447,1,1,1h9c0.553,0,1-0.448,1-1v-7c0-0.552-0.447-1-1-1h-9
		c-0.553,0-1,0.448-1,1V126.377z"/>
	<path fill="#ffffff" d="M90.651,126.377c0,0.552,0.447,1,1,1h9c0.552,0,1-0.448,1-1v-7c0-0.552-0.448-1-1-1h-9
		c-0.553,0-1,0.448-1,1V126.377z"/>
	<path fill="#ffffff" d="M74.651,126.377c0,0.552,0.447,1,1,1h9c0.552,0,1-0.448,1-1v-7c0-0.552-0.448-1-1-1h-9
		c-0.553,0-1,0.448-1,1V126.377z"/>
	<g>
		<path fill="#ffffff" d="M98.401,142.451c0,0.552,0.447,1,1,1h9c0.552,0,1-0.448,1-1v-7c0-0.552-0.448-1-1-1h-9
			c-0.553,0-1,0.448-1,1V142.451z"/>
		<path fill="#ffffff" d="M131.4,142.451c0,0.552,0.447,1,1,1h9c0.553,0,1-0.448,1-1v-7c0-0.552-0.447-1-1-1h-9
			c-0.553,0-1,0.448-1,1V142.451z"/>
		<path fill="#ffffff" d="M147.4,142.451c0,0.552,0.447,1,1,1h9c0.553,0,1-0.448,1-1v-7c0-0.552-0.447-1-1-1h-9
			c-0.553,0-1,0.448-1,1V142.451z"/>
		<path fill="#ffffff" d="M114.4,142.451c0,0.552,0.447,1,1,1h9c0.553,0,1-0.448,1-1v-7c0-0.552-0.447-1-1-1h-9
			c-0.553,0-1,0.448-1,1V142.451z"/>
		<path fill="#ffffff" d="M82.401,142.451c0,0.552,0.447,1,1,1h9c0.552,0,1-0.448,1-1v-7c0-0.552-0.448-1-1-1h-9
			c-0.553,0-1,0.448-1,1V142.451z"/>
		<path fill="#ffffff" d="M66.401,142.451c0,0.552,0.447,1,1,1h9c0.552,0,1-0.448,1-1v-7c0-0.552-0.448-1-1-1h-9
			c-0.553,0-1,0.448-1,1V142.451z"/>
	</g>
	<path fill="#ffffff" d="M156.602,158.377c0,0.552,0.447,1,1,1h9c0.551,0,1-0.448,1-1v-7c0-0.552-0.449-1-1-1h-9
		c-0.553,0-1,0.448-1,1V158.377z"/>
	<path fill="#ffffff" d="M76.267,158.377c0,0.552,0.448,1,1,1h70.834c0.551,0,1-0.448,1-1v-7c0-0.552-0.449-1-1-1H77.267
		c-0.552,0-1,0.448-1,1V158.377z"/>
	<g>
		<path fill="#ffffff" d="M155.91,106.102c-0.609-11.467-8.455-21.251-19.412-24.402c-4.873-1.401-9.727-1.028-14.25-3.685
			c-3.729-2.188-5.92-6.137-7.121-10.152c-1.238-4.129-1.484-8.976-0.771-13.244c0.316-1.892-2.574-2.703-2.892-0.798
			c-1.731,10.352,1.024,22.609,10.994,27.732c4.143,2.128,8.818,1.976,13.242,3.04c4.961,1.192,9.287,4.188,12.326,8.246
			c2.75,3.675,4.639,8.643,4.885,13.263C153.012,108.026,156.012,108.036,155.91,106.102L155.91,106.102z"/>
	</g>
</g>
</svg>
