<?xml version="1.0" encoding="utf-8"?>
<!-- Generator: Adobe Illustrator 16.0.0, SVG Export Plug-In . SVG Version: 6.00 Build 0)  -->
<!DOCTYPE svg PUBLIC "-//W3C//DTD SVG 1.1//EN" "http://www.w3.org/Graphics/SVG/1.1/DTD/svg11.dtd">
<svg version="1.1" id="Layer_1" xmlns="http://www.w3.org/2000/svg" xmlns:xlink="http://www.w3.org/1999/xlink" x="0px" y="0px"
	 width="225px" height="225px" viewBox="0 0 225 225" enable-background="new 0 0 225 225" xml:space="preserve">
<path d="M93.449,129.098H75.462h-25.99c-2.761,0-5,2.238-5,5v24.107c0,2.762,2.239,5,5,5h19.489v5.473H58.718
	c-1.381,0-2.5,1.119-2.5,2.5s1.119,2.5,2.5,2.5h25.476c1.381,0,2.5-1.119,2.5-2.5s-1.119-2.5-2.5-2.5H73.961v-5.473h19.488
	c2.761,0,5-2.238,5-5v-16.561v-7.547C98.449,131.336,96.21,129.098,93.449,129.098z M93.449,141.645v16.561H49.472v-24.107h25.99
	h17.987V141.645z"/>
<path d="M134.188,53.235h-17.986h-25.99c-2.761,0-5,2.239-5,5v24.106c0,2.761,2.239,5,5,5h19.489v5.474H99.458
	c-1.381,0-2.5,1.119-2.5,2.5s1.119,2.5,2.5,2.5h25.476c1.381,0,2.5-1.119,2.5-2.5s-1.119-2.5-2.5-2.5h-10.232v-5.474h19.486
	c2.762,0,5-2.239,5-5V65.781v-7.546C139.188,55.474,136.949,53.235,134.188,53.235z M134.188,65.781v16.561H90.211V58.235h25.99
	h17.986V65.781z"/>
<path d="M174.577,129.098H156.59h-25.989c-2.762,0-5,2.238-5,5v24.107c0,2.762,2.238,5,5,5h20.489v6.023h-10.243
	c-1.381,0-2.5,1.119-2.5,2.5s1.119,2.5,2.5,2.5h25.476c1.381,0,2.5-1.119,2.5-2.5s-1.119-2.5-2.5-2.5H156.09v-6.023h18.487
	c2.762,0,5-2.238,5-5v-16.561v-7.547C179.577,131.336,177.339,129.098,174.577,129.098z M174.577,141.645v16.561h-43.977v-24.107
	h25.989h17.987V141.645z"/>
<path d="M152.699,110.375h-38.5v-5c0-1.381-1.119-2.5-2.5-2.5c-1.381,0-2.5,1.119-2.5,2.5v5H71.7c-1.381,0-2.5,1.119-2.5,2.5v9.5
	c0,1.381,1.119,2.5,2.5,2.5s2.5-1.119,2.5-2.5v-7h76v7c0,1.381,1.119,2.5,2.5,2.5s2.5-1.119,2.5-2.5v-9.5
	C155.199,111.494,154.08,110.375,152.699,110.375z"/>
<g>
</g>
<g>
</g>
<g>
</g>
<g>
</g>
<g>
</g>
<g>
</g>
<g>
</g>
<g>
</g>
<g>
</g>
<g>
</g>
<g>
</g>
<g>
</g>
<g>
</g>
<g>
</g>
<g>
</g>
</svg>
