<?xml version="1.0" encoding="utf-8"?>
<!-- Generator: Adobe Illustrator 16.0.0, SVG Export Plug-In . SVG Version: 6.00 Build 0)  -->
<!DOCTYPE svg PUBLIC "-//W3C//DTD SVG 1.1//EN" "http://www.w3.org/Graphics/SVG/1.1/DTD/svg11.dtd">
<svg version="1.1" id="Layer_1" xmlns="http://www.w3.org/2000/svg" xmlns:xlink="http://www.w3.org/1999/xlink" x="0px" y="0px"
	 width="225px" height="225px" viewBox="0 0 225 225" enable-background="new 0 0 225 225" xml:space="preserve">
<g>
	<circle fill="#FF8158" cx="5346.54" cy="217.932" r="112.265"/>
</g>
<g>
	<rect x="5270" y="201" fill="#FFFFFF" width="102" height="15"/>
	<path fill="none" stroke="#FFFFFF" stroke-width="5" stroke-miterlimit="10" d="M5373,243.73c0,5.578-4.339,10.729-9.189,10.729
		h-84.082c-4.855,0-10.104-5.151-10.104-10.729v-50.491c0-5.577,5.249-9.222,10.104-9.222h84.082c4.852,0,9.189,3.645,9.189,9.222
		V243.73z"/>
</g>
<path fill="none" stroke="#FFFFFF" stroke-width="5" stroke-linecap="round" stroke-miterlimit="10" d="M5406.875,171.34
	c26.049,26.053,28.023,67.061,5.924,95.379"/>
<path fill="none" stroke="#FFFFFF" stroke-width="5" stroke-linecap="round" stroke-miterlimit="10" d="M5396.32,185.959
	c17.926,17.924,19.283,46.143,4.078,65.629"/>
<path fill="none" stroke="#FFFFFF" stroke-width="5" stroke-linecap="round" stroke-miterlimit="10" d="M5388.336,202.912
	c8.805,8.804,9.475,22.666,2.004,32.234"/>
<g>
	<path d="M169.787,69.02v19.546v42.887H54.314V69.02h68.252H169.787 M169.787,64.02h-47.221H54.314c-2.761,0-5,2.239-5,5v62.434
		c0,2.762,2.239,5,5,5h115.473c2.762,0,5-2.238,5-5V88.566V69.02C174.787,66.258,172.549,64.02,169.787,64.02L169.787,64.02z"/>
	<path d="M190.349,155.6l-13.99-9.848c-0.675-0.475-1.479-0.729-2.303-0.729H51.619c-0.717,0-1.422,0.193-2.039,0.559l-16.619,9.848
		c-1.55,0.919-2.295,2.761-1.819,4.499c0.477,1.737,2.056,2.942,3.858,2.942h153.046c1.744,0,3.287-1.13,3.813-2.792
		C192.386,158.415,191.774,156.603,190.349,155.6z"/>
</g>
</svg>
