<?xml version="1.0" encoding="utf-8"?>
<!-- Generator: Adobe Illustrator 16.0.0, SVG Export Plug-In . SVG Version: 6.00 Build 0)  -->
<!DOCTYPE svg PUBLIC "-//W3C//DTD SVG 1.1//EN" "http://www.w3.org/Graphics/SVG/1.1/DTD/svg11.dtd">
<svg version="1.1" id="Layer_1" xmlns="http://www.w3.org/2000/svg" xmlns:xlink="http://www.w3.org/1999/xlink" x="0px" y="0px"
	 width="225px" height="225px" viewBox="0 0 225 225" enable-background="new 0 0 225 225" xml:space="preserve">
<g>
	<circle fill="#FF8158" cx="5346.54" cy="217.932" r="112.265"/>
</g>
<g>
	<rect x="5270" y="201" fill="#FFFFFF" width="102" height="15"/>
	<path fill="none" stroke="#FFFFFF" stroke-width="5" stroke-miterlimit="10" d="M5373,243.73c0,5.578-4.339,10.729-9.189,10.729
		h-84.082c-4.855,0-10.104-5.151-10.104-10.729v-50.491c0-5.577,5.249-9.222,10.104-9.222h84.082c4.852,0,9.189,3.645,9.189,9.222
		V243.73z"/>
</g>
<path fill="none" stroke="#FFFFFF" stroke-width="5" stroke-linecap="round" stroke-miterlimit="10" d="M5406.875,171.34
	c26.049,26.053,28.023,67.061,5.924,95.379"/>
<path fill="none" stroke="#FFFFFF" stroke-width="5" stroke-linecap="round" stroke-miterlimit="10" d="M5396.32,185.959
	c17.926,17.924,19.283,46.143,4.078,65.629"/>
<path fill="none" stroke="#FFFFFF" stroke-width="5" stroke-linecap="round" stroke-miterlimit="10" d="M5388.336,202.912
	c8.805,8.804,9.475,22.666,2.004,32.234"/>
<path d="M193.774,131.546h-5.082v-10.67c0-9.392-8.347-17.327-18.227-17.327c-9.881,0-18.228,7.979-18.228,17.425v10.572h-5.08
	c-1.478,0-2.68,1.202-2.68,2.68v33.597c0,1.477,1.202,2.678,2.68,2.678h46.616c1.477,0,2.679-1.201,2.679-2.678v-33.597
	C196.453,132.748,195.251,131.546,193.774,131.546z M172.983,153.242v4.832c0,0.712-0.676,1.288-1.51,1.288h-1.55
	c-0.833,0-1.508-0.576-1.508-1.288v-5.018c-2.139-0.963-3.629-3.106-3.629-5.602c0-3.397,2.75-6.147,6.145-6.147
	c3.392,0,6.146,2.75,6.146,6.147C177.078,150.127,175.366,152.396,172.983,153.242z M183.486,131.546h-26.042v-10.572
	c0-6.509,6.086-12.218,13.021-12.218c7.057,0,13.021,5.551,13.021,12.12V131.546z"/>
<path d="M225,65.5H96.806c-1.597-7.042-7.894-12.319-15.412-12.319h-26.63c-8.72,0-15.815,7.094-15.815,15.814
	S46.043,84.81,54.763,84.81h26.63c7.154,0,13.207-4.779,15.152-11.31H225V65.5z M69.886,79.81H54.763
	c-5.963,0-10.815-4.852-10.815-10.814S48.8,58.181,54.763,58.181h15.123c-2.663,2.832-4.308,6.63-4.308,10.814
	S67.223,76.978,69.886,79.81z M85,73.5h6.212c-1.713,3.717-5.465,6.31-9.819,6.31c-5.964,0-10.815-4.852-10.815-10.814
	s4.852-10.814,10.815-10.814c4.739,0,8.766,3.068,10.224,7.319H85c-2.209,0-4,1.791-4,4S82.791,73.5,85,73.5z"/>
<g>
	<path fill="none" d="M85,140.024h6.617c-1.458-4.251-5.485-7.319-10.224-7.319c-5.964,0-10.815,4.852-10.815,10.814
		s4.852,10.814,10.815,10.814c4.354,0,8.106-2.592,9.819-6.31H85c-2.209,0-4-1.791-4-4S82.791,140.024,85,140.024z"/>
	<path fill="none" d="M54.763,132.705c-5.963,0-10.815,4.852-10.815,10.814s4.852,10.814,10.815,10.814h15.123
		c-2.663-2.832-4.308-6.631-4.308-10.814s1.645-7.982,4.308-10.814H54.763z"/>
	<path d="M81.394,127.705h-26.63c-8.72,0-15.815,7.094-15.815,15.814s7.095,15.814,15.815,15.814h26.63
		c7.155,0,13.207-4.778,15.152-11.31h42.933v-8H96.806C95.209,132.982,88.912,127.705,81.394,127.705z M69.886,154.334H54.763
		c-5.963,0-10.815-4.852-10.815-10.814s4.852-10.814,10.815-10.814h15.123c-2.663,2.832-4.308,6.631-4.308,10.814
		S67.223,151.502,69.886,154.334z M85,148.024h6.212c-1.713,3.718-5.465,6.31-9.819,6.31c-5.964,0-10.815-4.852-10.815-10.814
		s4.852-10.814,10.815-10.814c4.739,0,8.766,3.068,10.224,7.319H85c-2.209,0-4,1.791-4,4S82.791,148.024,85,148.024z"/>
	<rect x="201.453" y="140.024" width="23.547" height="8"/>
</g>
</svg>
