<?xml version="1.0" encoding="utf-8"?>
<!-- Generator: Adobe Illustrator 16.0.0, SVG Export Plug-In . SVG Version: 6.00 Build 0)  -->
<!DOCTYPE svg PUBLIC "-//W3C//DTD SVG 1.1//EN" "http://www.w3.org/Graphics/SVG/1.1/DTD/svg11.dtd">
<svg version="1.1" id="Layer_1" xmlns="http://www.w3.org/2000/svg" xmlns:xlink="http://www.w3.org/1999/xlink" x="0px" y="0px"
	 width="225px" height="225px" viewBox="0 0 225 225" enable-background="new 0 0 225 225" xml:space="preserve">
<g>
	<path fill="#ffffff" d="M154.273,178.446H70.728c-3.446,0-6.25-2.804-6.25-6.25v-69.465c0-3.446,2.804-6.25,6.25-6.25h8.299V81.498
		c0-18.119,15.016-32.859,33.472-32.859c18.457,0,33.474,14.664,33.474,32.687v15.156h8.299c3.44,0,6.245,2.799,6.252,6.24v69.475
		C160.523,175.643,157.72,178.446,154.273,178.446z M73.478,169.446h78.045v-63.964h-10.051c-0.62,0-1.211-0.125-1.749-0.353
		c-0.538,0.228-1.13,0.354-1.751,0.354H87.028c-0.622,0-1.214-0.126-1.753-0.354c-0.537,0.227-1.128,0.352-1.748,0.352H73.478
		V169.446z M91.528,96.483h41.945V81.327c0-11.131-9.408-20.187-20.973-20.187c-11.564,0-20.972,9.133-20.972,20.359V96.483z"/>
</g>
<path fill="#ffffff" d="M112.501,129.873c-4.763,0-8.637,3.873-8.637,8.635c0,2.855,1.381,5.461,3.674,7.062v9.754
	c0,1.104,0.896,2,2,2h5.948c1.104,0,2-0.896,2-2v-9.768c2.277-1.605,3.648-4.207,3.648-7.05
	C121.136,133.746,117.262,129.873,112.501,129.873z"/>
</svg>
