<?xml version="1.0" encoding="utf-8"?>
<!-- Generator: Adobe Illustrator 16.0.0, SVG Export Plug-In . SVG Version: 6.00 Build 0)  -->
<!DOCTYPE svg PUBLIC "-//W3C//DTD SVG 1.1//EN" "http://www.w3.org/Graphics/SVG/1.1/DTD/svg11.dtd">
<svg version="1.1" id="Layer_1" xmlns="http://www.w3.org/2000/svg" xmlns:xlink="http://www.w3.org/1999/xlink" x="0px" y="0px"
	 width="225px" height="225px" viewBox="0 0 225 225" enable-background="new 0 0 225 225" xml:space="preserve">
<g>
	<circle fill="#FF8158" cx="5346.54" cy="217.932" r="112.265"/>
</g>
<g>
	<rect x="5270" y="201" fill="#FFFFFF" width="102" height="15"/>
	<path fill="none" stroke="#FFFFFF" stroke-width="5" stroke-miterlimit="10" d="M5373,243.73c0,5.578-4.339,10.729-9.189,10.729
		h-84.082c-4.855,0-10.104-5.151-10.104-10.729v-50.491c0-5.577,5.249-9.222,10.104-9.222h84.082c4.852,0,9.189,3.645,9.189,9.222
		V243.73z"/>
</g>
<path fill="none" stroke="#FFFFFF" stroke-width="5" stroke-linecap="round" stroke-miterlimit="10" d="M5406.875,171.34
	c26.049,26.053,28.023,67.061,5.924,95.379"/>
<path fill="none" stroke="#FFFFFF" stroke-width="5" stroke-linecap="round" stroke-miterlimit="10" d="M5396.32,185.959
	c17.926,17.924,19.283,46.143,4.078,65.629"/>
<path fill="none" stroke="#FFFFFF" stroke-width="5" stroke-linecap="round" stroke-miterlimit="10" d="M5388.336,202.912
	c8.805,8.804,9.475,22.666,2.004,32.234"/>
<path d="M112.501,130.828c3.666,0,6.635,2.971,6.635,6.637c0,2.59-1.486,4.83-3.65,5.922v10.893h-5.947v-10.883
	c-2.176-1.088-3.674-3.334-3.674-5.932C105.864,133.799,108.839,130.828,112.501,130.828 M112.501,125.828
	c-6.416,0-11.637,5.221-11.637,11.637c0,3.285,1.355,6.324,3.674,8.486v8.328c0,2.762,2.238,5,5,5h5.947c2.762,0,5-2.238,5-5v-8.348
	c2.304-2.162,3.65-5.195,3.65-8.467C124.136,131.049,118.916,125.828,112.501,125.828L112.501,125.828z"/>
<path d="M154.273,98.938h-12.05V79.282c0-15.956-13.334-28.936-29.723-28.936s-29.723,13.059-29.723,29.11v19.482H70.728
	c-0.967,0-1.75,0.783-1.75,1.75v69.465c0,0.967,0.783,1.75,1.75,1.75h83.546c0.967,0,1.75-0.783,1.75-1.75v-69.465
	C156.023,99.722,155.24,98.938,154.273,98.938z M87.778,79.456c0-13.294,11.091-24.11,24.723-24.11s24.723,10.738,24.723,23.936
	v19.656H87.778V79.456z M116.486,143.975v10.306c0,0.553-0.447,1-1,1h-5.947c-0.553,0-1-0.447-1-1v-10.295
	c-2.281-1.381-3.674-3.825-3.674-6.521c0-4.21,3.426-7.635,7.637-7.635c4.21,0,7.635,3.425,7.635,7.635
	C120.137,140.149,118.753,142.591,116.486,143.975z"/>
</svg>
