<?xml version="1.0" encoding="utf-8"?>
<!-- Generator: Adobe Illustrator 16.0.0, SVG Export Plug-In . SVG Version: 6.00 Build 0)  -->
<!DOCTYPE svg PUBLIC "-//W3C//DTD SVG 1.1//EN" "http://www.w3.org/Graphics/SVG/1.1/DTD/svg11.dtd">
<svg version="1.1" id="Layer_1" xmlns="http://www.w3.org/2000/svg" xmlns:xlink="http://www.w3.org/1999/xlink" x="0px" y="0px"
	 width="225px" height="225px" viewBox="0 0 225 225" enable-background="new 0 0 225 225" xml:space="preserve">
<path fill="#010000" d="M154.273,98.938h-12.051V79.282c0-15.956-13.334-28.937-29.723-28.937c-16.389,0-29.723,13.06-29.723,29.11
	v19.482H70.728c-0.967,0-1.75,0.783-1.75,1.75v69.464c0,0.968,0.783,1.75,1.75,1.75h83.545c0.968,0,1.75-0.782,1.75-1.75v-69.464
	C156.023,99.722,155.24,98.938,154.273,98.938z M115.486,143.387v10.894h-5.947v-10.884c-2.176-1.088-3.674-3.334-3.674-5.932
	c-0.001-3.666,2.974-6.637,6.636-6.637c3.666,0,6.635,2.971,6.635,6.637C119.136,140.055,117.65,142.295,115.486,143.387z
	 M137.225,98.938H87.778V79.456c0-13.294,11.091-24.11,24.723-24.11s24.724,10.738,24.724,23.937V98.938z"/>
</svg>
