<?xml version="1.0" encoding="utf-8"?>
<!-- Generator: Adobe Illustrator 16.0.0, SVG Export Plug-In . SVG Version: 6.00 Build 0)  -->
<!DOCTYPE svg PUBLIC "-//W3C//DTD SVG 1.1//EN" "http://www.w3.org/Graphics/SVG/1.1/DTD/svg11.dtd">
<svg version="1.1" id="Layer_1" xmlns="http://www.w3.org/2000/svg" xmlns:xlink="http://www.w3.org/1999/xlink" x="0px" y="0px"
	 width="225px" height="225px" viewBox="0 0 225 225" enable-background="new 0 0 225 225" xml:space="preserve">
<g>
	<circle fill="#FF8158" cx="5346.54" cy="217.932" r="112.265"/>
</g>
<g>
	<rect x="5270" y="201" fill="#FFFFFF" width="102" height="15"/>
	<path fill="none" stroke="#FFFFFF" stroke-width="5" stroke-miterlimit="10" d="M5373,243.73c0,5.578-4.339,10.729-9.189,10.729
		h-84.082c-4.855,0-10.104-5.151-10.104-10.729v-50.491c0-5.577,5.249-9.222,10.104-9.222h84.082c4.852,0,9.189,3.645,9.189,9.222
		V243.73z"/>
</g>
<path fill="none" stroke="#FFFFFF" stroke-width="5" stroke-linecap="round" stroke-miterlimit="10" d="M5406.875,171.34
	c26.049,26.053,28.023,67.061,5.924,95.379"/>
<path fill="none" stroke="#FFFFFF" stroke-width="5" stroke-linecap="round" stroke-miterlimit="10" d="M5396.32,185.959
	c17.926,17.924,19.283,46.143,4.078,65.629"/>
<path fill="none" stroke="#FFFFFF" stroke-width="5" stroke-linecap="round" stroke-miterlimit="10" d="M5388.336,202.912
	c8.805,8.804,9.475,22.666,2.004,32.234"/>
<path d="M154.272,99.189h-12.05V80.283c0-15.956-13.334-28.937-29.723-28.937S82.778,64.405,82.778,80.456v18.733H70.728
	c-1.381,0-2.5,1.119-2.5,2.5v69.465c0,1.381,1.119,2.5,2.5,2.5h83.545c1.381,0,2.5-1.119,2.5-2.5v-69.465
	C156.772,100.308,155.653,99.189,154.272,99.189z M87.778,80.456c0-13.294,11.09-24.109,24.722-24.109s24.723,10.738,24.723,23.937
	v18.906H87.778V80.456z M151.772,168.654H73.228v-64.465h78.545V168.654z"/>
<path d="M112.501,130.828c3.666,0,6.635,2.971,6.635,6.637c0,2.59-1.486,4.83-3.65,5.922v10.893h-5.947v-10.883
	c-2.176-1.088-3.674-3.334-3.674-5.932C105.864,133.799,108.839,130.828,112.501,130.828 M112.501,125.828
	c-6.416,0-11.637,5.221-11.637,11.637c0,3.285,1.355,6.324,3.674,8.486v8.328c0,2.762,2.238,5,5,5h5.947c2.762,0,5-2.238,5-5v-8.348
	c2.304-2.162,3.65-5.195,3.65-8.467C124.136,131.049,118.916,125.828,112.501,125.828L112.501,125.828z"/>
</svg>
