<?xml version="1.0" encoding="utf-8"?>
<!-- Generator: Adobe Illustrator 16.0.0, SVG Export Plug-In . SVG Version: 6.00 Build 0)  -->
<!DOCTYPE svg PUBLIC "-//W3C//DTD SVG 1.1//EN" "http://www.w3.org/Graphics/SVG/1.1/DTD/svg11.dtd">
<svg version="1.1" id="Layer_1" xmlns="http://www.w3.org/2000/svg" xmlns:xlink="http://www.w3.org/1999/xlink" x="0px" y="0px"
	 width="225px" height="225px" viewBox="0 0 225 225" enable-background="new 0 0 225 225" xml:space="preserve">
<g>
	<circle fill="#FF8158" cx="5346.54" cy="217.932" r="112.265"/>
</g>
<g>
	<rect x="5270" y="201" fill="#FFFFFF" width="102" height="15"/>
	<path fill="none" stroke="#FFFFFF" stroke-width="5" stroke-miterlimit="10" d="M5373,243.73c0,5.578-4.339,10.729-9.189,10.729
		h-84.082c-4.855,0-10.104-5.151-10.104-10.729v-50.491c0-5.577,5.249-9.222,10.104-9.222h84.082c4.852,0,9.189,3.645,9.189,9.222
		V243.73z"/>
</g>
<path fill="none" stroke="#FFFFFF" stroke-width="5" stroke-linecap="round" stroke-miterlimit="10" d="M5406.875,171.34
	c26.049,26.053,28.023,67.061,5.924,95.379"/>
<path fill="none" stroke="#FFFFFF" stroke-width="5" stroke-linecap="round" stroke-miterlimit="10" d="M5396.32,185.959
	c17.926,17.924,19.283,46.143,4.078,65.629"/>
<path fill="none" stroke="#FFFFFF" stroke-width="5" stroke-linecap="round" stroke-miterlimit="10" d="M5388.336,202.912
	c8.805,8.804,9.475,22.666,2.004,32.234"/>
<path d="M154.272,100.982h-12.8V81.326c0-15.542-12.997-28.187-28.973-28.187c-15.975,0-28.972,12.722-28.972,28.359v19.483H70.728
	c-0.966,0-1.75,0.784-1.75,1.75v69.465c0,0.967,0.784,1.75,1.75,1.75h83.545c0.967,0,1.75-0.783,1.75-1.75v-69.465
	C156.022,101.766,155.239,100.982,154.272,100.982z M87.028,81.499c0-13.708,11.427-24.859,25.472-24.859
	c14.046,0,25.473,11.074,25.473,24.687v19.656H87.028V81.499z M152.522,170.447H72.478v-65.965h80.045V170.447z"/>
<path fill="none" stroke="#000000" stroke-width="9" stroke-linecap="round" stroke-miterlimit="10" d="M85.277,101.732V82.5
	c0-14.649,12.404-26.61,27.223-26.61s27.223,11.789,27.223,26.436v19.406"/>
<rect x="70.728" y="101.732" fill="none" stroke="#000000" stroke-width="9" stroke-linecap="round" stroke-linejoin="round" stroke-miterlimit="10" width="83.545" height="69.465"/>
<path d="M112.501,129.873c-4.763,0-8.637,3.873-8.637,8.635c0,2.855,1.381,5.461,3.674,7.062v9.754c0,1.104,0.896,2,2,2h5.948
	c1.104,0,2-0.896,2-2v-9.768c2.278-1.605,3.649-4.207,3.649-7.049C121.136,133.746,117.262,129.873,112.501,129.873z"/>
</svg>
