<?xml version="1.0" encoding="utf-8"?>
<!-- Generator: Adobe Illustrator 16.0.0, SVG Export Plug-In . SVG Version: 6.00 Build 0)  -->
<!DOCTYPE svg PUBLIC "-//W3C//DTD SVG 1.1//EN" "http://www.w3.org/Graphics/SVG/1.1/DTD/svg11.dtd">
<svg version="1.1" id="Layer_1" xmlns="http://www.w3.org/2000/svg" xmlns:xlink="http://www.w3.org/1999/xlink" x="0px" y="0px"
	 width="225px" height="225px" viewBox="0 0 225 225" enable-background="new 0 0 225 225" xml:space="preserve">
<path fill="#010000" d="M154.271,99.189h-12.049V80.283c0-15.956-13.335-28.938-29.724-28.938c-16.389,0-29.721,13.06-29.721,29.11
	v18.733h-12.05c-1.381,0-2.5,1.119-2.5,2.5v69.465c0,1.381,1.119,2.5,2.5,2.5h83.545c1.381,0,2.5-1.119,2.5-2.5v-69.465
	C156.771,100.308,155.652,99.189,154.271,99.189z M87.778,80.456c0-13.294,11.09-24.109,24.722-24.109s24.723,10.738,24.723,23.937
	V99.19H87.778V80.456z M151.771,168.654H73.228v-64.465h78.545v64.465H151.771z"/>
<path fill="#010000" d="M112.501,130.828c3.666,0,6.635,2.971,6.635,6.637c0,2.59-1.485,4.83-3.649,5.922v10.894h-5.947v-10.884
	c-2.176-1.088-3.674-3.334-3.674-5.932C105.864,133.799,108.839,130.828,112.501,130.828 M112.501,125.828
	c-6.416,0-11.637,5.221-11.637,11.637c0,3.285,1.354,6.324,3.674,8.486v8.328c0,2.762,2.238,5,5,5h5.946c2.763,0,5-2.238,5-5v-8.348
	c2.305-2.162,3.65-5.195,3.65-8.468C124.136,131.049,118.916,125.828,112.501,125.828L112.501,125.828z"/>
</svg>
