<?xml version="1.0" encoding="utf-8"?>
<!-- Generator: Adobe Illustrator 16.0.0, SVG Export Plug-In . SVG Version: 6.00 Build 0)  -->
<!DOCTYPE svg PUBLIC "-//W3C//DTD SVG 1.1//EN" "http://www.w3.org/Graphics/SVG/1.1/DTD/svg11.dtd">
<svg version="1.1" id="Layer_1" xmlns="http://www.w3.org/2000/svg" xmlns:xlink="http://www.w3.org/1999/xlink" x="0px" y="0px"
	 width="225px" height="225px" viewBox="0 0 225 225" enable-background="new 0 0 225 225" xml:space="preserve">
<path fill="#000000" d="M154.271,100.982h-12.799V81.326c0-15.542-12.998-28.187-28.974-28.187
	c-15.975,0-28.972,12.722-28.972,28.359v19.483H70.728c-0.966,0-1.75,0.784-1.75,1.75v69.465c0,0.967,0.784,1.75,1.75,1.75h83.545
	c0.967,0,1.75-0.783,1.75-1.75v-69.465C156.021,101.766,155.239,100.982,154.271,100.982z M87.028,81.499
	c0-13.708,11.427-24.859,25.472-24.859c14.046,0,25.473,11.074,25.473,24.687v19.656H87.028V81.499z M152.521,170.447H72.478
	v-65.965h80.045v65.965H152.521z"/>
<path fill="#000000" d="M112.501,131.871c3.666,0,6.635,2.971,6.635,6.637c0,2.59-1.485,4.83-3.649,5.922v10.894h-5.947v-10.884
	c-2.176-1.088-3.674-3.334-3.674-5.932C105.864,134.842,108.839,131.871,112.501,131.871 M112.501,128.371
	c-5.589,0-10.137,4.547-10.137,10.137c0,3.078,1.366,5.909,3.674,7.809v9.007c0,1.933,1.567,3.5,3.5,3.5h5.946
	c1.934,0,3.5-1.567,3.5-3.5v-9.025c2.293-1.897,3.65-4.723,3.65-7.789C122.636,132.918,118.089,128.371,112.501,128.371
	L112.501,128.371z"/>
</svg>
