<?xml version="1.0" encoding="utf-8"?>
<!-- Generator: Adobe Illustrator 16.0.0, SVG Export Plug-In . SVG Version: 6.00 Build 0)  -->
<!DOCTYPE svg PUBLIC "-//W3C//DTD SVG 1.1//EN" "http://www.w3.org/Graphics/SVG/1.1/DTD/svg11.dtd">
<svg version="1.1" id="Layer_1" xmlns="http://www.w3.org/2000/svg" xmlns:xlink="http://www.w3.org/1999/xlink" x="0px" y="0px"
	 width="225px" height="225px" viewBox="0 0 225 225" enable-background="new 0 0 225 225" xml:space="preserve">
<g>
	<circle fill="#FF8158" cx="5346.54" cy="217.932" r="112.265"/>
</g>
<g>
	<rect x="5270" y="201" fill="#FFFFFF" width="102" height="15"/>
	<path fill="none" stroke="#FFFFFF" stroke-width="5" stroke-miterlimit="10" d="M5373,243.73c0,5.578-4.339,10.729-9.189,10.729
		h-84.082c-4.855,0-10.104-5.151-10.104-10.729v-50.491c0-5.577,5.249-9.222,10.104-9.222h84.082c4.852,0,9.189,3.645,9.189,9.222
		V243.73z"/>
</g>
<path fill="none" stroke="#FFFFFF" stroke-width="5" stroke-linecap="round" stroke-miterlimit="10" d="M5406.875,171.34
	c26.049,26.053,28.023,67.061,5.924,95.379"/>
<path fill="none" stroke="#FFFFFF" stroke-width="5" stroke-linecap="round" stroke-miterlimit="10" d="M5396.32,185.959
	c17.926,17.924,19.283,46.143,4.078,65.629"/>
<path fill="none" stroke="#FFFFFF" stroke-width="5" stroke-linecap="round" stroke-miterlimit="10" d="M5388.336,202.912
	c8.805,8.804,9.475,22.666,2.004,32.234"/>
<path d="M170.437,147.951c-0.07-1.533-0.636-3.125-1.284-4.523c-1.549-3.342-4.222-5.744-7.123-7.879
	c-5.12-3.748-10.82-6.465-16.775-8.531c-5.189-1.816-10.511-3.258-15.754-4.873c-0.361-0.131-0.905-0.443-0.916-0.689
	c-0.096-2.494-0.113-4.994-0.078-7.494c0-0.387,0.326-0.863,0.615-1.179c0.969-1.125,2.076-2.144,2.975-3.322
	c3.097-4.047,4.292-8.822,4.547-13.773c0.309-6.037,0.309-12.088,0.342-18.121c0-1.857-0.193-3.742-0.498-5.584
	c-1.066-6.3-3.941-11.526-9.457-15.024c-4.893-3.089-10.293-4.146-16-3.641c-4.777,0.422-9.158,1.933-12.931,4.976
	c-5.2,4.229-7.522,9.946-7.926,16.43c-0.474,7.564-0.544,15.132,0.327,22.698c0.694,5.998,2.795,11.326,7.44,15.44
	c0.291,0.25,0.527,0.689,0.527,1.039c0.062,2.307,0,4.611,0.054,6.916c0.027,0.916-0.323,1.223-1.196,1.406
	c-7.398,1.787-14.619,4.102-21.551,7.232c-5.014,2.25-9.825,4.852-13.862,8.672c-2.815,2.639-5.147,5.65-5.332,9.641
	c-0.218,4.432-0.053,20.621-0.053,25.104c15.826,0,31.636,0,47.445-0.001c-0.079-0.132-0.126-0.279-0.094-0.436l8.023-38.921
	l-7.694-7.693c-0.143-0.143-0.186-0.358-0.108-0.545c0.077-0.187,0.26-0.309,0.462-0.309h17.872c0.202,0,0.385,0.122,0.462,0.309
	s0.034,0.402-0.108,0.545l-7.693,7.693l8.022,38.921c0.032,0.155-0.015,0.303-0.093,0.435c15.822-0.001,31.643-0.003,47.467-0.006
	C170.488,168.43,170.602,152.285,170.437,147.951z"/>
</svg>
