<?xml version="1.0" encoding="utf-8"?>
<!-- Generator: Adobe Illustrator 16.0.0, SVG Export Plug-In . SVG Version: 6.00 Build 0)  -->
<!DOCTYPE svg PUBLIC "-//W3C//DTD SVG 1.1//EN" "http://www.w3.org/Graphics/SVG/1.1/DTD/svg11.dtd">
<svg version="1.1" id="Layer_1" xmlns="http://www.w3.org/2000/svg" xmlns:xlink="http://www.w3.org/1999/xlink" x="0px" y="0px"
	 width="225px" height="225px" viewBox="0 0 225 225" enable-background="new 0 0 225 225" xml:space="preserve">
<g>
	<circle fill="#FF8158" cx="5346.54" cy="217.932" r="112.265"/>
</g>
<g>
	<rect x="5270" y="201" fill="#FFFFFF" width="102" height="15"/>
	<path fill="none" stroke="#FFFFFF" stroke-width="5" stroke-miterlimit="10" d="M5373,243.73c0,5.578-4.339,10.729-9.189,10.729
		h-84.082c-4.855,0-10.104-5.151-10.104-10.729v-50.491c0-5.577,5.249-9.222,10.104-9.222h84.082c4.852,0,9.189,3.645,9.189,9.222
		V243.73z"/>
</g>
<path fill="none" stroke="#FFFFFF" stroke-width="5" stroke-linecap="round" stroke-miterlimit="10" d="M5406.875,171.34
	c26.049,26.053,28.023,67.061,5.924,95.379"/>
<path fill="none" stroke="#FFFFFF" stroke-width="5" stroke-linecap="round" stroke-miterlimit="10" d="M5396.32,185.959
	c17.926,17.924,19.283,46.143,4.078,65.629"/>
<path fill="none" stroke="#FFFFFF" stroke-width="5" stroke-linecap="round" stroke-miterlimit="10" d="M5388.336,202.912
	c8.805,8.804,9.475,22.666,2.004,32.234"/>
<path fill="none" stroke="#000000" stroke-width="3.9249" stroke-miterlimit="10" d="M154.958,90.826"/>
<circle cx="187.677" cy="94.894" r="9.812"/>
<circle cx="142.458" cy="94.745" r="9.812"/>
<circle cx="112.792" cy="94.745" r="9.812"/>
<circle cx="83.125" cy="94.745" r="9.812"/>
<path d="M190.116,109.631h-4.205c-3.097,0-6.732,2.503-6.732,5.256v18.744h-9.443c-2.517,0-4.557,2.041-4.557,4.559v0.812v0.072
	v19.602c0,2.6,1.884,4.705,4.207,4.705h0.586c2.323,0,4.207-2.105,4.207-4.705v-15.045h11.732h4.205h1.506
	c2.517,0,4.557-2.041,4.557-4.557v-0.512v-0.373v-23.303C196.179,112.134,193.214,109.631,190.116,109.631z"/>
<circle cx="37.323" cy="94.894" r="9.812"/>
<path d="M55.266,133.631h-9.444v-18.744c0-2.752-3.635-5.256-6.731-5.256h-4.205c-3.099,0-6.063,2.503-6.063,5.256v23.303v0.373
	v0.512c0,2.516,2.04,4.557,4.558,4.557h1.506h4.205h11.731v15.045c0,2.6,1.885,4.705,4.208,4.705h0.586
	c2.323,0,4.206-2.105,4.206-4.705v-19.602v-0.072v-0.812C59.821,135.672,57.781,133.631,55.266,133.631z"/>
<path d="M163.471,121.732h-9.292h-83h-9.065c-1.381,0-2.5,1.119-2.5,2.5s1.119,2.5,2.5,2.5h6.565v34c0,1.381,1.119,2.5,2.5,2.5
	s2.5-1.119,2.5-2.5v-34h78v34c0,1.381,1.119,2.5,2.5,2.5s2.5-1.119,2.5-2.5v-34h6.792c1.381,0,2.5-1.119,2.5-2.5
	S164.852,121.732,163.471,121.732z"/>
<g>
	<path d="M92.626,116.731v-2.019c0-2.889-2.343-5.231-5.233-5.231h-8.533c-2.891,0-5.233,2.342-5.233,5.231v2.019H92.626z"/>
</g>
<g>
	<path d="M122.292,116.731v-2.019c0-2.889-2.343-5.231-5.233-5.231h-8.534c-2.89,0-5.232,2.342-5.232,5.231v2.019H122.292z"/>
</g>
<g>
	<path d="M151.958,116.731v-2.019c0-2.889-2.342-5.231-5.232-5.231h-8.533c-2.891,0-5.234,2.342-5.234,5.231v2.019H151.958z"/>
</g>
</svg>
