<?xml version="1.0" encoding="utf-8"?>
<!-- Generator: Adobe Illustrator 15.1.0, SVG Export Plug-In . SVG Version: 6.00 Build 0)  -->
<!DOCTYPE svg PUBLIC "-//W3C//DTD SVG 1.1//EN" "http://www.w3.org/Graphics/SVG/1.1/DTD/svg11.dtd">
<svg version="1.1" id="Layer_1" xmlns="http://www.w3.org/2000/svg" xmlns:xlink="http://www.w3.org/1999/xlink" x="0px" y="0px"
	 width="225px" height="225px" viewBox="0 0 225 225" enable-background="new 0 0 225 225" xml:space="preserve">
<circle fill="#ffffff" cx="187.677" cy="94.894" r="9.812"/>
<circle fill="#ffffff" cx="142.458" cy="94.745" r="9.812"/>
<circle fill="#ffffff" cx="112.792" cy="94.745" r="9.812"/>
<circle fill="#ffffff" cx="83.125" cy="94.745" r="9.812"/>
<path fill="#ffffff" d="M190.116,109.631h-4.205c-3.097,0-6.731,2.503-6.731,5.256v18.744h-9.443c-2.518,0-4.557,2.041-4.557,4.559
	v0.812v0.072v19.602c0,2.6,1.883,4.705,4.207,4.705h0.586c2.322,0,4.207-2.105,4.207-4.705v-15.045h11.731h4.205h1.506
	c2.517,0,4.558-2.041,4.558-4.557v-0.512v-0.373v-23.305C196.18,112.134,193.214,109.631,190.116,109.631z"/>
<circle fill="#ffffff" cx="37.323" cy="94.894" r="9.812"/>
<path fill="#ffffff" d="M55.266,133.631h-9.444v-18.744c0-2.752-3.635-5.256-6.731-5.256h-4.205c-3.099,0-6.062,2.503-6.062,5.256
	v23.303v0.373v0.514c0,2.516,2.04,4.557,4.558,4.557h1.506h4.205h11.731v15.045c0,2.602,1.885,4.705,4.208,4.705h0.586
	c2.323,0,4.206-2.104,4.206-4.705v-19.602v-0.072v-0.812C59.821,135.672,57.781,133.631,55.266,133.631z"/>
<path fill="#ffffff" d="M163.471,121.732h-9.291h-83h-9.064c-1.381,0-2.5,1.119-2.5,2.5s1.119,2.5,2.5,2.5h6.564v34
	c0,1.381,1.119,2.5,2.5,2.5c1.381,0,2.5-1.119,2.5-2.5v-34h78v34c0,1.381,1.118,2.5,2.5,2.5c1.381,0,2.5-1.119,2.5-2.5v-34h6.791
	c1.381,0,2.5-1.119,2.5-2.5S164.852,121.732,163.471,121.732z"/>
<g>
	<path fill="#ffffff" d="M92.626,116.73v-2.02c0-2.889-2.343-5.231-5.233-5.231H78.86c-2.891,0-5.233,2.342-5.233,5.231v2.02H92.626
		z"/>
</g>
<g>
	<path fill="#ffffff" d="M122.292,116.73v-2.02c0-2.889-2.343-5.231-5.233-5.231h-8.534c-2.89,0-5.232,2.342-5.232,5.231v2.02
		H122.292z"/>
</g>
<g>
	<path fill="#ffffff" d="M151.958,116.73v-2.02c0-2.889-2.342-5.231-5.231-5.231h-8.533c-2.892,0-5.233,2.342-5.233,5.231v2.02
		H151.958z"/>
</g>
</svg>
