<?xml version="1.0" encoding="utf-8"?>
<!-- Generator: Adobe Illustrator 16.0.0, SVG Export Plug-In . SVG Version: 6.00 Build 0)  -->
<!DOCTYPE svg PUBLIC "-//W3C//DTD SVG 1.1//EN" "http://www.w3.org/Graphics/SVG/1.1/DTD/svg11.dtd">
<svg version="1.1" id="Layer_1" xmlns="http://www.w3.org/2000/svg" xmlns:xlink="http://www.w3.org/1999/xlink" x="0px" y="0px"
	 width="225px" height="225px" viewBox="0 0 225 225" enable-background="new 0 0 225 225" xml:space="preserve">
<g>
	<path fill="#ffffff" d="M119.744,44.476c1.91,0.208,3.834,0.499,5.719,0.867c0.161,0.032,0.322,0.047,0.481,0.047
		c1.172,0,2.218-0.828,2.45-2.021c0.266-1.355-0.619-2.668-1.975-2.933c-2.021-0.395-4.087-0.708-6.137-0.93
		c-1.376-0.149-2.606,0.843-2.756,2.216C117.379,43.094,118.371,44.327,119.744,44.476z"/>
	<path fill="#ffffff" d="M137.479,48.864c1.784,0.707,3.562,1.501,5.283,2.36c0.358,0.179,0.738,0.263,1.113,0.263
		c0.918,0,1.803-0.507,2.24-1.385c0.615-1.235,0.113-2.737-1.122-3.353c-1.848-0.921-3.757-1.774-5.673-2.534
		c-1.283-0.508-2.736,0.12-3.245,1.403C135.566,46.902,136.195,48.355,137.479,48.864z"/>
	<path fill="#ffffff" d="M66.919,60.482c0.564,0,1.132-0.19,1.599-0.58c1.478-1.231,3.024-2.414,4.597-3.514
		c1.131-0.792,1.407-2.35,0.615-3.481c-0.792-1.132-2.351-1.406-3.481-0.615c-1.687,1.18-3.346,2.448-4.932,3.77
		c-1.061,0.884-1.204,2.46-0.32,3.521C65.491,60.176,66.203,60.482,66.919,60.482z"/>
	<path fill="#ffffff" d="M83.986,50.18c1.749-0.795,3.552-1.525,5.358-2.167c1.301-0.463,1.98-1.893,1.518-3.193
		c-0.463-1.301-1.895-1.98-3.193-1.518c-1.94,0.69-3.876,1.473-5.753,2.328c-1.257,0.572-1.812,2.054-1.24,3.311
		c0.419,0.921,1.327,1.465,2.277,1.465C83.298,50.405,83.65,50.333,83.986,50.18z"/>
	<path fill="#ffffff" d="M91.781,177.751c-1.835-0.575-3.666-1.237-5.442-1.966c-1.279-0.525-2.738,0.086-3.262,1.363
		c-0.524,1.277,0.086,2.738,1.364,3.262c1.908,0.783,3.874,1.494,5.844,2.111c0.25,0.078,0.501,0.115,0.749,0.115
		c1.063,0,2.05-0.684,2.385-1.752C93.832,179.567,93.099,178.164,91.781,177.751z"/>
	<path fill="#ffffff" d="M75.239,169.987c-1.612-1.04-3.202-2.165-4.726-3.341c-1.093-0.844-2.662-0.641-3.507,0.451
		c-0.844,1.092-0.642,2.662,0.451,3.506c1.635,1.263,3.34,2.469,5.07,3.585c0.419,0.271,0.889,0.399,1.354,0.399
		c0.821,0,1.625-0.403,2.103-1.145C76.732,172.283,76.399,170.736,75.239,169.987z"/>
	<path fill="#ffffff" d="M57.659,153.654c-0.832-1.103-2.399-1.32-3.501-0.488c-1.102,0.832-1.32,2.4-0.488,3.502
		c1.243,1.645,2.57,3.257,3.946,4.791c0.494,0.551,1.176,0.831,1.862,0.831c0.594,0,1.19-0.21,1.668-0.639
		c1.028-0.922,1.114-2.503,0.192-3.53C60.055,156.691,58.817,155.188,57.659,153.654z"/>
	<path fill="#ffffff" d="M41.385,109.806c0.061,0.004,0.122,0.006,0.182,0.006c1.299,0,2.396-1.004,2.491-2.321
		c0.138-1.919,0.359-3.853,0.658-5.746c0.215-1.364-0.716-2.644-2.08-2.859c-1.367-0.21-2.645,0.716-2.859,2.08
		c-0.321,2.033-0.558,4.107-0.707,6.167C38.971,108.51,40.007,109.707,41.385,109.806z"/>
	<path fill="#ffffff" d="M44.601,91.132c0.276,0.098,0.558,0.145,0.835,0.145c1.029,0,1.993-0.64,2.356-1.665
		c0.641-1.808,1.37-3.614,2.165-5.367c0.57-1.258,0.013-2.739-1.244-3.31c-1.259-0.572-2.74-0.014-3.31,1.245
		c-0.854,1.881-1.635,3.82-2.324,5.761C42.619,89.242,43.3,90.67,44.601,91.132z"/>
	<path fill="#ffffff" d="M48.696,137.739c-0.51-1.282-1.961-1.907-3.247-1.399c-1.283,0.51-1.91,1.965-1.399,3.247
		c0.762,1.914,1.615,3.819,2.537,5.664c0.438,0.876,1.321,1.383,2.238,1.383c0.375,0,0.757-0.085,1.116-0.265
		c1.235-0.617,1.736-2.119,1.119-3.354C50.2,141.297,49.405,139.522,48.696,137.739z"/>
	<path fill="#ffffff" d="M45.163,125.732c-0.369-1.882-0.663-3.806-0.873-5.719c-0.15-1.372-1.378-2.369-2.758-2.212
		c-1.372,0.15-2.363,1.386-2.212,2.758c0.225,2.052,0.54,4.116,0.937,6.136c0.234,1.192,1.279,2.02,2.45,2.02
		c0.16,0,0.322-0.016,0.484-0.048C44.546,128.401,45.429,127.088,45.163,125.732z"/>
	<path fill="#ffffff" d="M185.272,111.106c0.242-0.402,0.374-0.877,0.356-1.381c-0.076-2.063-0.24-4.145-0.488-6.186
		c-0.166-1.371-1.41-2.347-2.783-2.181c-1.371,0.167-2.347,1.412-2.181,2.783c0.231,1.903,0.384,3.844,0.454,5.768
		c0.018,0.472,0.165,0.909,0.406,1.276c-0.227,0.376-0.357,0.817-0.357,1.289c0,1.924-0.081,3.87-0.24,5.782
		c-0.115,1.376,0.906,2.585,2.283,2.699c0.07,0.006,0.141,0.01,0.211,0.01c1.285,0,2.379-0.987,2.488-2.293
		c0.171-2.049,0.258-4.135,0.258-6.198C185.68,111.969,185.529,111.499,185.272,111.106z"/>
	<path fill="#ffffff" d="M107.22,44.257c1.377-0.101,2.412-1.298,2.311-2.675c-0.101-1.377-1.3-2.424-2.675-2.311
		c-2.061,0.15-4.135,0.39-6.166,0.712c-1.364,0.216-2.294,1.498-2.078,2.861c0.195,1.231,1.258,2.109,2.466,2.109
		c0.13,0,0.262-0.01,0.395-0.031C103.366,44.622,105.299,44.398,107.22,44.257z"/>
	<path fill="#ffffff" d="M159.754,161.717c-1.382,1.332-2.839,2.624-4.331,3.838c-1.071,0.872-1.232,2.447-0.36,3.518
		c0.494,0.607,1.214,0.922,1.939,0.922c0.555,0,1.113-0.184,1.577-0.561c1.601-1.303,3.163-2.688,4.646-4.118
		c0.994-0.958,1.022-2.541,0.064-3.534C162.331,160.787,160.748,160.758,159.754,161.717z"/>
	<path fill="#ffffff" d="M177.534,91.906c0.336,1.067,1.321,1.75,2.384,1.75c0.249,0,0.502-0.037,0.752-0.116
		c1.316-0.415,2.049-1.818,1.634-3.135c-0.62-1.967-1.331-3.932-2.116-5.838c-0.525-1.277-1.986-1.886-3.263-1.361
		c-1.276,0.525-1.886,1.986-1.36,3.263C176.295,88.245,176.957,90.074,177.534,91.906z"/>
	<path fill="#ffffff" d="M181.329,128.832c-1.327-0.365-2.706,0.418-3.071,1.75c-0.508,1.853-1.101,3.705-1.764,5.508
		c-0.477,1.296,0.188,2.732,1.482,3.209c0.285,0.105,0.576,0.154,0.863,0.154c1.018,0,1.975-0.626,2.347-1.637
		c0.712-1.936,1.349-3.925,1.894-5.914C183.445,130.571,182.661,129.196,181.329,128.832z"/>
	<path fill="#ffffff" d="M174.535,146.523c-1.188-0.707-2.722-0.316-3.428,0.87c-0.01,0.018-0.021,0.034-0.032,0.052l-3.659-2.613
		c-1.123-0.803-2.686-0.543-3.488,0.58c-0.803,1.124-0.542,2.686,0.582,3.488l3.839,2.742c-0.138,0.197-0.268,0.4-0.407,0.596
		c-0.803,1.122-0.545,2.684,0.578,3.487c0.441,0.315,0.949,0.467,1.453,0.467c0.779,0,1.547-0.363,2.035-1.045
		c1.201-1.679,2.344-3.428,3.396-5.198C176.111,148.763,175.721,147.229,174.535,146.523z"/>
	<path fill="#ffffff" d="M145.031,172.539c-1.688,0.922-3.434,1.781-5.188,2.555c-1.263,0.557-1.836,2.031-1.279,3.295
		c0.412,0.936,1.328,1.492,2.289,1.492c0.337,0,0.68-0.068,1.008-0.213c1.881-0.828,3.755-1.752,5.567-2.742
		c1.212-0.662,1.657-2.18,0.995-3.393C147.762,172.322,146.242,171.875,145.031,172.539z"/>
	<path fill="#ffffff" d="M109.787,180.83c-1.924-0.068-3.865-0.22-5.768-0.449c-1.378-0.164-2.617,0.812-2.781,2.184
		c-0.165,1.371,0.812,2.616,2.183,2.781c2.041,0.245,4.123,0.407,6.186,0.481c0.031,0.001,0.061,0.001,0.091,0.001
		c1.339,0,2.449-1.061,2.497-2.41C112.245,182.039,111.167,180.88,109.787,180.83z"/>
	<path fill="#ffffff" d="M169.758,75.379c0.479,0.74,1.281,1.143,2.102,1.143c0.465,0,0.936-0.13,1.355-0.401
		c1.159-0.75,1.491-2.297,0.741-3.457c-1.118-1.729-2.325-3.434-3.587-5.065c-0.846-1.092-2.416-1.293-3.508-0.448
		c-1.092,0.845-1.293,2.415-0.447,3.507C167.591,72.18,168.716,73.768,169.758,75.379z"/>
	<path fill="#ffffff" d="M153.409,57.816c1.533,1.155,3.037,2.392,4.471,3.675c0.478,0.427,1.073,0.637,1.667,0.637
		c0.686,0,1.369-0.281,1.863-0.833c0.921-1.029,0.834-2.609-0.195-3.53c-1.538-1.376-3.152-2.703-4.797-3.942
		c-1.104-0.831-2.671-0.611-3.501,0.492C152.086,55.417,152.307,56.985,153.409,57.816z"/>
	<path fill="#ffffff" d="M127.975,179.066c-1.869,0.438-3.781,0.803-5.682,1.081c-1.365,0.2-2.311,1.47-2.111,2.837
		c0.183,1.242,1.25,2.137,2.471,2.137c0.121,0,0.243-0.008,0.366-0.026c2.04-0.3,4.092-0.69,6.099-1.161
		c1.344-0.315,2.178-1.66,1.862-3.005S129.32,178.748,127.975,179.066z"/>
	<path fill="#ffffff" d="M102.084,101.239c-0.803,1.124-0.542,2.685,0.581,3.487l4.882,3.487c0.44,0.315,0.948,0.466,1.451,0.466
		c0.78,0,1.548-0.364,2.036-1.047c0.803-1.124,0.542-2.685-0.581-3.487l-4.882-3.487
		C104.448,99.855,102.887,100.116,102.084,101.239z"/>
	<path fill="#ffffff" d="M64.071,71.015l-4.035-2.882c0.418-0.988,0.174-2.17-0.693-2.892c-1.062-0.882-2.638-0.737-3.521,0.324
		c-1.318,1.586-2.585,3.247-3.766,4.936c-0.791,1.132-0.514,2.691,0.618,3.481c0.436,0.304,0.935,0.45,1.43,0.45
		c0.789,0,1.565-0.373,2.052-1.068c0.288-0.412,0.594-0.814,0.892-1.222l4.117,2.94c0.44,0.315,0.948,0.466,1.451,0.466
		c0.78,0,1.548-0.364,2.036-1.047C65.455,73.379,65.194,71.817,64.071,71.015z"/>
	<path fill="#ffffff" d="M157.418,140.764c0.803-1.124,0.543-2.686-0.581-3.488l-4.882-3.487c-1.123-0.804-2.686-0.543-3.488,0.581
		c-0.803,1.123-0.542,2.685,0.582,3.487l4.882,3.487c0.44,0.315,0.948,0.467,1.451,0.467
		C156.162,141.811,156.93,141.446,157.418,140.764z"/>
	<path fill="#ffffff" d="M79.532,82.059l-4.882-3.487c-1.123-0.803-2.685-0.543-3.487,0.581c-0.803,1.124-0.542,2.685,0.581,3.487
		l4.882,3.487c0.44,0.315,0.948,0.466,1.451,0.466c0.78,0,1.548-0.364,2.036-1.047C80.916,84.422,80.655,82.861,79.532,82.059z"/>
	<path fill="#ffffff" d="M139.921,130.767c0.78,0,1.548-0.364,2.036-1.047c0.803-1.124,0.543-2.685-0.581-3.487l-4.882-3.488
		c-1.123-0.803-2.686-0.543-3.488,0.582c-0.803,1.123-0.542,2.684,0.582,3.486l4.882,3.488
		C138.91,130.615,139.418,130.767,139.921,130.767z"/>
	<path fill="#ffffff" d="M94.993,93.102l-4.883-3.487c-1.123-0.804-2.685-0.542-3.487,0.581c-0.803,1.124-0.542,2.685,0.581,3.487
		l4.883,3.487c0.44,0.315,0.948,0.466,1.451,0.466c0.78,0,1.548-0.364,2.036-1.047C96.377,95.466,96.117,93.904,94.993,93.102z"/>
	<path fill="#ffffff" d="M124.46,119.723c0.78,0,1.548-0.363,2.036-1.047c0.803-1.123,0.543-2.685-0.581-3.486l-4.882-3.488
		c-1.124-0.803-2.686-0.543-3.488,0.581c-0.803,1.124-0.542,2.685,0.582,3.487l4.882,3.488
		C123.449,119.572,123.957,119.723,124.46,119.723z"/>
</g>
</svg>
