<?xml version="1.0" encoding="utf-8"?>
<!-- Generator: Adobe Illustrator 16.0.0, SVG Export Plug-In . SVG Version: 6.00 Build 0)  -->
<!DOCTYPE svg PUBLIC "-//W3C//DTD SVG 1.1//EN" "http://www.w3.org/Graphics/SVG/1.1/DTD/svg11.dtd">
<svg version="1.1" id="Layer_1" xmlns="http://www.w3.org/2000/svg" xmlns:xlink="http://www.w3.org/1999/xlink" x="0px" y="0px"
	 width="225px" height="225px" viewBox="0 0 225 225" enable-background="new 0 0 225 225" xml:space="preserve">
<path fill="#000000" d="M137.684,53.662H87.399c-5.757,0-10.44,4.759-10.44,10.609v99.653c0,5.85,4.683,10.609,10.44,10.609h50.285
	c5.756,0,10.439-4.76,10.439-10.609V64.271C148.124,58.421,143.439,53.662,137.684,53.662z M113.047,170.691
	c-3.449,0-6.244-2.795-6.244-6.242c0-3.448,2.795-6.244,6.244-6.244c3.449,0,6.242,2.796,6.242,6.244
	C119.289,167.896,116.496,170.691,113.047,170.691z M143.124,154.968H81.959V65.755h61.165V154.968z"/>
</svg>
