<?xml version="1.0" encoding="utf-8"?>
<!-- Generator: Adobe Illustrator 16.0.0, SVG Export Plug-In . SVG Version: 6.00 Build 0)  -->
<!DOCTYPE svg PUBLIC "-//W3C//DTD SVG 1.1//EN" "http://www.w3.org/Graphics/SVG/1.1/DTD/svg11.dtd">
<svg version="1.1" id="Layer_1" xmlns="http://www.w3.org/2000/svg" xmlns:xlink="http://www.w3.org/1999/xlink" x="0px" y="0px"
	 width="225px" height="225px" viewBox="0 0 225 225" enable-background="new 0 0 225 225" xml:space="preserve">
<g>
	<path fill="#ffffff" d="M190.578,89.697h-8.219v-10.15c0-1.381-1.119-2.5-2.5-2.5h-9.146V66.645c0-1.381-1.119-2.5-2.5-2.5H38.604
		c-1.381,0-2.5,1.119-2.5,2.5v69.199c0,1.381,1.119,2.5,2.5,2.5h9.143v10.402c0,1.381,1.119,2.5,2.5,2.5h8.219v10.15
		c0,1.381,1.119,2.5,2.5,2.5h129.611c1.381,0,2.5-1.119,2.5-2.5v-69.2C193.078,90.816,191.959,89.697,190.578,89.697z
		 M41.104,69.145h124.61v64.199H41.104V69.145z M52.748,138.344h115.467c1.381,0,2.5-1.119,2.5-2.5V82.047h6.645v64.199H52.748
		V138.344z M188.078,158.896H63.467v-7.65h116.393c1.382,0,2.5-1.119,2.5-2.5V94.697h5.72L188.078,158.896L188.078,158.896z"/>
	<path fill="#ffffff" d="M158,76h-20c-1.381,0-2.5,1.119-2.5,2.5s1.119,2.5,2.5,2.5h20c1.381,0,2.5-1.119,2.5-2.5S159.381,76,158,76
		z"/>
</g>
<path fill="#ffffff" d="M121.393,115.003c-0.836-1.097-2.401-1.312-3.504-0.476l-0.233,0.177c-2.486,1.842-5.443,2.815-8.551,2.815
	c-5.311,0-9.947-2.898-12.44-7.189h10.923c1.381,0,2.5-1.119,2.5-2.5s-1.119-2.5-2.5-2.5H94.899
	c-0.111-0.719-0.186-1.45-0.186-2.199c0-0.631,0.055-1.248,0.134-1.857h12.739c1.381,0,2.5-1.119,2.5-2.5c0-1.381-1.119-2.5-2.5-2.5
	H96.455c2.44-4.483,7.195-7.532,12.649-7.532c2.98,0,5.837,0.902,8.265,2.609c1.13,0.795,2.689,0.523,3.482-0.607
	c0.795-1.129,0.522-2.688-0.605-3.483c-3.273-2.303-7.127-3.52-11.142-3.52c-8.275,0-15.336,5.22-18.115,12.532h-4.572
	c-1.381,0-2.5,1.119-2.5,2.5c0,1.381,1.119,2.5,2.5,2.5h3.39c-0.059,0.612-0.094,1.23-0.094,1.857c0,0.745,0.052,1.477,0.134,2.199
	h-3.43c-1.381,0-2.5,1.119-2.5,2.5s1.119,2.5,2.5,2.5h4.697c2.866,7.134,9.842,12.188,17.989,12.188
	c4.187,0,8.172-1.312,11.518-3.791l0.297-0.222C122.018,117.67,122.229,116.102,121.393,115.003z"/>
</svg>
