<?xml version="1.0" encoding="utf-8"?>
<!-- Generator: Adobe Illustrator 16.0.0, SVG Export Plug-In . SVG Version: 6.00 Build 0)  -->
<!DOCTYPE svg PUBLIC "-//W3C//DTD SVG 1.1//EN" "http://www.w3.org/Graphics/SVG/1.1/DTD/svg11.dtd">
<svg version="1.1" id="Layer_1" xmlns="http://www.w3.org/2000/svg" xmlns:xlink="http://www.w3.org/1999/xlink" x="0px" y="0px"
	 width="225px" height="225px" viewBox="0 0 225 225" enable-background="new 0 0 225 225" xml:space="preserve">
<g>
	<path fill="#010000" d="M190.578,89.697h-8.219v-10.15c0-1.381-1.119-2.5-2.5-2.5h-9.146V66.645c0-1.381-1.117-2.5-2.5-2.5H38.604
		c-1.381,0-2.5,1.119-2.5,2.5v69.199c0,1.381,1.119,2.5,2.5,2.5h9.143v10.402c0,1.381,1.119,2.5,2.5,2.5h8.219v10.15
		c0,1.381,1.119,2.5,2.5,2.5h129.611c1.381,0,2.5-1.119,2.5-2.5V92.196C193.078,90.816,191.959,89.697,190.578,89.697z
		 M41.104,69.145h124.61v64.199H41.104V69.145z M52.748,138.344h115.467c1.381,0,2.5-1.119,2.5-2.5V82.047h6.645v64.199H52.748
		V138.344z M188.078,158.896H63.467v-7.65h116.393c1.383,0,2.5-1.119,2.5-2.5V94.697h5.721L188.078,158.896L188.078,158.896z"/>
	<path fill="#010000" d="M158,76h-20c-1.381,0-2.5,1.119-2.5,2.5s1.119,2.5,2.5,2.5h20c1.381,0,2.5-1.119,2.5-2.5S159.381,76,158,76
		z"/>
</g>
<g>
	<path fill="#010000" d="M83.085,88.93h-5.493c-1.381,0-2.5,1.119-2.5,2.5c0,1.381,1.119,2.5,2.5,2.5h2.993v21.71
		c0,1.381,1.119,2.5,2.5,2.5s2.5-1.119,2.5-2.5V91.43C85.585,90.049,84.466,88.93,83.085,88.93z"/>
	<path fill="#010000" d="M99.012,87.08c-0.07,0-0.137,0.015-0.206,0.021c-0.069-0.005-0.135-0.021-0.206-0.021
		c-9.777,0-9.777,11.879-9.777,15.783c0,3.903,0,15.782,9.777,15.782c0.07,0,0.137-0.015,0.206-0.021
		c0.069,0.006,0.136,0.021,0.206,0.021c9.777,0,9.777-11.877,9.777-15.782C108.789,98.959,108.789,87.08,99.012,87.08z
		 M99.012,113.645c-0.07,0-0.137,0.016-0.206,0.021c-0.069-0.006-0.135-0.021-0.206-0.021c-1.55,0-4.777,0-4.777-10.782
		c0-10.783,3.227-10.783,4.777-10.783c0.07,0,0.137-0.015,0.206-0.021c0.069,0.005,0.136,0.021,0.206,0.021
		c1.551,0,4.777,0,4.777,10.783C103.789,113.645,100.562,113.645,99.012,113.645z"/>
	<path fill="#010000" d="M121.598,87.08c-0.07,0-0.137,0.015-0.205,0.021c-0.069-0.005-0.137-0.021-0.207-0.021
		c-9.775,0-9.775,11.879-9.775,15.783c0,3.903,0,15.782,9.775,15.782c0.07,0,0.138-0.015,0.207-0.021
		c0.068,0.006,0.135,0.021,0.205,0.021c9.777,0,9.777-11.877,9.777-15.782C131.375,98.959,131.375,87.08,121.598,87.08z
		 M121.598,113.645c-0.07,0-0.137,0.016-0.205,0.021c-0.069-0.006-0.137-0.021-0.207-0.021c-1.551,0-4.775,0-4.775-10.782
		c0-10.783,3.226-10.783,4.775-10.783c0.07,0,0.138-0.015,0.207-0.021c0.068,0.005,0.135,0.021,0.205,0.021
		c1.551,0,4.777,0,4.777,10.783C126.375,113.645,123.148,113.645,121.598,113.645z"/>
</g>
</svg>
