<?xml version="1.0" encoding="utf-8"?>
<!-- Generator: Adobe Illustrator 16.0.0, SVG Export Plug-In . SVG Version: 6.00 Build 0)  -->
<!DOCTYPE svg PUBLIC "-//W3C//DTD SVG 1.1//EN" "http://www.w3.org/Graphics/SVG/1.1/DTD/svg11.dtd">
<svg version="1.1" id="Layer_1" xmlns="http://www.w3.org/2000/svg" xmlns:xlink="http://www.w3.org/1999/xlink" x="0px" y="0px"
	 width="225.07px" height="225.07px" viewBox="0 0 225.07 225.07" enable-background="new 0 0 225.07 225.07" xml:space="preserve">
<g>
	<g>
		<polygon fill="#ffffff" points="123.535,154.965 138.035,154.965 138.035,134.965 159.035,134.965 159.035,154.965 
			174.535,154.965 174.535,128.546 149.051,111.864 123.535,129.03 		"/>
	</g>
	<g>
		<polygon fill="#ffffff" points="117.465,126.516 114.605,122.414 149.004,98.439 183.422,121.385 180.648,125.545 149.066,104.49 
					"/>
	</g>
	<g>
		<polygon fill="#ffffff" points="68.868,109.691 79.444,109.691 79.444,93.934 96.838,93.934 96.838,109.691 108.201,109.691 
			108.201,89.53 88.55,76.667 68.868,89.908 		"/>
	</g>
	<g>
		<polygon fill="#ffffff" points="63.965,88.136 61.105,84.035 88.504,64.939 115.922,83.217 113.148,87.377 88.566,70.99 		"/>
	</g>
	<g>
		<polygon fill="#ffffff" points="58.456,159.805 66.101,159.805 66.101,147.217 80.801,147.217 80.801,159.805 89.072,159.805 
			89.072,144.319 73.781,134.309 58.456,144.618 		"/>
	</g>
	<g>
		<polygon fill="#ffffff" points="54.423,143.4 51.565,139.299 73.734,123.848 95.922,138.641 93.148,142.801 73.797,129.898 		"/>
	</g>
	<g>
		<g>
			<path fill="#ffffff" d="M50.536,94.979c3.984,0,7.216,4.907,7.216,10.961c0,5.199-2.386,9.542-5.582,10.667v8.871h-3.404v-8.925
				c-3.127-1.2-5.446-5.491-5.446-10.615C43.319,99.886,46.551,94.979,50.536,94.979"/>
		</g>
	</g>
	<g>
		<path fill="#ffffff" d="M107.819,129.607c3.984,0,7.216,4.905,7.216,10.961c0,5.199-2.386,9.541-5.582,10.668v8.871h-3.404v-8.924
			c-3.127-1.201-5.446-5.492-5.446-10.615C100.603,134.514,103.834,129.607,107.819,129.607"/>
	</g>
	<g>
		<path fill="#ffffff" d="M133.342,64.964c-3.986,0-7.217,4.908-7.216,10.961c0,5.124,2.319,9.414,5.446,10.615v8.924h3.404v-8.871
			c3.195-1.126,5.582-5.469,5.582-10.668C140.559,69.871,137.326,64.964,133.342,64.964z"/>
	</g>
	<g>
		<g>
			<path fill="#ffffff" d="M174.535,77.729c3.984,0,7.216,4.907,7.216,10.961c0,5.199-2.386,9.542-5.582,10.668v8.871h-3.403v-8.924
				c-3.128-1.201-5.447-5.491-5.447-10.615C167.318,82.636,170.55,77.729,174.535,77.729"/>
		</g>
	</g>
</g>
</svg>
