<?xml version="1.0" encoding="utf-8"?>
<!-- Generator: Adobe Illustrator 16.0.0, SVG Export Plug-In . SVG Version: 6.00 Build 0)  -->
<!DOCTYPE svg PUBLIC "-//W3C//DTD SVG 1.1//EN" "http://www.w3.org/Graphics/SVG/1.1/DTD/svg11.dtd">
<svg version="1.1" id="Layer_1" xmlns="http://www.w3.org/2000/svg" xmlns:xlink="http://www.w3.org/1999/xlink" x="0px" y="0px"
	 width="225px" height="225px" viewBox="0 0 225 225" enable-background="new 0 0 225 225" xml:space="preserve">
<path fill="#010000" d="M74.391,167.122c0,3.622-2.937,6.553-6.555,6.553l0,0c-3.612,0-6.551-2.931-6.551-6.553l0,0
	c0-3.609,2.938-6.552,6.551-6.552l0,0C71.454,160.57,74.391,163.513,74.391,167.122L74.391,167.122z"/>
<path fill="#010000" d="M119.995,167.122c0,3.622-2.937,6.553-6.554,6.553l0,0c-3.613,0-6.552-2.931-6.552-6.553l0,0
	c0-3.609,2.938-6.552,6.552-6.552l0,0C117.059,160.57,119.995,163.513,119.995,167.122L119.995,167.122z"/>
<path fill="#010000" d="M161.242,167.122c0,3.622-2.938,6.553-6.555,6.553l0,0c-3.612,0-6.552-2.931-6.552-6.553l0,0
	c0-3.609,2.938-6.552,6.552-6.552l0,0C158.305,160.57,161.242,163.513,161.242,167.122L161.242,167.122z"/>
<path fill="#010000" d="M157.188,132.167c0-1.381-1.119-2.5-2.5-2.5h-38.884v-11.313c0-1.381-1.118-2.5-2.5-2.5
	c-1.381,0-2.5,1.119-2.5,2.5v11.313H67.838c-1.381,0-2.5,1.119-2.5,2.5v21.046c0,1.381,1.119,2.5,2.5,2.5s2.5-1.119,2.5-2.5v-18.546
	h40.467v18.546c0,1.381,1.119,2.5,2.5,2.5s2.5-1.119,2.5-2.5v-18.546h36.385v18.546c0,1.381,1.119,2.5,2.5,2.5
	c1.382,0,2.5-1.119,2.5-2.5L157.188,132.167z"/>
<path fill="#010000" d="M142.137,54.438h-23.58H84.484c-2.761,0-5,2.239-5,5v34.739c0,2.761,2.239,5,5,5h26.325v6.433H96.607
	c-1.381,0-2.5,1.119-2.5,2.5c0,1.381,1.119,2.5,2.5,2.5h33.396c1.381,0,2.5-1.119,2.5-2.5c0-1.381-1.119-2.5-2.5-2.5h-14.192v-6.433
	h26.326c2.762,0,5-2.239,5-5V70.313V59.438C147.137,56.676,144.898,54.438,142.137,54.438z M142.137,70.313v23.863H84.484V59.438
	h34.073h23.579L142.137,70.313L142.137,70.313z"/>
</svg>
