<?xml version="1.0" encoding="utf-8"?>
<!-- Generator: Adobe Illustrator 16.0.0, SVG Export Plug-In . SVG Version: 6.00 Build 0)  -->
<!DOCTYPE svg PUBLIC "-//W3C//DTD SVG 1.1//EN" "http://www.w3.org/Graphics/SVG/1.1/DTD/svg11.dtd">
<svg version="1.1" id="Layer_1" xmlns="http://www.w3.org/2000/svg" xmlns:xlink="http://www.w3.org/1999/xlink" x="0px" y="0px"
	 width="225px" height="225px" viewBox="0 0 225 225" enable-background="new 0 0 225 225" xml:space="preserve">
<path d="M58.828,166.283c0,3.594-2.913,6.501-6.502,6.501l0,0c-3.584,0-6.499-2.907-6.499-6.501l0,0c0-3.58,2.915-6.499,6.499-6.499
	l0,0C55.915,159.784,58.828,162.703,58.828,166.283L58.828,166.283z"/>
<path d="M119.46,166.283c0,3.594-2.913,6.501-6.502,6.501l0,0c-3.584,0-6.499-2.907-6.499-6.501l0,0c0-3.58,2.915-6.499,6.499-6.499
	l0,0C116.547,159.784,119.46,162.703,119.46,166.283L119.46,166.283z"/>
<path d="M119.46,60.765c0,3.593-2.913,6.5-6.502,6.5l0,0c-3.584,0-6.499-2.908-6.499-6.5l0,0c0-3.581,2.915-6.5,6.499-6.5l0,0
	C116.547,54.266,119.46,57.185,119.46,60.765L119.46,60.765z"/>
<path d="M174.473,166.283c0,3.594-2.912,6.501-6.502,6.501l0,0c-3.584,0-6.498-2.907-6.498-6.501l0,0
	c0-3.58,2.914-6.499,6.498-6.499l0,0C171.561,159.784,174.473,162.703,174.473,166.283L174.473,166.283z"/>
<path d="M170.471,108.048c0-1.381-1.119-2.5-2.5-2.5h-52.902V74.807c0-1.381-1.119-2.5-2.5-2.5c-1.381,0-2.5,1.119-2.5,2.5v30.741
	h-57.74c-1.381,0-2.5,1.119-2.5,2.5v45.124c0,1.381,1.119,2.5,2.5,2.5s2.5-1.119,2.5-2.5v-42.624h55.24v42.972
	c0,1.381,1.119,2.5,2.5,2.5c1.381,0,2.5-1.119,2.5-2.5v-42.972h50.402l0.002,42.624c0,1.381,1.119,2.5,2.5,2.5s2.5-1.119,2.5-2.5
	L170.471,108.048z"/>
</svg>
