<?xml version="1.0" encoding="utf-8"?>
<!-- Generator: Adobe Illustrator 16.0.0, SVG Export Plug-In . SVG Version: 6.00 Build 0)  -->
<!DOCTYPE svg PUBLIC "-//W3C//DTD SVG 1.1//EN" "http://www.w3.org/Graphics/SVG/1.1/DTD/svg11.dtd">
<svg version="1.1" id="Layer_1" xmlns="http://www.w3.org/2000/svg" xmlns:xlink="http://www.w3.org/1999/xlink" x="0px" y="0px"
	 width="225px" height="225px" viewBox="0 0 225 225" enable-background="new 0 0 225 225" xml:space="preserve">
<g>
	<circle fill="#FF8158" cx="5346.54" cy="217.932" r="112.265"/>
</g>
<g>
	<rect x="5270" y="201" fill="#FFFFFF" width="102" height="15"/>
	<path fill="none" stroke="#FFFFFF" stroke-width="5" stroke-miterlimit="10" d="M5373,243.731c0,5.578-4.339,10.729-9.19,10.729
		h-84.081c-4.856,0-10.105-5.151-10.105-10.729v-50.492c0-5.577,5.249-9.222,10.105-9.222h84.081c4.852,0,9.19,3.645,9.19,9.222
		V243.731z"/>
</g>
<path fill="none" stroke="#FFFFFF" stroke-width="5" stroke-linecap="round" stroke-miterlimit="10" d="M5406.875,171.34
	c26.049,26.052,28.023,67.061,5.924,95.379"/>
<path fill="none" stroke="#FFFFFF" stroke-width="5" stroke-linecap="round" stroke-miterlimit="10" d="M5396.32,185.959
	c17.926,17.924,19.283,46.143,4.078,65.629"/>
<path fill="none" stroke="#FFFFFF" stroke-width="5" stroke-linecap="round" stroke-miterlimit="10" d="M5388.336,202.912
	c8.805,8.804,9.475,22.666,2.004,32.234"/>
<path d="M74.391,167.122c0,3.622-2.937,6.553-6.555,6.553l0,0c-3.612,0-6.551-2.931-6.551-6.553l0,0
	c0-3.609,2.938-6.552,6.551-6.552l0,0C71.454,160.57,74.391,163.513,74.391,167.122L74.391,167.122z"/>
<path d="M119.995,167.122c0,3.622-2.937,6.553-6.554,6.553l0,0c-3.613,0-6.552-2.931-6.552-6.553l0,0
	c0-3.609,2.938-6.552,6.552-6.552l0,0C117.059,160.57,119.995,163.513,119.995,167.122L119.995,167.122z"/>
<path d="M161.242,167.122c0,3.622-2.938,6.553-6.554,6.553l0,0c-3.613,0-6.552-2.931-6.552-6.553l0,0
	c0-3.609,2.938-6.552,6.552-6.552l0,0C158.305,160.57,161.242,163.513,161.242,167.122L161.242,167.122z"/>
<path d="M157.188,132.167c0-1.381-1.119-2.5-2.5-2.5h-38.884v-11.313c0-1.381-1.119-2.5-2.5-2.5s-2.5,1.119-2.5,2.5v11.313H67.838
	c-1.381,0-2.5,1.119-2.5,2.5v21.046c0,1.381,1.119,2.5,2.5,2.5s2.5-1.119,2.5-2.5v-18.546h40.467v18.546c0,1.381,1.119,2.5,2.5,2.5
	s2.5-1.119,2.5-2.5v-18.546h36.384l0.001,18.546c0,1.381,1.119,2.5,2.5,2.5s2.5-1.119,2.5-2.5L157.188,132.167z"/>
<path d="M142.137,54.438h-23.58H84.484c-2.761,0-5,2.239-5,5v34.739c0,2.761,2.239,5,5,5h26.325v6.433H96.607
	c-1.381,0-2.5,1.119-2.5,2.5s1.119,2.5,2.5,2.5h33.396c1.381,0,2.5-1.119,2.5-2.5s-1.119-2.5-2.5-2.5H115.81v-6.433h26.327
	c2.762,0,5-2.239,5-5V70.313V59.438C147.137,56.676,144.898,54.438,142.137,54.438z M142.137,70.313v23.863H84.484V59.438h34.072
	h23.58V70.313z"/>
</svg>
