<?xml version="1.0" encoding="utf-8"?>
<!-- Generator: Adobe Illustrator 16.0.0, SVG Export Plug-In . SVG Version: 6.00 Build 0)  -->
<!DOCTYPE svg PUBLIC "-//W3C//DTD SVG 1.1//EN" "http://www.w3.org/Graphics/SVG/1.1/DTD/svg11.dtd">
<svg version="1.1" id="Layer_1" xmlns="http://www.w3.org/2000/svg" xmlns:xlink="http://www.w3.org/1999/xlink" x="0px" y="0px"
	 width="225px" height="225px" viewBox="0 0 225 225" enable-background="new 0 0 225 225" xml:space="preserve">
<g>
	<path fill="none" d="M111.149,169.195c3.431,0,6.21-2.781,6.21-6.213c0-3.431-2.779-6.213-6.21-6.213
		c-3.433,0-6.213,2.782-6.213,6.213C104.937,166.414,107.717,169.195,111.149,169.195z"/>
	<path fill="#010000" d="M171.555,111.466c0.496-1.374,0.528-2.787,0.092-3.98c-0.272-0.745-0.853-1.725-2.062-2.162L110.013,83.83
		c-0.428-0.155-0.91-0.233-1.432-0.233c-1.952,0-4.336,1.132-5.117,3.297l-2.015,5.585l68.092,24.571L171.555,111.466z"/>
	<path fill="#010000" d="M97.069,104.614l-6.515,18.055c-0.563,1.562-0.008,2.974,0.374,3.675c0.639,1.174,1.697,2.118,2.832,2.527
		l59.571,21.495c2.158,0.78,4.392-0.564,5.317-3.127l6.515-18.058L97.069,104.614z M156.49,134.885l-2.916,8.081
		c-0.283,0.784-1.147,1.19-1.934,0.907l-8.078-2.915c-0.783-0.284-1.191-1.147-0.908-1.933l2.916-8.082
		c0.281-0.781,1.146-1.188,1.933-0.906l8.079,2.916C156.367,133.236,156.773,134.102,156.49,134.885z"/>
	<path fill="#010000" d="M176.66,80.78h-31.098V63.304c0-5.552-4.44-10.069-9.899-10.069H85.628c-5.459,0-9.9,4.517-9.9,10.069
		v99.157c0,5.552,4.441,10.068,9.9,10.068h50.035c5.459,0,9.899-4.518,9.899-10.068v-9.583l-53.499-19.304
		c-2.287-0.824-4.302-2.59-5.527-4.842c-1.352-2.484-1.595-5.241-0.686-7.762L98.76,85.198c1.401-3.886,5.439-6.601,9.82-6.601
		c1.103,0,2.156,0.178,3.129,0.53l33.854,12.214V85.78h31.098c2.24,0,3.865,2.049,3.865,4.872v38.032
		c0,2.807-1.59,4.766-3.865,4.766h-7.721l-1.804,5h9.523c5.055,0,8.866-4.198,8.866-9.766V90.652
		C185.525,85.024,181.715,80.78,176.66,80.78z M111.149,156.77c3.431,0,6.21,2.783,6.21,6.213c0,3.433-2.779,6.214-6.21,6.214
		c-3.433,0-6.213-2.781-6.213-6.214C104.937,159.553,107.717,156.77,111.149,156.77z"/>
</g>
</svg>
