<?xml version="1.0" encoding="utf-8"?>
<!-- Generator: Adobe Illustrator 16.0.0, SVG Export Plug-In . SVG Version: 6.00 Build 0)  -->
<!DOCTYPE svg PUBLIC "-//W3C//DTD SVG 1.1//EN" "http://www.w3.org/Graphics/SVG/1.1/DTD/svg11.dtd">
<svg version="1.1" id="Layer_1" xmlns="http://www.w3.org/2000/svg" xmlns:xlink="http://www.w3.org/1999/xlink" x="0px" y="0px"
	 width="225px" height="225px" viewBox="0 0 225 225" enable-background="new 0 0 225 225" xml:space="preserve">
<g>
	<circle fill="#FF8158" cx="5346.54" cy="217.932" r="112.265"/>
</g>
<g>
	<rect x="5270" y="201" fill="#FFFFFF" width="102" height="15"/>
	<path fill="none" stroke="#FFFFFF" stroke-width="5" stroke-miterlimit="10" d="M5373,243.73c0,5.578-4.339,10.729-9.189,10.729
		h-84.082c-4.855,0-10.104-5.151-10.104-10.729v-50.491c0-5.577,5.249-9.222,10.104-9.222h84.082c4.852,0,9.189,3.645,9.189,9.222
		V243.73z"/>
</g>
<path fill="none" stroke="#FFFFFF" stroke-width="5" stroke-linecap="round" stroke-miterlimit="10" d="M5406.875,171.34
	c26.049,26.053,28.023,67.061,5.924,95.379"/>
<path fill="none" stroke="#FFFFFF" stroke-width="5" stroke-linecap="round" stroke-miterlimit="10" d="M5396.32,185.959
	c17.926,17.924,19.283,46.143,4.078,65.629"/>
<path fill="none" stroke="#FFFFFF" stroke-width="5" stroke-linecap="round" stroke-miterlimit="10" d="M5388.336,202.912
	c8.805,8.804,9.475,22.666,2.004,32.234"/>
<path d="M114,137.875H62.513V89.787H114c1.381,0,2.5-1.119,2.5-2.5s-1.119-2.5-2.5-2.5H60.013c-1.381,0-2.5,1.119-2.5,2.5v53.088
	c0,1.381,1.119,2.5,2.5,2.5H114c1.381,0,2.5-1.119,2.5-2.5S115.381,137.875,114,137.875z"/>
<path d="M185.289,113.098l-43.875-43.854c-0.572-0.571-1.432-0.741-2.18-0.433c-0.747,0.31-1.234,1.039-1.234,1.848v39.672H88
	c-1.381,0-2.5,1.119-2.5,2.5s1.119,2.5,2.5,2.5h50v39.762c0,0.795,0.471,1.514,1.199,1.832c0.257,0.113,0.529,0.168,0.801,0.168
	c0.494,0,0.981-0.183,1.358-0.531l43.875-40.58c0.399-0.37,0.631-0.886,0.642-1.43C185.885,114.007,185.674,113.481,185.289,113.098
	z"/>
</svg>
