<?xml version="1.0" encoding="utf-8"?>
<!-- Generator: Adobe Illustrator 16.0.0, SVG Export Plug-In . SVG Version: 6.00 Build 0)  -->
<!DOCTYPE svg PUBLIC "-//W3C//DTD SVG 1.1//EN" "http://www.w3.org/Graphics/SVG/1.1/DTD/svg11.dtd">
<svg version="1.1" id="Layer_1" xmlns="http://www.w3.org/2000/svg" xmlns:xlink="http://www.w3.org/1999/xlink" x="0px" y="0px"
	 width="225px" height="225px" viewBox="0 0 225 225" enable-background="new 0 0 225 225" xml:space="preserve">
<g>
	<circle fill="#FF8158" cx="5346.54" cy="217.932" r="112.265"/>
</g>
<g>
	<rect x="5270" y="201" fill="#FFFFFF" width="102" height="15"/>
	<path fill="none" stroke="#FFFFFF" stroke-width="5" stroke-miterlimit="10" d="M5373,243.731c0,5.578-4.339,10.729-9.19,10.729
		h-84.081c-4.856,0-10.105-5.151-10.105-10.729v-50.492c0-5.577,5.249-9.222,10.105-9.222h84.081c4.852,0,9.19,3.645,9.19,9.222
		V243.731z"/>
</g>
<path fill="none" stroke="#FFFFFF" stroke-width="5" stroke-linecap="round" stroke-miterlimit="10" d="M5406.875,171.34
	c26.049,26.052,28.023,67.061,5.924,95.379"/>
<path fill="none" stroke="#FFFFFF" stroke-width="5" stroke-linecap="round" stroke-miterlimit="10" d="M5396.32,185.959
	c17.926,17.924,19.283,46.143,4.078,65.629"/>
<path fill="none" stroke="#FFFFFF" stroke-width="5" stroke-linecap="round" stroke-miterlimit="10" d="M5388.336,202.912
	c8.805,8.804,9.475,22.666,2.004,32.234"/>
<path d="M175.706,137.421H53.822c-14.593,0-26.465-10.542-26.465-23.5s11.872-23.5,26.465-23.5h121.884
	c14.592,0,26.463,10.542,26.463,23.5S190.298,137.421,175.706,137.421z M53.822,95.42c-11.836,0-21.465,8.299-21.465,18.5
	s9.629,18.5,21.465,18.5h121.884c11.835,0,21.463-8.299,21.463-18.5s-9.628-18.5-21.463-18.5H53.822z"/>
<circle cx="63.951" cy="113.921" r="9"/>
<circle cx="97.952" cy="113.921" r="9"/>
<circle cx="131.952" cy="113.921" r="9"/>
<circle cx="165.951" cy="113.921" r="9"/>
</svg>
