<?xml version="1.0" encoding="utf-8"?>
<!-- Generator: Adobe Illustrator 16.0.0, SVG Export Plug-In . SVG Version: 6.00 Build 0)  -->
<!DOCTYPE svg PUBLIC "-//W3C//DTD SVG 1.1//EN" "http://www.w3.org/Graphics/SVG/1.1/DTD/svg11.dtd">
<svg version="1.1" id="Layer_1" xmlns="http://www.w3.org/2000/svg" xmlns:xlink="http://www.w3.org/1999/xlink" x="0px" y="0px"
	 width="225px" height="225px" viewBox="0 0 225 225" enable-background="new 0 0 225 225" xml:space="preserve">
<path fill="#ffffff" d="M166.588,54.292h-45.229h-65.36c-2.761,0-5,2.239-5,5v66.631c0,2.763,2.239,5,5,5h43.487
	c-1.739,5.921-5.388,12.312-12.947,15.281h-6.688c-1.381,0-2.5,1.119-2.5,2.5s1.119,2.5,2.5,2.5h62.372c1.381,0,2.5-1.119,2.5-2.5
	s-1.119-2.5-2.5-2.5h-4.83c-7.563-2.972-11.213-9.361-12.949-15.281h42.146c2.763,0,5-2.237,5-5v-45.77v-20.86
	C171.588,56.531,169.35,54.292,166.588,54.292z M128.023,146.205H95.905c4.137-3.727,7.127-8.921,8.752-15.281h14.614
	C120.895,137.284,123.885,142.479,128.023,146.205z M166.588,80.153v45.771H55.999V59.292h65.36h45.229V80.153z"/>
<g>
	<path fill="#ffffff" d="M166.309,183.162h-0.811c-6.188,0-11.221-5.153-11.221-11.488v-11.098c0-6.336,5.033-11.49,11.221-11.49
		h0.811c6.188,0,11.222,5.154,11.222,11.49v11.098C177.529,178.009,172.496,183.162,166.309,183.162z M165.498,154.086
		c-3.43,0-6.221,2.911-6.221,6.49v11.098c0,3.578,2.791,6.488,6.221,6.488h0.811c3.431,0,6.222-2.91,6.222-6.488v-11.098
		c0-3.579-2.791-6.49-6.222-6.49H165.498L165.498,154.086z"/>
</g>
<rect x="163.998" y="150.35" fill="#ffffff" width="3.5" height="11.688"/>
<rect x="155.982" y="160.439" fill="#ffffff" width="19.53" height="3.5"/>
</svg>
