<?xml version="1.0" encoding="utf-8"?>
<!-- Generator: Adobe Illustrator 16.0.0, SVG Export Plug-In . SVG Version: 6.00 Build 0)  -->
<!DOCTYPE svg PUBLIC "-//W3C//DTD SVG 1.1//EN" "http://www.w3.org/Graphics/SVG/1.1/DTD/svg11.dtd">
<svg version="1.1" id="Layer_1" xmlns="http://www.w3.org/2000/svg" xmlns:xlink="http://www.w3.org/1999/xlink" x="0px" y="0px"
	 width="225px" height="225px" viewBox="0 0 225 225" enable-background="new 0 0 225 225" xml:space="preserve">
<g>
	<circle fill="#FF8158" cx="5346.54" cy="217.932" r="112.265"/>
</g>
<g>
	<rect x="5270" y="201" fill="#FFFFFF" width="102" height="15"/>
	<path fill="none" stroke="#FFFFFF" stroke-width="5" stroke-miterlimit="10" d="M5373,243.73c0,5.578-4.339,10.729-9.189,10.729
		h-84.082c-4.855,0-10.104-5.151-10.104-10.729v-50.491c0-5.577,5.249-9.222,10.104-9.222h84.082c4.852,0,9.189,3.645,9.189,9.222
		V243.73z"/>
</g>
<path fill="none" stroke="#FFFFFF" stroke-width="5" stroke-linecap="round" stroke-miterlimit="10" d="M5406.875,171.34
	c26.049,26.053,28.023,67.061,5.924,95.379"/>
<path fill="none" stroke="#FFFFFF" stroke-width="5" stroke-linecap="round" stroke-miterlimit="10" d="M5396.32,185.959
	c17.926,17.924,19.283,46.143,4.078,65.629"/>
<path fill="none" stroke="#FFFFFF" stroke-width="5" stroke-linecap="round" stroke-miterlimit="10" d="M5388.336,202.912
	c8.805,8.804,9.475,22.666,2.004,32.234"/>
<path d="M166.588,54.292h-45.229h-65.36c-2.761,0-5,2.239-5,5v66.631c0,2.762,2.239,5,5,5h43.487
	c-1.739,5.921-5.388,12.312-12.947,15.281h-6.688c-1.381,0-2.5,1.119-2.5,2.5s1.119,2.5,2.5,2.5h62.372c1.381,0,2.5-1.119,2.5-2.5
	s-1.119-2.5-2.5-2.5h-4.831c-7.563-2.971-11.212-9.361-12.948-15.281h42.145c2.762,0,5-2.238,5-5V80.153v-20.86
	C171.588,56.531,169.35,54.292,166.588,54.292z M128.023,146.205H95.905c4.137-3.727,7.127-8.921,8.752-15.281h14.614
	C120.895,137.284,123.885,142.479,128.023,146.205z M166.588,80.153v45.771H55.999V59.292h65.36h45.229V80.153z"/>
<g>
	<path d="M166.309,183.162h-0.811c-6.187,0-11.22-5.153-11.22-11.488v-11.098c0-6.336,5.033-11.49,11.22-11.49h0.811
		c6.188,0,11.221,5.154,11.221,11.49v11.098C177.529,178.009,172.496,183.162,166.309,183.162z M165.498,154.086
		c-3.43,0-6.22,2.911-6.22,6.49v11.098c0,3.578,2.79,6.488,6.22,6.488h0.811c3.43,0,6.221-2.91,6.221-6.488v-11.098
		c0-3.579-2.791-6.49-6.221-6.49H165.498z"/>
</g>
<rect x="163.998" y="150.35" width="3.5" height="11.688"/>
<rect x="155.982" y="160.439" width="19.531" height="3.5"/>
</svg>
