<?xml version="1.0" encoding="utf-8"?>
<!-- Generator: Adobe Illustrator 16.0.0, SVG Export Plug-In . SVG Version: 6.00 Build 0)  -->
<!DOCTYPE svg PUBLIC "-//W3C//DTD SVG 1.1//EN" "http://www.w3.org/Graphics/SVG/1.1/DTD/svg11.dtd">
<svg version="1.1" id="Layer_1" xmlns="http://www.w3.org/2000/svg" xmlns:xlink="http://www.w3.org/1999/xlink" x="0px" y="0px"
	 width="225px" height="225px" viewBox="0 0 225 225" enable-background="new 0 0 225 225" xml:space="preserve">
<path fill="#010000" d="M174.405,86.234H45.595c-4.463,0-8.095-3.487-8.095-7.772V61.673c0-4.286,3.631-7.772,8.095-7.772h128.812
	c4.464,0,8.095,3.487,8.095,7.772v16.789C182.5,82.747,178.869,86.234,174.405,86.234z M45.595,58.9
	c-1.707,0-3.095,1.244-3.095,2.772v16.789c0,1.529,1.388,2.772,3.095,2.772h128.812c1.706,0,3.095-1.244,3.095-2.772V61.673
	c0-1.529-1.389-2.772-3.095-2.772L45.595,58.9L45.595,58.9z"/>
<path fill="#010000" d="M175.405,129.875H46.595c-4.463,0-8.095-3.846-8.095-8.573V101.96c0-4.728,3.631-8.574,8.095-8.574h128.812
	c4.464,0,8.095,3.846,8.095,8.574v19.342C183.5,126.029,179.869,129.875,175.405,129.875z M46.595,98.386
	c-1.707,0-3.095,1.604-3.095,3.574v19.342c0,1.972,1.388,3.573,3.095,3.573h128.812c1.706,0,3.095-1.604,3.095-3.573V101.96
	c0-1.971-1.389-3.574-3.095-3.574H46.595z"/>
<circle fill="#010000" cx="164.236" cy="70.068" r="5.504"/>
<circle fill="#010000" cx="165.236" cy="111.629" r="5.504"/>
<path fill="#010000" d="M52,79.067c-1.381,0-2.5-1.119-2.5-2.5v-13c0-1.381,1.119-2.5,2.5-2.5s2.5,1.119,2.5,2.5v13
	C54.5,77.948,53.381,79.067,52,79.067z"/>
<path fill="#010000" d="M62,79.067c-1.381,0-2.5-1.119-2.5-2.5v-13c0-1.381,1.119-2.5,2.5-2.5s2.5,1.119,2.5,2.5v13
	C64.5,77.948,63.381,79.067,62,79.067z"/>
<path fill="#010000" d="M72,79.067c-1.381,0-2.5-1.119-2.5-2.5v-13c0-1.381,1.119-2.5,2.5-2.5s2.5,1.119,2.5,2.5v13
	C74.5,77.948,73.381,79.067,72,79.067z"/>
<path fill="#010000" d="M53,120.631c-1.381,0-2.5-1.119-2.5-2.5v-13c0-1.381,1.119-2.5,2.5-2.5s2.5,1.119,2.5,2.5v13
	C55.5,119.512,54.381,120.631,53,120.631z"/>
<path fill="#010000" d="M63,120.631c-1.381,0-2.5-1.119-2.5-2.5v-13c0-1.381,1.119-2.5,2.5-2.5s2.5,1.119,2.5,2.5v13
	C65.5,119.512,64.381,120.631,63,120.631z"/>
<path fill="#010000" d="M73,120.631c-1.381,0-2.5-1.119-2.5-2.5v-13c0-1.381,1.119-2.5,2.5-2.5s2.5,1.119,2.5,2.5v13
	C75.5,119.512,74.381,120.631,73,120.631z"/>
<path fill="#010000" d="M175.405,173.432H46.595c-4.463,0-8.095-3.847-8.095-8.574v-19.342c0-4.728,3.631-8.574,8.095-8.574h128.812
	c4.464,0,8.095,3.848,8.095,8.574v19.342C183.5,169.585,179.869,173.432,175.405,173.432z M46.595,141.941
	c-1.707,0-3.095,1.604-3.095,3.574v19.342c0,1.971,1.388,3.574,3.095,3.574h128.812c1.706,0,3.095-1.604,3.095-3.574v-19.342
	c0-1.972-1.389-3.574-3.095-3.574H46.595z"/>
<circle fill="#010000" cx="165.236" cy="155.186" r="5.504"/>
<path fill="#010000" d="M53,164.188c-1.381,0-2.5-1.119-2.5-2.5v-13c0-1.381,1.119-2.5,2.5-2.5s2.5,1.119,2.5,2.5v13
	C55.5,163.066,54.381,164.188,53,164.188z"/>
<path fill="#010000" d="M63,164.188c-1.381,0-2.5-1.119-2.5-2.5v-13c0-1.381,1.119-2.5,2.5-2.5s2.5,1.119,2.5,2.5v13
	C65.5,163.066,64.381,164.188,63,164.188z"/>
<path fill="#010000" d="M73,164.188c-1.381,0-2.5-1.119-2.5-2.5v-13c0-1.381,1.119-2.5,2.5-2.5s2.5,1.119,2.5,2.5v13
	C75.5,163.066,74.381,164.188,73,164.188z"/>
</svg>
