<?xml version="1.0" encoding="utf-8"?>
<!-- Generator: Adobe Illustrator 16.0.0, SVG Export Plug-In . SVG Version: 6.00 Build 0)  -->
<!DOCTYPE svg PUBLIC "-//W3C//DTD SVG 1.1//EN" "http://www.w3.org/Graphics/SVG/1.1/DTD/svg11.dtd">
<svg version="1.1" id="Layer_1" xmlns="http://www.w3.org/2000/svg" xmlns:xlink="http://www.w3.org/1999/xlink" x="0px" y="0px"
	 width="225px" height="225px" viewBox="0 0 225 225" enable-background="new 0 0 225 225" xml:space="preserve">
<g>
	<path fill="#ffffff" d="M196.473,89.001c0-1.38-1.119-2.499-2.5-2.499c-11.636,0-18.423-1.509-25.521-10.083
		c-0.949-1.147-2.902-1.147-3.853,0c-7.098,8.575-13.885,10.083-25.521,10.083c-1.38,0-2.499,1.118-2.5,2.499
		c-0.001,1.065-0.015,22.688,0.004,30.75c1.438,0.455,2.879,0.922,4.308,1.422c0.237,0.082,0.463,0.171,0.697,0.254
		c-0.021-5.009-0.014-23.266-0.01-29.952c10.359-0.242,17.826-2.177,24.947-9.689c7.121,7.512,14.587,9.447,24.947,9.689
		c0.004,7.312,0.012,28.482-0.018,31.028c0,3.403-4.018,9.617-22.862,19.998c0.486,1.442,0.776,2.812,0.837,4.138
		c0.012,0.307,0.021,0.683,0.031,1.088c0.051-0.027,0.1-0.054,0.15-0.082c11.522-6.233,26.844-15.623,26.844-25.112
		C196.492,119.462,196.475,90.244,196.473,89.001z"/>
</g>
<path fill="#ffffff" d="M164.436,146.83c-0.069-1.533-0.635-3.125-1.283-4.523c-1.549-3.342-4.223-5.744-7.123-7.881
	c-5.12-3.746-10.82-6.463-16.775-8.529c-5.189-1.815-10.511-3.258-15.754-4.873c-0.359-0.131-0.906-0.442-0.916-0.688
	c-0.096-2.494-0.113-4.994-0.077-7.494c0-0.387,0.325-0.863,0.614-1.18c0.969-1.125,2.076-2.143,2.975-3.322
	c3.098-4.047,4.292-8.822,4.547-13.773c0.31-6.037,0.31-12.088,0.342-18.121c0-1.168-0.082-2.347-0.215-3.52
	c8.629-2.84,14.168-7.217,14.168-12.129c0-8.56-16.777-15.496-37.476-15.496c-20.698,0-37.476,6.938-37.476,15.496
	c0,4.925,5.569,9.312,14.239,12.151c-0.018,0.218-0.04,0.434-0.053,0.653c-0.474,7.564-0.544,15.133,0.327,22.699
	c0.694,5.998,2.795,11.326,7.44,15.439c0.291,0.248,0.527,0.688,0.527,1.039c0.062,2.307,0,4.612,0.054,6.917
	c0.027,0.916-0.324,1.223-1.195,1.406c-7.399,1.786-14.62,4.102-21.552,7.231c-5.014,2.25-9.825,4.853-13.862,8.672
	c-2.815,2.64-5.147,5.647-5.332,9.642c-0.218,4.432-0.053,20.621-0.053,25.104c38.027,0,75.982,0,113.963-0.008
	C164.488,167.309,164.602,151.164,164.436,146.83z M90,154.062c0,1.623-1.315,2.938-2.938,2.938H67.938
	c-1.623,0-2.938-1.314-2.938-2.938v-4.123c0-1.623,1.315-2.938,2.938-2.938h19.125c1.623,0,2.938,1.315,2.938,2.938L90,154.062
	L90,154.062z M107.443,67.206c-4.223,0-7.648-3.425-7.648-7.65s3.426-7.648,7.648-7.648c4.226,0,7.65,3.424,7.65,7.648
	C115.094,63.781,111.669,67.206,107.443,67.206z"/>
</svg>
