<?xml version="1.0" encoding="utf-8"?>
<!-- Generator: Adobe Illustrator 16.0.0, SVG Export Plug-In . SVG Version: 6.00 Build 0)  -->
<!DOCTYPE svg PUBLIC "-//W3C//DTD SVG 1.1//EN" "http://www.w3.org/Graphics/SVG/1.1/DTD/svg11.dtd">
<svg version="1.1" id="Layer_1" xmlns="http://www.w3.org/2000/svg" xmlns:xlink="http://www.w3.org/1999/xlink" x="0px" y="0px"
	 width="225px" height="225px" viewBox="0 0 225 225" enable-background="new 0 0 225 225" xml:space="preserve">
<g>
	<circle fill="#FF8158" cx="5346.54" cy="217.932" r="112.265"/>
</g>
<g>
	<rect x="5270" y="201" fill="#FFFFFF" width="102" height="15"/>
	<path fill="none" stroke="#FFFFFF" stroke-width="5" stroke-miterlimit="10" d="M5373,243.73c0,5.578-4.339,10.729-9.189,10.729
		h-84.082c-4.855,0-10.104-5.151-10.104-10.729v-50.491c0-5.577,5.249-9.222,10.104-9.222h84.082c4.852,0,9.189,3.645,9.189,9.222
		V243.73z"/>
</g>
<path fill="none" stroke="#FFFFFF" stroke-width="5" stroke-linecap="round" stroke-miterlimit="10" d="M5406.875,171.34
	c26.049,26.053,28.023,67.061,5.924,95.379"/>
<path fill="none" stroke="#FFFFFF" stroke-width="5" stroke-linecap="round" stroke-miterlimit="10" d="M5396.32,185.959
	c17.926,17.924,19.283,46.143,4.078,65.629"/>
<path fill="none" stroke="#FFFFFF" stroke-width="5" stroke-linecap="round" stroke-miterlimit="10" d="M5388.336,202.912
	c8.805,8.804,9.475,22.666,2.004,32.234"/>
<path d="M174.405,86.234H45.595c-4.463,0-8.095-3.487-8.095-7.772V61.673c0-4.286,3.631-7.772,8.095-7.772h128.811
	c4.464,0,8.095,3.487,8.095,7.772v16.789C182.5,82.747,178.869,86.234,174.405,86.234z M45.595,58.9
	c-1.707,0-3.095,1.244-3.095,2.772v16.789c0,1.529,1.388,2.772,3.095,2.772h128.811c1.706,0,3.095-1.244,3.095-2.772V61.673
	c0-1.529-1.389-2.772-3.095-2.772H45.595z"/>
<path d="M175.405,129.875H46.595c-4.463,0-8.095-3.846-8.095-8.573v-19.342c0-4.728,3.631-8.574,8.095-8.574h128.811
	c4.464,0,8.095,3.846,8.095,8.574v19.342C183.5,126.029,179.869,129.875,175.405,129.875z M46.595,98.386
	c-1.707,0-3.095,1.603-3.095,3.574v19.342c0,1.971,1.388,3.573,3.095,3.573h128.811c1.706,0,3.095-1.603,3.095-3.573v-19.342
	c0-1.971-1.389-3.574-3.095-3.574H46.595z"/>
<circle cx="164.236" cy="70.068" r="5.504"/>
<circle cx="165.236" cy="111.629" r="5.504"/>
<path d="M52,79.067c-1.381,0-2.5-1.119-2.5-2.5v-13c0-1.381,1.119-2.5,2.5-2.5s2.5,1.119,2.5,2.5v13
	C54.5,77.948,53.381,79.067,52,79.067z"/>
<path d="M62,79.067c-1.381,0-2.5-1.119-2.5-2.5v-13c0-1.381,1.119-2.5,2.5-2.5s2.5,1.119,2.5,2.5v13
	C64.5,77.948,63.381,79.067,62,79.067z"/>
<path d="M72,79.067c-1.381,0-2.5-1.119-2.5-2.5v-13c0-1.381,1.119-2.5,2.5-2.5s2.5,1.119,2.5,2.5v13
	C74.5,77.948,73.381,79.067,72,79.067z"/>
<path d="M53,120.631c-1.381,0-2.5-1.119-2.5-2.5v-13c0-1.381,1.119-2.5,2.5-2.5s2.5,1.119,2.5,2.5v13
	C55.5,119.512,54.381,120.631,53,120.631z"/>
<path d="M63,120.631c-1.381,0-2.5-1.119-2.5-2.5v-13c0-1.381,1.119-2.5,2.5-2.5s2.5,1.119,2.5,2.5v13
	C65.5,119.512,64.381,120.631,63,120.631z"/>
<path d="M73,120.631c-1.381,0-2.5-1.119-2.5-2.5v-13c0-1.381,1.119-2.5,2.5-2.5s2.5,1.119,2.5,2.5v13
	C75.5,119.512,74.381,120.631,73,120.631z"/>
<path d="M175.405,173.432H46.595c-4.463,0-8.095-3.847-8.095-8.574v-19.342c0-4.728,3.631-8.574,8.095-8.574h128.811
	c4.464,0,8.095,3.847,8.095,8.574v19.342C183.5,169.585,179.869,173.432,175.405,173.432z M46.595,141.941
	c-1.707,0-3.095,1.604-3.095,3.574v19.342c0,1.971,1.388,3.574,3.095,3.574h128.811c1.706,0,3.095-1.604,3.095-3.574v-19.342
	c0-1.971-1.389-3.574-3.095-3.574H46.595z"/>
<circle cx="165.236" cy="155.186" r="5.504"/>
<path d="M53,164.187c-1.381,0-2.5-1.119-2.5-2.5v-13c0-1.381,1.119-2.5,2.5-2.5s2.5,1.119,2.5,2.5v13
	C55.5,163.067,54.381,164.187,53,164.187z"/>
<path d="M63,164.187c-1.381,0-2.5-1.119-2.5-2.5v-13c0-1.381,1.119-2.5,2.5-2.5s2.5,1.119,2.5,2.5v13
	C65.5,163.067,64.381,164.187,63,164.187z"/>
<path d="M73,164.187c-1.381,0-2.5-1.119-2.5-2.5v-13c0-1.381,1.119-2.5,2.5-2.5s2.5,1.119,2.5,2.5v13
	C75.5,163.067,74.381,164.187,73,164.187z"/>
</svg>
