<?xml version="1.0" encoding="utf-8"?>
<!-- Generator: Adobe Illustrator 16.0.0, SVG Export Plug-In . SVG Version: 6.00 Build 0)  -->
<!DOCTYPE svg PUBLIC "-//W3C//DTD SVG 1.1//EN" "http://www.w3.org/Graphics/SVG/1.1/DTD/svg11.dtd">
<svg version="1.1" id="Layer_1" xmlns="http://www.w3.org/2000/svg" xmlns:xlink="http://www.w3.org/1999/xlink" x="0px" y="0px"
	 width="225px" height="225px" viewBox="0 0 225 225" enable-background="new 0 0 225 225" xml:space="preserve">
<path fill="#010000" d="M170.4,63.498H56.479c-9.687,0-16.193,7.753-16.193,14.994v68.413c0,8.599,8.021,17.036,16.193,17.036H170.4
	c7.965,0,14.951-7.961,14.951-17.036V78.492C185.354,70.084,178.785,63.498,170.4,63.498z M180.354,146.905
	c0,6.188-4.838,12.036-9.953,12.036H56.479c-4.934,0-11.193-5.666-11.193-12.036v-29.484h135.067V146.905z M58.572,95.234
	c-0.797-0.546-1-1.636-0.453-2.433c0.546-0.798,1.636-1.002,2.433-0.453l5.631,3.863v-6.312c0-0.966,0.784-1.75,1.75-1.75
	c0.966,0,1.75,0.784,1.75,1.75v6.313l5.633-3.864c0.795-0.547,1.886-0.345,2.433,0.453c0.547,0.797,0.344,1.886-0.453,2.433
	l-6.269,4.3l6.269,4.3c0.797,0.546,1,1.636,0.453,2.433c-0.339,0.495-0.887,0.76-1.444,0.76c-0.341,0-0.686-0.099-0.988-0.307
	l-5.633-3.864v6.839c0,0.966-0.784,1.75-1.75,1.75c-0.966,0-1.75-0.784-1.75-1.75v-6.838l-5.631,3.863
	c-0.302,0.208-0.646,0.307-0.988,0.307c-0.558,0-1.105-0.266-1.444-0.76c-0.547-0.797-0.344-1.886,0.453-2.433l6.269-4.3
	L58.572,95.234z M88.495,95.234c-0.797-0.546-1-1.636-0.453-2.433c0.547-0.798,1.637-1,2.433-0.454l5.634,3.865v-6.313
	c0-0.966,0.784-1.75,1.75-1.75c0.966,0,1.75,0.784,1.75,1.75v6.311l5.631-3.863c0.795-0.547,1.886-0.344,2.433,0.454
	c0.547,0.797,0.344,1.886-0.453,2.433l-6.269,4.3l6.269,4.3c0.797,0.546,1,1.636,0.453,2.433c-0.339,0.495-0.887,0.76-1.444,0.76
	c-0.341,0-0.686-0.099-0.988-0.307l-5.631-3.863v6.837c0,0.966-0.784,1.75-1.75,1.75c-0.966,0-1.75-0.784-1.75-1.75v-6.84
	l-5.634,3.865c-0.302,0.208-0.647,0.307-0.988,0.307c-0.558,0-1.105-0.266-1.444-0.76c-0.547-0.797-0.344-1.886,0.453-2.433
	l6.269-4.3L88.495,95.234z M118.418,95.234c-0.797-0.546-1-1.636-0.453-2.433c0.548-0.796,1.637-1.001,2.434-0.453l5.632,3.863
	v-6.312c0-0.966,0.782-1.75,1.75-1.75c0.967,0,1.75,0.784,1.75,1.75v6.312l5.631-3.863c0.797-0.548,1.885-0.344,2.434,0.453
	c0.548,0.797,0.345,1.887-0.452,2.433l-6.269,4.3l6.269,4.3c0.797,0.546,1,1.636,0.452,2.433c-0.34,0.494-0.888,0.76-1.444,0.76
	c-0.342,0-0.687-0.099-0.988-0.307l-5.631-3.863v6.838c0,0.966-0.783,1.75-1.75,1.75s-1.75-0.784-1.75-1.75v-6.838l-5.631,3.863
	c-0.303,0.208-0.647,0.307-0.988,0.307c-0.559,0-1.105-0.266-1.445-0.76c-0.547-0.797-0.344-1.887,0.453-2.433l6.268-4.3
	L118.418,95.234z M148.338,95.234c-0.797-0.547-1-1.636-0.453-2.433c0.547-0.796,1.637-1,2.434-0.454l5.636,3.864v-6.312
	c0-0.966,0.783-1.75,1.75-1.75s1.75,0.784,1.75,1.75v6.312l5.633-3.863c0.798-0.548,1.888-0.344,2.435,0.454
	c0.547,0.797,0.344,1.886-0.453,2.433l-6.271,4.3l6.271,4.3c0.797,0.547,1,1.636,0.453,2.433c-0.34,0.495-0.889,0.76-1.445,0.76
	c-0.342,0-0.686-0.099-0.988-0.307l-5.633-3.863v6.838c0,0.966-0.783,1.75-1.75,1.75s-1.75-0.784-1.75-1.75v-6.839l-5.635,3.864
	c-0.303,0.208-0.647,0.307-0.988,0.307c-0.559,0-1.105-0.266-1.445-0.76c-0.547-0.797-0.344-1.886,0.453-2.433l6.27-4.3
	L148.338,95.234z M180.354,83.087H45.285v-4.595c0-5.978,5.788-9.994,11.193-9.994H170.4c4.824,0,9.951,3.503,9.951,9.994v4.595
	H180.354z"/>
</svg>
