<?xml version="1.0" encoding="utf-8"?>
<!-- Generator: Adobe Illustrator 16.0.0, SVG Export Plug-In . SVG Version: 6.00 Build 0)  -->
<!DOCTYPE svg PUBLIC "-//W3C//DTD SVG 1.1//EN" "http://www.w3.org/Graphics/SVG/1.1/DTD/svg11.dtd">
<svg version="1.1" id="Layer_1" xmlns="http://www.w3.org/2000/svg" xmlns:xlink="http://www.w3.org/1999/xlink" x="0px" y="0px"
	 width="225px" height="225px" viewBox="0 0 225 225" enable-background="new 0 0 225 225" xml:space="preserve">
<path d="M170.4,63.498H56.479c-9.687,0-16.193,7.753-16.193,14.994v68.413c0,8.599,8.021,17.037,16.193,17.037H170.4
	c7.965,0,14.952-7.961,14.952-17.037V78.492C185.353,70.084,178.785,63.498,170.4,63.498z M180.353,146.905
	c0,6.188-4.837,12.037-9.952,12.037H56.479c-4.934,0-11.193-5.667-11.193-12.037v-29.484h135.067V146.905z M58.572,95.234
	c-0.797-0.546-1-1.636-0.453-2.433c0.546-0.798,1.636-1.002,2.433-0.453l5.631,3.863v-6.312c0-0.966,0.784-1.75,1.75-1.75
	s1.75,0.784,1.75,1.75v6.313l5.633-3.864c0.795-0.547,1.886-0.345,2.433,0.453c0.547,0.797,0.344,1.886-0.453,2.433l-6.269,4.3
	l6.269,4.3c0.797,0.546,1,1.636,0.453,2.433c-0.339,0.495-0.887,0.76-1.444,0.76c-0.341,0-0.686-0.099-0.988-0.307l-5.633-3.864
	v6.839c0,0.966-0.784,1.75-1.75,1.75s-1.75-0.784-1.75-1.75v-6.838l-5.631,3.863c-0.302,0.208-0.647,0.307-0.988,0.307
	c-0.558,0-1.105-0.266-1.444-0.76c-0.547-0.797-0.344-1.886,0.453-2.433l6.269-4.3L58.572,95.234z M88.495,95.234
	c-0.797-0.546-1-1.636-0.453-2.433c0.547-0.798,1.637-1,2.433-0.454l5.634,3.865v-6.313c0-0.966,0.784-1.75,1.75-1.75
	s1.75,0.784,1.75,1.75v6.311l5.631-3.863c0.795-0.547,1.886-0.344,2.433,0.454c0.547,0.797,0.344,1.886-0.453,2.433l-6.269,4.3
	l6.269,4.3c0.797,0.546,1,1.636,0.453,2.433c-0.339,0.495-0.887,0.76-1.444,0.76c-0.341,0-0.686-0.099-0.988-0.307l-5.631-3.863
	v6.837c0,0.966-0.784,1.75-1.75,1.75s-1.75-0.784-1.75-1.75v-6.84l-5.634,3.865c-0.302,0.208-0.647,0.307-0.988,0.307
	c-0.558,0-1.105-0.266-1.444-0.76c-0.547-0.797-0.344-1.886,0.453-2.433l6.269-4.3L88.495,95.234z M118.418,95.234
	c-0.797-0.546-1-1.636-0.453-2.433c0.548-0.796,1.637-1.001,2.434-0.453l5.631,3.863v-6.312c0-0.966,0.783-1.75,1.75-1.75
	s1.75,0.784,1.75,1.75v6.312l5.631-3.863c0.797-0.548,1.885-0.344,2.434,0.453c0.547,0.797,0.344,1.887-0.453,2.433l-6.268,4.3
	l6.268,4.3c0.797,0.546,1,1.636,0.453,2.433c-0.34,0.494-0.888,0.76-1.445,0.76c-0.341,0-0.686-0.099-0.988-0.307l-5.631-3.863
	v6.838c0,0.966-0.783,1.75-1.75,1.75s-1.75-0.784-1.75-1.75v-6.838l-5.631,3.863c-0.303,0.208-0.647,0.307-0.988,0.307
	c-0.558,0-1.105-0.266-1.445-0.76c-0.547-0.797-0.344-1.887,0.453-2.433l6.268-4.3L118.418,95.234z M148.338,95.234
	c-0.797-0.547-1-1.636-0.453-2.433c0.547-0.796,1.637-1,2.434-0.454l5.635,3.864v-6.312c0-0.966,0.783-1.75,1.75-1.75
	s1.75,0.784,1.75,1.75v6.312l5.633-3.863c0.798-0.548,1.887-0.344,2.434,0.454c0.547,0.797,0.344,1.886-0.453,2.433l-6.27,4.3
	l6.27,4.3c0.797,0.547,1,1.636,0.453,2.433c-0.339,0.495-0.888,0.76-1.445,0.76c-0.341,0-0.686-0.099-0.988-0.307l-5.633-3.863
	v6.838c0,0.966-0.783,1.75-1.75,1.75s-1.75-0.784-1.75-1.75v-6.839l-5.635,3.864c-0.303,0.208-0.647,0.307-0.988,0.307
	c-0.558,0-1.106-0.266-1.445-0.76c-0.547-0.797-0.344-1.886,0.453-2.433l6.27-4.3L148.338,95.234z M180.353,83.087H45.285v-4.595
	c0-5.978,5.788-9.994,11.193-9.994H170.4c4.824,0,9.952,3.503,9.952,9.994V83.087z"/>
</svg>
