<?xml version="1.0" encoding="utf-8"?>
<!-- Generator: Adobe Illustrator 15.1.0, SVG Export Plug-In . SVG Version: 6.00 Build 0)  -->
<!DOCTYPE svg PUBLIC "-//W3C//DTD SVG 1.1//EN" "http://www.w3.org/Graphics/SVG/1.1/DTD/svg11.dtd">
<svg version="1.1" id="Layer_1" xmlns="http://www.w3.org/2000/svg" xmlns:xlink="http://www.w3.org/1999/xlink" x="0px" y="0px"
	 width="225px" height="225px" viewBox="0 0 225 225" enable-background="new 0 0 225 225" xml:space="preserve">
<g>
	<path fill="#ffffff" d="M74.275,106.003c-0.546-0.797-1.638-1-2.433-0.453l-6.142,4.213v-6.897c0-0.966-0.784-1.75-1.75-1.75
		c-0.966,0-1.75,0.784-1.75,1.75v6.897l-6.142-4.213c-0.797-0.548-1.886-0.345-2.433,0.453c-0.547,0.797-0.344,1.886,0.453,2.433
		l6.778,4.649l-6.778,4.649c-0.797,0.547-1,1.637-0.453,2.434c0.339,0.494,0.887,0.76,1.444,0.76c0.341,0,0.686-0.1,0.988-0.307
		l6.142-4.213v7.457c0,0.967,0.784,1.75,1.75,1.75c0.966,0,1.75-0.783,1.75-1.75v-7.457l6.142,4.213
		c0.302,0.207,0.647,0.307,0.988,0.307c0.557,0,1.105-0.266,1.444-0.76c0.547-0.797,0.344-1.887-0.453-2.434l-6.778-4.649
		l6.778-4.649C74.62,107.889,74.822,106.8,74.275,106.003z"/>
	<path fill="#ffffff" d="M108.275,106.003c-0.546-0.797-1.637-1-2.433-0.453l-6.142,4.213v-6.897c0-0.966-0.784-1.75-1.75-1.75
		c-0.966,0-1.75,0.784-1.75,1.75v6.897l-6.142-4.213c-0.796-0.548-1.887-0.345-2.433,0.453c-0.547,0.797-0.344,1.886,0.453,2.433
		l6.778,4.649l-6.778,4.649c-0.797,0.547-1,1.637-0.453,2.434c0.339,0.494,0.887,0.76,1.444,0.76c0.341,0,0.686-0.1,0.988-0.307
		l6.142-4.213v7.457c0,0.967,0.784,1.75,1.75,1.75c0.966,0,1.75-0.783,1.75-1.75v-7.457l6.142,4.213
		c0.302,0.207,0.647,0.307,0.988,0.307c0.557,0,1.105-0.266,1.444-0.76c0.547-0.797,0.344-1.887-0.453-2.434l-6.778-4.649
		l6.778-4.649C108.62,107.889,108.822,106.8,108.275,106.003z"/>
	<path fill="#ffffff" d="M142.275,106.003c-0.549-0.798-1.637-1-2.436-0.453l-6.141,4.212v-6.896c0-0.966-0.783-1.75-1.75-1.75
		c-0.969,0-1.75,0.784-1.75,1.75v6.896l-6.143-4.212c-0.798-0.547-1.886-0.344-2.434,0.453c-0.547,0.797-0.344,1.886,0.453,2.433
		l6.777,4.649l-6.777,4.649c-0.797,0.547-1,1.637-0.453,2.434c0.34,0.494,0.889,0.76,1.445,0.76c0.341,0,0.686-0.1,0.988-0.307
		l6.141-4.213v7.457c0,0.967,0.783,1.75,1.75,1.75s1.75-0.783,1.75-1.75v-7.457l6.141,4.213c0.303,0.207,0.646,0.307,0.988,0.307
		c0.558,0,1.105-0.266,1.445-0.76c0.547-0.797,0.344-1.887-0.453-2.434l-6.777-4.649l6.777-4.649
		C142.619,107.889,142.822,106.8,142.275,106.003z"/>
	<path fill="#ffffff" d="M175.822,117.734l-6.777-4.649l6.777-4.649c0.797-0.546,1-1.636,0.453-2.433
		c-0.549-0.798-1.637-1-2.436-0.453l-6.141,4.212v-6.896c0-0.966-0.783-1.75-1.75-1.75c-0.969,0-1.75,0.784-1.75,1.75v6.896
		l-6.143-4.212c-0.797-0.547-1.886-0.344-2.434,0.453c-0.547,0.797-0.344,1.886,0.453,2.433l6.777,4.649l-6.777,4.649
		c-0.797,0.547-1,1.637-0.453,2.434c0.34,0.494,0.889,0.76,1.445,0.76c0.341,0,0.686-0.1,0.988-0.307l6.141-4.213v7.457
		c0,0.967,0.783,1.75,1.75,1.75s1.75-0.783,1.75-1.75v-7.457l6.141,4.213c0.303,0.207,0.646,0.307,0.988,0.307
		c0.558,0,1.105-0.266,1.445-0.76C176.822,119.371,176.619,118.281,175.822,117.734z"/>
</g>
<path fill="#ffffff" d="M175.705,137.145H53.822c-14.593,0-26.465-10.541-26.465-23.5c0-12.958,11.872-23.5,26.465-23.5h121.883
	c14.592,0,26.463,10.542,26.463,23.5C202.168,126.604,190.297,137.145,175.705,137.145z M53.822,95.144
	c-11.836,0-21.465,8.299-21.465,18.5c0,10.2,9.629,18.5,21.465,18.5h121.883c11.835,0,21.463-8.3,21.463-18.5
	c0-10.203-9.628-18.5-21.463-18.5H53.822z"/>
</svg>
