<?xml version="1.0" encoding="utf-8"?>
<!-- Generator: Adobe Illustrator 16.0.0, SVG Export Plug-In . SVG Version: 6.00 Build 0)  -->
<!DOCTYPE svg PUBLIC "-//W3C//DTD SVG 1.1//EN" "http://www.w3.org/Graphics/SVG/1.1/DTD/svg11.dtd">
<svg version="1.1" id="Layer_1" xmlns="http://www.w3.org/2000/svg" xmlns:xlink="http://www.w3.org/1999/xlink" x="0px" y="0px"
	 width="225px" height="225px" viewBox="0 0 225 225" enable-background="new 0 0 225 225" xml:space="preserve">
<path fill="none" stroke="#000000" stroke-width="5" stroke-linecap="round" stroke-linejoin="round" stroke-miterlimit="10" d="
	M176.562,81.33"/>
<path fill="#010000" d="M181,96.633c2.21,0,4.002-1.792,4.002-4.002V73.047c0-2.21-1.792-4.002-4.002-4.002h-67.396
	C113.47,69.017,113.331,69,113.188,69H38.334c-1.104,0-2,0.896-2,2v85.812c0,1.104,0.896,2,2,2h74.621
	c0.078,0.004,0.152,0.022,0.232,0.022H181c2.21,0,4.002-1.792,4.002-4.002v-17.699c0-2.21-1.792-4.002-4.002-4.002
	s-4.002,1.792-4.002,4.002v13.697h-59.809V77.049h59.809v15.583C176.998,94.842,178.79,96.633,181,96.633z M77.974,113.869
	l31.212-36.433v72L77.974,113.869z M40.334,77.043l32.392,36.911l-32.392,37.812V77.043z M42.108,73h65.703l-32.456,37.885
	L42.108,73z M42.897,154.812l32.448-37.875l33.238,37.875H75.76H42.897z"/>
</svg>
