<?xml version="1.0" encoding="utf-8"?>
<!-- Generator: Adobe Illustrator 16.0.0, SVG Export Plug-In . SVG Version: 6.00 Build 0)  -->
<!DOCTYPE svg PUBLIC "-//W3C//DTD SVG 1.1//EN" "http://www.w3.org/Graphics/SVG/1.1/DTD/svg11.dtd">
<svg version="1.1" id="Layer_1" xmlns="http://www.w3.org/2000/svg" xmlns:xlink="http://www.w3.org/1999/xlink" x="0px" y="0px"
	 width="225px" height="225px" viewBox="0 0 225 225" enable-background="new 0 0 225 225" xml:space="preserve">
<g>
	<path fill="#010000" d="M65.203,52h-22c-1.381,0-2.5,1.119-2.5,2.5v14.829v100.838c0,1.381,1.119,2.5,2.5,2.5h22
		c1.381,0,2.5-1.119,2.5-2.5V69.329V54.5C67.703,53.119,66.584,52,65.203,52z M62.703,135.338l-17,16.807v-15.238l17-16.807V135.338
		z M62.703,102.958l-17,16.806v-15.236l17-16.807V102.958z M45.703,87.384V71.829h15.733L45.703,87.384z M62.703,66.829h-17V57h17
		V66.829z M62.703,167.667H47.335l15.368-15.192V167.667z"/>
	<path fill="#010000" d="M123.081,52h-22c-1.381,0-2.5,1.119-2.5,2.5v14.829v100.838c0,1.381,1.119,2.5,2.5,2.5h22
		c1.381,0,2.5-1.119,2.5-2.5V69.329V54.5C125.581,53.119,124.462,52,123.081,52z M120.581,135.338l-17,16.807v-15.238l17-16.807
		V135.338z M120.581,102.958l-17,16.806v-15.236l17-16.807V102.958z M103.581,87.384V71.829h15.733L103.581,87.384z M120.581,66.829
		h-17V57h17V66.829z M120.581,167.667h-15.368l15.368-15.192V167.667z"/>
	<path fill="#010000" d="M180.46,52h-22c-1.381,0-2.5,1.119-2.5,2.5v14.829v100.838c0,1.381,1.119,2.5,2.5,2.5h22
		c1.381,0,2.5-1.119,2.5-2.5V69.329V54.5C182.96,53.119,181.841,52,180.46,52z M177.96,135.338l-17,16.807v-15.238l17-16.807
		V135.338z M177.96,102.958l-17,16.806v-15.236l17-16.807V102.958z M160.96,87.384V71.829h15.733L160.96,87.384z M177.96,66.829h-17
		V57h17V66.829z M177.96,167.667h-15.368l15.368-15.192V167.667z"/>
</g>
</svg>
