<?xml version="1.0" encoding="utf-8"?>
<!-- Generator: Adobe Illustrator 16.0.0, SVG Export Plug-In . SVG Version: 6.00 Build 0)  -->
<!DOCTYPE svg PUBLIC "-//W3C//DTD SVG 1.1//EN" "http://www.w3.org/Graphics/SVG/1.1/DTD/svg11.dtd">
<svg version="1.1" id="Layer_1" xmlns="http://www.w3.org/2000/svg" xmlns:xlink="http://www.w3.org/1999/xlink" x="0px" y="0px"
	 width="225px" height="225px" viewBox="0 0 225 225" enable-background="new 0 0 225 225" xml:space="preserve">
<g>
	<polygon points="43.203,54.5 65.203,54.5 43.203,54.5 43.203,93.371 65.203,71.621 65.203,81.733 43.203,103.483 43.203,125.751 
		65.203,104.001 65.203,114.112 43.203,135.86 43.203,158.132 65.203,136.382 65.203,146.488 43.203,168.236 	"/>
	<path d="M62.703,77.608v3.081l-3.516,3.476L45.703,97.496v-3.081l3.515-3.476L62.703,77.608 M62.703,109.988v3.08l-3.515,3.475
		l-13.485,13.331v-3.079l3.515-3.476L62.703,109.988 M62.703,142.369v3.075l-3.515,3.475l-13.485,13.33v-3.073l3.515-3.476
		L62.703,142.369 M65.203,52h-22c-1.381,0-2.5,1.119-2.5,2.5v14.829v100.838c0,1.381,1.119,2.5,2.5,2.5h22
		c1.381,0,2.5-1.119,2.5-2.5V69.329V54.5C67.703,53.119,66.584,52,65.203,52L65.203,52z M45.703,66.829V57h17v9.829H45.703
		L45.703,66.829z M45.703,87.384V71.829h15.733L45.703,87.384L45.703,87.384z M45.703,119.764v-15.236l17-16.807v15.237
		L45.703,119.764L45.703,119.764z M45.703,152.145v-15.24l17-16.806v15.239L45.703,152.145L45.703,152.145z M47.335,167.667
		l15.368-15.192v15.192H47.335L47.335,167.667z"/>
</g>
<g>
	<circle fill="#FF8158" cx="5346.54" cy="217.932" r="112.265"/>
</g>
<g>
	<rect x="5270" y="201" fill="#FFFFFF" width="102" height="15"/>
	<path fill="none" stroke="#FFFFFF" stroke-width="5" stroke-miterlimit="10" d="M5373,243.73c0,5.578-4.339,10.729-9.189,10.729
		h-84.082c-4.855,0-10.104-5.151-10.104-10.729v-50.491c0-5.577,5.249-9.222,10.104-9.222h84.082c4.852,0,9.189,3.645,9.189,9.222
		V243.73z"/>
</g>
<path fill="none" stroke="#FFFFFF" stroke-width="5" stroke-linecap="round" stroke-miterlimit="10" d="M5406.875,171.34
	c26.049,26.053,28.023,67.061,5.924,95.379"/>
<path fill="none" stroke="#FFFFFF" stroke-width="5" stroke-linecap="round" stroke-miterlimit="10" d="M5396.32,185.959
	c17.926,17.924,19.283,46.143,4.078,65.629"/>
<path fill="none" stroke="#FFFFFF" stroke-width="5" stroke-linecap="round" stroke-miterlimit="10" d="M5388.336,202.912
	c8.805,8.804,9.475,22.666,2.004,32.234"/>
<g>
	<polygon points="101.081,54.5 123.081,54.5 101.081,54.5 101.081,93.371 123.081,71.621 123.081,81.733 101.081,103.483 
		101.081,125.751 123.081,104.001 123.081,114.112 101.081,135.86 101.081,158.132 123.081,136.382 123.081,146.488 
		101.081,168.236 	"/>
	<path d="M120.581,77.608v3.081l-3.516,3.476l-13.484,13.332v-3.081l3.515-3.476L120.581,77.608 M120.581,109.988v3.08l-3.515,3.475
		l-13.485,13.331v-3.079l3.515-3.476L120.581,109.988 M120.581,142.369v3.075l-3.515,3.475l-13.485,13.33v-3.073l3.515-3.476
		L120.581,142.369 M123.081,52h-22c-1.381,0-2.5,1.119-2.5,2.5v14.829v100.838c0,1.381,1.119,2.5,2.5,2.5h22
		c1.381,0,2.5-1.119,2.5-2.5V69.329V54.5C125.581,53.119,124.462,52,123.081,52L123.081,52z M103.581,66.829V57h17v9.829H103.581
		L103.581,66.829z M103.581,87.384V71.829h15.733L103.581,87.384L103.581,87.384z M103.581,119.764v-15.236l17-16.807v15.237
		L103.581,119.764L103.581,119.764z M103.581,152.145v-15.24l17-16.806v15.239L103.581,152.145L103.581,152.145z M105.213,167.667
		l15.368-15.192v15.192H105.213L105.213,167.667z"/>
</g>
<g>
	<polygon points="158.46,54.5 180.46,54.5 158.46,54.5 158.46,93.371 180.46,71.621 180.46,81.733 158.46,103.483 158.46,125.751 
		180.46,104.001 180.46,114.112 158.46,135.86 158.46,158.132 180.46,136.382 180.46,146.488 158.46,168.236 	"/>
	<path d="M177.96,77.608v3.081l-3.516,3.476L160.96,97.496v-3.081l3.516-3.476L177.96,77.608 M177.96,109.988v3.08l-3.515,3.475
		l-13.485,13.331v-3.079l3.516-3.476L177.96,109.988 M177.96,142.369v3.075l-3.515,3.475l-13.485,13.33v-3.073l3.516-3.476
		L177.96,142.369 M180.46,52h-22c-1.381,0-2.5,1.119-2.5,2.5v14.829v100.838c0,1.381,1.119,2.5,2.5,2.5h22
		c1.381,0,2.5-1.119,2.5-2.5V69.329V54.5C182.96,53.119,181.841,52,180.46,52L180.46,52z M160.96,66.829V57h17v9.829H160.96
		L160.96,66.829z M160.96,87.384V71.829h15.733L160.96,87.384L160.96,87.384z M160.96,119.764v-15.236l17-16.807v15.237
		L160.96,119.764L160.96,119.764z M160.96,152.145v-15.24l17-16.806v15.239L160.96,152.145L160.96,152.145z M162.592,167.667
		l15.368-15.192v15.192H162.592L162.592,167.667z"/>
</g>
</svg>
