<?xml version="1.0" encoding="utf-8"?>
<!-- Generator: Adobe Illustrator 16.0.0, SVG Export Plug-In . SVG Version: 6.00 Build 0)  -->
<!DOCTYPE svg PUBLIC "-//W3C//DTD SVG 1.1//EN" "http://www.w3.org/Graphics/SVG/1.1/DTD/svg11.dtd">
<svg version="1.1" id="Layer_1" xmlns="http://www.w3.org/2000/svg" xmlns:xlink="http://www.w3.org/1999/xlink" x="0px" y="0px"
	 width="225.07px" height="225.07px" viewBox="0 0 225.07 225.07" enable-background="new 0 0 225.07 225.07" xml:space="preserve">
<g>
	<path fill="#ffffff" d="M167.893,97.918c-1.49-2.554-2.896-4.967-2.767-6.619c0.069-0.872,0.165-1.753,0.259-2.615
		c0.414-3.818,0.807-7.423-1.154-9.609c-0.646-0.72-1.826-1.578-3.787-1.578c-0.637,0-1.31,0.087-2.055,0.267
		c-1.242,0.3-2.517,0.685-3.746,1.059c-2.166,0.656-4.406,1.334-5.886,1.334c-0.97,0-0.996-0.15-1.104-0.781
		c-1.312-7.667-9.83-8.954-17.713-9.558c-6.345-0.486-8.244-1.65-8.513-1.837c-0.521-0.579-1.29-0.889-2.084-0.815
		c-0.907,0.083-1.696,0.652-2.062,1.486l-2.641,6.028c-0.105,0.016-0.217,0.032-0.308,0.045c-0.266,0.038-0.65,0.094-1.081,0.212
		c-0.56,3.492-1.472,7.098-2.619,10.709c0.088,0.517,0.18,1.045,0.277,1.593c0.175,0.982,0.341,1.91,0.414,2.493
		c0.113,0.905,0.408,1.694,0.663,2.34c-1.075,0.186-1.823,0.201-2.486,0.214c-0.439,0.009-0.854,0.031-1.256,0.084
		c-1.456,3.729-3.087,7.386-4.764,10.846c0.104-0.005,0.206-0.001,0.312-0.009c1.525-0.11,3.065-0.375,3.995-1.561
		c0.893-1.139,0.679-2.404,0.575-3.011c-0.086-0.501-0.083-0.505,0.06-0.711c0.253-0.369,0.407-0.54,0.481-0.613
		c0.156-0.016,0.45-0.022,0.695-0.027c0.788-0.015,1.867-0.037,3.402-0.315c1.236-0.224,2.981-0.703,3.854-2.272
		c0.901-1.62,0.258-3.249-0.168-4.327c-0.178-0.451-0.362-0.917-0.405-1.261c-0.091-0.711-0.259-1.654-0.452-2.746
		c-0.33-1.855-0.916-5.146-0.86-6.678c0.022-0.003,0.043-0.006,0.064-0.009c0.87-0.124,2.323-0.331,3.435-1.583
		c0.174-0.195,0.315-0.416,0.419-0.655l1.865-4.257c1.832,0.682,4.604,1.302,8.801,1.624c9.042,0.693,12.611,2.161,13.169,5.415
		c0.535,3.138,2.733,4.938,6.03,4.938c2.222,0,4.705-0.753,7.334-1.549c1.164-0.353,2.368-0.717,3.472-0.984
		c0.554-0.134,0.851-0.135,0.987-0.124c0.382,0.872,0.06,3.838-0.136,5.642c-0.1,0.912-0.2,1.843-0.272,2.763
		c-0.254,3.212,1.536,6.281,3.431,9.531c2.461,4.219,5.005,8.581,3.923,13.847c-1.021,4.967-8.572,6.406-15.234,7.678
		c-4.884,0.93-8.741,1.666-10.7,3.842c-1.431,1.588-2.447,4-3.524,6.553c-2.582,6.119-4.794,10.451-9.763,10.451l-0.229-0.002
		c-2.646-0.068-5.042-0.105-7.228-0.139c-6.229-0.096-10.73-0.164-14.136-0.875c-1.599-0.332-3.031,0.137-3.946,1.258
		c-1.83,2.244-1.025,6.16,0.308,12.648c0.791,3.849,1.689,8.215,1.931,12.238c0.164,2.733-0.301,4.768-1.346,5.877
		c-0.778,0.825-1.982,1.244-3.578,1.244c-1.781,0-3.94-0.533-6.08-1.498c-1.464-0.662-2.829-0.984-4.17-0.984
		c-2.026,0-3.556,0.76-4.676,1.312c-0.699,0.349-1.251,0.621-1.674,0.621c-0.387,0-0.906-0.233-1.543-0.694
		c-3.294-2.396-3.634-2.838-5.065-4.709c-0.653-0.854-1.547-2.022-2.974-3.713c-4.658-5.517-7.822-11.357-11.418-18.996
		c-2.271-4.822-1.285-5.826,1.348-8.509c0.871-0.886,1.857-1.89,2.824-3.146c0.64-0.834,2.342-3.045,1.407-5.248
		c-0.903-2.129-3.262-2.397-5.343-2.631c-0.256-0.03-0.52-0.062-0.784-0.094c1.387-1.289,2.737-3.236,1.829-5.953
		c-0.675-2.021-2.239-4.521-3.751-6.938c-0.571-0.912-1.309-2.093-1.863-3.073c0.972-0.023,2.438,0.002,3.874,0.031
		c1.131,0.023,2.299,0.046,3.428,0.046c3.385,0,5.429-0.221,6.836-0.741c1.105-0.408,1.895-0.91,2.484-1.461
		c-0.907-1.725-1.821-3.525-2.724-5.385c-0.065,0.188-0.125,0.367-0.181,0.534c-0.433,1.3-0.433,1.3-1.311,1.624
		c-0.776,0.287-2.493,0.432-5.104,0.432c-1.097,0-2.23-0.023-3.327-0.045c-1.063-0.021-2.093-0.042-3.028-0.042
		c-3.268,0-5.004,0.222-6.033,1.486c-1.74,2.137-0.066,4.814,2.709,9.25c1.294,2.067,2.761,4.414,3.248,5.871
		c0.02,0.061,0.024,0.096,0.025,0.096c-0.081,0.356-1.138,1.133-1.59,1.467c-1.109,0.817-2.629,1.937-2.454,3.839
		c0.114,1.231,0.897,2.209,2.328,2.901c1.559,0.756,3.371,0.961,4.827,1.125c0.122,0.014,0.255,0.028,0.393,0.045
		c-0.741,0.938-1.525,1.737-2.285,2.51c-2.978,3.034-6.057,6.169-2.304,14.142c3.664,7.783,7.128,14.18,12.122,20.094
		c1.349,1.597,2.166,2.666,2.823,3.523c1.718,2.246,2.379,3.016,6.098,5.717c1.529,1.111,2.995,1.649,4.481,1.649
		c1.596,0,2.873-0.633,3.898-1.143c0.892-0.443,1.596-0.793,2.449-0.793c0.616,0,1.308,0.178,2.112,0.541
		c1.962,0.884,4.966,1.94,8.138,1.94c2.987,0,5.483-0.975,7.221-2.818c2.042-2.167,2.948-5.4,2.695-9.605
		c-0.263-4.379-1.198-8.929-2.023-12.943c-0.542-2.638-1.248-6.073-1.282-7.815c3.68,0.631,8.125,0.699,14.083,0.791
		c2.169,0.033,4.548,0.069,7.174,0.137l0.357,0.005c8.672,0,11.965-7.808,14.369-13.509c0.908-2.151,1.768-4.187,2.635-5.149
		c0.834-0.926,4.931-1.707,7.921-2.277c7.386-1.408,17.503-3.336,19.196-11.582C173.859,108.151,170.551,102.477,167.893,97.918z"/>
	<g>
		<path fill="#ffffff" d="M106.899,58.345c-2.923-5.529-9.373-8.331-19.171-8.331c-9.798,0-16.249,2.803-19.172,8.332
			c-5.438,10.286,1.188,29.141,8.966,44.762c0.002,0.003,0.003,0.007,0.005,0.01c3.493,7.015,7.218,13.378,10.187,18.018
			c2.395-3.78,6.533-10.615,10.508-18.594c0.001-0.003,0.003-0.006,0.004-0.009c0.708-1.422,1.412-2.875,2.098-4.358
			c0.035-0.076,0.065-0.148,0.101-0.224C108.777,79.834,111.02,66.14,106.899,58.345z M87.728,79.175
			c-4.938,0-8.942-4.003-8.942-8.942s4.003-8.942,8.942-8.942s8.942,4.003,8.942,8.942S92.667,79.175,87.728,79.175z"/>
	</g>
</g>
</svg>
