<?xml version="1.0" encoding="utf-8"?>
<!-- Generator: Adobe Illustrator 16.0.0, SVG Export Plug-In . SVG Version: 6.00 Build 0)  -->
<!DOCTYPE svg PUBLIC "-//W3C//DTD SVG 1.1//EN" "http://www.w3.org/Graphics/SVG/1.1/DTD/svg11.dtd">
<svg version="1.1" id="Layer_1" xmlns="http://www.w3.org/2000/svg" xmlns:xlink="http://www.w3.org/1999/xlink" x="0px" y="0px"
	 width="225px" height="225px" viewBox="0 0 225 225" enable-background="new 0 0 225 225" xml:space="preserve">
<path fill="#ffffff" d="M168,172.4h-34.48c-1.381,0-2.5-1.119-2.5-2.5s1.119-2.5,2.5-2.5h31.98V58.354H59.106V167.4h31.979
	c1.381,0,2.5,1.119,2.5,2.5s-1.119,2.5-2.5,2.5H56.606c-1.381,0-2.5-1.119-2.5-2.5V55.854c0-1.381,1.119-2.5,2.5-2.5H168
	c1.381,0,2.5,1.119,2.5,2.5V169.9C170.5,171.281,169.381,172.4,168,172.4z"/>
</svg>
