<?xml version="1.0" encoding="utf-8"?>
<!-- Generator: Adobe Illustrator 16.0.0, SVG Export Plug-In . SVG Version: 6.00 Build 0)  -->
<!DOCTYPE svg PUBLIC "-//W3C//DTD SVG 1.1//EN" "http://www.w3.org/Graphics/SVG/1.1/DTD/svg11.dtd">
<svg version="1.1" id="Layer_1" xmlns="http://www.w3.org/2000/svg" xmlns:xlink="http://www.w3.org/1999/xlink" x="0px" y="0px"
	 width="225px" height="225px" viewBox="0 0 225 225" enable-background="new 0 0 225 225" xml:space="preserve">
<g>
	<path fill="#000000" d="M114.191,52.651c-0.453-0.46-1.082-0.746-1.779-0.746c-0.656,0-1.249,0.258-1.695,0.672
		c-0.024,0.022-0.052,0.038-0.075,0.061L91.311,71.973c-0.976,0.977-0.976,2.559,0,3.536c0.977,0.976,2.559,0.976,3.536,0
		l15.065-15.068v35.781c0,1.381,1.119,2.5,2.5,2.5s2.5-1.119,2.5-2.5V60.443l15.064,15.065c0.486,0.488,1.127,0.732,1.768,0.732
		c0.64,0,1.279-0.244,1.768-0.732c0.979-0.976,0.979-2.559,0-3.535L114.191,52.651z"/>
	<path fill="#000000" d="M129.977,148.641l-15.062,15.067v-35.78c0-1.381-1.119-2.5-2.5-2.5s-2.5,1.119-2.5,2.5v35.777
		l-15.065-15.064c-0.976-0.977-2.56-0.977-3.535,0c-0.977,0.979-0.977,2.561,0,3.535l19.321,19.321
		c0.233,0.235,0.512,0.426,0.823,0.555c0.017,0.007,0.035,0.011,0.051,0.017c0.133,0.054,0.271,0.099,0.414,0.125
		c0.125,0.025,0.252,0.033,0.38,0.039c0.038,0.002,0.073,0.013,0.111,0.013c0,0,0,0,0.001,0s0,0,0.001,0
		c0.167,0,0.333-0.019,0.495-0.052c0.078-0.016,0.147-0.045,0.224-0.066c0.082-0.023,0.166-0.043,0.245-0.076
		c0.073-0.029,0.142-0.072,0.21-0.111c0.073-0.039,0.15-0.071,0.221-0.119c0.049-0.031,0.09-0.073,0.135-0.109
		c0.082-0.062,0.166-0.123,0.24-0.195l19.328-19.336c0.979-0.977,0.979-2.56,0-3.535
		C132.535,147.664,130.951,147.664,129.977,148.641z"/>
	<path fill="#000000" d="M179.381,109.927h-35.777l15.063-15.063c0.978-0.978,0.978-2.561,0-3.535c-0.978-0.977-2.56-0.977-3.535,0
		l-19.319,19.321c-0.235,0.233-0.427,0.512-0.556,0.823c-0.007,0.016-0.009,0.033-0.016,0.049c-0.052,0.134-0.099,0.271-0.126,0.416
		c-0.025,0.125-0.033,0.252-0.039,0.38c-0.001,0.038-0.012,0.073-0.012,0.111c0,0,0,0,0,0.001s0,0,0,0.001
		c0,0.167,0.019,0.333,0.051,0.495c0.016,0.077,0.045,0.148,0.068,0.224c0.022,0.082,0.043,0.166,0.074,0.246
		c0.03,0.071,0.073,0.14,0.111,0.209c0.039,0.072,0.072,0.149,0.12,0.222c0.03,0.049,0.073,0.089,0.108,0.135
		c0.063,0.081,0.123,0.166,0.196,0.239l19.334,19.33c0.488,0.488,1.128,0.731,1.769,0.731s1.278-0.243,1.769-0.731
		c0.978-0.978,0.978-2.561,0-3.534l-15.068-15.065h35.782c1.381,0,2.5-1.119,2.5-2.5S180.762,109.927,179.381,109.927z"/>
	<path fill="#000000" d="M89.003,111.931c-0.02-0.095-0.054-0.184-0.084-0.275c-0.021-0.064-0.034-0.13-0.06-0.192
		c-0.039-0.094-0.093-0.18-0.143-0.267c-0.03-0.054-0.054-0.112-0.088-0.163c-0.058-0.085-0.128-0.161-0.195-0.238
		c-0.039-0.045-0.071-0.096-0.113-0.138L68.986,91.326c-0.977-0.976-2.559-0.976-3.536,0c-0.976,0.976-0.976,2.559,0,3.536
		l15.066,15.063H44.738c-1.381,0-2.5,1.119-2.5,2.5c0,1.383,1.119,2.5,2.5,2.5h35.778l-15.065,15.065
		c-0.977,0.977-0.977,2.559,0,3.534c0.488,0.488,1.128,0.731,1.768,0.731c0.64,0,1.28-0.243,1.768-0.731L88.313,114.2
		c0.119-0.117,0.226-0.247,0.319-0.388c0.011-0.018,0.018-0.035,0.028-0.053c0.076-0.119,0.146-0.244,0.202-0.377
		c0.016-0.037,0.022-0.078,0.037-0.117c0.041-0.113,0.082-0.228,0.105-0.349c0.029-0.145,0.042-0.292,0.044-0.441
		c0-0.018,0.005-0.034,0.005-0.052l0,0l0,0C89.053,112.258,89.036,112.093,89.003,111.931z"/>
</g>
</svg>
