<?xml version="1.0" encoding="utf-8"?>
<!-- Generator: Adobe Illustrator 16.0.0, SVG Export Plug-In . SVG Version: 6.00 Build 0)  -->
<!DOCTYPE svg PUBLIC "-//W3C//DTD SVG 1.1//EN" "http://www.w3.org/Graphics/SVG/1.1/DTD/svg11.dtd">
<svg version="1.1" id="Layer_1" xmlns="http://www.w3.org/2000/svg" xmlns:xlink="http://www.w3.org/1999/xlink" x="0px" y="0px"
	 width="225px" height="225px" viewBox="0 0 225 225" enable-background="new 0 0 225 225" xml:space="preserve">
<g>
	<circle fill="#FF8158" cx="5346.54" cy="217.932" r="112.265"/>
</g>
<g>
	<rect x="5270" y="201" fill="#FFFFFF" width="102" height="15"/>
	<path fill="none" stroke="#FFFFFF" stroke-width="5" stroke-miterlimit="10" d="M5373,243.73c0,5.578-4.339,10.729-9.189,10.729
		h-84.082c-4.855,0-10.104-5.151-10.104-10.729v-50.491c0-5.577,5.249-9.222,10.104-9.222h84.082c4.852,0,9.189,3.645,9.189,9.222
		V243.73z"/>
</g>
<path fill="none" stroke="#FFFFFF" stroke-width="5" stroke-linecap="round" stroke-miterlimit="10" d="M5406.875,171.34
	c26.049,26.053,28.023,67.061,5.924,95.379"/>
<path fill="none" stroke="#FFFFFF" stroke-width="5" stroke-linecap="round" stroke-miterlimit="10" d="M5396.32,185.959
	c17.926,17.924,19.283,46.143,4.078,65.629"/>
<path fill="none" stroke="#FFFFFF" stroke-width="5" stroke-linecap="round" stroke-miterlimit="10" d="M5388.336,202.912
	c8.805,8.804,9.475,22.666,2.004,32.234"/>
<g>
	<path d="M114.191,52.651c-0.453-0.46-1.082-0.746-1.779-0.746c-0.656,0-1.249,0.258-1.695,0.672
		c-0.024,0.022-0.052,0.038-0.075,0.061L91.311,71.973c-0.976,0.977-0.976,2.559,0,3.536c0.977,0.976,2.559,0.976,3.536,0
		l15.065-15.068v35.781c0,1.381,1.119,2.5,2.5,2.5s2.5-1.119,2.5-2.5V60.443l15.064,15.065c0.488,0.488,1.128,0.732,1.768,0.732
		s1.279-0.244,1.768-0.732c0.977-0.976,0.977-2.559,0-3.535L114.191,52.651z"/>
	<path d="M129.977,148.641l-15.064,15.067v-35.78c0-1.381-1.119-2.5-2.5-2.5s-2.5,1.119-2.5,2.5v35.777l-15.065-15.064
		c-0.976-0.977-2.56-0.977-3.535,0c-0.977,0.977-0.977,2.559,0,3.535l19.321,19.321c0.233,0.236,0.512,0.426,0.823,0.555
		c0.017,0.007,0.035,0.01,0.051,0.017c0.133,0.052,0.27,0.097,0.414,0.125c0.125,0.025,0.252,0.033,0.38,0.039
		c0.038,0.001,0.073,0.011,0.111,0.011c0,0,0,0,0.001,0s0,0,0.001,0c0.167,0,0.333-0.018,0.495-0.05
		c0.078-0.016,0.149-0.046,0.224-0.068c0.082-0.024,0.166-0.043,0.245-0.076c0.073-0.03,0.14-0.074,0.21-0.112
		c0.073-0.039,0.15-0.072,0.22-0.119c0.048-0.032,0.089-0.074,0.135-0.11c0.081-0.063,0.166-0.123,0.239-0.196l19.33-19.335
		c0.977-0.977,0.977-2.56,0-3.535C132.535,147.664,130.951,147.664,129.977,148.641z"/>
	<path d="M179.381,109.927h-35.778l15.064-15.065c0.977-0.976,0.977-2.559,0-3.535c-0.977-0.977-2.559-0.977-3.535,0l-19.32,19.321
		c-0.236,0.233-0.426,0.512-0.555,0.823c-0.007,0.016-0.009,0.033-0.016,0.049c-0.052,0.134-0.098,0.271-0.126,0.416
		c-0.025,0.125-0.033,0.252-0.039,0.38c-0.001,0.038-0.011,0.073-0.011,0.111c0,0,0,0,0,0.001s0,0,0,0.001
		c0,0.167,0.018,0.333,0.05,0.495c0.016,0.077,0.045,0.148,0.068,0.223c0.024,0.082,0.043,0.166,0.076,0.246
		c0.03,0.072,0.073,0.139,0.111,0.208c0.039,0.074,0.073,0.151,0.12,0.222c0.032,0.049,0.074,0.089,0.11,0.135
		c0.063,0.081,0.123,0.166,0.196,0.239l19.334,19.331c0.488,0.488,1.128,0.732,1.768,0.732s1.279-0.244,1.768-0.732
		c0.977-0.977,0.977-2.56,0-3.535l-15.068-15.065h35.782c1.381,0,2.5-1.119,2.5-2.5S180.762,109.927,179.381,109.927z"/>
	<path d="M89.003,111.931c-0.02-0.095-0.054-0.184-0.084-0.275c-0.021-0.064-0.034-0.13-0.06-0.192
		c-0.039-0.094-0.093-0.18-0.143-0.267c-0.03-0.054-0.054-0.112-0.088-0.163c-0.058-0.085-0.128-0.161-0.195-0.238
		c-0.039-0.045-0.071-0.096-0.113-0.138L68.986,91.326c-0.977-0.976-2.559-0.976-3.536,0c-0.976,0.976-0.976,2.559,0,3.536
		l15.066,15.065H44.738c-1.381,0-2.5,1.119-2.5,2.5s1.119,2.5,2.5,2.5h35.778l-15.065,15.065c-0.977,0.977-0.977,2.559,0,3.535
		c0.488,0.488,1.128,0.732,1.768,0.732s1.28-0.244,1.768-0.732l19.326-19.326c0.119-0.117,0.226-0.247,0.319-0.387
		c0.011-0.017,0.018-0.035,0.028-0.052c0.076-0.12,0.146-0.244,0.202-0.377c0.016-0.038,0.022-0.079,0.037-0.117
		c0.041-0.114,0.082-0.228,0.105-0.349c0.029-0.145,0.042-0.292,0.044-0.441c0-0.018,0.005-0.034,0.005-0.052v0v0
		C89.053,112.258,89.036,112.093,89.003,111.931z"/>
</g>
</svg>
