<?xml version="1.0" encoding="utf-8"?>
<!-- Generator: Adobe Illustrator 16.0.0, SVG Export Plug-In . SVG Version: 6.00 Build 0)  -->
<!DOCTYPE svg PUBLIC "-//W3C//DTD SVG 1.1//EN" "http://www.w3.org/Graphics/SVG/1.1/DTD/svg11.dtd">
<svg version="1.1" id="Layer_1" xmlns="http://www.w3.org/2000/svg" xmlns:xlink="http://www.w3.org/1999/xlink" x="0px" y="0px"
	 width="225.07px" height="225.07px" viewBox="0 0 225.07 225.07" enable-background="new 0 0 225.07 225.07" xml:space="preserve">
<g>
	<path fill="#ffffff" d="M138.668,168.982h-52c-7.995,0-14.5-6.505-14.5-14.5V72.165c0-7.995,6.505-14.5,14.5-14.5h52
		c7.995,0,14.5,6.505,14.5,14.5v82.317C153.168,162.478,146.663,168.982,138.668,168.982z M86.668,62.665
		c-5.238,0-9.5,4.262-9.5,9.5v82.317c0,5.238,4.262,9.5,9.5,9.5h52c5.238,0,9.5-4.262,9.5-9.5V72.165c0-5.238-4.262-9.5-9.5-9.5
		H86.668z"/>
</g>
<g>
	<polygon fill="#ffffff" points="63.583,147.426 47,147.426 47,150.926 63.583,150.926 63.583,153.592 73.333,153.592 
		73.333,150.092 67.083,150.092 67.083,148.258 73.333,148.258 73.333,144.758 63.583,144.758 	"/>
	<polygon fill="#ffffff" points="63.583,133.426 47,133.426 47,136.926 63.583,136.926 63.583,139.593 73.333,139.593 
		73.333,136.093 67.083,136.093 67.083,134.259 73.333,134.259 73.333,130.759 63.583,130.759 	"/>
	<polygon fill="#ffffff" points="63.583,119.426 47,119.426 47,122.926 63.583,122.926 63.583,125.593 73.333,125.593 
		73.333,122.093 67.083,122.093 67.083,120.259 73.333,120.259 73.333,116.759 63.583,116.759 	"/>
	<polygon fill="#ffffff" points="63.583,105.426 47,105.426 47,108.926 63.583,108.926 63.583,111.593 73.333,111.593 
		73.333,108.093 67.083,108.093 67.083,106.259 73.333,106.259 73.333,102.759 63.583,102.759 	"/>
	<polygon fill="#ffffff" points="63.583,91.426 47,91.426 47,94.926 63.583,94.926 63.583,97.593 73.333,97.593 73.333,94.093 
		67.083,94.093 67.083,92.259 73.333,92.259 73.333,88.759 63.583,88.759 	"/>
	<polygon fill="#ffffff" points="73.333,78.259 73.333,74.759 63.583,74.759 63.583,77.426 47,77.426 47,80.926 63.583,80.926 
		63.583,83.593 73.333,83.593 73.333,80.093 67.083,80.093 67.083,78.259 	"/>
</g>
<g>
	<path fill="#ffffff" d="M101.89,129.579c-5.835,0-10.582-4.747-10.582-10.583c0-5.835,4.747-10.583,10.582-10.583
		c5.836,0,10.584,4.748,10.584,10.583C112.474,124.832,107.726,129.579,101.89,129.579z M101.89,111.913
		c-3.905,0-7.082,3.178-7.082,7.083s3.177,7.083,7.082,7.083c3.906,0,7.084-3.178,7.084-7.083S105.796,111.913,101.89,111.913z"/>
</g>
<g>
	<path fill="#ffffff" d="M125.298,110.389c-4.246,0-7.855-3.04-8.584-7.228c-0.398-2.295,0.12-4.607,1.462-6.512
		c1.341-1.905,3.343-3.173,5.638-3.572c0.496-0.086,1.002-0.13,1.502-0.13c4.244,0,7.854,3.04,8.582,7.228
		c0.822,4.738-2.361,9.262-7.098,10.085C126.304,110.346,125.798,110.389,125.298,110.389z M125.315,96.447
		c-0.3,0-0.604,0.026-0.902,0.078c-1.374,0.239-2.573,0.999-3.376,2.139s-1.113,2.525-0.874,3.898
		c0.436,2.508,2.595,4.328,5.135,4.328c0.3,0,0.604-0.026,0.902-0.078c2.835-0.493,4.741-3.201,4.249-6.037
		C130.014,98.267,127.854,96.447,125.315,96.447z"/>
</g>
<g>
	<path fill="#ffffff" d="M120.444,140.183c-3.889,0-7.052-3.163-7.052-7.052s3.163-7.052,7.052-7.052s7.052,3.163,7.052,7.052
		S124.333,140.183,120.444,140.183z M120.444,129.579c-1.958,0-3.552,1.594-3.552,3.552s1.594,3.552,3.552,3.552
		s3.552-1.594,3.552-3.552S122.402,129.579,120.444,129.579z"/>
</g>
<g>
	
		<rect x="108.039" y="125.285" transform="matrix(0.783 0.622 -0.622 0.783 103.4631 -42.4994)" fill="#ffffff" width="9.206" height="3.5"/>
</g>
<g>
	
		<rect x="112.437" y="102.831" transform="matrix(0.6375 0.7704 -0.7704 0.6375 125.7763 -48.2725)" fill="#ffffff" width="3.5" height="13.39"/>
</g>
<g>
	<polygon fill="#ffffff" points="162.083,89.091 152.333,89.091 152.333,92.591 158.583,92.591 158.583,94.425 152.333,94.425 
		152.333,97.925 162.083,97.925 162.083,95.258 178.666,95.258 178.666,91.758 162.083,91.758 	"/>
	<polygon fill="#ffffff" points="162.083,103.091 152.333,103.091 152.333,106.591 158.583,106.591 158.583,108.425 
		152.333,108.425 152.333,111.925 162.083,111.925 162.083,109.258 178.666,109.258 178.666,105.758 162.083,105.758 	"/>
	<polygon fill="#ffffff" points="162.083,117.091 152.333,117.091 152.333,120.591 158.583,120.591 158.583,122.425 
		152.333,122.425 152.333,125.925 162.083,125.925 162.083,123.258 178.666,123.258 178.666,119.758 162.083,119.758 	"/>
	<polygon fill="#ffffff" points="162.083,131.091 152.333,131.091 152.333,134.591 158.583,134.591 158.583,136.425 
		152.333,136.425 152.333,139.925 162.083,139.925 162.083,137.258 178.666,137.258 178.666,133.758 162.083,133.758 	"/>
	<polygon fill="#ffffff" points="162.083,145.091 152.333,145.091 152.333,148.591 158.583,148.591 158.583,150.425 
		152.333,150.425 152.333,153.925 162.083,153.925 162.083,151.258 178.666,151.258 178.666,147.758 162.083,147.758 	"/>
	<polygon fill="#ffffff" points="162.083,77.758 162.083,75.092 152.333,75.092 152.333,78.592 158.583,78.592 158.583,80.426 
		152.333,80.426 152.333,83.926 162.083,83.926 162.083,81.258 178.666,81.258 178.666,77.758 	"/>
</g>
</svg>
