<?xml version="1.0" encoding="utf-8"?>
<!-- Generator: Adobe Illustrator 16.0.0, SVG Export Plug-In . SVG Version: 6.00 Build 0)  -->
<!DOCTYPE svg PUBLIC "-//W3C//DTD SVG 1.1//EN" "http://www.w3.org/Graphics/SVG/1.1/DTD/svg11.dtd">
<svg version="1.1" id="Layer_1" xmlns="http://www.w3.org/2000/svg" xmlns:xlink="http://www.w3.org/1999/xlink" x="0px" y="0px"
	 width="225px" height="225px" viewBox="0 0 225 225" enable-background="new 0 0 225 225" xml:space="preserve">
<path fill="#FFFFFF" d="M166.588,62.292h-45.229h-65.36c-2.761,0-5,2.239-5,5v66.631c0,2.763,2.239,5,5,5h43.487
	c-1.739,5.921-5.388,12.312-12.947,15.281h-6.688c-1.381,0-2.5,1.119-2.5,2.5s1.119,2.5,2.5,2.5h62.372c1.381,0,2.5-1.119,2.5-2.5
	s-1.119-2.5-2.5-2.5h-4.83c-7.562-2.972-11.213-9.361-12.949-15.281h42.146c2.764,0,5-2.237,5-5v-45.77v-20.86
	C171.588,64.531,169.35,62.292,166.588,62.292z M128.023,154.205H95.905c4.137-3.727,7.127-8.921,8.752-15.281h14.614
	C120.895,145.284,123.885,150.479,128.023,154.205z M166.588,88.153v45.771H55.999V67.292h65.36h45.229V88.153z"/>
</svg>
