<?xml version="1.0" encoding="utf-8"?>
<!-- Generator: Adobe Illustrator 15.1.0, SVG Export Plug-In . SVG Version: 6.00 Build 0)  -->
<!DOCTYPE svg PUBLIC "-//W3C//DTD SVG 1.1//EN" "http://www.w3.org/Graphics/SVG/1.1/DTD/svg11.dtd">
<svg version="1.1" id="Layer_1" xmlns="http://www.w3.org/2000/svg" xmlns:xlink="http://www.w3.org/1999/xlink" x="0px" y="0px"
	 width="225px" height="225px" viewBox="0 0 225 225" enable-background="new 0 0 225 225" xml:space="preserve">
<path fill="#ffffff" d="M62.14,144.088c-0.448,0-0.896-0.171-1.237-0.513c-0.684-0.685-0.684-1.791,0-2.476l61.272-61.272
	c0.685-0.684,1.791-0.684,2.476,0c0.684,0.683,0.684,1.792,0,2.475l-61.272,61.273C63.036,143.917,62.588,144.088,62.14,144.088z"/>
<path fill="#ffffff" d="M82.043,137.25c-0.448,0-0.896-0.171-1.237-0.514c-0.684-0.684-0.684-1.791,0-2.475l41.369-41.369
	c0.685-0.684,1.791-0.684,2.476,0c0.684,0.683,0.684,1.792,0,2.475L83.28,136.736C82.938,137.079,82.491,137.25,82.043,137.25z"/>
<path fill="none" d="M134.346,57.645h-95.38v96.113h9.394V70.084c0-1.381,1.119-2.5,2.5-2.5h83.486V57.645z"/>
<path fill="#ffffff" d="M148.738,126.693h5v-25.309c-1.752,0.216-3.44,0.742-5,1.513V126.693z"/>
<path d="M153.738,88.233c-1.706,0.107-3.379,0.364-5,0.761v8.481c1.6-0.571,3.271-0.963,5-1.119V88.233z"/>
<path fill="#ffffff" d="M53.36,72.584h80.986v18.11c1.559-1.253,3.232-2.371,5-3.342V72.584h9.396v11.288
	c1.631-0.339,3.301-0.561,5-0.651V70.084c0-1.381-1.119-2.5-2.5-2.5h-11.896V55.145c0-1.381-1.119-2.5-2.5-2.5H36.466
	c-1.381,0-2.5,1.119-2.5,2.5v101.113c0,1.381,1.119,2.5,2.5,2.5H48.36v12.439c0,1.381,1.119,2.5,2.5,2.5h59.257v-5H53.36v-9.939
	h56.757v-5H53.36V72.584z M50.86,67.584c-1.381,0-2.5,1.119-2.5,2.5v83.674h-9.394V57.645h95.38v9.939H50.86z"/>
<path fill="#ffffff" d="M191.747,131.693h-7.899v-16.584c0-14.604-12.977-26.938-28.332-26.938c-5.955,0-11.549,1.871-16.17,5.012
	l0,0c-0.003,0.001-0.005,0.003-0.008,0.005c-0.455,0.31-0.9,0.631-1.336,0.964c-0.001,0.001-0.002,0.002-0.003,0.003
	c-1.312,1.006-2.534,2.118-3.647,3.323c-0.002,0.002-0.004,0.004-0.006,0.006l0,0c-4.433,4.798-7.164,11.046-7.164,17.776v16.436
	h-7.896c-2.299,0-4.166,1.867-4.166,4.164v17.898h-0.001v5h0.001v9.939h-0.001v5h0.001v14.389c0,2.296,1.867,4.164,4.166,4.164
	h72.464c2.296,0,4.164-1.868,4.164-4.164v-52.227C195.911,133.562,194.043,131.693,191.747,131.693z M159.426,165.419v7.515
	c0,1.104-1.049,2-2.344,2h-2.41c-1.105,0-2.025-0.654-2.273-1.533c0,0,0,0,0-0.002c-0.01-0.033-0.008-0.07-0.016-0.105
	c-0.027-0.117-0.054-0.234-0.054-0.357v-7.803c-1.42-0.64-2.64-1.628-3.589-2.837c-1.274-1.621-2.053-3.647-2.053-5.871
	c0-2.231,0.771-4.28,2.053-5.905c1.251-1.59,2.992-2.766,5-3.309c0.798-0.216,1.634-0.342,2.5-0.342
	c5.271,0,9.553,4.273,9.553,9.556C165.792,160.578,163.131,164.104,159.426,165.419z M175.754,131.693h-22.016h-5h-13.465V115.26
	c0-0.574,0.039-1.145,0.1-1.711c0.021-0.203,0.057-0.404,0.085-0.606c0.05-0.352,0.108-0.702,0.183-1.049
	c0.053-0.252,0.11-0.503,0.176-0.753c0.07-0.273,0.15-0.544,0.234-0.814c0.092-0.29,0.18-0.581,0.284-0.865
	c0.058-0.155,0.126-0.306,0.187-0.459c0.504-1.252,1.141-2.455,1.905-3.583c0.011-0.014,0.019-0.028,0.028-0.042
	c0.277-0.408,0.572-0.807,0.883-1.195c3.762-4.723,9.723-7.915,16.178-7.915c10.969,0,20.238,8.629,20.238,18.843V131.693z"/>
</svg>
