<?xml version="1.0" encoding="utf-8"?>
<!-- Generator: Adobe Illustrator 16.0.0, SVG Export Plug-In . SVG Version: 6.00 Build 0)  -->
<!DOCTYPE svg PUBLIC "-//W3C//DTD SVG 1.1//EN" "http://www.w3.org/Graphics/SVG/1.1/DTD/svg11.dtd">
<svg version="1.1" id="Layer_1" xmlns="http://www.w3.org/2000/svg" xmlns:xlink="http://www.w3.org/1999/xlink" x="0px" y="0px"
	 width="225px" height="225px" viewBox="0 0 225 225" enable-background="new 0 0 225 225" xml:space="preserve">
<g>
	<circle fill="#FF8158" cx="5346.54" cy="217.932" r="112.265"/>
</g>
<g>
	<rect x="5270" y="201" fill="#FFFFFF" width="102" height="15"/>
	<path fill="none" stroke="#FFFFFF" stroke-width="5" stroke-miterlimit="10" d="M5373,243.73c0,5.578-4.339,10.729-9.189,10.729
		h-84.082c-4.855,0-10.104-5.151-10.104-10.729v-50.491c0-5.577,5.249-9.222,10.104-9.222h84.082c4.852,0,9.189,3.645,9.189,9.222
		V243.73z"/>
</g>
<path fill="none" stroke="#FFFFFF" stroke-width="5" stroke-linecap="round" stroke-miterlimit="10" d="M5406.875,171.34
	c26.049,26.053,28.023,67.061,5.924,95.379"/>
<path fill="none" stroke="#FFFFFF" stroke-width="5" stroke-linecap="round" stroke-miterlimit="10" d="M5396.32,185.959
	c17.926,17.924,19.283,46.143,4.078,65.629"/>
<path fill="none" stroke="#FFFFFF" stroke-width="5" stroke-linecap="round" stroke-miterlimit="10" d="M5388.336,202.912
	c8.805,8.804,9.475,22.666,2.004,32.234"/>
<line fill="none" stroke="#000000" stroke-width="3.5" stroke-linecap="round" stroke-linejoin="round" stroke-miterlimit="10" x1="62.14" y1="142.338" x2="123.412" y2="81.065"/>
<line fill="none" stroke="#000000" stroke-width="3.5" stroke-linecap="round" stroke-linejoin="round" stroke-miterlimit="10" x1="82.043" y1="135.5" x2="123.412" y2="94.131"/>
<path fill="none" d="M134.346,57.645h-95.38v96.113h9.394V70.084c0-1.381,1.119-2.5,2.5-2.5h83.486V57.645z"/>
<path d="M148.739,126.694h5v-25.308c-1.752,0.216-3.441,0.742-5,1.513V126.694z"/>
<path d="M139.346,104.17V93.182c-1.833,1.246-3.513,2.69-5,4.301v56.275h-19.229v5h21.729c1.381,0,2.5-1.119,2.5-2.5v-24.563h-4.072
	V115.26C135.273,111.193,136.818,107.34,139.346,104.17z"/>
<path d="M153.739,147.21v-15.516h-5v18.822C149.99,148.929,151.732,147.753,153.739,147.21z"/>
<path d="M152.328,165.132c-1.42-0.64-2.639-1.628-3.589-2.837v6.402h-33.622v5h36.122c0.421,0,0.812-0.114,1.159-0.298
	c-0.042-0.149-0.07-0.305-0.07-0.466V165.132z"/>
<path d="M153.739,88.233c-1.707,0.107-3.379,0.364-5,0.761v8.481c1.599-0.571,3.272-0.963,5-1.119V88.233z"/>
<path d="M53.36,72.584h80.986v18.11c1.557-1.253,3.232-2.371,5-3.342V72.584h9.394v11.288c1.631-0.339,3.301-0.561,5-0.651V70.084
	c0-1.381-1.119-2.5-2.5-2.5h-11.894V55.145c0-1.381-1.119-2.5-2.5-2.5H36.466c-1.381,0-2.5,1.119-2.5,2.5v101.113
	c0,1.381,1.119,2.5,2.5,2.5H48.36v12.439c0,1.381,1.119,2.5,2.5,2.5h59.257v-5H53.36v-9.939h56.757v-5H53.36V72.584z M50.86,67.584
	c-1.381,0-2.5,1.119-2.5,2.5v83.674h-9.394V57.645h95.38v9.939H50.86z"/>
<path d="M191.747,131.694h-7.899v-16.585c0-14.603-12.977-26.938-28.332-26.938c-15.361,0-28.335,12.406-28.335,27.089v16.435
	h-7.897c-2.297,0-4.166,1.868-4.166,4.164v52.227c0,2.296,1.869,4.164,4.166,4.164h72.464c2.296,0,4.164-1.868,4.164-4.164v-52.227
	C195.911,133.562,194.043,131.694,191.747,131.694z M159.426,165.419v7.515c0,1.104-1.049,2-2.344,2h-2.41
	c-1.105,0-2.026-0.655-2.273-1.534c-0.042-0.149-0.07-0.305-0.07-0.466v-7.802c-1.42-0.64-2.639-1.628-3.589-2.837
	c-1.274-1.621-2.052-3.649-2.052-5.871c0-2.233,0.771-4.281,2.052-5.907c1.251-1.588,2.993-2.764,5-3.307
	c0.798-0.216,1.634-0.342,2.5-0.342c5.272,0,9.553,4.274,9.553,9.556C165.792,160.578,163.131,164.104,159.426,165.419z
	 M175.754,131.694h-40.48V115.26c0-10.12,9.459-18.994,20.242-18.994c10.968,0,20.238,8.629,20.238,18.844V131.694z"/>
</svg>
