<?xml version="1.0" encoding="utf-8"?>
<!-- Generator: Adobe Illustrator 16.0.0, SVG Export Plug-In . SVG Version: 6.00 Build 0)  -->
<!DOCTYPE svg PUBLIC "-//W3C//DTD SVG 1.1//EN" "http://www.w3.org/Graphics/SVG/1.1/DTD/svg11.dtd">
<svg version="1.1" id="Layer_1" xmlns="http://www.w3.org/2000/svg" xmlns:xlink="http://www.w3.org/1999/xlink" x="0px" y="0px"
	 width="225px" height="225px" viewBox="0 0 225 225" enable-background="new 0 0 225 225" xml:space="preserve">
<path fill="#010000" d="M180,173.875H46c-1.381,0-2.5-1.119-2.5-2.5v-116c0-1.381,1.119-2.5,2.5-2.5h134c1.381,0,2.5,1.119,2.5,2.5
	v116C182.5,172.756,181.381,173.875,180,173.875z M48.5,168.875h129v-111h-129V168.875z"/>
<g>
	<path fill="#010000" d="M81.5,68H60c-1.104,0-2,0.896-2,2v53.875h12c1.381,0,2.5,1.119,2.5,2.5s-1.119,2.5-2.5,2.5H58v5h12
		c1.381,0,2.5,1.119,2.5,2.5s-1.119,2.5-2.5,2.5H58v5h12c1.381,0,2.5,1.119,2.5,2.5s-1.119,2.5-2.5,2.5H58V156c0,1.104,0.896,2,2,2
		h21.5V68z M72.446,115.264c-1.395,0-2.521-1.127-2.521-2.521c0-1.39,1.127-2.521,2.521-2.521c1.39,0,2.521,1.131,2.521,2.521
		C74.968,114.137,73.836,115.264,72.446,115.264z"/>
	<path fill="#010000" d="M97,148.875H86.5V158h23V68h-23v55.875H97c1.381,0,2.5,1.119,2.5,2.5s-1.119,2.5-2.5,2.5H86.5v5H97
		c1.381,0,2.5,1.119,2.5,2.5s-1.119,2.5-2.5,2.5H86.5v5H97c1.381,0,2.5,1.119,2.5,2.5S98.381,148.875,97,148.875z M99.427,115.264
		c-1.393,0-2.521-1.127-2.521-2.521c0-1.391,1.128-2.521,2.521-2.521c1.392,0,2.521,1.13,2.521,2.521
		C101.947,114.137,100.818,115.264,99.427,115.264z"/>
	<path fill="#010000" d="M137.5,68h-23v55.875h9.166c1.381,0,2.5,1.119,2.5,2.5s-1.119,2.5-2.5,2.5H114.5v5h9.166
		c1.381,0,2.5,1.119,2.5,2.5s-1.119,2.5-2.5,2.5H114.5v5h9.166c1.381,0,2.5,1.119,2.5,2.5s-1.119,2.5-2.5,2.5H114.5V158h23V68z
		 M125.877,115.662c-1.393,0-2.521-1.129-2.521-2.521c0-1.391,1.129-2.521,2.521-2.521c1.389,0,2.52,1.131,2.52,2.521
		C128.396,114.533,127.266,115.662,125.877,115.662z"/>
	<path fill="#010000" d="M164,68h-21.5v55.875h9.355c1.381,0,2.5,1.119,2.5,2.5s-1.119,2.5-2.5,2.5H142.5v5h9.355
		c1.381,0,2.5,1.119,2.5,2.5s-1.119,2.5-2.5,2.5H142.5v5h9.355c1.381,0,2.5,1.119,2.5,2.5s-1.119,2.5-2.5,2.5H142.5V158H164
		c1.104,0,2-0.896,2-2V70C166,68.896,165.104,68,164,68z M153.855,115.264c-1.393,0-2.521-1.127-2.521-2.521
		c0-1.389,1.128-2.52,2.521-2.52s2.521,1.131,2.521,2.52C156.377,114.137,155.248,115.264,153.855,115.264z"/>
</g>
</svg>
