<?xml version="1.0" encoding="utf-8"?>
<!-- Generator: Adobe Illustrator 16.0.0, SVG Export Plug-In . SVG Version: 6.00 Build 0)  -->
<!DOCTYPE svg PUBLIC "-//W3C//DTD SVG 1.1//EN" "http://www.w3.org/Graphics/SVG/1.1/DTD/svg11.dtd">
<svg version="1.1" id="Layer_1" xmlns="http://www.w3.org/2000/svg" xmlns:xlink="http://www.w3.org/1999/xlink" x="0px" y="0px"
	 width="225px" height="225px" viewBox="0 0 225 225" enable-background="new 0 0 225 225" xml:space="preserve">
<path d="M155.512,173.029H72.489c-1.381,0-2.5-1.119-2.5-2.5V55.22c0-1.381,1.119-2.5,2.5-2.5h54.721c0.708,0,1.382,0.3,1.856,0.825
	l28.302,31.362c0.414,0.459,0.644,1.056,0.644,1.675v83.947C158.012,171.91,156.893,173.029,155.512,173.029z M74.989,168.029
	h78.023V87.544L126.099,57.72h-51.11V168.029z"/>
<g>
	<path fill="none" d="M137.984,117.584v2.594h7.53v-12.89h-20.098v1.995h4.265C134.267,109.283,137.984,112.998,137.984,117.584z"/>
	<rect x="109.311" y="107.288" fill="none" width="11.106" height="1.995"/>
	<rect x="109.311" y="142.852" width="11.106" height="11.38"/>
	<path d="M137.984,120.178v-2.594c0-4.586-3.718-8.301-8.303-8.301h-4.265v10.895H137.984z"/>
	<rect x="109.311" y="109.283" width="11.106" height="10.895"/>
	<path d="M104.311,122.678v-13.395h-5.07c-4.585,0-8.302,3.715-8.302,8.301v20.268h47.046v-12.674h-31.174
		C105.43,125.178,104.311,124.059,104.311,122.678z"/>
	<path d="M125.417,154.231h4.265c4.585,0,8.303-3.717,8.303-8.302v-3.078h-12.567V154.231z"/>
	<path d="M90.938,145.93c0,4.585,3.717,8.302,8.302,8.302h5.07v-11.38H90.938V145.93z"/>
</g>
</svg>
