<?xml version="1.0" encoding="utf-8"?>
<!-- Generator: Adobe Illustrator 16.0.0, SVG Export Plug-In . SVG Version: 6.00 Build 0)  -->
<!DOCTYPE svg PUBLIC "-//W3C//DTD SVG 1.1//EN" "http://www.w3.org/Graphics/SVG/1.1/DTD/svg11.dtd">
<svg version="1.1" id="Layer_1" xmlns="http://www.w3.org/2000/svg" xmlns:xlink="http://www.w3.org/1999/xlink" x="0px" y="0px"
	 width="225px" height="225px" viewBox="0 0 225 225" enable-background="new 0 0 225 225" xml:space="preserve">
<path fill="#000000" d="M155.512,173.029H72.489c-1.381,0-2.5-1.119-2.5-2.5V55.22c0-1.381,1.119-2.5,2.5-2.5h54.721
	c0.708,0,1.382,0.3,1.856,0.825l28.302,31.362c0.414,0.459,0.644,1.056,0.644,1.675v83.947
	C158.012,171.91,156.893,173.029,155.512,173.029z M74.989,168.029h78.022V87.543L126.1,57.72h-51.11V168.029z"/>
<path fill="#000000" d="M129.682,109.283H99.24c-4.585,0-8.302,3.715-8.302,8.301v28.346c0,4.586,3.717,8.303,8.302,8.303h30.441
	c4.584,0,8.303-3.717,8.303-8.303v-28.346C137.984,112.998,134.268,109.283,129.682,109.283z M125.516,145.339
	c-2.787,1.984-6.104,3.054-9.588,3.054c-6.766,0-12.591-4.064-15.188-9.877h-3.8c-1.381,0-2.5-1.119-2.5-2.5s1.119-2.5,2.5-2.5
	h2.446c-0.061-0.578-0.095-1.164-0.095-1.758c0-0.387,0.032-0.766,0.058-1.146H96.94c-1.381,0-2.5-1.119-2.5-2.5
	c0-1.382,1.119-2.5,2.5-2.5h3.542c2.451-6.138,8.444-10.489,15.445-10.489c3.444,0,6.749,1.045,9.558,3.021
	c1.13,0.795,1.4,2.354,0.606,3.482c-0.795,1.13-2.353,1.4-3.483,0.605c-1.961-1.381-4.271-2.109-6.681-2.109
	c-4.159,0-7.804,2.199-9.862,5.489h9.55c1.381,0,2.5,1.118,2.5,2.5c0,1.381-1.119,2.5-2.5,2.5h-11.266
	c-0.037,0.377-0.058,0.76-0.058,1.146c0,0.6,0.06,1.184,0.147,1.758h11.177c1.381,0,2.5,1.119,2.5,2.5s-1.119,2.5-2.5,2.5h-9.142
	c2.113,2.946,5.559,4.877,9.454,4.877c2.511,0,4.901-0.787,6.912-2.276l0.156-0.115l0.009,0.011c0.412-0.293,0.913-0.47,1.458-0.47
	c1.39,0,2.517,1.127,2.517,2.519C126.979,144.072,126.378,144.939,125.516,145.339z"/>
</svg>
