<?xml version="1.0" encoding="utf-8"?>
<!-- Generator: Adobe Illustrator 16.0.0, SVG Export Plug-In . SVG Version: 6.00 Build 0)  -->
<!DOCTYPE svg PUBLIC "-//W3C//DTD SVG 1.1//EN" "http://www.w3.org/Graphics/SVG/1.1/DTD/svg11.dtd">
<svg version="1.1" id="Layer_1" xmlns="http://www.w3.org/2000/svg" xmlns:xlink="http://www.w3.org/1999/xlink" x="0px" y="0px"
	 width="225px" height="225px" viewBox="0 0 225 225" enable-background="new 0 0 225 225" xml:space="preserve">
<path fill="#010000" d="M155.512,173.029H72.489c-1.381,0-2.5-1.119-2.5-2.5V55.22c0-1.381,1.119-2.5,2.5-2.5h54.721
	c0.708,0,1.382,0.3,1.856,0.825l28.302,31.362c0.414,0.459,0.644,1.056,0.644,1.675v83.947
	C158.012,171.91,156.893,173.029,155.512,173.029z M74.989,168.029h78.022V87.544L126.1,57.72h-51.11V168.029z"/>
<g>
	<rect x="109.311" y="142.852" fill="#010000" width="11.106" height="11.381"/>
	<path fill="#010000" d="M137.984,120.178v-2.594c0-4.586-3.719-8.301-8.303-8.301h-4.266v10.895H137.984z"/>
	<rect x="109.311" y="109.283" fill="#010000" width="11.106" height="10.895"/>
	<path fill="#010000" d="M104.311,122.678v-13.395h-5.07c-4.585,0-8.302,3.715-8.302,8.301v20.268h47.045v-12.674h-31.173
		C105.43,125.178,104.311,124.059,104.311,122.678z"/>
	<path fill="#010000" d="M125.417,154.23h4.265c4.586,0,8.303-3.717,8.303-8.302v-3.077h-12.566L125.417,154.23L125.417,154.23z"/>
	<path fill="#010000" d="M90.938,145.93c0,4.586,3.717,8.303,8.302,8.303h5.07v-11.381H90.938V145.93z"/>
</g>
</svg>
