<?xml version="1.0" encoding="utf-8"?>
<!-- Generator: Adobe Illustrator 16.0.0, SVG Export Plug-In . SVG Version: 6.00 Build 0)  -->
<!DOCTYPE svg PUBLIC "-//W3C//DTD SVG 1.1//EN" "http://www.w3.org/Graphics/SVG/1.1/DTD/svg11.dtd">
<svg version="1.1" id="Layer_1" xmlns="http://www.w3.org/2000/svg" xmlns:xlink="http://www.w3.org/1999/xlink" x="0px" y="0px"
	 width="225px" height="225px" viewBox="0 0 225 225" enable-background="new 0 0 225 225" xml:space="preserve">
<path fill="#010000" d="M83.5,162H54c-1.381,0-2.5-1.119-2.5-2.5s1.119-2.5,2.5-2.5h27v-28.5c0-1.381,1.119-2.5,2.5-2.5H109V95.5
	c0-1.381,1.119-2.5,2.5-2.5H141V65.5c0-1.381,1.119-2.5,2.5-2.5H172c1.381,0,2.5,1.119,2.5,2.5S173.381,68,172,68h-26v27.5
	c0,1.381-1.119,2.5-2.5,2.5H114v30.5c0,1.381-1.119,2.5-2.5,2.5H86v28.5C86,160.881,84.881,162,83.5,162z"/>
</svg>
