<?xml version="1.0" encoding="utf-8"?>
<!-- Generator: Adobe Illustrator 16.0.0, SVG Export Plug-In . SVG Version: 6.00 Build 0)  -->
<!DOCTYPE svg PUBLIC "-//W3C//DTD SVG 1.1//EN" "http://www.w3.org/Graphics/SVG/1.1/DTD/svg11.dtd">
<svg version="1.1" id="Layer_1" xmlns="http://www.w3.org/2000/svg" xmlns:xlink="http://www.w3.org/1999/xlink" x="0px" y="0px"
	 width="225px" height="225px" viewBox="0 0 225 225" enable-background="new 0 0 225 225" xml:space="preserve">
<g>
	<path fill="#ffffff" d="M71.114,121.193c-0.64,0-1.279-0.244-1.769-0.732c-20.929-20.925-23-54.273-4.815-77.57
		c0.849-1.088,2.42-1.283,3.509-0.433c1.088,0.85,1.282,2.42,0.433,3.509c-16.632,21.31-14.736,51.815,4.41,70.958
		c0.977,0.976,0.977,2.56,0,3.535C72.394,120.949,71.753,121.193,71.114,121.193z"/>
	<path fill="#ffffff" d="M81.563,108.893c-0.64,0-1.279-0.244-1.768-0.732c-14.677-14.676-16.129-38.066-3.377-54.408
		c0.849-1.088,2.419-1.284,3.509-0.433c1.088,0.849,1.282,2.42,0.433,3.509c-11.201,14.354-9.924,34.902,2.971,47.795
		c0.977,0.977,0.977,2.56,0,3.536C82.843,108.648,82.203,108.893,81.563,108.893z"/>
	<path fill="#ffffff" d="M90.743,95c-0.64,0-1.279-0.244-1.768-0.732c-7.663-7.662-8.422-19.874-1.766-28.404
		c0.849-1.088,2.421-1.282,3.509-0.434c1.089,0.85,1.283,2.42,0.434,3.509c-5.105,6.544-4.521,15.913,1.359,21.793
		c0.978,0.977,0.978,2.56,0,3.536C92.022,94.755,91.382,95,90.743,95z"/>
	<g>
		<path fill="#ffffff" d="M150.6,159.969c-19.076-15.562-31.394-37.322-35.037-61.211h-7.291
			c-2.955,19.34-11.603,37.389-25.111,51.921c-2.574,2.769-5.332,5.412-8.195,7.857c-1.05,0.897-1.174,2.476-0.277,3.524
			c0.495,0.58,1.196,0.877,1.902,0.877c0.575,0,1.152-0.197,1.623-0.6c3.009-2.57,5.905-5.348,8.61-8.256
			c0.632-0.682,1.252-1.37,1.864-2.064c0.162,0.032,0.329,0.051,0.5,0.051h20.236v16.426c0,1.381,1.119,2.5,2.5,2.5
			c1.38,0,2.5-1.119,2.5-2.5v-16.426h20.244c0.166,0,0.327-0.019,0.482-0.049c3.732,4.23,7.836,8.188,12.291,11.823
			c0.464,0.378,1.021,0.562,1.578,0.562c0.726,0,1.444-0.313,1.938-0.921C151.829,162.417,151.67,160.842,150.6,159.969z
			 M109.422,147.068H92.78c2.169-2.793,4.187-5.685,6.046-8.661h10.596V147.068z M109.422,133.407h-7.671
			c3.116-5.681,5.683-11.634,7.671-17.787V133.407z M114.422,115.637c1.989,6.158,4.551,12.106,7.654,17.771h-7.654V115.637z
			 M114.422,147.068v-8.661h10.584c1.86,2.98,3.877,5.872,6.045,8.661H114.422z"/>
	</g>
	<g>
		<circle fill="#ffffff" cx="111.999" cy="79.951" r="9.759"/>
	</g>
	<path fill="#ffffff" d="M152.883,121.193c-0.64,0-1.279-0.244-1.768-0.732c-0.978-0.977-0.978-2.561,0-3.535
		c19.146-19.143,21.043-49.648,4.412-70.958c-0.851-1.088-0.656-2.66,0.433-3.509c1.091-0.849,2.66-0.655,3.509,0.433
		c18.182,23.297,16.11,56.646-4.818,77.57C154.162,120.949,153.521,121.193,152.883,121.193z"/>
	<path fill="#ffffff" d="M142.434,108.893c-0.64,0-1.278-0.244-1.768-0.732c-0.977-0.977-0.977-2.56,0-3.536
		c12.895-12.896,14.172-33.444,2.971-47.796c-0.85-1.088-0.656-2.659,0.434-3.509c1.091-0.85,2.66-0.655,3.509,0.433
		c12.752,16.339,11.301,39.729-3.377,54.407C143.713,108.648,143.073,108.893,142.434,108.893z"/>
	<path fill="#ffffff" d="M133.254,95c-0.64,0-1.279-0.244-1.768-0.732c-0.978-0.976-0.978-2.559,0-3.536
		c5.881-5.88,6.464-15.249,1.356-21.792c-0.85-1.088-0.655-2.66,0.433-3.509c1.092-0.849,2.66-0.655,3.51,0.433
		c6.658,8.531,5.898,20.742-1.764,28.405C134.533,94.755,133.895,95,133.254,95z"/>
</g>
</svg>
