<?xml version="1.0" encoding="utf-8"?>
<!-- Generator: Adobe Illustrator 16.0.0, SVG Export Plug-In . SVG Version: 6.00 Build 0)  -->
<!DOCTYPE svg PUBLIC "-//W3C//DTD SVG 1.1//EN" "http://www.w3.org/Graphics/SVG/1.1/DTD/svg11.dtd">
<svg version="1.1" id="Layer_1" xmlns="http://www.w3.org/2000/svg" xmlns:xlink="http://www.w3.org/1999/xlink" x="0px" y="0px"
	 width="225px" height="225px" viewBox="0 0 225 225" enable-background="new 0 0 225 225" xml:space="preserve">
<g>
	<g>
		<path d="M163.104,58.097c-0.603,0-1.207-0.217-1.687-0.656C133.577,31.97,90.914,31.276,62.176,55.83
			c-1.05,0.896-2.628,0.774-3.525-0.277c-0.897-1.05-0.773-2.628,0.277-3.525c30.654-26.19,76.167-25.448,105.865,1.725
			c1.019,0.932,1.089,2.513,0.157,3.532C164.457,57.824,163.782,58.097,163.104,58.097z"/>
		<path d="M147.109,70.195c-0.603,0-1.207-0.217-1.687-0.656c-18.866-17.261-47.777-17.731-67.251-1.091
			c-1.049,0.896-2.627,0.773-3.525-0.277c-0.896-1.05-0.773-2.628,0.277-3.525c21.39-18.276,53.149-17.759,73.874,1.204
			c1.019,0.932,1.089,2.513,0.157,3.532C148.462,69.921,147.787,70.195,147.109,70.195z"/>
		<path d="M129.157,78.58c-0.603,0-1.207-0.217-1.687-0.656c-8.794-8.045-22.27-8.263-31.347-0.507
			c-1.048,0.897-2.628,0.774-3.524-0.276c-0.897-1.05-0.773-2.627,0.276-3.524c10.994-9.394,27.317-9.128,37.97,0.62
			c1.019,0.932,1.089,2.513,0.157,3.532C130.51,78.307,129.835,78.58,129.157,78.58z"/>
	</g>
	<g>
		<path d="M111.059,128.098c-3.46,0-6.716-1.323-9.167-3.725c-2.464-2.414-3.822-5.626-3.823-9.047c0-3.421,1.356-6.637,3.822-9.054
			c2.452-2.401,5.708-3.722,9.168-3.722c3.46,0,6.716,1.321,9.167,3.721c2.468,2.418,3.826,5.634,3.825,9.056
			c-0.001,3.421-1.359,6.634-3.825,9.047C117.775,126.774,114.52,128.098,111.059,128.098z M111.059,107.55
			c-2.145,0-4.158,0.814-5.669,2.294c-1.497,1.467-2.322,3.414-2.321,5.481c0,2.065,0.825,4.01,2.321,5.476
			c1.512,1.481,3.525,2.297,5.669,2.297s4.158-0.815,5.668-2.297c1.499-1.466,2.323-3.41,2.324-5.476
			c0-2.066-0.825-4.014-2.324-5.482C115.218,108.364,113.204,107.55,111.059,107.55z"/>
		<path d="M123.79,92.633c3.884,0,5.409,0.87,5.409,3.879v68.094c0,3.01-1.529,6.26-5.409,6.26H99.88
			c-3.881,0-7.643-3.25-7.643-6.258V96.512c0-3.01,3.757-3.879,7.646-3.879H123.79 M123.79,89.133H99.883
			c-10.06,0-11.146,5.161-11.146,7.379v68.096c0,5.016,5.415,9.758,11.143,9.758h23.91c5.245,0,8.909-4.014,8.909-9.76V96.512
			c0-2.693-0.932-4.697-2.771-5.956C128.098,89.302,125.798,89.133,123.79,89.133L123.79,89.133z"/>
		<ellipse cx="104.097" cy="138.036" rx="3.263" ry="3.195"/>
		<ellipse cx="118.023" cy="138.036" rx="3.264" ry="3.195"/>
		<ellipse cx="104.097" cy="152.188" rx="3.263" ry="3.195"/>
		<ellipse cx="118.023" cy="152.188" rx="3.264" ry="3.195"/>
	</g>
</g>
</svg>
