<?xml version="1.0" encoding="utf-8"?>
<!-- Generator: Adobe Illustrator 16.0.0, SVG Export Plug-In . SVG Version: 6.00 Build 0)  -->
<!DOCTYPE svg PUBLIC "-//W3C//DTD SVG 1.1//EN" "http://www.w3.org/Graphics/SVG/1.1/DTD/svg11.dtd">
<svg version="1.1" id="Layer_1" xmlns="http://www.w3.org/2000/svg" xmlns:xlink="http://www.w3.org/1999/xlink" x="0px" y="0px"
	 width="225.07px" height="225.07px" viewBox="0 0 225.07 225.07" enable-background="new 0 0 225.07 225.07" xml:space="preserve">
<g>
	<path fill="#ffffff" d="M201.102,111.287l-19.771-11.072v8.951H76.312c9.784-11.517,20.648-22.933,23.489-23.712h18.39
		c1.109,4.184,4.918,7.281,9.446,7.281c5.394,0,9.781-4.388,9.781-9.781c0-5.394-4.388-9.782-9.781-9.782
		c-4.528,0-8.337,3.098-9.446,7.282H99.694c-1.49,0-4.263,0-18.123,15.184c-5.16,5.653-9.967,11.35-11.788,13.528H54.557
		c-1.014-7.501-7.442-13.308-15.217-13.308c-8.476,0-15.372,6.896-15.372,15.372c0,8.476,6.896,15.371,15.372,15.371
		c7.472,0,13.708-5.36,15.083-12.436h40.698c1.84,2.214,6.823,8.154,12.172,14.045c14.243,15.684,17.081,15.684,18.605,15.684
		h17.954v8.004h19.737v-19.736h-19.737v6.732h-17.854c-2.923-0.773-14.228-12.719-24.366-24.729h79.698v8.054L201.102,111.287z
		 M127.637,78.172c2.637,0,4.781,2.146,4.781,4.782c0,2.636-2.145,4.781-4.781,4.781s-4.782-2.145-4.782-4.781
		C122.854,80.317,125,78.172,127.637,78.172z M39.34,121.602c-5.719,0-10.372-4.652-10.372-10.371s4.653-10.372,10.372-10.372
		c5.719,0,10.372,4.653,10.372,10.372S45.059,121.602,39.34,121.602z M148.853,137.162h9.737v9.736h-9.737V137.162z M186.33,108.746
		l4.488,2.514l-4.488,2.481V108.746z"/>
</g>
</svg>
