<?xml version="1.0" encoding="utf-8"?>
<!-- Generator: Adobe Illustrator 16.0.0, SVG Export Plug-In . SVG Version: 6.00 Build 0)  -->
<!DOCTYPE svg PUBLIC "-//W3C//DTD SVG 1.1//EN" "http://www.w3.org/Graphics/SVG/1.1/DTD/svg11.dtd">
<svg version="1.1" id="Layer_1" xmlns="http://www.w3.org/2000/svg" xmlns:xlink="http://www.w3.org/1999/xlink" x="0px" y="0px"
	 width="225px" height="225px" viewBox="0 0 225 225" enable-background="new 0 0 225 225" xml:space="preserve">
<g>
	<circle fill="#FF8158" cx="5346.54" cy="217.932" r="112.265"/>
</g>
<g>
	<rect x="5270" y="201" fill="#FFFFFF" width="102" height="15"/>
	<path fill="none" stroke="#FFFFFF" stroke-width="5" stroke-miterlimit="10" d="M5373,243.731c0,5.578-4.339,10.729-9.19,10.729
		h-84.081c-4.856,0-10.105-5.151-10.105-10.729v-50.492c0-5.577,5.249-9.222,10.105-9.222h84.081c4.852,0,9.19,3.645,9.19,9.222
		V243.731z"/>
</g>
<path fill="none" stroke="#FFFFFF" stroke-width="5" stroke-linecap="round" stroke-miterlimit="10" d="M5406.875,171.34
	c26.049,26.052,28.023,67.061,5.924,95.379"/>
<path fill="none" stroke="#FFFFFF" stroke-width="5" stroke-linecap="round" stroke-miterlimit="10" d="M5396.32,185.959
	c17.926,17.924,19.283,46.143,4.078,65.629"/>
<path fill="none" stroke="#FFFFFF" stroke-width="5" stroke-linecap="round" stroke-miterlimit="10" d="M5388.336,202.912
	c8.805,8.804,9.475,22.666,2.004,32.234"/>
<path d="M99.571,147.945H83.123v-13.098h9.699c1.381,0,2.5-1.119,2.5-2.5s-1.119-2.5-2.5-2.5H66.356v-9.68h27.442
	c1.381,0,2.5-1.119,2.5-2.5s-1.119-2.5-2.5-2.5H82.507v-13.043h14.972c1.381,0,2.5-1.119,2.5-2.5s-1.119-2.5-2.5-2.5H63.856
	c-1.381,0-2.5,1.119-2.5,2.5v50.82c0,1.381,1.119,2.5,2.5,2.5h35.715c1.381,0,2.5-1.119,2.5-2.5S100.952,147.945,99.571,147.945z
	 M77.507,102.125v13.043h-11.15v-13.043H77.507z M66.356,134.848h11.767v13.098H66.356V134.848z"/>
<g>
	<path d="M44.15,64.494c-1.381,0-2.5-1.119-2.5-2.5v-3c0-1.381,1.119-2.5,2.5-2.5h3c1.381,0,2.5,1.119,2.5,2.5s-1.119,2.5-2.5,2.5
		h-0.5v0.5C46.65,63.375,45.531,64.494,44.15,64.494z"/>
	<path d="M164.069,61.494h-6.153c-1.381,0-2.5-1.119-2.5-2.5s1.119-2.5,2.5-2.5h6.153c1.381,0,2.5,1.119,2.5,2.5
		S165.45,61.494,164.069,61.494z M144.583,61.494h-6.153c-1.381,0-2.5-1.119-2.5-2.5s1.119-2.5,2.5-2.5h6.153
		c1.381,0,2.5,1.119,2.5,2.5S145.964,61.494,144.583,61.494z M125.097,61.494h-6.153c-1.381,0-2.5-1.119-2.5-2.5s1.119-2.5,2.5-2.5
		h6.153c1.381,0,2.5,1.119,2.5,2.5S126.478,61.494,125.097,61.494z M105.61,61.494h-6.153c-1.381,0-2.5-1.119-2.5-2.5
		s1.119-2.5,2.5-2.5h6.153c1.381,0,2.5,1.119,2.5,2.5S106.991,61.494,105.61,61.494z M86.124,61.494H79.97
		c-1.381,0-2.5-1.119-2.5-2.5s1.119-2.5,2.5-2.5h6.154c1.381,0,2.5,1.119,2.5,2.5S87.504,61.494,86.124,61.494z M66.637,61.494
		h-6.154c-1.381,0-2.5-1.119-2.5-2.5s1.119-2.5,2.5-2.5h6.154c1.381,0,2.5,1.119,2.5,2.5S68.018,61.494,66.637,61.494z"/>
	<path d="M180.402,64.494c-1.381,0-2.5-1.119-2.5-2.5v-0.5h-0.5c-1.381,0-2.5-1.119-2.5-2.5s1.119-2.5,2.5-2.5h3
		c1.381,0,2.5,1.119,2.5,2.5v3C182.902,63.375,181.783,64.494,180.402,64.494z"/>
	<path d="M180.402,152.653c-1.381,0-2.5-1.119-2.5-2.5v-5.568c0-1.381,1.119-2.5,2.5-2.5s2.5,1.119,2.5,2.5v5.568
		C182.902,151.534,181.783,152.653,180.402,152.653z M180.402,135.021c-1.381,0-2.5-1.119-2.5-2.5v-5.568c0-1.381,1.119-2.5,2.5-2.5
		s2.5,1.119,2.5,2.5v5.568C182.902,133.902,181.783,135.021,180.402,135.021z M180.402,117.39c-1.381,0-2.5-1.119-2.5-2.5v-5.568
		c0-1.381,1.119-2.5,2.5-2.5s2.5,1.119,2.5,2.5v5.568C182.902,116.271,181.783,117.39,180.402,117.39z M180.402,99.758
		c-1.381,0-2.5-1.119-2.5-2.5V91.69c0-1.381,1.119-2.5,2.5-2.5s2.5,1.119,2.5,2.5v5.568
		C182.902,98.639,181.783,99.758,180.402,99.758z M180.402,82.126c-1.381,0-2.5-1.119-2.5-2.5v-5.568c0-1.381,1.119-2.5,2.5-2.5
		s2.5,1.119,2.5,2.5v5.568C182.902,81.007,181.783,82.126,180.402,82.126z"/>
	<path d="M180.402,167.717h-3c-1.381,0-2.5-1.119-2.5-2.5s1.119-2.5,2.5-2.5h0.5v-0.5c0-1.381,1.119-2.5,2.5-2.5s2.5,1.119,2.5,2.5
		v3C182.902,166.598,181.783,167.717,180.402,167.717z"/>
	<path d="M164.069,167.717h-6.153c-1.381,0-2.5-1.119-2.5-2.5s1.119-2.5,2.5-2.5h6.153c1.381,0,2.5,1.119,2.5,2.5
		S165.45,167.717,164.069,167.717z M144.583,167.717h-6.154c-1.381,0-2.5-1.119-2.5-2.5s1.119-2.5,2.5-2.5h6.154
		c1.381,0,2.5,1.119,2.5,2.5S145.964,167.717,144.583,167.717z M125.097,167.717h-6.154c-1.381,0-2.5-1.119-2.5-2.5
		s1.119-2.5,2.5-2.5h6.154c1.381,0,2.5,1.119,2.5,2.5S126.478,167.717,125.097,167.717z M105.61,167.717h-6.154
		c-1.381,0-2.5-1.119-2.5-2.5s1.119-2.5,2.5-2.5h6.154c1.381,0,2.5,1.119,2.5,2.5S106.991,167.717,105.61,167.717z M86.123,167.717
		H79.97c-1.381,0-2.5-1.119-2.5-2.5s1.119-2.5,2.5-2.5h6.153c1.381,0,2.5,1.119,2.5,2.5S87.504,167.717,86.123,167.717z
		 M66.637,167.717h-6.154c-1.381,0-2.5-1.119-2.5-2.5s1.119-2.5,2.5-2.5h6.154c1.381,0,2.5,1.119,2.5,2.5
		S68.018,167.717,66.637,167.717z"/>
	<path d="M47.15,167.717h-3c-1.381,0-2.5-1.119-2.5-2.5v-3c0-1.381,1.119-2.5,2.5-2.5s2.5,1.119,2.5,2.5v0.5h0.5
		c1.381,0,2.5,1.119,2.5,2.5S48.531,167.717,47.15,167.717z"/>
	<path d="M44.15,152.653c-1.381,0-2.5-1.119-2.5-2.5v-5.568c0-1.381,1.119-2.5,2.5-2.5s2.5,1.119,2.5,2.5v5.568
		C46.65,151.534,45.531,152.653,44.15,152.653z M44.15,135.021c-1.381,0-2.5-1.119-2.5-2.5v-5.567c0-1.381,1.119-2.5,2.5-2.5
		s2.5,1.119,2.5,2.5v5.567C46.65,133.902,45.531,135.021,44.15,135.021z M44.15,117.39c-1.381,0-2.5-1.119-2.5-2.5v-5.568
		c0-1.381,1.119-2.5,2.5-2.5s2.5,1.119,2.5,2.5v5.568C46.65,116.271,45.531,117.39,44.15,117.39z M44.15,99.758
		c-1.381,0-2.5-1.119-2.5-2.5V91.69c0-1.381,1.119-2.5,2.5-2.5s2.5,1.119,2.5,2.5v5.568C46.65,98.639,45.531,99.758,44.15,99.758z
		 M44.15,82.126c-1.381,0-2.5-1.119-2.5-2.5v-5.568c0-1.381,1.119-2.5,2.5-2.5s2.5,1.119,2.5,2.5v5.568
		C46.65,81.007,45.531,82.126,44.15,82.126z"/>
</g>
<path d="M154.056,101.841c-14.78-15.374-9.972-29.629-9.922-29.771c0.205-0.584,0.031-1.235-0.438-1.638
	c-0.277-0.238-0.626-0.362-0.976-0.362c-0.243,0-0.486,0.059-0.709,0.179c-14.971,8.044-20.62,18.7-22.722,26.22
	c-0.907,3.243-1.256,6.18-1.34,8.562c-1.836-4.89-2.696-11.721-2.901-14.765c-0.042-0.636-0.482-1.175-1.097-1.345
	c-0.133-0.036-0.266-0.054-0.398-0.054c-0.483,0-0.947,0.233-1.234,0.645c-8.914,12.852-12.547,25.996-10.505,38.016
	c1.657,9.749,7.047,18.443,14.791,23.854c0.259,0.184,0.559,0.271,0.859,0.271c0.345,0,0.689-0.118,0.967-0.354
	c0.52-0.438,0.679-1.172,0.39-1.788c-5.317-11.27-1.018-21.275,1.305-25.364c2.546,4.021,8.651,12.184,16.205,12.184
	c4.645,0,8.914-3.038,12.722-9.043c2.437,8.708,1.667,16.58-2.205,21.489c-0.438,0.555-0.428,1.338,0.021,1.884
	c0.293,0.354,0.721,0.545,1.157,0.545c0.234,0,0.471-0.055,0.688-0.167c7.718-3.989,13.228-11.835,14.739-20.988
	C165.128,119.895,161.792,109.876,154.056,101.841z"/>
</svg>
