<?xml version="1.0" encoding="utf-8"?>
<!-- Generator: Adobe Illustrator 16.0.0, SVG Export Plug-In . SVG Version: 6.00 Build 0)  -->
<!DOCTYPE svg PUBLIC "-//W3C//DTD SVG 1.1//EN" "http://www.w3.org/Graphics/SVG/1.1/DTD/svg11.dtd">
<svg version="1.1" id="Layer_1" xmlns="http://www.w3.org/2000/svg" xmlns:xlink="http://www.w3.org/1999/xlink" x="0px" y="0px"
	 width="225px" height="225px" viewBox="0 0 225 225" enable-background="new 0 0 225 225" xml:space="preserve">
<path fill="#ffffff" d="M183.379,67.567h-47.896H66.268c-2.761,0-5,2.239-5,5v70.561c0,2.763,2.239,5,5,5h56.057v10.054h-31.43
	c-1.381,0-2.5,1.119-2.5,2.5s1.119,2.5,2.5,2.5h67.839c1.382,0,2.5-1.119,2.5-2.5s-1.118-2.5-2.5-2.5h-31.409v-10.054h56.055
	c2.763,0,5-2.237,5-5V94.657v-22.09C188.379,69.806,186.141,67.567,183.379,67.567z M183.379,94.657v48.471H66.268V72.567h69.214
	h47.896L183.379,94.657L183.379,94.657z"/>
<g>
	<path fill="#ffffff" d="M39.765,62.625c-1.381,0-2.5-1.119-2.5-2.5v-3.75c0-1.381,1.119-2.5,2.5-2.5h3.75
		c1.381,0,2.5,1.119,2.5,2.5s-1.119,2.5-2.5,2.5h-1.25v1.25C42.265,61.505,41.146,62.625,39.765,62.625z"/>
	<path fill="#ffffff" d="M125.289,58.875h-6.814c-1.381,0-2.5-1.119-2.5-2.5s1.119-2.5,2.5-2.5h6.814c1.381,0,2.5,1.119,2.5,2.5
		S126.67,58.875,125.289,58.875z M104.845,58.875h-6.812c-1.381,0-2.5-1.119-2.5-2.5s1.119-2.5,2.5-2.5h6.812
		c1.381,0,2.5,1.119,2.5,2.5S106.226,58.875,104.845,58.875z M84.402,58.875h-6.815c-1.381,0-2.5-1.119-2.5-2.5s1.119-2.5,2.5-2.5
		h6.815c1.381,0,2.5,1.119,2.5,2.5S85.783,58.875,84.402,58.875z M63.958,58.875h-6.814c-1.381,0-2.5-1.119-2.5-2.5
		s1.119-2.5,2.5-2.5h6.814c1.381,0,2.5,1.119,2.5,2.5S65.339,58.875,63.958,58.875z"/>
	<path fill="#ffffff" d="M142.668,62.625c-1.381,0-2.5-1.119-2.5-2.5v-1.25h-1.25c-1.381,0-2.5-1.119-2.5-2.5s1.119-2.5,2.5-2.5
		h3.75c1.381,0,2.5,1.119,2.5,2.5v3.75C145.168,61.505,144.049,62.625,142.668,62.625z"/>
	<path fill="#ffffff" d="M142.668,104.628c-1.381,0-2.5-1.119-2.5-2.5v-7.001c0-1.381,1.119-2.5,2.5-2.5s2.5,1.119,2.5,2.5v7.001
		C145.168,103.509,144.049,104.628,142.668,104.628z M142.668,83.626c-1.381,0-2.5-1.119-2.5-2.5v-7c0-1.381,1.119-2.5,2.5-2.5
		s2.5,1.119,2.5,2.5v7C145.168,82.507,144.049,83.626,142.668,83.626z"/>
	<path fill="#ffffff" d="M142.668,122.379h-3.75c-1.381,0-2.5-1.119-2.5-2.5s1.119-2.5,2.5-2.5h1.25v-1.25
		c0-1.381,1.119-2.5,2.5-2.5s2.5,1.119,2.5,2.5v3.75C145.168,121.26,144.049,122.379,142.668,122.379z"/>
	<path fill="#ffffff" d="M125.289,122.379h-6.814c-1.381,0-2.5-1.119-2.5-2.5s1.119-2.5,2.5-2.5h6.814c1.381,0,2.5,1.119,2.5,2.5
		S126.67,122.379,125.289,122.379z M104.846,122.379h-6.813c-1.381,0-2.5-1.119-2.5-2.5s1.119-2.5,2.5-2.5h6.813
		c1.381,0,2.5,1.119,2.5,2.5S106.227,122.379,104.846,122.379z M84.402,122.379h-6.814c-1.381,0-2.5-1.119-2.5-2.5
		s1.119-2.5,2.5-2.5h6.814c1.381,0,2.5,1.119,2.5,2.5S85.783,122.379,84.402,122.379z M63.958,122.379h-6.814
		c-1.381,0-2.5-1.119-2.5-2.5s1.119-2.5,2.5-2.5h6.814c1.381,0,2.5,1.119,2.5,2.5S65.339,122.379,63.958,122.379z"/>
	<path fill="#ffffff" d="M43.515,122.379h-3.75c-1.381,0-2.5-1.119-2.5-2.5v-3.75c0-1.381,1.119-2.5,2.5-2.5
		c1.381,0,2.5,1.119,2.5,2.5v1.25h1.25c1.381,0,2.5,1.119,2.5,2.5S44.896,122.379,43.515,122.379z"/>
	<path fill="#ffffff" d="M39.765,104.628c-1.381,0-2.5-1.119-2.5-2.5v-7c0-1.381,1.119-2.5,2.5-2.5c1.381,0,2.5,1.119,2.5,2.5v7
		C42.265,103.509,41.146,104.628,39.765,104.628z M39.765,83.626c-1.381,0-2.5-1.119-2.5-2.5v-7c0-1.381,1.119-2.5,2.5-2.5
		c1.381,0,2.5,1.119,2.5,2.5v7C42.265,82.507,41.146,83.626,39.765,83.626z"/>
</g>
</svg>
