<?xml version="1.0" encoding="utf-8"?>
<!-- Generator: Adobe Illustrator 16.0.0, SVG Export Plug-In . SVG Version: 6.00 Build 0)  -->
<!DOCTYPE svg PUBLIC "-//W3C//DTD SVG 1.1//EN" "http://www.w3.org/Graphics/SVG/1.1/DTD/svg11.dtd">
<svg version="1.1" id="Layer_1" xmlns="http://www.w3.org/2000/svg" xmlns:xlink="http://www.w3.org/1999/xlink" x="0px" y="0px"
	 width="225px" height="225px" viewBox="0 0 225 225" enable-background="new 0 0 225 225" xml:space="preserve">
<g>
	<circle fill="#FF8158" cx="5346.54" cy="217.932" r="112.265"/>
</g>
<g>
	<rect x="5270" y="201" fill="#FFFFFF" width="102" height="15"/>
	<path fill="none" stroke="#FFFFFF" stroke-width="5" stroke-miterlimit="10" d="M5373,243.73c0,5.578-4.339,10.729-9.189,10.729
		h-84.082c-4.855,0-10.104-5.151-10.104-10.729v-50.491c0-5.577,5.249-9.222,10.104-9.222h84.082c4.852,0,9.189,3.645,9.189,9.222
		V243.73z"/>
</g>
<path fill="none" stroke="#FFFFFF" stroke-width="5" stroke-linecap="round" stroke-miterlimit="10" d="M5406.875,171.34
	c26.049,26.053,28.023,67.061,5.924,95.379"/>
<path fill="none" stroke="#FFFFFF" stroke-width="5" stroke-linecap="round" stroke-miterlimit="10" d="M5396.32,185.959
	c17.926,17.924,19.283,46.143,4.078,65.629"/>
<path fill="none" stroke="#FFFFFF" stroke-width="5" stroke-linecap="round" stroke-miterlimit="10" d="M5388.336,202.912
	c8.805,8.804,9.475,22.666,2.004,32.234"/>
<path d="M183.379,67.567h-47.896H66.268c-2.761,0-5,2.239-5,5v70.561c0,2.762,2.239,5,5,5h56.057v10.054h-31.43
	c-1.381,0-2.5,1.119-2.5,2.5s1.119,2.5,2.5,2.5h67.84c1.381,0,2.5-1.119,2.5-2.5s-1.119-2.5-2.5-2.5h-31.41v-10.054h56.055
	c2.762,0,5-2.238,5-5V94.657v-22.09C188.379,69.806,186.141,67.567,183.379,67.567z M183.379,94.657v48.471H66.268V72.567h69.215
	h47.896V94.657z"/>
<g>
	<path d="M39.765,62.625c-1.381,0-2.5-1.119-2.5-2.5v-3.75c0-1.381,1.119-2.5,2.5-2.5h3.75c1.381,0,2.5,1.119,2.5,2.5
		s-1.119,2.5-2.5,2.5h-1.25v1.25C42.265,61.505,41.146,62.625,39.765,62.625z"/>
	<path d="M125.289,58.875h-6.814c-1.381,0-2.5-1.119-2.5-2.5s1.119-2.5,2.5-2.5h6.814c1.381,0,2.5,1.119,2.5,2.5
		S126.67,58.875,125.289,58.875z M104.845,58.875h-6.814c-1.381,0-2.5-1.119-2.5-2.5s1.119-2.5,2.5-2.5h6.814
		c1.381,0,2.5,1.119,2.5,2.5S106.226,58.875,104.845,58.875z M84.402,58.875h-6.815c-1.381,0-2.5-1.119-2.5-2.5s1.119-2.5,2.5-2.5
		h6.815c1.381,0,2.5,1.119,2.5,2.5S85.783,58.875,84.402,58.875z M63.958,58.875h-6.814c-1.381,0-2.5-1.119-2.5-2.5
		s1.119-2.5,2.5-2.5h6.814c1.381,0,2.5,1.119,2.5,2.5S65.339,58.875,63.958,58.875z"/>
	<path d="M142.668,62.625c-1.381,0-2.5-1.119-2.5-2.5v-1.25h-1.25c-1.381,0-2.5-1.119-2.5-2.5s1.119-2.5,2.5-2.5h3.75
		c1.381,0,2.5,1.119,2.5,2.5v3.75C145.168,61.505,144.049,62.625,142.668,62.625z"/>
	<path d="M142.668,104.628c-1.381,0-2.5-1.119-2.5-2.5v-7.001c0-1.381,1.119-2.5,2.5-2.5s2.5,1.119,2.5,2.5v7.001
		C145.168,103.509,144.049,104.628,142.668,104.628z M142.668,83.626c-1.381,0-2.5-1.119-2.5-2.5v-7c0-1.381,1.119-2.5,2.5-2.5
		s2.5,1.119,2.5,2.5v7C145.168,82.507,144.049,83.626,142.668,83.626z"/>
	<path d="M142.668,122.379h-3.75c-1.381,0-2.5-1.119-2.5-2.5s1.119-2.5,2.5-2.5h1.25v-1.25c0-1.381,1.119-2.5,2.5-2.5
		s2.5,1.119,2.5,2.5v3.75C145.168,121.26,144.049,122.379,142.668,122.379z"/>
	<path d="M125.289,122.379h-6.814c-1.381,0-2.5-1.119-2.5-2.5s1.119-2.5,2.5-2.5h6.814c1.381,0,2.5,1.119,2.5,2.5
		S126.67,122.379,125.289,122.379z M104.846,122.379h-6.815c-1.381,0-2.5-1.119-2.5-2.5s1.119-2.5,2.5-2.5h6.815
		c1.381,0,2.5,1.119,2.5,2.5S106.227,122.379,104.846,122.379z M84.402,122.379h-6.814c-1.381,0-2.5-1.119-2.5-2.5
		s1.119-2.5,2.5-2.5h6.814c1.381,0,2.5,1.119,2.5,2.5S85.783,122.379,84.402,122.379z M63.958,122.379h-6.814
		c-1.381,0-2.5-1.119-2.5-2.5s1.119-2.5,2.5-2.5h6.814c1.381,0,2.5,1.119,2.5,2.5S65.339,122.379,63.958,122.379z"/>
	<path d="M43.515,122.379h-3.75c-1.381,0-2.5-1.119-2.5-2.5v-3.75c0-1.381,1.119-2.5,2.5-2.5s2.5,1.119,2.5,2.5v1.25h1.25
		c1.381,0,2.5,1.119,2.5,2.5S44.896,122.379,43.515,122.379z"/>
	<path d="M39.765,104.628c-1.381,0-2.5-1.119-2.5-2.5v-7c0-1.381,1.119-2.5,2.5-2.5s2.5,1.119,2.5,2.5v7
		C42.265,103.509,41.146,104.628,39.765,104.628z M39.765,83.626c-1.381,0-2.5-1.119-2.5-2.5v-7c0-1.381,1.119-2.5,2.5-2.5
		s2.5,1.119,2.5,2.5v7C42.265,82.507,41.146,83.626,39.765,83.626z"/>
</g>
</svg>
