<?xml version="1.0" encoding="utf-8"?>
<!-- Generator: Adobe Illustrator 15.1.0, SVG Export Plug-In . SVG Version: 6.00 Build 0)  -->
<!DOCTYPE svg PUBLIC "-//W3C//DTD SVG 1.1//EN" "http://www.w3.org/Graphics/SVG/1.1/DTD/svg11.dtd">
<svg version="1.1" id="Layer_1" xmlns="http://www.w3.org/2000/svg" xmlns:xlink="http://www.w3.org/1999/xlink" x="0px" y="0px"
	 width="225px" height="225px" viewBox="0 0 225 225" enable-background="new 0 0 225 225" xml:space="preserve">
<g>
	<path fill="#ffffff" d="M128.031,98.344V87.949c0-8.194-7.279-15.117-15.898-15.117c-8.62,0-15.898,6.961-15.898,15.201v10.312
		h-5.678v31.798h43.153V98.344H128.031z M114.534,117.083v6.622c0,0.275-0.224,0.5-0.5,0.5h-3.891c-0.276,0-0.5-0.225-0.5-0.5
		v-6.622c-1.488-0.806-2.334-2.306-2.334-4.163c0-2.652,2.178-4.81,4.855-4.81c2.643,0,4.792,2.158,4.792,4.81
		C116.957,114.729,116.059,116.264,114.534,117.083z M123.488,98.344h-22.713V88.033c0-5.678,5.309-10.658,11.357-10.658
		c6.155,0,11.356,4.842,11.356,10.574V98.344L123.488,98.344z"/>
</g>
<path fill="#ffffff" d="M63.416,59.704c0,3.597-2.914,6.507-6.506,6.507l0,0c-3.588,0-6.506-2.911-6.506-6.507l0,0
	c0-3.584,2.918-6.505,6.506-6.505l0,0C60.502,53.198,63.416,56.12,63.416,59.704L63.416,59.704z"/>
<path fill="#ffffff" d="M173.295,59.704c0,3.597-2.916,6.507-6.508,6.507l0,0c-3.588,0-6.508-2.911-6.508-6.507l0,0
	c0-3.584,2.92-6.505,6.508-6.505l0,0C170.379,53.198,173.295,56.12,173.295,59.704L173.295,59.704z"/>
<g>
	<path fill="#ffffff" d="M87.251,92.294c-0.615,0-1.23-0.225-1.713-0.68L65.535,72.783c-1.005-0.946-1.053-2.529-0.107-3.534
		c0.947-1.006,2.53-1.053,3.534-0.107l20.004,18.831c1.005,0.946,1.053,2.529,0.107,3.534C88.581,92.03,87.917,92.294,87.251,92.294
		z"/>
</g>
<path fill="#ffffff" d="M160.24,59.704c0,3.597,2.914,6.507,6.506,6.507l0,0c3.588,0,6.506-2.911,6.506-6.507l0,0
	c0-3.584-2.918-6.505-6.506-6.505l0,0C163.154,53.198,160.24,56.12,160.24,59.704L160.24,59.704z"/>
<g>
	<path fill="#ffffff" d="M137.404,92.294c-0.665,0-1.328-0.264-1.82-0.787c-0.945-1.005-0.898-2.587,0.105-3.534l20.004-18.831
		c1.007-0.945,2.588-0.899,3.535,0.107c0.945,1.005,0.897,2.587-0.106,3.534l-20.004,18.831
		C138.635,92.069,138.02,92.294,137.404,92.294z"/>
</g>
<path fill="#ffffff" d="M63.416,168.289c0-3.596-2.914-6.507-6.506-6.507l0,0c-3.588,0-6.506,2.911-6.506,6.507l0,0
	c0,3.584,2.918,6.506,6.506,6.506l0,0C60.502,174.795,63.416,171.873,63.416,168.289L63.416,168.289z"/>
<g>
	<path fill="#ffffff" d="M67.249,159.529c-0.665,0-1.329-0.264-1.821-0.786c-0.946-1.007-0.898-2.588,0.107-3.534l20.004-18.83
		c1.005-0.945,2.588-0.898,3.534,0.105c0.946,1.007,0.898,2.589-0.107,3.535l-20.004,18.83
		C68.479,159.305,67.863,159.529,67.249,159.529z"/>
</g>
<path fill="#ffffff" d="M161.24,168.289c0-3.596,2.914-6.507,6.506-6.507l0,0c3.588,0,6.506,2.911,6.506,6.507l0,0
	c0,3.584-2.918,6.506-6.506,6.506l0,0C164.154,174.795,161.24,171.873,161.24,168.289L161.24,168.289z"/>
<g>
	<path fill="#ffffff" d="M157.408,159.529c-0.615,0-1.23-0.227-1.715-0.68l-20.004-18.83c-1.004-0.946-1.053-2.528-0.105-3.535
		c0.948-1.006,2.527-1.051,3.534-0.105l20.004,18.83c1.005,0.946,1.053,2.527,0.106,3.534
		C158.736,159.266,158.073,159.529,157.408,159.529z"/>
</g>
</svg>
