<?xml version="1.0" encoding="utf-8"?>
<!-- Generator: Adobe Illustrator 16.0.0, SVG Export Plug-In . SVG Version: 6.00 Build 0)  -->
<!DOCTYPE svg PUBLIC "-//W3C//DTD SVG 1.1//EN" "http://www.w3.org/Graphics/SVG/1.1/DTD/svg11.dtd">
<svg version="1.1" id="Layer_1" xmlns="http://www.w3.org/2000/svg" xmlns:xlink="http://www.w3.org/1999/xlink" x="0px" y="0px"
	 width="225px" height="225px" viewBox="0 0 225 225" enable-background="new 0 0 225 225" xml:space="preserve">
<g>
	<circle fill="#FF8158" cx="5346.54" cy="217.932" r="112.265"/>
</g>
<g>
	<rect x="5270" y="201" fill="#FFFFFF" width="102" height="15"/>
	<path fill="none" stroke="#FFFFFF" stroke-width="5" stroke-miterlimit="10" d="M5373,243.73c0,5.578-4.339,10.729-9.189,10.729
		h-84.082c-4.855,0-10.104-5.151-10.104-10.729v-50.491c0-5.577,5.249-9.222,10.104-9.222h84.082c4.852,0,9.189,3.645,9.189,9.222
		V243.73z"/>
</g>
<path fill="none" stroke="#FFFFFF" stroke-width="5" stroke-linecap="round" stroke-miterlimit="10" d="M5406.875,171.34
	c26.049,26.053,28.023,67.061,5.924,95.379"/>
<path fill="none" stroke="#FFFFFF" stroke-width="5" stroke-linecap="round" stroke-miterlimit="10" d="M5396.32,185.959
	c17.926,17.924,19.283,46.143,4.078,65.629"/>
<path fill="none" stroke="#FFFFFF" stroke-width="5" stroke-linecap="round" stroke-miterlimit="10" d="M5388.336,202.912
	c8.805,8.804,9.475,22.666,2.004,32.234"/>
<g>
	<path d="M128.031,98.344V87.949c0-8.194-7.279-15.117-15.898-15.117c-8.62,0-15.898,6.961-15.898,15.201v10.312h-5.678v31.798
		h43.153V98.344H128.031z M114.534,117.083v6.622c0,0.276-0.224,0.5-0.5,0.5h-3.891c-0.276,0-0.5-0.224-0.5-0.5v-6.622
		c-1.488-0.806-2.334-2.305-2.334-4.163c0-2.652,2.178-4.81,4.855-4.81c2.643,0,4.792,2.158,4.792,4.81
		C116.957,114.729,116.058,116.263,114.534,117.083z M123.489,98.344h-22.714V88.033c0-5.678,5.309-10.658,11.357-10.658
		c6.155,0,11.356,4.842,11.356,10.574V98.344z"/>
</g>
<path d="M63.416,59.704c0,3.597-2.914,6.507-6.506,6.507l0,0c-3.588,0-6.506-2.911-6.506-6.507l0,0c0-3.584,2.918-6.505,6.506-6.505
	l0,0C60.502,53.198,63.416,56.12,63.416,59.704L63.416,59.704z"/>
<path d="M173.295,59.704c0,3.597-2.916,6.507-6.508,6.507l0,0c-3.588,0-6.508-2.911-6.508-6.507l0,0c0-3.584,2.92-6.505,6.508-6.505
	l0,0C170.379,53.198,173.295,56.12,173.295,59.704L173.295,59.704z"/>
<line fill="none" stroke="#000000" stroke-width="5" stroke-linecap="round" stroke-linejoin="round" stroke-miterlimit="10" x1="87.252" y1="89.794" x2="67.248" y2="70.963"/>
<path d="M160.24,59.704c0,3.597,2.914,6.507,6.506,6.507l0,0c3.588,0,6.506-2.911,6.506-6.507l0,0c0-3.584-2.918-6.505-6.506-6.505
	l0,0C163.154,53.198,160.24,56.12,160.24,59.704L160.24,59.704z"/>
<line fill="none" stroke="#000000" stroke-width="5" stroke-linecap="round" stroke-linejoin="round" stroke-miterlimit="10" x1="137.404" y1="89.794" x2="157.408" y2="70.963"/>
<path d="M63.416,168.289c0-3.596-2.914-6.507-6.506-6.507l0,0c-3.588,0-6.506,2.911-6.506,6.507l0,0
	c0,3.584,2.918,6.506,6.506,6.506l0,0C60.502,174.795,63.416,171.873,63.416,168.289L63.416,168.289z"/>
<line fill="none" stroke="#000000" stroke-width="5" stroke-linecap="round" stroke-linejoin="round" stroke-miterlimit="10" x1="87.252" y1="138.199" x2="67.248" y2="157.029"/>
<path d="M161.24,168.289c0-3.596,2.914-6.507,6.506-6.507l0,0c3.588,0,6.506,2.911,6.506,6.507l0,0c0,3.584-2.918,6.506-6.506,6.506
	l0,0C164.154,174.795,161.24,171.873,161.24,168.289L161.24,168.289z"/>
<line fill="none" stroke="#000000" stroke-width="5" stroke-linecap="round" stroke-linejoin="round" stroke-miterlimit="10" x1="137.404" y1="138.199" x2="157.408" y2="157.029"/>
</svg>
