<?xml version="1.0" encoding="utf-8"?>
<!-- Generator: Adobe Illustrator 16.0.0, SVG Export Plug-In . SVG Version: 6.00 Build 0)  -->
<!DOCTYPE svg PUBLIC "-//W3C//DTD SVG 1.1//EN" "http://www.w3.org/Graphics/SVG/1.1/DTD/svg11.dtd">
<svg version="1.1" id="Layer_1" xmlns="http://www.w3.org/2000/svg" xmlns:xlink="http://www.w3.org/1999/xlink" x="0px" y="0px"
	 width="225px" height="225px" viewBox="245 0 225 225" enable-background="new 245 0 225 225" xml:space="preserve">
<path fill="#ffffff" d="M427.246,110.958c-0.278-11.248-3.229-21.836-8.236-31.165c-0.03-0.061-0.061-0.119-0.098-0.178
	c-11.508-21.297-33.766-35.954-59.422-36.697v-0.154l-4.666,0.02v0.155c-12.15,0.451-23.504,4.016-33.3,9.918l0,0
	c-10.238,6.166-18.769,14.879-24.712,25.255l0,0c-0.38,0.662-0.746,1.333-1.104,2.008c-0.033,0.059-0.064,0.121-0.098,0.186
	c-4.929,9.367-7.795,19.979-7.978,31.229c-0.01,0.486-0.016,0.976-0.014,1.467c0.044,10.307,2.33,20.094,6.395,28.896l0.001,0.003
	c0.306,0.654,0.621,1.305,0.941,1.95c0.061,0.114,0.119,0.226,0.172,0.337c5.85,11.532,14.805,21.233,25.764,27.992v0.002
	c10.099,6.23,21.889,9.959,34.508,10.322v0.3l4.672-0.022v-0.297c14.269-0.528,27.449-5.359,38.289-13.225
	c9.134-6.627,16.602-15.406,21.662-25.591c0.055-0.112,0.106-0.224,0.164-0.334c0.318-0.649,0.631-1.306,0.929-1.961
	c3.989-8.835,6.196-18.64,6.158-28.948C427.271,111.936,427.262,111.445,427.246,110.958z M355.275,152.82
	c-8.376,0.316-16.348,2.164-23.203,5.332c-2.969-5.477-5.346-11.705-7.07-18.439c9.605-1.355,19.768-2.132,30.209-2.268
	L355.275,152.82z M355.192,132.774c-10.792,0.142-21.309,0.948-31.245,2.372c-1.34-6.48-2.1-13.35-2.24-20.42l33.411-0.139
	L355.192,132.774z M355.098,109.918l-33.391,0.141c0.144-7.452,0.984-14.676,2.463-21.448c9.823,1.308,20.205,2.011,30.853,2.062
	L355.098,109.918z M355,86c-10.26-0.051-20.257-0.713-29.717-1.949c1.754-6.512,4.13-12.52,7.078-17.79
	c0.074-0.132,0.149-0.257,0.225-0.389c6.676,2.87,14.329,4.517,22.35,4.755L355,86z M354.843,47.708l0.075,18.242
	c-7.26-0.233-14.035-1.694-19.847-4.077C340.763,53.528,347.613,48.607,354.843,47.708z M339.171,50.165
	c-2.999,2.587-5.806,5.832-8.374,9.698c-2.074-1.109-3.975-2.351-5.686-3.701C329.503,53.642,334.214,51.616,339.171,50.165z
	 M320.961,58.758c1.216,1.045,2.529,2.047,3.955,2.994c1.104,0.736,2.261,1.432,3.453,2.082c-0.027,0.051-0.057,0.098-0.082,0.148
	c-3.217,5.749-5.787,12.309-7.66,19.408c-6.729-1.033-13.151-2.357-19.174-3.964C306.364,71.195,313.04,64.125,320.961,58.758z
	 M299.146,83.64c6.387,1.751,13.226,3.192,20.395,4.305c-1.511,7.011-2.358,14.465-2.505,22.132l-24.691,0.101
	C292.709,100.674,295.115,91.687,299.146,83.64z M292.328,114.849l24.707-0.104c0.142,7.294,0.924,14.398,2.297,21.117
	c-7.334,1.215-14.311,2.773-20.807,4.654C294.82,132.682,292.621,124.009,292.328,114.849z M320.159,166.112
	c-7.961-5.573-14.626-12.882-19.439-21.374c6.148-1.737,12.737-3.182,19.649-4.319c1.826,7.259,4.366,13.982,7.562,19.896
	c-0.892,0.521-1.761,1.058-2.602,1.625C323.415,163.244,321.691,164.643,320.159,166.112z M324.178,168.716
	c1.787-1.608,3.832-3.086,6.098-4.405c2.854,4.501,6.017,8.215,9.414,11.098C334.189,173.846,328.986,171.58,324.178,168.716z
	 M334.455,162.182c6.011-2.688,13.147-4.377,20.841-4.688l0.083,20.241C347.703,176.839,340.416,171.424,334.455,162.182z
	 M422.525,109.638l-24.696,0.105c-0.202-7.666-1.116-15.113-2.68-22.111c7.156-1.17,13.98-2.67,20.354-4.474
	C419.6,91.17,422.083,100.142,422.525,109.638z M393.487,58.455c7.964,5.309,14.696,12.32,19.676,20.514
	c-6.007,1.652-12.425,3.031-19.14,4.117c-1.934-7.083-4.559-13.62-7.819-19.342c-0.028-0.051-0.059-0.098-0.089-0.147
	c1.188-0.662,2.341-1.365,3.442-2.112C390.969,60.523,392.278,59.514,393.487,58.455z M389.314,55.895
	c-1.699,1.367-3.594,2.623-5.657,3.752c-2.596-3.846-5.434-7.07-8.454-9.631C380.17,51.426,384.896,53.411,389.314,55.895z
	 M359.512,47.688c7.236,0.84,14.129,5.703,19.891,14.003c-5.792,2.428-12.555,3.945-19.813,4.238L359.512,47.688z M359.605,70.607
	c8.019-0.305,15.661-2.016,22.314-4.938c0.076,0.129,0.15,0.256,0.225,0.386c2.99,5.246,5.415,11.236,7.227,17.731
	c-9.45,1.312-19.439,2.058-29.701,2.192L359.605,70.607z M359.688,90.651c10.646-0.14,21.019-0.927,30.836-2.312
	c1.533,6.754,2.432,13.976,2.635,21.423l-33.387,0.136L359.688,90.651z M359.787,114.566l33.412-0.137
	c-0.08,7.07-0.785,13.948-2.072,20.439c-9.946-1.339-20.469-2.062-31.264-2.112L359.787,114.566z M359.883,137.423
	c10.443,0.056,20.616,0.743,30.229,2.017c-1.67,6.754-3.997,13.004-6.918,18.505c-6.885-3.112-14.871-4.896-23.246-5.144
	L359.883,137.423z M360.049,177.713l-0.084-20.236c7.696,0.25,14.844,1.875,20.88,4.513
	C374.961,171.283,367.713,176.764,360.049,177.713z M375.721,175.258c3.373-2.907,6.508-6.651,9.323-11.17
	c2.274,1.298,4.331,2.757,6.136,4.353C386.395,171.344,381.209,173.653,375.721,175.258z M395.178,165.805
	c-1.547-1.463-3.282-2.845-5.207-4.131c-0.847-0.562-1.726-1.092-2.615-1.602c3.144-5.94,5.629-12.686,7.397-19.961
	c6.917,1.078,13.52,2.469,19.683,4.154C409.688,152.801,403.09,160.164,395.178,165.805z M416.596,140.027
	c-6.516-1.83-13.504-3.33-20.848-4.484c1.318-6.727,2.042-13.838,2.118-21.134l24.716-0.099
	C422.357,123.471,420.234,132.167,416.596,140.027z"/>
</svg>
