<?xml version="1.0" encoding="utf-8"?>
<!-- Generator: Adobe Illustrator 16.0.0, SVG Export Plug-In . SVG Version: 6.00 Build 0)  -->
<!DOCTYPE svg PUBLIC "-//W3C//DTD SVG 1.1//EN" "http://www.w3.org/Graphics/SVG/1.1/DTD/svg11.dtd">
<svg version="1.1" id="Layer_1" xmlns="http://www.w3.org/2000/svg" xmlns:xlink="http://www.w3.org/1999/xlink" x="0px" y="0px"
	 width="25.941px" height="25.94px" viewBox="0 0 25.941 25.94" enable-background="new 0 0 25.941 25.94" xml:space="preserve">
<circle fill="none" stroke="#58595B" stroke-miterlimit="10" cx="12.971" cy="12.97" r="12.471"/>
<path fill="#58595B" d="M18.57,6.973c-1.52-1.522-3.99-1.521-5.512,0.001c-1.098,1.099-1.392,2.685-0.905,4.057l-5.791,5.791
	l-0.134,2.686l2.469-0.438l1.412-1.383l0.803,0.762l0.799-0.838l-0.75-0.76l0.832-0.816l0.83,0.789l1.596-1.578l-0.777-0.787
	l1.069-1.066c1.375,0.488,2.963,0.195,4.06-0.904C20.096,10.966,20.096,8.495,18.57,6.973z M17.096,9.436
	c-0.271,0.271-0.713,0.271-0.984,0c-0.271-0.272-0.271-0.714,0-0.985s0.711-0.272,0.984,0C17.368,8.722,17.368,9.164,17.096,9.436z"
	/>
</svg>
