<?xml version="1.0" encoding="utf-8"?>
<!-- Generator: Adobe Illustrator 16.0.0, SVG Export Plug-In . SVG Version: 6.00 Build 0)  -->
<!DOCTYPE svg PUBLIC "-//W3C//DTD SVG 1.1//EN" "http://www.w3.org/Graphics/SVG/1.1/DTD/svg11.dtd">
<svg version="1.1" id="Layer_1" xmlns="http://www.w3.org/2000/svg" xmlns:xlink="http://www.w3.org/1999/xlink" x="0px" y="0px"
	 width="25.941px" height="25.941px" viewBox="0 0 25.941 25.941" enable-background="new 0 0 25.941 25.941" xml:space="preserve">
<circle fill="#58595B" cx="12.971" cy="12.971" r="10.85"/>
<circle fill="none" stroke="#58595B" stroke-miterlimit="10" cx="12.971" cy="12.971" r="12.471"/>
<path fill-rule="evenodd" clip-rule="evenodd" fill="#FFFFFF" d="M6.646,18.661c0-0.499-0.018-0.991,0.006-1.482
	c0.021-0.443,0.279-0.778,0.592-1.071c0.448-0.423,0.982-0.712,1.539-0.963c0.77-0.348,1.571-0.605,2.393-0.802
	c0.096-0.021,0.135-0.056,0.132-0.157c-0.005-0.256,0.001-0.512-0.005-0.768c0-0.039-0.027-0.088-0.059-0.115
	c-0.516-0.456-0.749-1.049-0.826-1.715c-0.097-0.839-0.089-1.68-0.036-2.519c0.045-0.72,0.302-1.355,0.88-1.825
	c0.418-0.338,0.905-0.506,1.435-0.552c0.634-0.056,1.233,0.061,1.776,0.404c0.613,0.389,0.932,0.969,1.05,1.668
	c0.034,0.205,0.056,0.414,0.056,0.62c-0.004,0.671-0.004,1.343-0.038,2.013c-0.028,0.549-0.161,1.079-0.505,1.528
	c-0.1,0.131-0.223,0.244-0.33,0.369c-0.032,0.036-0.068,0.088-0.068,0.132c-0.004,0.277-0.002,0.555,0.008,0.832
	c0.001,0.027,0.062,0.062,0.102,0.075c0.582,0.181,1.173,0.34,1.749,0.541c0.661,0.23,1.294,0.531,1.862,0.948
	c0.322,0.237,0.619,0.504,0.791,0.874c0.072,0.157,0.135,0.332,0.143,0.502c0.018,0.483,0.006,0.97,0.006,1.462
	C15.082,18.661,10.868,18.661,6.646,18.661z"/>
</svg>
