<?xml version="1.0" encoding="utf-8"?>
<!-- Generator: Adobe Illustrator 16.0.0, SVG Export Plug-In . SVG Version: 6.00 Build 0)  -->
<!DOCTYPE svg PUBLIC "-//W3C//DTD SVG 1.1//EN" "http://www.w3.org/Graphics/SVG/1.1/DTD/svg11.dtd">
<svg version="1.1" id="Layer_1" xmlns="http://www.w3.org/2000/svg" xmlns:xlink="http://www.w3.org/1999/xlink" x="0px" y="0px"
	 width="25.94px" height="25.941px" viewBox="0 0 25.94 25.941" enable-background="new 0 0 25.94 25.941" xml:space="preserve">
<circle fill="none" stroke="#000000" stroke-miterlimit="10" cx="12.97" cy="12.971" r="12.47"/>
<path fill-rule="evenodd" clip-rule="evenodd" fill="#000000" d="M10.188,16.417c0-0.439-0.016-0.873,0.005-1.305
	c0.019-0.391,0.247-0.687,0.521-0.944c0.396-0.371,0.865-0.627,1.354-0.848c0.678-0.307,1.384-0.534,2.107-0.706
	c0.084-0.02,0.119-0.049,0.117-0.138c-0.006-0.226,0-0.451-0.004-0.677c-0.001-0.034-0.025-0.077-0.053-0.102
	c-0.454-0.401-0.66-0.923-0.728-1.51c-0.085-0.738-0.078-1.479-0.032-2.218c0.04-0.634,0.266-1.194,0.775-1.606
	c0.367-0.298,0.797-0.446,1.263-0.486c0.558-0.049,1.087,0.053,1.563,0.355c0.54,0.342,0.822,0.853,0.926,1.47
	c0.029,0.18,0.049,0.363,0.047,0.545C18.05,8.84,18.05,9.432,18.02,10.021c-0.024,0.484-0.142,0.95-0.444,1.347
	c-0.088,0.115-0.196,0.214-0.291,0.324c-0.027,0.033-0.059,0.076-0.061,0.117c-0.003,0.243,0,0.488,0.008,0.731
	c0,0.024,0.055,0.056,0.089,0.067c0.513,0.158,1.033,0.299,1.54,0.476c0.583,0.202,1.139,0.468,1.641,0.835
	c0.283,0.209,0.545,0.444,0.696,0.77c0.063,0.138,0.118,0.293,0.124,0.441c0.018,0.426,0.006,0.854,0.006,1.288
	C17.616,16.417,13.905,16.417,10.188,16.417z"/>
<g>
	<path fill-rule="evenodd" clip-rule="evenodd" fill="#000000" d="M4.615,18.77c0-0.439-0.017-0.873,0.005-1.305
		c0.019-0.391,0.246-0.686,0.521-0.944c0.395-0.372,0.865-0.627,1.354-0.848c0.679-0.306,1.385-0.533,2.107-0.705
		c0.084-0.02,0.119-0.05,0.117-0.139c-0.006-0.225,0-0.451-0.004-0.677c0-0.034-0.025-0.077-0.052-0.101
		c-0.455-0.402-0.661-0.924-0.729-1.511c-0.085-0.738-0.077-1.479-0.031-2.218c0.04-0.634,0.265-1.193,0.774-1.605
		C9.047,8.419,9.476,8.271,9.942,8.23c0.558-0.049,1.086,0.053,1.563,0.356c0.54,0.342,0.821,0.854,0.925,1.469
		c0.03,0.18,0.049,0.363,0.049,0.546c-0.004,0.59-0.003,1.182-0.033,1.771c-0.025,0.484-0.142,0.95-0.445,1.347
		c-0.087,0.114-0.195,0.215-0.29,0.324c-0.028,0.033-0.06,0.078-0.061,0.117c-0.003,0.243-0.001,0.487,0.007,0.732
		c0.001,0.023,0.055,0.055,0.09,0.066c0.513,0.159,1.033,0.299,1.54,0.477c0.583,0.202,1.139,0.468,1.64,0.834
		c0.284,0.209,0.545,0.444,0.697,0.771c0.063,0.138,0.119,0.292,0.124,0.44c0.017,0.428,0.005,0.854,0.005,1.288
		C12.042,18.77,8.332,18.77,4.615,18.77z"/>
</g>
</svg>
