<?xml version="1.0" encoding="utf-8"?>
<!-- Generator: Adobe Illustrator 16.0.0, SVG Export Plug-In . SVG Version: 6.00 Build 0)  -->
<!DOCTYPE svg PUBLIC "-//W3C//DTD SVG 1.1//EN" "http://www.w3.org/Graphics/SVG/1.1/DTD/svg11.dtd">
<svg version="1.1" id="Layer_1" xmlns="http://www.w3.org/2000/svg" xmlns:xlink="http://www.w3.org/1999/xlink" x="0px" y="0px"
	 width="25.94px" height="25.942px" viewBox="0 0 25.94 25.942" enable-background="new 0 0 25.94 25.942" xml:space="preserve">
<circle fill="#000000" cx="12.97" cy="12.971" r="10.85"/>
<circle fill="none" stroke="#000000" stroke-miterlimit="10" cx="12.97" cy="12.971" r="12.47"/>
<path fill-rule="evenodd" clip-rule="evenodd" fill="#FFFFFF" d="M10.188,16.417c0-0.439-0.016-0.873,0.005-1.305
	c0.019-0.391,0.247-0.686,0.521-0.943c0.396-0.371,0.865-0.627,1.354-0.848c0.678-0.307,1.384-0.535,2.107-0.707
	c0.084-0.02,0.119-0.049,0.117-0.137c-0.006-0.227,0-0.451-0.004-0.678c-0.001-0.033-0.025-0.076-0.053-0.102
	c-0.454-0.4-0.66-0.922-0.728-1.51c-0.085-0.738-0.078-1.479-0.032-2.217c0.04-0.635,0.266-1.195,0.775-1.607
	c0.367-0.297,0.797-0.445,1.263-0.486c0.558-0.049,1.087,0.053,1.563,0.355c0.54,0.342,0.822,0.854,0.926,1.471
	c0.029,0.18,0.049,0.363,0.047,0.545C18.05,8.84,18.05,9.432,18.02,10.02c-0.024,0.484-0.142,0.951-0.444,1.348
	c-0.088,0.115-0.196,0.213-0.291,0.324c-0.027,0.033-0.059,0.076-0.061,0.117c-0.003,0.242,0,0.488,0.008,0.73
	c0,0.025,0.055,0.057,0.089,0.068c0.513,0.158,1.033,0.299,1.54,0.475c0.583,0.203,1.139,0.469,1.641,0.836
	c0.283,0.209,0.545,0.443,0.696,0.77c0.063,0.137,0.118,0.293,0.124,0.441c0.018,0.426,0.006,0.854,0.006,1.287
	C17.616,16.417,13.905,16.417,10.188,16.417z"/>
<g>
	<path fill-rule="evenodd" clip-rule="evenodd" fill="#FFFFFF" d="M4.615,18.77c0-0.439-0.017-0.873,0.005-1.305
		c0.019-0.391,0.246-0.686,0.521-0.945c0.395-0.371,0.865-0.627,1.354-0.848c0.679-0.305,1.385-0.533,2.107-0.705
		c0.084-0.02,0.119-0.049,0.117-0.139c-0.006-0.225,0-0.451-0.004-0.676c0-0.035-0.025-0.078-0.052-0.102
		c-0.455-0.402-0.661-0.924-0.729-1.51c-0.085-0.738-0.077-1.479-0.031-2.219c0.04-0.633,0.265-1.193,0.774-1.605
		C9.047,8.418,9.476,8.27,9.942,8.231c0.558-0.049,1.086,0.053,1.563,0.355c0.54,0.342,0.821,0.854,0.925,1.469
		c0.03,0.18,0.049,0.363,0.049,0.547c-0.004,0.59-0.003,1.182-0.033,1.771c-0.025,0.484-0.142,0.949-0.445,1.346
		c-0.087,0.115-0.195,0.215-0.29,0.324c-0.028,0.033-0.06,0.078-0.061,0.117c-0.003,0.244-0.001,0.488,0.007,0.732
		c0.001,0.023,0.055,0.055,0.09,0.066c0.513,0.16,1.033,0.299,1.54,0.477c0.583,0.203,1.139,0.469,1.64,0.834
		c0.284,0.209,0.545,0.445,0.697,0.771c0.063,0.137,0.119,0.291,0.124,0.439c0.017,0.428,0.005,0.855,0.005,1.289
		C12.042,18.77,8.332,18.77,4.615,18.77z"/>
</g>
</svg>
