<?xml version="1.0" encoding="utf-8"?>
<!-- Generator: Adobe Illustrator 16.0.0, SVG Export Plug-In . SVG Version: 6.00 Build 0)  -->
<!DOCTYPE svg PUBLIC "-//W3C//DTD SVG 1.1//EN" "http://www.w3.org/Graphics/SVG/1.1/DTD/svg11.dtd">
<svg version="1.1" id="Layer_1" xmlns="http://www.w3.org/2000/svg" xmlns:xlink="http://www.w3.org/1999/xlink" x="0px" y="0px"
	 width="25.941px" height="25.94px" viewBox="0 0 25.941 25.94" enable-background="new 0 0 25.941 25.94" xml:space="preserve">
<circle fill="#000000" cx="12.971" cy="12.971" r="10.85"/>
<circle fill="none" stroke="#000000" stroke-miterlimit="10" cx="12.971" cy="12.971" r="12.471"/>
<path fill-rule="evenodd" clip-rule="evenodd" fill="#FFFFFF" d="M20.227,19.685c-2.467,0-4.908,0-7.369,0c0-2.406,0-4.805,0-7.217
	c2.457,0,4.906,0,7.369,0C20.227,14.874,20.227,17.266,20.227,19.685z"/>
<path fill-rule="evenodd" clip-rule="evenodd" fill="#FFFFFF" d="M16.184,11.901c-1.51,0-2.996,0-4.502,0c0-1.47,0-2.931,0-4.404
	c1.503,0,2.997,0,4.502,0C16.184,8.965,16.184,10.421,16.184,11.901z"/>
<path fill-rule="evenodd" clip-rule="evenodd" fill="#FFFFFF" d="M6.809,9.174c0-1.308,0-2.599,0-3.906c1.258,0,2.508,0,3.777,0
	c0,1.294,0,2.59,0,3.906C9.34,9.174,8.084,9.174,6.809,9.174z"/>
<path fill-rule="evenodd" clip-rule="evenodd" fill="#FFFFFF" d="M10.754,13.831c0,0.812,0,1.618,0,2.438c-0.836,0-1.662,0-2.505,0
	c0-0.809,0-1.612,0-2.438C9.071,13.831,9.896,13.831,10.754,13.831z"/>
<path fill-rule="evenodd" clip-rule="evenodd" fill="#FFFFFF" d="M7.678,12.72c-0.66,0-1.301,0-1.957,0c0-0.63,0-1.26,0-1.908
	c0.645,0,1.295,0,1.957,0C7.678,11.447,7.678,12.068,7.678,12.72z"/>
<path fill-rule="evenodd" clip-rule="evenodd" fill="#FFFFFF" d="M7.445,17.336c0,0.575,0,1.126,0,1.692c-0.578,0-1.145,0-1.729,0
	c0-0.561,0-1.117,0-1.692C6.285,17.336,6.857,17.336,7.445,17.336z"/>
</svg>
