<?xml version="1.0" encoding="utf-8"?>
<!-- Generator: Adobe Illustrator 16.0.0, SVG Export Plug-In . SVG Version: 6.00 Build 0)  -->
<!DOCTYPE svg PUBLIC "-//W3C//DTD SVG 1.1//EN" "http://www.w3.org/Graphics/SVG/1.1/DTD/svg11.dtd">
<svg version="1.1" id="Layer_1" xmlns="http://www.w3.org/2000/svg" xmlns:xlink="http://www.w3.org/1999/xlink" x="0px" y="0px"
	 width="25.94px" height="25.942px" viewBox="0 0 25.94 25.942" enable-background="new 0 0 25.94 25.942" xml:space="preserve">
<circle fill="none" stroke="#58595B" stroke-miterlimit="10" cx="12.97" cy="12.971" r="12.47"/>
<path fill-rule="evenodd" clip-rule="evenodd" fill="#58595B" d="M18.712,18.479c0,0.607,0,1.195,0,1.793c-3.828,0-7.649,0-11.483,0
	c0-0.59,0-1.18,0-1.793c0.157,0,0.317,0.008,0.476-0.006c0.053-0.004,0.125-0.049,0.146-0.094c0.209-0.43,0.408-0.863,0.607-1.299
	c0.02-0.045,0.028-0.102,0.023-0.148c-0.156-1.312-0.313-2.625-0.471-3.934c-0.105-0.889-0.234-1.775-0.312-2.666
	c-0.082-0.937,0.165-1.81,0.647-2.606c0.901-1.49,2.239-2.346,3.96-2.54c1.959-0.223,3.609,0.419,4.876,1.947
	c0.71,0.858,1.073,1.864,1.069,2.979c-0.002,0.454-0.093,0.909-0.146,1.364c-0.129,1.084-0.262,2.168-0.391,3.252
	c-0.086,0.723-0.172,1.445-0.254,2.168c-0.008,0.068,0.004,0.146,0.031,0.209c0.189,0.422,0.389,0.84,0.579,1.26
	c0.037,0.082,0.081,0.121,0.175,0.115C18.395,18.473,18.544,18.479,18.712,18.479z M15.479,14.981
	c-0.813-0.594-1.66-0.988-2.652-0.943c-0.883,0.039-1.646,0.402-2.366,0.945C12.146,15.52,13.792,15.52,15.479,14.981z
	 M12.421,11.54c-0.279-0.359-0.863-0.783-1.248-0.903c-0.451-0.142-0.918,0.02-1.161,0.403c-0.286,0.449-0.186,0.814,0.308,1.016
	C11.114,12.379,11.802,12.233,12.421,11.54z M13.55,11.536c0.236,0.258,0.494,0.467,0.812,0.582c0.516,0.188,1.014,0.111,1.479-0.16
	c0.271-0.158,0.333-0.365,0.244-0.666c-0.16-0.542-0.725-0.834-1.278-0.653C14.298,10.806,13.919,11.159,13.55,11.536z"/>
</svg>
