<?xml version="1.0" encoding="utf-8"?>
<!-- Generator: Adobe Illustrator 16.0.0, SVG Export Plug-In . SVG Version: 6.00 Build 0)  -->
<!DOCTYPE svg PUBLIC "-//W3C//DTD SVG 1.1//EN" "http://www.w3.org/Graphics/SVG/1.1/DTD/svg11.dtd">
<svg version="1.1" id="Layer_1" xmlns="http://www.w3.org/2000/svg" xmlns:xlink="http://www.w3.org/1999/xlink" x="0px" y="0px"
	 width="25.941px" height="25.94px" viewBox="0 0 25.941 25.94" enable-background="new 0 0 25.941 25.94" xml:space="preserve">
<circle fill="none" stroke="#58595B" stroke-miterlimit="10" cx="12.971" cy="12.97" r="12.471"/>
<path fill-rule="evenodd" clip-rule="evenodd" fill="#58595B" d="M12.238,13.936c-0.406,0.405-0.802,0.803-1.207,1.208
	c-0.287-0.246-0.521-0.535-0.699-0.87c-0.603-1.14-0.407-2.603,0.502-3.525c1.293-1.313,2.596-2.619,3.911-3.912
	c1.07-1.053,2.845-1.123,4.017-0.168c0.834,0.678,1.311,1.551,1.314,2.644c0.002,0.617-0.219,1.151-0.666,1.589
	c-0.361,0.354-0.715,0.714-1.072,1.07c-0.363,0.362-0.895,0.374-1.24,0.03c-0.346-0.345-0.336-0.877,0.023-1.239
	c0.36-0.361,0.728-0.716,1.077-1.086c0.085-0.09,0.153-0.227,0.165-0.349c0.098-1.033-1.086-1.906-2.037-1.501
	c-0.158,0.067-0.313,0.169-0.436,0.29c-1.262,1.252-2.518,2.511-3.773,3.768c-0.527,0.527-0.58,1.41,0.008,1.938
	C12.164,13.857,12.197,13.895,12.238,13.936z"/>
<path fill-rule="evenodd" clip-rule="evenodd" fill="#58595B" d="M13.703,12.004c0.408-0.407,0.805-0.804,1.209-1.208
	c0.332,0.288,0.592,0.628,0.774,1.026c0.509,1.115,0.286,2.493-0.579,3.371c-1.294,1.314-2.596,2.62-3.912,3.912
	c-1.072,1.053-2.837,1.121-4.016,0.165c-0.83-0.673-1.305-1.542-1.314-2.629c-0.004-0.622,0.217-1.162,0.668-1.602
	c0.361-0.354,0.715-0.715,1.072-1.071c0.363-0.361,0.895-0.373,1.24-0.028c0.346,0.344,0.336,0.876-0.026,1.239
	c-0.359,0.362-0.727,0.716-1.077,1.087c-0.084,0.089-0.15,0.228-0.162,0.349c-0.098,1.035,1.088,1.904,2.039,1.497
	c0.166-0.071,0.326-0.183,0.455-0.31c1.248-1.239,2.487-2.486,3.734-3.726c0.535-0.534,0.609-1.429-0.002-1.972
	C13.774,12.077,13.746,12.046,13.703,12.004z"/>
</svg>
