<?xml version="1.0" encoding="utf-8"?>
<!-- Generator: Adobe Illustrator 16.0.0, SVG Export Plug-In . SVG Version: 6.00 Build 0)  -->
<!DOCTYPE svg PUBLIC "-//W3C//DTD SVG 1.1//EN" "http://www.w3.org/Graphics/SVG/1.1/DTD/svg11.dtd">
<svg version="1.1" id="Layer_1" xmlns="http://www.w3.org/2000/svg" xmlns:xlink="http://www.w3.org/1999/xlink" x="0px" y="0px"
	 width="25.941px" height="25.94px" viewBox="0 0 25.941 25.94" enable-background="new 0 0 25.941 25.94" xml:space="preserve">
<circle fill="#000000" cx="12.971" cy="12.97" r="10.85"/>
<circle fill="none" stroke="#000000" stroke-miterlimit="10" cx="12.971" cy="12.969" r="12.471"/>
<path fill-rule="evenodd" clip-rule="evenodd" fill="#FFFFFF" d="M12.238,13.936c-0.406,0.404-0.802,0.803-1.207,1.207
	c-0.287-0.246-0.521-0.535-0.699-0.869c-0.603-1.141-0.407-2.604,0.502-3.525c1.293-1.314,2.596-2.619,3.911-3.912
	c1.07-1.053,2.845-1.123,4.017-0.168c0.834,0.678,1.311,1.551,1.314,2.643c0.002,0.617-0.219,1.152-0.666,1.59
	c-0.361,0.354-0.715,0.713-1.072,1.07c-0.363,0.361-0.895,0.373-1.24,0.029s-0.336-0.877,0.023-1.238
	c0.36-0.361,0.728-0.717,1.077-1.086c0.085-0.09,0.153-0.227,0.165-0.35c0.098-1.033-1.086-1.906-2.037-1.5
	c-0.158,0.066-0.313,0.168-0.436,0.289c-1.262,1.252-2.518,2.512-3.773,3.768c-0.527,0.527-0.58,1.41,0.008,1.939
	C12.164,13.858,12.197,13.895,12.238,13.936z"/>
<path fill-rule="evenodd" clip-rule="evenodd" fill="#FFFFFF" d="M13.703,12.004c0.408-0.408,0.805-0.805,1.209-1.209
	c0.332,0.289,0.592,0.629,0.774,1.027c0.509,1.115,0.286,2.492-0.579,3.371c-1.294,1.314-2.596,2.619-3.912,3.912
	c-1.072,1.053-2.837,1.121-4.016,0.164c-0.83-0.672-1.305-1.541-1.314-2.629c-0.004-0.621,0.217-1.162,0.668-1.602
	c0.361-0.354,0.715-0.715,1.072-1.07c0.363-0.361,0.895-0.373,1.24-0.029s0.336,0.877-0.026,1.24
	c-0.359,0.361-0.727,0.715-1.077,1.086c-0.084,0.09-0.15,0.229-0.162,0.35c-0.098,1.035,1.088,1.904,2.039,1.496
	c0.166-0.07,0.326-0.182,0.455-0.309c1.248-1.24,2.487-2.486,3.734-3.727c0.535-0.533,0.609-1.428-0.002-1.971
	C13.774,12.077,13.746,12.045,13.703,12.004z"/>
</svg>
