<?xml version="1.0" encoding="utf-8"?>
<!-- Generator: Adobe Illustrator 16.0.0, SVG Export Plug-In . SVG Version: 6.00 Build 0)  -->
<!DOCTYPE svg PUBLIC "-//W3C//DTD SVG 1.1//EN" "http://www.w3.org/Graphics/SVG/1.1/DTD/svg11.dtd">
<svg version="1.1" id="Layer_1" xmlns="http://www.w3.org/2000/svg" xmlns:xlink="http://www.w3.org/1999/xlink" x="0px" y="0px"
	 width="25.94px" height="25.941px" viewBox="0 0 25.94 25.941" enable-background="new 0 0 25.94 25.941" xml:space="preserve">
<circle fill="#000000" cx="12.971" cy="12.971" r="10.85"/>
<circle fill="none" stroke="#000000" stroke-miterlimit="10" cx="12.97" cy="12.971" r="12.47"/>
<path fill-rule="evenodd" clip-rule="evenodd" fill="#FFFFFF" d="M5.739,17.769c0-2.516,0-5.013,0-7.53c0.572,0,1.145,0,1.734,0
	c0-0.075-0.001-0.13,0-0.185c0.004-0.518-0.01-1.033,0.018-1.55c0.087-1.604,1.29-3.026,2.853-3.391
	c2.103-0.49,4.124,0.782,4.582,2.895c0.058,0.265,0.069,0.544,0.078,0.816c0.013,0.414,0.003,0.828,0.003,1.242
	c0,0.05,0,0.101,0,0.166c0.586,0,1.156,0,1.745,0c0,1.37,0,2.726,0,4.094c0.068,0,0.117,0,0.167,0c0.987,0,1.975-0.001,2.96,0.001
	c1.284,0.002,2.315,0.853,2.563,2.111c0.279,1.416-0.773,2.849-2.207,3c-0.144,0.015-0.288,0.023-0.431,0.023
	c-2.118,0.001-4.235,0.007-6.353-0.002c-1.152-0.004-1.971-0.547-2.443-1.599c-0.047-0.104-0.112-0.093-0.189-0.093
	c-1.628,0-3.256,0-4.886,0C5.873,17.769,5.813,17.769,5.739,17.769z M10.917,16.026c-0.125,0-0.278,0-0.431,0
	c-0.198,0-0.425-0.258-0.396-0.454c0.078-0.506,0.155-1.01,0.238-1.515c0.016-0.094,0-0.165-0.055-0.245
	c-0.197-0.288-0.26-0.606-0.168-0.943c0.137-0.499,0.47-0.801,0.978-0.874c0.485-0.069,0.884,0.119,1.146,0.534
	c0.268,0.425,0.247,0.862-0.02,1.288c-0.026,0.042-0.067,0.092-0.062,0.133c0.023,0.21,0.061,0.419,0.095,0.647
	c0.5-0.264,1.022-0.279,1.552-0.273c0.748,0.009,1.497,0.002,2.247,0.002c0.048,0,0.097-0.004,0.146-0.006c0-1.182,0-2.347,0-3.519
	c-3.301,0-6.593,0-9.889,0c0,2.137,0,4.265,0,6.398c1.51,0,3.016,0,4.484,0C10.827,16.804,10.871,16.419,10.917,16.026z
	 M16.646,14.885C16.646,14.886,16.646,14.886,16.646,14.885c-1.106,0.001-2.214-0.005-3.321,0.002
	c-1.048,0.008-1.936,0.899-1.953,1.945c-0.019,1.156,0.868,2.067,2.025,2.072c0.823,0.003,1.647,0,2.471,0
	c1.349,0,2.698,0.003,4.048-0.001c1.098-0.004,1.992-0.884,2.01-1.962c0.018-1.138-0.875-2.053-2.013-2.056
	C18.823,14.883,17.735,14.885,16.646,14.885z M14.442,10.226c0.002-0.053,0.006-0.098,0.006-0.144c0-0.423,0.005-0.847-0.002-1.269
	c-0.004-0.199-0.011-0.402-0.049-0.597c-0.325-1.701-1.785-2.791-3.511-2.632c-1.39,0.129-2.628,1.274-2.798,2.661
	c-0.078,0.637-0.04,1.29-0.054,1.935c0,0.014,0.009,0.026,0.016,0.045C10.177,10.226,12.306,10.226,14.442,10.226z M10.675,15.468
	c0.129,0,0.246-0.009,0.361,0.002c0.143,0.015,0.239-0.025,0.323-0.152c0.077-0.118,0.196-0.21,0.286-0.32
	c0.035-0.043,0.067-0.111,0.061-0.164c-0.031-0.271-0.068-0.543-0.12-0.812c-0.035-0.186,0.017-0.335,0.13-0.476
	c0.134-0.167,0.172-0.358,0.115-0.563c-0.068-0.241-0.281-0.415-0.523-0.439c-0.25-0.024-0.486,0.101-0.605,0.318
	c-0.119,0.22-0.097,0.484,0.062,0.68c0.112,0.14,0.167,0.289,0.136,0.474C10.821,14.489,10.751,14.967,10.675,15.468z"/>
<g>
	<path fill="#FFFFFF" d="M13.822,16.181l-0.531,0.699v0.01l0.845-0.111v0.381l-0.845-0.102v0.012l0.537,0.672l-0.353,0.201
		l-0.336-0.783h-0.011l-0.364,0.789l-0.318-0.202l0.531-0.683v-0.011l-0.828,0.106v-0.381l0.822,0.106v-0.011l-0.525-0.684
		l0.341-0.195l0.347,0.777h0.012l0.342-0.783L13.822,16.181z"/>
	<path fill="#FFFFFF" d="M16.146,16.181l-0.532,0.699v0.01l0.845-0.111v0.381l-0.845-0.102v0.012l0.537,0.672l-0.353,0.201
		l-0.336-0.783h-0.011l-0.364,0.789l-0.318-0.202l0.531-0.683v-0.011l-0.828,0.106v-0.381l0.823,0.106v-0.011l-0.526-0.684
		l0.342-0.195l0.347,0.777h0.011l0.342-0.783L16.146,16.181z"/>
	<path fill="#FFFFFF" d="M18.468,16.181l-0.531,0.699v0.01l0.845-0.111v0.381l-0.845-0.102v0.012l0.537,0.672l-0.353,0.201
		l-0.336-0.783h-0.011l-0.363,0.789l-0.319-0.202l0.531-0.683v-0.011l-0.828,0.106v-0.381l0.823,0.106v-0.011l-0.526-0.684
		l0.342-0.195l0.347,0.777h0.011l0.342-0.783L18.468,16.181z"/>
	<path fill="#FFFFFF" d="M20.791,16.181l-0.532,0.699v0.01l0.845-0.111v0.381l-0.845-0.102v0.012l0.537,0.672l-0.352,0.201
		l-0.336-0.783h-0.012l-0.363,0.789l-0.319-0.202l0.532-0.683v-0.011l-0.828,0.106v-0.381l0.822,0.106v-0.011l-0.526-0.684
		l0.342-0.195l0.347,0.777h0.011l0.342-0.783L20.791,16.181z"/>
</g>
</svg>
