<?xml version="1.0" encoding="utf-8"?>
<!-- Generator: Adobe Illustrator 16.0.0, SVG Export Plug-In . SVG Version: 6.00 Build 0)  -->
<!DOCTYPE svg PUBLIC "-//W3C//DTD SVG 1.1//EN" "http://www.w3.org/Graphics/SVG/1.1/DTD/svg11.dtd">
<svg version="1.1" id="Layer_1" xmlns="http://www.w3.org/2000/svg" xmlns:xlink="http://www.w3.org/1999/xlink" x="0px" y="0px"
	 width="25.941px" height="25.941px" viewBox="0 0 25.941 25.941" enable-background="new 0 0 25.941 25.941" xml:space="preserve">
<circle fill="#58595B" cx="12.971" cy="12.971" r="10.85"/>
<circle fill="none" stroke="#58595B" stroke-miterlimit="10" cx="12.971" cy="12.971" r="12.471"/>
<g>
	<path fill-rule="evenodd" clip-rule="evenodd" fill="#FFFFFF" d="M4.211,19.129c0-0.214-0.008-0.424,0.002-0.634
		c0.009-0.189,0.119-0.333,0.253-0.458c0.192-0.182,0.42-0.305,0.658-0.412c0.329-0.149,0.673-0.26,1.023-0.343
		c0.04-0.01,0.058-0.024,0.057-0.068c-0.003-0.108,0-0.219-0.002-0.328c-0.001-0.017-0.013-0.037-0.025-0.049
		c-0.222-0.195-0.32-0.449-0.354-0.733c-0.042-0.358-0.038-0.718-0.016-1.077c0.021-0.308,0.13-0.58,0.377-0.78
		c0.179-0.145,0.388-0.217,0.613-0.236c0.271-0.024,0.528,0.025,0.76,0.173c0.263,0.166,0.398,0.414,0.449,0.714
		c0.015,0.087,0.024,0.176,0.023,0.265c-0.001,0.287-0.001,0.574-0.017,0.861c-0.012,0.234-0.068,0.461-0.216,0.654
		c-0.042,0.055-0.095,0.104-0.142,0.157c-0.014,0.016-0.028,0.037-0.028,0.056c-0.002,0.119-0.001,0.237,0.003,0.356
		c0.001,0.011,0.027,0.027,0.043,0.032c0.25,0.077,0.502,0.146,0.749,0.231c0.283,0.098,0.553,0.228,0.796,0.406
		c0.139,0.101,0.266,0.214,0.339,0.373c0.03,0.067,0.058,0.143,0.061,0.215c0.008,0.207,0.003,0.414,0.003,0.625
		C7.818,19.129,6.016,19.129,4.211,19.129z"/>
</g>
<g>
	<path fill-rule="evenodd" clip-rule="evenodd" fill="#FFFFFF" d="M10.275,19.129c0-0.214-0.008-0.424,0.002-0.634
		c0.01-0.189,0.119-0.333,0.254-0.458c0.191-0.182,0.42-0.305,0.656-0.412c0.33-0.149,0.673-0.26,1.024-0.343
		c0.04-0.01,0.058-0.024,0.057-0.068c-0.003-0.108,0.001-0.219-0.002-0.328c-0.001-0.017-0.012-0.037-0.024-0.049
		c-0.222-0.195-0.321-0.449-0.354-0.733c-0.042-0.358-0.038-0.718-0.015-1.077c0.019-0.308,0.129-0.58,0.376-0.78
		c0.179-0.145,0.388-0.217,0.613-0.236c0.271-0.024,0.528,0.025,0.76,0.173c0.263,0.166,0.399,0.414,0.449,0.714
		c0.015,0.087,0.024,0.176,0.022,0.265c0,0.287,0,0.574-0.016,0.861c-0.012,0.234-0.068,0.461-0.215,0.654
		c-0.043,0.055-0.096,0.104-0.142,0.157c-0.014,0.016-0.029,0.037-0.029,0.056c-0.001,0.119-0.001,0.237,0.003,0.356
		c0.001,0.011,0.027,0.027,0.044,0.032c0.249,0.077,0.501,0.146,0.748,0.231c0.282,0.098,0.554,0.228,0.796,0.406
		c0.139,0.101,0.266,0.214,0.34,0.373c0.03,0.067,0.057,0.143,0.06,0.215c0.009,0.207,0.003,0.414,0.003,0.625
		C13.883,19.129,12.08,19.129,10.275,19.129z"/>
</g>
<g>
	<path fill-rule="evenodd" clip-rule="evenodd" fill="#FFFFFF" d="M10.275,9.211c0-0.214-0.008-0.425,0.002-0.635
		c0.01-0.189,0.119-0.333,0.254-0.458c0.191-0.181,0.42-0.305,0.656-0.412c0.33-0.148,0.673-0.259,1.024-0.343
		c0.04-0.009,0.058-0.023,0.057-0.067c-0.003-0.108,0.001-0.218-0.002-0.328c-0.001-0.017-0.012-0.037-0.024-0.049
		c-0.222-0.195-0.321-0.449-0.354-0.734c-0.042-0.358-0.038-0.718-0.015-1.076c0.019-0.309,0.129-0.58,0.376-0.781
		c0.179-0.145,0.388-0.217,0.613-0.236c0.271-0.023,0.528,0.026,0.76,0.173c0.263,0.167,0.399,0.414,0.449,0.714
		c0.015,0.087,0.024,0.177,0.022,0.265c0,0.287,0,0.575-0.016,0.861c-0.012,0.235-0.068,0.461-0.215,0.654
		c-0.043,0.056-0.096,0.104-0.142,0.157c-0.014,0.016-0.029,0.038-0.029,0.057c-0.001,0.118-0.001,0.237,0.003,0.355
		c0.001,0.012,0.027,0.027,0.044,0.033c0.249,0.076,0.501,0.145,0.748,0.23c0.282,0.099,0.554,0.228,0.796,0.405
		c0.139,0.102,0.266,0.216,0.34,0.375c0.03,0.066,0.057,0.142,0.06,0.214c0.009,0.207,0.003,0.414,0.003,0.626
		C13.883,9.211,12.08,9.211,10.275,9.211z"/>
</g>
<g>
	<path fill-rule="evenodd" clip-rule="evenodd" fill="#FFFFFF" d="M16.34,19.129c0-0.214-0.008-0.424,0.002-0.634
		c0.009-0.189,0.12-0.333,0.253-0.458c0.192-0.182,0.421-0.305,0.658-0.412c0.329-0.149,0.673-0.26,1.024-0.343
		c0.04-0.01,0.057-0.024,0.056-0.068c-0.003-0.108,0.001-0.219-0.001-0.328c-0.001-0.017-0.014-0.037-0.025-0.049
		c-0.222-0.195-0.321-0.449-0.354-0.733c-0.042-0.358-0.039-0.718-0.016-1.077c0.02-0.308,0.129-0.58,0.376-0.78
		c0.179-0.145,0.387-0.217,0.614-0.236c0.271-0.024,0.527,0.025,0.759,0.173c0.263,0.166,0.399,0.414,0.449,0.714
		c0.015,0.087,0.024,0.176,0.023,0.265c-0.001,0.287-0.001,0.574-0.017,0.861c-0.012,0.234-0.068,0.461-0.215,0.654
		c-0.043,0.055-0.096,0.104-0.142,0.157c-0.015,0.016-0.028,0.037-0.028,0.056c-0.003,0.119-0.002,0.237,0.002,0.356
		c0,0.011,0.027,0.027,0.043,0.032c0.25,0.077,0.502,0.146,0.749,0.231c0.282,0.098,0.554,0.228,0.796,0.406
		c0.139,0.101,0.266,0.214,0.339,0.373c0.031,0.067,0.058,0.143,0.06,0.215c0.009,0.207,0.004,0.414,0.004,0.625
		C19.947,19.129,18.145,19.129,16.34,19.129z"/>
</g>
<line fill="none" stroke="#FFFFFF" stroke-width="0.5" stroke-miterlimit="10" x1="12.971" y1="10.244" x2="12.971" y2="11.528"/>
<line fill="none" stroke="#FFFFFF" stroke-width="0.5" stroke-miterlimit="10" x1="12.979" y1="11.528" x2="12.979" y2="12.813"/>
<polyline fill="none" stroke="#FFFFFF" stroke-width="0.5" stroke-miterlimit="10" points="6.915,12.813 6.915,11.528 
	18.775,11.528 18.775,12.813 "/>
</svg>
