<?xml version="1.0" encoding="utf-8"?>
<!-- Generator: Adobe Illustrator 16.0.0, SVG Export Plug-In . SVG Version: 6.00 Build 0)  -->
<!DOCTYPE svg PUBLIC "-//W3C//DTD SVG 1.1//EN" "http://www.w3.org/Graphics/SVG/1.1/DTD/svg11.dtd">
<svg version="1.1" id="Layer_1" xmlns="http://www.w3.org/2000/svg" xmlns:xlink="http://www.w3.org/1999/xlink" x="0px" y="0px"
	 width="25.94px" height="25.941px" viewBox="0 0 25.94 25.941" enable-background="new 0 0 25.94 25.941" xml:space="preserve">
<circle fill="#58595B" cx="12.97" cy="12.97" r="10.85"/>
<circle fill="none" stroke="#58595B" stroke-miterlimit="10" cx="12.97" cy="12.97" r="12.47"/>
<g>
	<path fill="#FFFFFF" d="M19.687,7.212c0,1.06-3.006,1.92-6.717,1.92c-3.709,0-6.717-0.86-6.717-1.92
		c0-1.059,3.008-1.918,6.717-1.918C16.681,5.294,19.687,6.154,19.687,7.212"/>
	<path fill="#FFFFFF" d="M12.97,10.092c-0.604,0-4.799-0.053-6.717-1.343v2.302c0,1.06,3.008,1.919,6.717,1.919
		c3.711,0,6.717-0.859,6.717-1.919V8.75C17.769,10.04,13.573,10.092,12.97,10.092"/>
	<path fill="#FFFFFF" d="M12.97,13.931c-0.604,0-4.799-0.054-6.717-1.344v2.302c0,1.06,3.008,1.92,6.717,1.92
		c3.711,0,6.717-0.86,6.717-1.92v-2.302C17.769,13.877,13.573,13.931,12.97,13.931"/>
	<path fill="#FFFFFF" d="M12.97,17.769c-0.604,0-4.799-0.053-6.717-1.343v2.302c0,1.059,3.008,1.919,6.717,1.919
		c3.711,0,6.717-0.86,6.717-1.919v-2.302C17.769,17.716,13.573,17.769,12.97,17.769"/>
</g>
</svg>
