<?xml version="1.0" encoding="utf-8"?>
<!-- Generator: Adobe Illustrator 16.0.0, SVG Export Plug-In . SVG Version: 6.00 Build 0)  -->
<!DOCTYPE svg PUBLIC "-//W3C//DTD SVG 1.1//EN" "http://www.w3.org/Graphics/SVG/1.1/DTD/svg11.dtd">
<svg version="1.1" id="Layer_1" xmlns="http://www.w3.org/2000/svg" xmlns:xlink="http://www.w3.org/1999/xlink" x="0px" y="0px"
	 width="25.941px" height="25.94px" viewBox="0 0 25.941 25.94" enable-background="new 0 0 25.941 25.94" xml:space="preserve">
<circle fill="none" stroke="#000000" stroke-miterlimit="10" cx="12.971" cy="12.97" r="12.471"/>
<path fill="#000000" d="M19.688,7.12c0,1.06-3.006,1.92-6.717,1.92c-3.709,0-6.717-0.86-6.717-1.92c0-1.059,3.008-1.918,6.717-1.918
	C16.682,5.202,19.688,6.062,19.688,7.12"/>
<path fill="#000000" d="M12.971,10c-0.604,0-4.799-0.053-6.717-1.343v2.302c0,1.06,3.007,1.919,6.717,1.919
	c3.711,0,6.717-0.859,6.717-1.919V8.657C17.77,9.947,13.574,10,12.971,10"/>
<path fill="#000000" d="M12.971,13.839c-0.604,0-4.799-0.054-6.717-1.344v2.302c0,1.06,3.007,1.92,6.717,1.92
	c3.711,0,6.717-0.86,6.717-1.92v-2.302C17.77,13.785,13.574,13.839,12.971,13.839"/>
<path fill="#000000" d="M12.971,17.677c-0.604,0-4.799-0.053-6.717-1.343v2.302c0,1.059,3.007,1.919,6.717,1.919
	c3.711,0,6.717-0.86,6.717-1.919v-2.302C17.77,17.624,13.574,17.677,12.971,17.677"/>
</svg>
