<?xml version="1.0" encoding="utf-8"?>
<!-- Generator: Adobe Illustrator 16.0.0, SVG Export Plug-In . SVG Version: 6.00 Build 0)  -->
<!DOCTYPE svg PUBLIC "-//W3C//DTD SVG 1.1//EN" "http://www.w3.org/Graphics/SVG/1.1/DTD/svg11.dtd">
<svg version="1.1" id="Layer_1" xmlns="http://www.w3.org/2000/svg" xmlns:xlink="http://www.w3.org/1999/xlink" x="0px" y="0px"
	 width="25.941px" height="25.941px" viewBox="0 0 25.941 25.941" enable-background="new 0 0 25.941 25.941" xml:space="preserve">
<circle fill="#000000" cx="12.972" cy="12.971" r="10.85"/>
<circle fill="none" stroke="#000000" stroke-miterlimit="10" cx="12.971" cy="12.97" r="12.471"/>
<path fill-rule="evenodd" clip-rule="evenodd" fill="#FFFFFF" d="M18.15,7.244c-2.196,0-4.385,0-6.58,0c0-0.311,0-0.604,0-0.908
	c2.504,0,5.004,0,7.511,0c0,4.074,0,8.142,0,12.218c-4.075,0-8.144,0-12.22,0c0-2.496,0-4.984,0-7.482c0.299,0,0.594,0,0.908,0
	c0,2.186,0,4.369,0,6.559c3.47,0,6.92,0,10.381,0C18.15,14.175,18.15,10.722,18.15,7.244z"/>
<path fill-rule="evenodd" clip-rule="evenodd" fill="#FFFFFF" d="M12.586,11.271c0-0.82,0-1.64,0-2.474c0.309,0,0.607,0,0.918,0
	c0,1.359,0,2.722,0,4.097c-1.363,0-2.729,0-4.101,0c0-0.301,0-0.6,0-0.914c0.835,0,1.665,0,2.515,0
	C9.305,9.367,9.647,9.708,7.059,7.121c0.233-0.232,0.443-0.441,0.649-0.648c2.581,2.582,2.236,2.236,4.829,4.828
	C12.553,11.29,12.569,11.28,12.586,11.271z"/>
</svg>
