<?xml version="1.0" encoding="utf-8"?>
<!-- Generator: Adobe Illustrator 16.0.0, SVG Export Plug-In . SVG Version: 6.00 Build 0)  -->
<!DOCTYPE svg PUBLIC "-//W3C//DTD SVG 1.1//EN" "http://www.w3.org/Graphics/SVG/1.1/DTD/svg11.dtd">
<svg version="1.1" id="Layer_1" xmlns="http://www.w3.org/2000/svg" xmlns:xlink="http://www.w3.org/1999/xlink" x="0px" y="0px"
	 width="25.941px" height="25.94px" viewBox="0 0 25.941 25.94" enable-background="new 0 0 25.941 25.94" xml:space="preserve">
<circle fill="#58595B" cx="12.971" cy="12.97" r="10.85"/>
<circle fill="none" stroke="#58595B" stroke-miterlimit="10" cx="12.971" cy="12.969" r="12.471"/>
<path fill-rule="evenodd" clip-rule="evenodd" fill="#FFFFFF" d="M13.426,16.053c0.268-0.279,0.523-0.541,0.771-0.809
	c0.295-0.32,0.632-0.346,0.949-0.014c1.205,1.258,2.435,2.49,3.645,3.742c0.158,0.164,0.314,0.23,0.552,0.178
	c0-0.064,0-0.135,0-0.205c0-1.863-0.001-3.727,0.001-5.59c0-0.352,0.252-0.564,0.564-0.479c0.167,0.045,0.271,0.16,0.312,0.324
	c0.02,0.082,0.022,0.168,0.022,0.254c0.002,2.008,0.002,4.018,0.001,6.027c0,0.443-0.147,0.59-0.592,0.59c-4.358,0-8.718,0-13.077,0
	c-0.437,0-0.578-0.143-0.578-0.58c0-4.324,0-8.646,0-12.969c0-0.426,0.145-0.574,0.566-0.574c2.484,0,4.968,0,7.451,0
	c0.35,0,0.55,0.166,0.547,0.447c-0.003,0.219-0.158,0.396-0.377,0.424c-0.072,0.008-0.146,0.006-0.219,0.006
	c-2.277,0-4.554,0-6.83,0c-0.078,0-0.156,0-0.248,0c0,2.986,0,5.953,0,8.959c0.061-0.059,0.106-0.1,0.148-0.145
	c0.829-0.867,1.656-1.734,2.485-2.602c0.259-0.27,0.517-0.273,0.788-0.012c0.986,0.959,1.973,1.918,2.959,2.879
	C13.314,15.952,13.363,15.997,13.426,16.053z M9.922,13.893c-0.032,0.027-0.047,0.039-0.06,0.053
	c-0.97,1.018-1.94,2.033-2.905,3.057c-0.051,0.053-0.08,0.148-0.08,0.225c-0.008,0.523-0.004,1.047-0.004,1.57
	c0,0.127,0,0.252,0,0.375c0.039,0.012,0.055,0.021,0.072,0.021c1.084,0,2.166,0.002,3.25-0.002c0.047,0,0.104-0.029,0.139-0.064
	c0.779-0.777,1.557-1.557,2.335-2.336c0.038-0.039,0.071-0.08,0.112-0.125C11.825,15.739,10.878,14.821,9.922,13.893z M17.78,19.186
	c-1.056-1.068-2.077-2.105-3.058-3.098c-1.053,1.053-2.09,2.088-3.101,3.098C13.625,19.186,15.68,19.186,17.78,19.186z"/>
<path fill-rule="evenodd" clip-rule="evenodd" fill="#FFFFFF" d="M16.736,10.842c-0.608,0.006-1.17,0.113-1.709,0.338
	c-0.819,0.344-1.514,0.875-2.159,1.473c-0.241,0.225-0.469,0.461-0.7,0.693c-0.168,0.17-0.332,0.215-0.521,0.135
	c-0.199-0.084-0.283-0.23-0.278-0.48c0.047-2.264,1.132-3.896,3.056-5.012c0.679-0.393,1.41-0.654,2.188-0.768
	c0.126-0.018,0.124-0.084,0.124-0.174c0-0.547,0-1.096,0-1.643c0.001-0.078,0-0.16,0.014-0.236c0.062-0.318,0.42-0.457,0.68-0.264
	c0.049,0.035,0.091,0.08,0.135,0.123c1.185,1.164,2.369,2.328,3.555,3.494c0.289,0.285,0.293,0.488,0.01,0.773
	c-1.197,1.203-2.394,2.408-3.592,3.611c-0.238,0.242-0.562,0.23-0.731-0.029c-0.046-0.072-0.065-0.17-0.066-0.258
	c-0.006-0.523-0.003-1.047-0.003-1.57C16.736,10.985,16.736,10.92,16.736,10.842z M17.613,6.379c0,0.357,0,0.73,0,1.105
	c-0.002,0.383-0.143,0.514-0.519,0.555c-2.074,0.225-3.584,1.264-4.492,3.152c-0.093,0.191-0.147,0.404-0.219,0.607
	c0.108-0.035,0.177-0.092,0.245-0.15c1.289-1.107,2.736-1.799,4.484-1.705c0.328,0.018,0.494,0.168,0.498,0.494
	c0.004,0.328,0.001,0.658,0.003,0.986c0,0.043,0.011,0.086,0.016,0.131c-0.008-0.014-0.015-0.029-0.022-0.043
	c0.871-0.854,1.744-1.707,2.629-2.572C19.362,8.086,18.492,7.237,17.613,6.379z"/>
<path fill-rule="evenodd" clip-rule="evenodd" fill="#FFFFFF" d="M9.571,11.538c-0.991,0.004-1.805-0.807-1.806-1.793
	c0-0.986,0.799-1.791,1.783-1.797c0.991-0.006,1.807,0.795,1.815,1.785C11.374,10.717,10.561,11.536,9.571,11.538z M10.506,9.741
	c-0.002-0.504-0.414-0.916-0.918-0.916s-0.915,0.41-0.917,0.914c-0.002,0.516,0.41,0.928,0.925,0.924
	C10.103,10.657,10.506,10.249,10.506,9.741z"/>
</svg>
