<?xml version="1.0" encoding="utf-8"?>
<!-- Generator: Adobe Illustrator 16.0.0, SVG Export Plug-In . SVG Version: 6.00 Build 0)  -->
<!DOCTYPE svg PUBLIC "-//W3C//DTD SVG 1.1//EN" "http://www.w3.org/Graphics/SVG/1.1/DTD/svg11.dtd">
<svg version="1.1" id="Layer_1" xmlns="http://www.w3.org/2000/svg" xmlns:xlink="http://www.w3.org/1999/xlink" x="0px" y="0px"
	 width="25.941px" height="25.941px" viewBox="0 0 25.941 25.941" enable-background="new 0 0 25.941 25.941" xml:space="preserve">
<circle fill="none" stroke="#000000" stroke-miterlimit="10" cx="12.971" cy="12.971" r="12.471"/>
<path fill-rule="evenodd" clip-rule="evenodd" fill="#000000" d="M18.15,7.692c-2.196,0-4.385,0-6.58,0c0-0.31,0-0.604,0-0.907
	c2.504,0,5.004,0,7.511,0c0,4.074,0,8.143,0,12.219c-4.075,0-8.144,0-12.22,0c0-2.496,0-4.986,0-7.482c0.299,0,0.594,0,0.908,0
	c0,2.186,0,4.367,0,6.557c3.47,0,6.92,0,10.381,0C18.15,14.625,18.15,11.172,18.15,7.692z"/>
<path fill-rule="evenodd" clip-rule="evenodd" fill="#000000" d="M12.586,11.721c0-0.821,0-1.641,0-2.475c0.309,0,0.607,0,0.918,0
	c0,1.358,0,2.723,0,4.098c-1.363,0-2.729,0-4.101,0c0-0.303,0-0.6,0-0.915c0.835,0,1.665,0,2.515,0
	c-2.613-2.613-2.271-2.271-4.859-4.859c0.233-0.232,0.443-0.441,0.649-0.647c2.581,2.581,2.236,2.236,4.829,4.828
	C12.553,11.74,12.569,11.73,12.586,11.721z"/>
</svg>
