<?xml version="1.0" encoding="utf-8"?>
<!-- Generator: Adobe Illustrator 16.0.0, SVG Export Plug-In . SVG Version: 6.00 Build 0)  -->
<!DOCTYPE svg PUBLIC "-//W3C//DTD SVG 1.1//EN" "http://www.w3.org/Graphics/SVG/1.1/DTD/svg11.dtd">
<svg version="1.1" id="Layer_1" xmlns="http://www.w3.org/2000/svg" xmlns:xlink="http://www.w3.org/1999/xlink" x="0px" y="0px"
	 width="25.94px" height="25.941px" viewBox="0 0 25.94 25.941" enable-background="new 0 0 25.94 25.941" xml:space="preserve">
<circle fill="none" stroke="#58595B" stroke-miterlimit="10" cx="12.97" cy="12.971" r="12.47"/>
<path fill-rule="evenodd" clip-rule="evenodd" fill="#58595B" d="M12.972,17.122c-2.356,0-4.713,0-7.07,0
	c-0.35,0-0.48-0.129-0.48-0.474c0.001-3.162,0.001-6.324,0.001-9.486C5.423,6.84,5.56,6.704,5.882,6.704c4.725,0,9.451,0,14.176,0
	c0.323,0,0.461,0.136,0.461,0.457c0,3.166,0.002,6.331,0.002,9.497c0,0.329-0.136,0.464-0.467,0.464
	C17.693,17.122,15.333,17.122,12.972,17.122z M19.907,15.305c0-2.67,0-5.33,0-7.986c-4.633,0-9.255,0-13.876,0
	c0,2.667,0,5.323,0,7.986C10.659,15.305,15.278,15.305,19.907,15.305z"/>
<path fill-rule="evenodd" clip-rule="evenodd" fill="#58595B" d="M11.31,17.578c1.113,0,2.207,0,3.311,0
	c0.012,0.161,0.018,0.323,0.034,0.482c0.046,0.438,0.261,0.745,0.7,0.865c0.109,0.03,0.15,0.099,0.137,0.204
	c-0.014,0.111-0.098,0.106-0.18,0.106c-1.564,0-3.129-0.001-4.691,0c-0.081,0-0.156-0.003-0.17-0.104
	c-0.012-0.093,0.012-0.172,0.111-0.197c0.537-0.137,0.717-0.531,0.744-1.033c0.004-0.055,0.004-0.109,0.004-0.164
	C11.31,17.688,11.31,17.639,11.31,17.578z"/>
</svg>
