<?xml version="1.0" encoding="utf-8"?>
<!-- Generator: Adobe Illustrator 16.0.0, SVG Export Plug-In . SVG Version: 6.00 Build 0)  -->
<!DOCTYPE svg PUBLIC "-//W3C//DTD SVG 1.1//EN" "http://www.w3.org/Graphics/SVG/1.1/DTD/svg11.dtd">
<svg version="1.1" id="Layer_1" xmlns="http://www.w3.org/2000/svg" xmlns:xlink="http://www.w3.org/1999/xlink" x="0px" y="0px"
	 width="25.941px" height="25.941px" viewBox="0 0 25.941 25.941" enable-background="new 0 0 25.941 25.941" xml:space="preserve">
<circle fill="#000000" cx="12.971" cy="12.971" r="10.85"/>
<circle fill="none" stroke="#000000" stroke-miterlimit="10" cx="12.971" cy="12.971" r="12.471"/>
<path fill-rule="evenodd" clip-rule="evenodd" fill="#FFFFFF" d="M13.279,5.399c0.261,0.042,0.523,0.073,0.781,0.129
	c1.937,0.423,3.434,2.089,3.666,4.056c0.109,0.921-0.094,1.778-0.475,2.605c-0.369,0.803-0.855,1.534-1.363,2.251
	c-0.659,0.926-1.286,1.87-1.767,2.904c-0.423,0.91-0.765,1.847-0.956,2.834c-0.014,0.073-0.014,0.154-0.043,0.222
	c-0.022,0.055-0.079,0.095-0.121,0.142c-0.044-0.044-0.112-0.082-0.127-0.134c-0.063-0.227-0.103-0.459-0.165-0.687
	c-0.483-1.738-1.28-3.325-2.313-4.801C9.9,14.212,9.4,13.503,8.934,12.774c-0.598-0.93-0.836-1.963-0.72-3.06
	c0.19-1.795,1.11-3.093,2.735-3.882c0.496-0.24,1.025-0.369,1.576-0.413c0.033-0.003,0.064-0.014,0.098-0.021
	C12.842,5.399,13.061,5.399,13.279,5.399z M11.206,10.229c0.001,1.024,0.823,1.885,1.799,1.883c1.008-0.002,1.829-0.844,1.833-1.878
	c0.004-1.021-0.809-1.826-1.841-1.823C12.006,8.413,11.206,9.225,11.206,10.229z"/>
</svg>
