<?xml version="1.0" encoding="utf-8"?>
<!-- Generator: Adobe Illustrator 16.0.0, SVG Export Plug-In . SVG Version: 6.00 Build 0)  -->
<!DOCTYPE svg PUBLIC "-//W3C//DTD SVG 1.1//EN" "http://www.w3.org/Graphics/SVG/1.1/DTD/svg11.dtd">
<svg version="1.1" id="Layer_1" xmlns="http://www.w3.org/2000/svg" xmlns:xlink="http://www.w3.org/1999/xlink" x="0px" y="0px"
	 width="25.942px" height="25.941px" viewBox="0 0 25.942 25.941" enable-background="new 0 0 25.942 25.941" xml:space="preserve">
<circle fill="#000000" cx="12.972" cy="12.971" r="10.85"/>
<circle fill="none" stroke="#000000" stroke-miterlimit="10" cx="12.971" cy="12.971" r="12.471"/>
<path fill="#FFFFFF" d="M17.089,15.269v-4.598c0.833-0.423,1.411-1.278,1.411-2.275c0-1.417-1.148-2.563-2.563-2.563
	s-2.562,1.146-2.562,2.563c0,0.03,0.008,0.059,0.01,0.09l-4.817,2.508c-0.429-0.325-0.958-0.525-1.536-0.525
	c-1.417,0-2.564,1.148-2.564,2.562c0,1.417,1.147,2.564,2.564,2.564c0.646,0,1.23-0.25,1.682-0.645l4.678,2.435
	c-0.003,0.055-0.016,0.106-0.016,0.161c0,1.415,1.146,2.562,2.562,2.562s2.563-1.147,2.563-2.562
	C18.5,16.548,17.922,15.692,17.089,15.269z M9.596,12.933l4.803-2.499c0.146,0.109,0.307,0.198,0.473,0.276v4.516
	c-0.146,0.067-0.287,0.145-0.416,0.236L9.596,12.933z"/>
</svg>
