<?xml version="1.0" encoding="utf-8"?>
<!-- Generator: Adobe Illustrator 16.0.0, SVG Export Plug-In . SVG Version: 6.00 Build 0)  -->
<!DOCTYPE svg PUBLIC "-//W3C//DTD SVG 1.1//EN" "http://www.w3.org/Graphics/SVG/1.1/DTD/svg11.dtd">
<svg version="1.1" id="Layer_1" xmlns="http://www.w3.org/2000/svg" xmlns:xlink="http://www.w3.org/1999/xlink" x="0px" y="0px"
	 width="25.941px" height="25.941px" viewBox="0 0 25.941 25.941" enable-background="new 0 0 25.941 25.941" xml:space="preserve">
<circle fill="none" stroke="#000000" stroke-miterlimit="10" cx="12.971" cy="12.971" r="12.471"/>
<path fill-rule="evenodd" clip-rule="evenodd" fill="#000000" d="M10.335,20.329c0-0.106,0-0.167,0-0.229
	c0-1.508-0.002-3.017,0.003-4.524c0-0.119-0.033-0.169-0.148-0.204c-1.889-0.58-3.506-1.624-4.971-2.922
	c-0.45-0.398-0.877-0.822-1.335-1.252c0.196-0.191,0.379-0.365,0.558-0.545c1.272-1.287,2.705-2.348,4.365-3.084
	c1.447-0.642,2.96-0.967,4.546-0.91c1.724,0.062,3.315,0.574,4.811,1.416c1.464,0.824,2.726,1.898,3.896,3.111
	c-0.894,0.988-1.857,1.891-2.961,2.638c-1.104,0.745-2.285,1.319-3.583,1.662c0,1.613,0,3.22,0,4.856
	c-0.055-0.047-0.089-0.072-0.118-0.103c-0.283-0.281-0.562-0.566-0.85-0.845c-0.5-0.483-1.08-0.772-1.795-0.675
	c-0.6,0.081-1.107,0.362-1.547,0.77C10.92,19.752,10.646,20.027,10.335,20.329z M10.105,11.383c-0.004,1.523,1.235,2.77,2.764,2.779
	c1.523,0.011,2.785-1.244,2.788-2.772c0.002-1.521-1.244-2.773-2.767-2.78C11.363,8.604,10.107,9.853,10.105,11.383z M14.563,7.891
	c1.226,0.673,1.987,1.677,2.142,3.072c0.154,1.391-0.361,2.536-1.438,3.459c1.56-0.307,4.549-2.145,5.271-3.229
	C18.821,9.594,16.92,8.331,14.563,7.891z M11.078,7.955C8.872,8.459,7.051,9.634,5.438,11.18c1.15,1.228,3.939,2.987,4.85,3.068
	C8.318,12.452,8.715,9.227,11.078,7.955z M11.416,18.031c1.007-0.498,2-0.568,3.014-0.059c0-0.765,0-1.508,0-2.266
	c-1.01,0.139-2.01,0.132-3.014-0.039C11.416,16.457,11.416,17.231,11.416,18.031z"/>
</svg>
