<?xml version="1.0" encoding="utf-8"?>
<!-- Generator: Adobe Illustrator 16.0.0, SVG Export Plug-In . SVG Version: 6.00 Build 0)  -->
<!DOCTYPE svg PUBLIC "-//W3C//DTD SVG 1.1//EN" "http://www.w3.org/Graphics/SVG/1.1/DTD/svg11.dtd">
<svg version="1.1" id="Layer_1" xmlns="http://www.w3.org/2000/svg" xmlns:xlink="http://www.w3.org/1999/xlink" x="0px" y="0px"
	 width="25.941px" height="25.94px" viewBox="0 0 25.941 25.94" enable-background="new 0 0 25.941 25.94" xml:space="preserve">
<circle fill="#58595B" cx="12.971" cy="12.97" r="10.85"/>
<circle fill="none" stroke="#58595B" stroke-miterlimit="10" cx="12.971" cy="12.97" r="12.471"/>
<g>
	<path fill-rule="evenodd" clip-rule="evenodd" fill="#FFFFFF" d="M9.498,9.006C9.162,9.268,8.863,9.495,8.57,9.73
		C8.486,9.798,8.406,9.878,8.346,9.967c-0.252,0.369-0.14,0.769,0.271,0.944c0.354,0.152,0.722,0.158,1.089,0.049
		c0.633-0.188,1.16-0.564,1.684-0.952c0.076-0.056,0.184-0.096,0.278-0.097c0.55-0.009,1.101-0.007,1.651-0.001
		c0.094,0.001,0.197,0.022,0.277,0.07c0.523,0.318,1.055,0.627,1.559,0.977c1.531,1.062,3.05,2.145,4.576,3.217
		c0.174,0.122,0.303,0.269,0.334,0.483c0.041,0.283-0.043,0.521-0.291,0.674c-0.255,0.157-0.52,0.159-0.77-0.01
		c-0.396-0.271-0.787-0.551-1.182-0.826c-0.925-0.647-1.85-1.295-2.774-1.943c-0.038-0.025-0.075-0.055-0.116-0.076
		c-0.113-0.062-0.217-0.042-0.289,0.063c-0.072,0.104-0.055,0.209,0.041,0.295c0.039,0.034,0.084,0.062,0.126,0.093
		c1.12,0.783,2.239,1.568,3.358,2.35c0.174,0.122,0.304,0.271,0.332,0.486c0.038,0.284-0.049,0.52-0.297,0.672
		c-0.262,0.161-0.528,0.152-0.783-0.024c-0.744-0.521-1.49-1.043-2.234-1.563c-0.252-0.177-0.502-0.354-0.754-0.528
		c-0.146-0.1-0.271-0.089-0.352,0.026c-0.076,0.111-0.043,0.237,0.1,0.337c0.777,0.545,1.556,1.09,2.335,1.633
		c0.164,0.115,0.284,0.258,0.316,0.458c0.046,0.281-0.036,0.521-0.28,0.68c-0.257,0.166-0.527,0.171-0.783-0.005
		c-0.652-0.451-1.301-0.906-1.951-1.36c-0.382-0.266-0.761-0.53-1.141-0.795c-0.155-0.107-0.285-0.102-0.366,0.014
		c-0.081,0.116-0.046,0.237,0.112,0.348c0.838,0.589,1.679,1.177,2.518,1.765c0.236,0.166,0.336,0.394,0.293,0.678
		c-0.039,0.258-0.191,0.43-0.434,0.52c-0.215,0.078-0.424,0.057-0.613-0.071c-0.264-0.179-0.525-0.361-0.782-0.55
		c-0.038-0.028-0.075-0.109-0.062-0.149c0.208-0.614-0.275-1.457-1.117-1.408c-0.01,0-0.021-0.005-0.051-0.011
		c0.106-0.326,0.092-0.647-0.077-0.95c-0.114-0.202-0.276-0.356-0.487-0.455c-0.362-0.169-0.939-0.181-1.412,0.353
		c-0.144-0.345-0.37-0.603-0.734-0.703c-0.362-0.1-0.699-0.027-1.019,0.185c-0.022-0.044-0.04-0.078-0.056-0.113
		c-0.356-0.797-1.416-0.912-1.936-0.21c-0.121,0.162-0.232,0.331-0.363,0.515c-0.23-0.111-0.468-0.225-0.719-0.345
		c0.139-0.421,0.273-0.83,0.41-1.241c0.417-1.25,0.836-2.501,1.248-3.753C7.07,9.585,7.137,9.522,7.257,9.479
		c0.62-0.233,1.253-0.409,1.917-0.461C9.237,9.014,9.302,9.01,9.365,9.006C9.393,9.005,9.421,9.006,9.498,9.006z"/>
	<path fill-rule="evenodd" clip-rule="evenodd" fill="#FFFFFF" d="M18.908,9.702c0.504,1.512,1.006,3.018,1.508,4.523
		c-0.195-0.294-0.495-0.455-0.768-0.646c-1.533-1.081-3.061-2.168-4.602-3.237c-0.432-0.299-0.898-0.548-1.354-0.812
		c-0.074-0.045-0.175-0.064-0.264-0.064c-0.637-0.007-1.273-0.008-1.91,0.001c-0.1,0.002-0.209,0.052-0.297,0.107
		c-0.436,0.272-0.855,0.57-1.299,0.83c-0.271,0.16-0.58,0.229-0.904,0.166c-0.051-0.011-0.102-0.019-0.15-0.035
		c-0.243-0.079-0.281-0.231-0.09-0.404c0.137-0.123,0.286-0.233,0.436-0.343c0.547-0.399,1.082-0.818,1.647-1.188
		c0.744-0.487,1.559-0.565,2.392-0.254c0.875,0.327,1.688,0.784,2.492,1.255c0.102,0.061,0.234,0.098,0.354,0.099
		c0.869,0.008,1.737,0.004,2.606,0.004C18.771,9.702,18.834,9.702,18.908,9.702z"/>
	<path fill-rule="evenodd" clip-rule="evenodd" fill="#FFFFFF" d="M19.193,9.156c1.064-0.238,2.102-0.471,3.152-0.706
		c0,2.146,0,4.283,0,6.437c-0.393,0-0.779,0.006-1.166-0.008c-0.047-0.002-0.109-0.101-0.131-0.166
		c-0.483-1.436-0.961-2.873-1.439-4.31C19.473,9.993,19.336,9.582,19.193,9.156z M21.138,9.1c-0.501-0.002-0.892,0.377-0.896,0.868
		c-0.006,0.489,0.402,0.9,0.893,0.899c0.485-0.001,0.881-0.398,0.882-0.888C22.018,9.479,21.641,9.103,21.138,9.1z"/>
	<path fill-rule="evenodd" clip-rule="evenodd" fill="#FFFFFF" d="M3.597,14.888c0-2.15,0-4.284,0-6.438
		C4.646,8.686,5.69,8.92,6.75,9.158C6.574,9.686,6.402,10.2,6.23,10.715c-0.443,1.332-0.889,2.665-1.328,3.998
		c-0.043,0.129-0.096,0.184-0.241,0.179C4.311,14.879,3.957,14.888,3.597,14.888z M3.928,9.968
		c-0.004,0.497,0.389,0.895,0.885,0.897c0.48,0.004,0.884-0.396,0.889-0.88c0.004-0.489-0.398-0.897-0.891-0.899
		C4.328,9.085,3.93,9.481,3.928,9.968z"/>
	<path fill-rule="evenodd" clip-rule="evenodd" fill="#FFFFFF" d="M11.829,16.039c-0.054,0.132-0.086,0.276-0.165,0.392
		c-0.362,0.536-0.736,1.066-1.111,1.594c-0.227,0.317-0.646,0.393-0.953,0.184c-0.309-0.213-0.383-0.63-0.16-0.953
		c0.371-0.539,0.746-1.074,1.124-1.607c0.184-0.259,0.482-0.355,0.767-0.263C11.613,15.477,11.795,15.729,11.829,16.039z"/>
	<path fill-rule="evenodd" clip-rule="evenodd" fill="#FFFFFF" d="M12.971,17.553c-0.059,0.135-0.098,0.283-0.179,0.402
		c-0.245,0.371-0.503,0.735-0.761,1.098c-0.23,0.323-0.657,0.4-0.966,0.181c-0.306-0.218-0.372-0.627-0.147-0.955
		c0.258-0.376,0.519-0.751,0.787-1.12c0.197-0.269,0.496-0.359,0.783-0.258C12.757,16.996,12.939,17.254,12.971,17.553z"/>
	<path fill-rule="evenodd" clip-rule="evenodd" fill="#FFFFFF" d="M8.504,17.288c-0.275-0.002-0.48-0.127-0.598-0.373
		c-0.111-0.234-0.098-0.453,0.077-0.676c0.207-0.269,0.372-0.57,0.565-0.85c0.245-0.356,0.652-0.438,0.979-0.204
		c0.32,0.228,0.373,0.627,0.129,0.981c-0.191,0.275-0.385,0.549-0.576,0.823C8.939,17.191,8.745,17.285,8.504,17.288z"/>
	<path fill-rule="evenodd" clip-rule="evenodd" fill="#FFFFFF" d="M8.038,15.235C8.033,15.259,8.035,15.338,8,15.392
		c-0.156,0.241-0.297,0.499-0.493,0.704c-0.222,0.233-0.618,0.214-0.859,0.013c-0.249-0.206-0.321-0.562-0.155-0.847
		c0.107-0.185,0.232-0.36,0.365-0.526c0.181-0.224,0.492-0.29,0.758-0.183C7.878,14.658,8.044,14.905,8.038,15.235z"/>
</g>
</svg>
