<?xml version="1.0" encoding="utf-8"?>
<!-- Generator: Adobe Illustrator 16.0.0, SVG Export Plug-In . SVG Version: 6.00 Build 0)  -->
<!DOCTYPE svg PUBLIC "-//W3C//DTD SVG 1.1//EN" "http://www.w3.org/Graphics/SVG/1.1/DTD/svg11.dtd">
<svg version="1.1" id="Layer_1" xmlns="http://www.w3.org/2000/svg" xmlns:xlink="http://www.w3.org/1999/xlink" x="0px" y="0px"
	 width="25.941px" height="25.941px" viewBox="0 0 25.941 25.941" enable-background="new 0 0 25.941 25.941" xml:space="preserve">
<circle fill="#FFFFFF" stroke="#000000" stroke-miterlimit="10" cx="12.971" cy="12.971" r="12.471"/>
<path fill-rule="evenodd" clip-rule="evenodd" fill="#000000" d="M17.188,15.252c0.007,0.723,0.009,1.445,0.021,2.168
	c0.01,0.524,0.521,0.867,0.998,0.675c0.284-0.113,0.465-0.387,0.468-0.714c0.001-0.462,0-0.925,0-1.386c0-0.046,0-0.091,0-0.162
	c0.432,0.16,0.851,0.306,1.056,0.754c0.016,0.035,0.029,0.072,0.029,0.109c0.002,0.662,0.002,1.326,0.002,1.999
	c-4.506,0-9.033,0-13.574,0c-0.002-0.038-0.007-0.078-0.007-0.119c0.011-0.626,0.015-1.252,0.037-1.877
	c0.003-0.104,0.065-0.216,0.125-0.307c0.138-0.212,0.346-0.343,0.575-0.433c0.549-0.219,1.101-0.429,1.652-0.642
	c0.633-0.245,1.268-0.486,1.899-0.736c0.084-0.033,0.173-0.098,0.222-0.172c0.135-0.212,0.26-0.431,0.368-0.657
	c0.052-0.106,0.109-0.168,0.226-0.18c0.062-0.006,0.122-0.025,0.229-0.05c-0.09-0.104-0.146-0.206-0.232-0.265
	c-0.16-0.11-0.252-0.252-0.291-0.438c-0.047-0.23-0.096-0.46-0.146-0.689c-0.038-0.172-0.122-0.308-0.263-0.427
	c-0.102-0.087-0.18-0.229-0.211-0.36c-0.064-0.269-0.095-0.545-0.13-0.818c-0.018-0.133-0.029-0.269-0.021-0.402
	c0.011-0.195,0.056-0.285,0.288-0.284c1.617,0.007,3.233,0.004,4.85,0.004c0.21,0,0.297,0.086,0.27,0.293
	c-0.055,0.433-0.115,0.865-0.182,1.296c-0.027,0.187-0.099,0.339-0.307,0.403c-0.07,0.022-0.141,0.128-0.158,0.207
	c-0.041,0.17-0.059,0.347-0.068,0.522c-0.015,0.224-0.092,0.413-0.247,0.576c-0.112,0.118-0.185,0.258-0.17,0.438
	c0.054,0.012,0.106,0.032,0.16,0.03c0.167-0.005,0.247,0.083,0.312,0.228c0.092,0.197,0.207,0.383,0.317,0.571
	c0.068,0.114,0.171,0.183,0.302,0.23c0.537,0.199,1.071,0.411,1.607,0.617L17.188,15.252z"/>
<path fill-rule="evenodd" clip-rule="evenodd" fill="#000000" d="M9.579,9.489c0-0.169,0-0.331,0-0.506c0.168,0,0.33,0,0.506,0
	c0-0.2-0.006-0.389,0.001-0.576c0.03-0.81,0.313-1.514,0.899-2.083c0.432-0.419,0.951-0.669,1.548-0.748
	c0.116-0.016,0.198-0.036,0.226-0.175c0.018-0.094,0.082-0.182,0.199-0.178c0.119,0.005,0.176,0.1,0.201,0.196
	c0.025,0.103,0.078,0.135,0.178,0.15c1.219,0.195,1.988,0.91,2.338,2.077c0.085,0.281,0.094,0.586,0.123,0.881
	c0.016,0.149,0.003,0.302,0.003,0.466c0.169,0,0.33,0,0.501,0c0,0.171,0,0.329,0,0.495C14.063,9.489,11.823,9.489,9.579,9.489z"/>
<path fill-rule="evenodd" clip-rule="evenodd" fill="#000000" d="M17.192,15.257c-0.006-0.953-0.014-1.906-0.016-2.859
	c-0.001-0.095-0.028-0.147-0.112-0.197c-0.958-0.579-1.015-1.96-0.108-2.604c0.033-0.024,0.068-0.045,0.13-0.084
	c0,0.062,0,0.1,0,0.139c0,0.34,0.003,0.68-0.001,1.021c-0.002,0.073,0.022,0.112,0.086,0.147c0.21,0.115,0.417,0.235,0.621,0.358
	c0.061,0.036,0.103,0.032,0.159-0.003c0.196-0.12,0.396-0.238,0.597-0.351c0.072-0.04,0.098-0.084,0.098-0.167
	c-0.006-0.328-0.003-0.655-0.003-0.982c0-0.045,0-0.09,0-0.17c0.106,0.078,0.19,0.13,0.264,0.196
	c0.756,0.672,0.677,1.869-0.165,2.451c-0.074,0.051-0.101,0.104-0.1,0.193c0.006,1.108,0.009,2.217,0.013,3.325
	c0,0.046,0,0.091,0,0.165c-0.156-0.062-0.3-0.116-0.44-0.172c-0.342-0.137-0.684-0.274-1.026-0.412L17.192,15.257z"/>
<path fill-rule="evenodd" clip-rule="evenodd" fill="#000000" d="M17.576,17.375c0.009-0.073-0.009-0.176,0.034-0.215
	c0.078-0.075,0.188-0.127,0.294-0.161c0.044-0.014,0.114,0.039,0.167,0.068c0.061,0.034,0.157,0.069,0.167,0.117
	c0.022,0.125,0.044,0.276-0.005,0.384c-0.041,0.088-0.181,0.138-0.285,0.188c-0.031,0.017-0.09-0.019-0.135-0.031
	c-0.012-0.003-0.021-0.011-0.033-0.017C17.585,17.603,17.585,17.603,17.576,17.375z"/>
</svg>
