<?xml version="1.0" encoding="utf-8"?>
<!-- Generator: Adobe Illustrator 16.0.0, SVG Export Plug-In . SVG Version: 6.00 Build 0)  -->
<!DOCTYPE svg PUBLIC "-//W3C//DTD SVG 1.1//EN" "http://www.w3.org/Graphics/SVG/1.1/DTD/svg11.dtd">
<svg version="1.1" id="Layer_1" xmlns="http://www.w3.org/2000/svg" xmlns:xlink="http://www.w3.org/1999/xlink" x="0px" y="0px"
	 width="25.941px" height="25.941px" viewBox="0 0 25.941 25.941" enable-background="new 0 0 25.941 25.941" xml:space="preserve">
<circle fill="#58595B" cx="12.971" cy="12.97" r="10.85"/>
<circle fill="none" stroke="#58595B" stroke-miterlimit="10" cx="12.971" cy="12.97" r="12.471"/>
<path fill-rule="evenodd" clip-rule="evenodd" fill="#FFFFFF" d="M17.188,15.251c0.007,0.723,0.009,1.445,0.021,2.168
	c0.01,0.525,0.521,0.867,0.998,0.676c0.284-0.113,0.465-0.387,0.468-0.715c0.001-0.461,0-0.924,0-1.385c0-0.047,0-0.092,0-0.162
	c0.432,0.16,0.851,0.305,1.056,0.754c0.016,0.035,0.029,0.072,0.029,0.109c0.002,0.662,0.002,1.326,0.002,1.998
	c-4.506,0-9.033,0-13.574,0c-0.002-0.037-0.007-0.078-0.007-0.119c0.011-0.625,0.015-1.252,0.037-1.877
	c0.003-0.104,0.065-0.215,0.125-0.307c0.138-0.211,0.346-0.342,0.575-0.432c0.549-0.219,1.101-0.43,1.652-0.643
	c0.633-0.244,1.268-0.486,1.899-0.736c0.084-0.033,0.173-0.098,0.222-0.172c0.135-0.211,0.26-0.43,0.368-0.656
	c0.052-0.107,0.109-0.168,0.226-0.18c0.062-0.006,0.122-0.025,0.229-0.051c-0.09-0.104-0.146-0.205-0.232-0.264
	c-0.16-0.111-0.252-0.252-0.291-0.438c-0.047-0.23-0.096-0.461-0.146-0.689c-0.038-0.172-0.122-0.309-0.263-0.428
	c-0.102-0.086-0.18-0.229-0.211-0.359c-0.064-0.27-0.095-0.545-0.13-0.818c-0.018-0.133-0.029-0.27-0.021-0.402
	c0.011-0.195,0.056-0.285,0.288-0.285c1.617,0.008,3.233,0.004,4.85,0.004c0.21,0,0.297,0.086,0.27,0.293
	c-0.055,0.434-0.115,0.865-0.182,1.297c-0.027,0.186-0.099,0.338-0.307,0.402c-0.07,0.023-0.141,0.129-0.158,0.207
	c-0.041,0.17-0.059,0.348-0.068,0.523c-0.015,0.223-0.092,0.412-0.247,0.576c-0.112,0.117-0.185,0.258-0.17,0.438
	c0.054,0.012,0.106,0.033,0.16,0.031c0.167-0.006,0.247,0.082,0.312,0.227c0.092,0.197,0.207,0.383,0.317,0.572
	c0.068,0.113,0.171,0.182,0.302,0.23c0.537,0.199,1.071,0.41,1.607,0.617L17.188,15.251z"/>
<path fill-rule="evenodd" clip-rule="evenodd" fill="#FFFFFF" d="M9.579,9.49c0-0.17,0-0.332,0-0.506c0.168,0,0.33,0,0.506,0
	c0-0.201-0.006-0.389,0.001-0.576c0.03-0.811,0.313-1.514,0.899-2.084c0.432-0.418,0.951-0.668,1.548-0.748
	c0.116-0.016,0.198-0.035,0.226-0.174c0.018-0.094,0.082-0.182,0.199-0.178c0.119,0.004,0.176,0.1,0.201,0.195
	c0.025,0.104,0.078,0.135,0.178,0.15c1.219,0.195,1.988,0.91,2.338,2.078c0.085,0.281,0.094,0.586,0.123,0.881
	c0.016,0.148,0.003,0.301,0.003,0.465c0.169,0,0.33,0,0.501,0c0,0.172,0,0.33,0,0.496C14.063,9.49,11.823,9.49,9.579,9.49z"/>
<path fill-rule="evenodd" clip-rule="evenodd" fill="#FFFFFF" d="M17.192,15.257c-0.006-0.953-0.014-1.906-0.016-2.859
	c-0.001-0.096-0.028-0.148-0.112-0.197c-0.958-0.58-1.015-1.961-0.108-2.604c0.033-0.025,0.068-0.045,0.13-0.084
	c0,0.061,0,0.1,0,0.139c0,0.34,0.003,0.68-0.001,1.02c-0.002,0.074,0.022,0.113,0.086,0.148c0.21,0.115,0.417,0.234,0.621,0.357
	c0.061,0.037,0.103,0.033,0.159-0.002c0.196-0.121,0.396-0.238,0.597-0.352c0.072-0.039,0.098-0.084,0.098-0.166
	c-0.006-0.328-0.003-0.656-0.003-0.982c0-0.045,0-0.09,0-0.17c0.106,0.078,0.19,0.129,0.264,0.195
	c0.756,0.672,0.677,1.869-0.165,2.451c-0.074,0.051-0.101,0.104-0.1,0.193c0.006,1.109,0.009,2.217,0.013,3.326
	c0,0.045,0,0.09,0,0.164c-0.156-0.061-0.3-0.115-0.44-0.172c-0.342-0.137-0.684-0.273-1.026-0.412L17.192,15.257z"/>
<path fill-rule="evenodd" clip-rule="evenodd" fill="#FFFFFF" d="M17.576,17.375c0.009-0.072-0.009-0.176,0.034-0.215
	c0.078-0.074,0.188-0.127,0.294-0.16c0.044-0.014,0.114,0.039,0.167,0.068c0.061,0.033,0.157,0.068,0.167,0.117
	c0.022,0.125,0.044,0.275-0.005,0.383c-0.041,0.088-0.181,0.139-0.285,0.189c-0.031,0.016-0.09-0.02-0.135-0.031
	c-0.012-0.004-0.021-0.012-0.033-0.018C17.585,17.603,17.585,17.603,17.576,17.375z"/>
</svg>
