<?xml version="1.0" encoding="utf-8"?>
<!-- Generator: Adobe Illustrator 16.0.0, SVG Export Plug-In . SVG Version: 6.00 Build 0)  -->
<!DOCTYPE svg PUBLIC "-//W3C//DTD SVG 1.1//EN" "http://www.w3.org/Graphics/SVG/1.1/DTD/svg11.dtd">
<svg version="1.1" id="Layer_1" xmlns="http://www.w3.org/2000/svg" xmlns:xlink="http://www.w3.org/1999/xlink" x="0px" y="0px"
	 width="25.941px" height="25.941px" viewBox="0 0 25.941 25.941" enable-background="new 0 0 25.941 25.941" xml:space="preserve">
<circle fill="none" stroke="#000000" stroke-miterlimit="10" cx="12.971" cy="12.97" r="12.471"/>
<path fill-rule="evenodd" clip-rule="evenodd" fill="#000000" d="M8.872,12.967c0-1.829-0.001-3.658,0.003-5.486
	c0-0.157,0.018-0.318,0.06-0.468C9.062,6.561,9.43,6.36,9.879,6.494c0.14,0.042,0.275,0.105,0.4,0.182
	c2.944,1.808,5.888,3.619,8.828,5.432c0.123,0.076,0.238,0.17,0.337,0.273c0.337,0.354,0.341,0.817,0.007,1.176
	c-0.102,0.107-0.221,0.203-0.348,0.28c-2.938,1.813-5.88,3.622-8.821,5.432c-0.19,0.117-0.39,0.209-0.616,0.219
	c-0.321,0.012-0.559-0.138-0.689-0.433c-0.08-0.183-0.104-0.377-0.104-0.575c0-0.777,0-1.554,0-2.331
	C8.872,15.088,8.872,14.027,8.872,12.967z"/>
</svg>
